<svg id="Capa_1" enable-background="new 0 0 512 512" height="512" viewBox="0 0 512 512" width="512" xmlns="http://www.w3.org/2000/svg"><g><path d="m417.541 101.928h40.746v104.032h-40.746z" fill="#d5dee2"/><path d="m439.363 506.804c-5.551 0-12.249 3.65-16.906 1.341-11.494-5.697-19.396-17.551-19.396-31.249v-162.569l6.62-14.374-6.62-16.534v-91.604c0-5.689 4.612-10.301 10.301-10.301h28.491l17.764 4.688c5.689 0 10.301 4.612 10.301 10.301l-2.217 278.194c0 19.249-9.089 32.107-28.338 32.107z" fill="#5de1c4"/><path d="m472.772 191.817v91.601l-10.274 14.788 10.274 16.12v140.309l-2.854 7.73 2.854 7.73v6.802c0 19.252-15.604 34.856-34.856 34.856-5.555 0-10.801-1.299-15.459-3.607 11.491-5.689 19.396-17.551 19.396-31.248v-295.387h20.612c5.69 0 10.307 4.617 10.307 10.306z" fill="#0ed2b3"/><path d="m403.061 454.636h63.802v15.459h-63.802z" fill="#86e8d0"/><path d="m403.061 283.419h59.437v30.908h-59.437z" fill="#86e8d0"/><path d="m441.853 283.419h30.919v30.908h-30.919z" fill="#5de1c4"/><path d="m441.853 454.636h30.919v15.459h-30.919z" fill="#5de1c4"/><path d="m472.772 5.162v26.466l-2.563 4.535c-22.791 0-34.92 15.912-34.92 38.703l-5.721 58.196h-16.201c-5.692 0-10.306-4.614-10.306-10.306v-53.016c0-36.669 28.221-66.778 64.167-69.723 2.989-.245 5.544 2.145 5.544 5.145z" fill="#e8edf2"/><g fill="#f5f8f9"><path d="m472.772 31.628v91.128c0 5.689-4.617 10.306-10.306 10.306h-32.897v-60.168c0-22.797 18.479-41.266 41.266-41.266z"/><path d="m222.032 377.716-22.936 59.54s-6.688 33.253-6.796 33.575c-5.716 17.086-17.505 31.496-33.148 40.482-3.627 2.084-8.081-.853-7.595-5.007l13.933-119.134 9.064-45.896z"/><path d="m186.439 53.525v-18.183c0-4.296-3.482-7.778-7.778-7.778h-23.18c-.993 0-1.919-.483-2.507-1.284-.348-.473-.701-.942-1.059-1.405-12.4-16.021-29.238-24.843-47.412-24.843s-35.012 8.823-47.411 24.843c-11.52 14.883-17.864 34.455-17.864 55.111s6.344 40.229 17.863 55.111c12.4 16.021 29.238 24.843 47.412 24.843 22.273 0 41.237 16.199 44.72 38.197l18.761 118.518 6.716 20.902h23.28l-5.29-71.032-18.584-126.725c-2.895-19.744-4.342-39.673-4.327-59.627v-.189-15.591c0-1.708 1.384-3.092 3.092-3.092h5.791c4.295.002 7.777-3.48 7.777-7.776zm-46.66 26.461c0 27.078-16.154 49.955-35.275 49.955s-35.275-22.877-35.275-49.955 16.154-49.954 35.275-49.954 35.275 22.876 35.275 49.954z"/></g><path d="m203.11 337.557-16.334 6.045-15.482-6.045-3.308-20.901c10.409-1.598 18.799-9.812 20.365-20.52l4.339-29.61z" fill="#e8edf2"/><path d="m222.032 377.72-29.414 92.138c-.103.33-.206.649-.33.969-.515-1.433-1.01-2.875-1.474-4.329l-25.322-79.327 5.802-49.614z" fill="#e8edf2"/><path d="m363.267 81.995c0-20.656-5.213-38.806-16.732-53.689-12.4-16.021-25.767-25.899-43.941-25.899-5.289 0-11.348-1.628-16.334-.174-12.147 3.543-23.17 11.283-31.961 22.642-.359.463-.712.932-1.059 1.405-.588.8-1.513 1.284-2.507 1.284h-23.179c-4.296 0-7.778 3.482-7.778 7.778v18.184c0 4.296 3.482 7.778 7.778 7.778h5.79c1.708 0 3.092 1.384 3.092 3.092v15.591.189c.019 19.924-1.423 39.823-4.314 59.537l-8.503 57.982 3.17 7.395-20.806 127.894-2.875 4.578h-31.814l39.158 122.668c2.556 8.007 6.092 15.593 10.487 22.607 6.657 10.626 10.513 12.251 20.683 19.723 3.602 2.646 8.627-.239 8.108-4.677l-21.363-160.323c-.044-.374-.036-.753.023-1.125l24.444-141.093c3.482-21.999 23.996-37.102 46.269-37.102 18.174 0 31.541-8.278 43.941-24.298 11.519-14.887 20.223-31.291 20.223-51.947zm-26.281-2.009c0 27.078-16.154 49.955-35.275 49.955-19.122 0-35.276-22.877-35.276-49.955s16.154-49.954 35.276-49.954c19.121 0 35.275 22.876 35.275 49.954z" fill="#f5f8f9"/><path d="m366.989 79.984c0 20.654-6.349 40.225-17.871 55.118-6.204 8.008-13.501 14.222-21.54 18.427-8.029 4.205-16.779 6.411-25.869 6.411-22.272 0-41.235 16.201-44.719 38.195l-22.055 138.866c-.052.371-.062.752-.021 1.123l19.582 167.445c.526 4.442-4.504 7.317-8.101 4.679-10.172-7.472-18.799-16.789-25.456-27.415l-17.832-145.275 20.511-139.866c3.484-21.993 24.911-37.753 47.182-37.753 9.09 0 17.84-2.206 25.879-6.411 8.029-4.205 15.336-10.419 21.54-18.427 7.925-10.255 13.408-22.736 16.047-36.247 1.752-5.854 2.721-12.233 2.721-18.871 0-6.637-.969-13.017-2.721-18.871-2.638-13.511-8.121-25.982-16.047-36.237-8.79-11.355-19.818-19.095-31.959-22.641 4.978-1.453 10.162-2.206 15.449-2.206 18.18 0 35.01 8.822 47.409 24.848 11.522 14.883 17.871 34.455 17.871 55.108z" fill="#e8edf2"/><g><path d="m232.33 414.948c0 10.801 1.761 21.192 5.017 30.896 16.646 33.995 48.666 60.96 91.465 60.96 53.6 0 92.606-38.255 92.606-91.856 0-42.798-27.094-72.13-61.139-92.036-9.705-3.257-20.096-5.015-30.898-5.015-53.599 0-97.051 43.451-97.051 97.051z" fill="#ff7e7b"/><path d="m426.435 414.947c0 53.603-43.451 97.053-97.054 97.053-42.802 0-79.131-27.703-92.034-66.155 9.708 3.267 20.107 5.029 30.908 5.029 53.603 0 97.054-43.451 97.054-97.053 0-10.801-1.762-21.2-5.029-30.908 38.452 12.902 66.155 49.232 66.155 92.034z" fill="#ff6464"/><path d="m279.201 397.202h30.373c1.138 0 2.061-.923 2.061-2.061v-30.373c0-1.138.923-2.061 2.061-2.061h31.371c1.138 0 2.061.923 2.061 2.061v30.373c0 1.138.923 2.061 2.061 2.061h5.906l22.673 1.545c1.138 0 2.061.923 2.061 2.061l.655 28.397c0 1.138-.923 2.061-2.061 2.061l-30.764-.102c-1.138 0-2.061.923-2.061 2.061l1.031 29.136c0 1.138-.923 2.061-2.061 2.061l-29.073 1.254c-1.138 0-2.061-.923-2.061-2.061l-1.799-22.955v-5.904c0-1.138-.923-2.061-2.061-2.061h-30.373c-1.138 0-2.061-.923-2.061-2.061v-31.371c-.001-1.139.922-2.061 2.061-2.061z" fill="#f5f8f9"/><path d="m381.624 399.26v31.372c0 1.144-.928 2.061-2.061 2.061h-30.373c-1.134 0-2.061.927-2.061 2.061v30.372c0 1.144-.928 2.061-2.061 2.061h-31.372c-1.134 0-2.061-.917-2.061-2.061v-24.466c18.768-9.389 34.072-24.694 43.461-43.461h24.467c1.133 0 2.061.928 2.061 2.061z" fill="#e8edf2"/></g></g></svg>