<svg id="Capa_1" enable-background="new 0 0 512 512" height="512" viewBox="0 0 512 512" width="512" xmlns="http://www.w3.org/2000/svg"><g><g fill="#ffbf61"><path d="m477.511 244.258c2.693-3.147 2.325-7.881-.821-10.575-3.148-2.695-7.883-2.324-10.575.822-3.587 4.192-5.958 9.091-7.113 14.219h-36.332c-4.143 0-7.5 3.358-7.5 7.5s3.357 7.5 7.5 7.5h36.398c1.063 4.517 3.08 8.857 6.064 12.691 1.479 1.899 3.688 2.894 5.923 2.894 1.61 0 3.232-.517 4.602-1.582 3.269-2.544 3.856-7.256 1.312-10.525-5.269-6.771-5.041-16.42.542-22.944z"/><path d="m273.6 1.802c-10.197 8.729-25.002 8.729-35.199 0-3.149-2.695-7.883-2.324-10.575.822-2.693 3.147-2.325 7.881.821 10.575 5.877 5.029 12.739 8.189 19.854 9.489v46.601c0 4.142 3.357 7.5 7.5 7.5s7.5-3.358 7.5-7.5v-46.601c7.115-1.3 13.977-4.46 19.853-9.489 3.146-2.693 3.515-7.428.821-10.575-2.693-3.147-7.426-3.516-10.575-.822z"/><path d="m161.184 76.325c3.714-3.521 6.664-7.952 8.48-13.098 1.379-3.906-.67-8.19-4.575-9.569-3.911-1.379-8.191.67-9.569 4.576-2.997 8.489-11.599 13.45-20.444 11.803-4.072-.759-7.988 1.927-8.747 5.999s1.927 7.988 5.999 8.747c2.078.387 4.146.575 6.189.575 3.346 0 6.611-.514 9.714-1.469l21.334 36.952c1.389 2.406 3.91 3.751 6.502 3.751 1.272 0 2.562-.324 3.743-1.006 3.587-2.071 4.816-6.658 2.745-10.245z"/><path d="m35.31 278.317c1.414 1.21 3.147 1.802 4.873 1.802 2.115 0 4.219-.89 5.702-2.624 3.58-4.182 5.946-9.085 7.098-14.219h41.853c4.143 0 7.5-3.358 7.5-7.5s-3.357-7.5-7.5-7.5h-41.918c-1.036-4.423-2.983-8.675-5.859-12.443-2.515-3.292-7.221-3.924-10.513-1.411s-3.924 7.22-1.411 10.512c5.156 6.754 4.884 16.346-.646 22.808-2.694 3.147-2.326 7.882.821 10.575z"/><path d="m179.81 387.518c-3.59-2.072-8.175-.843-10.245 2.745l-21.759 37.688c-4.906-1.455-10.218-1.793-15.583-.794-4.072.759-6.758 4.675-5.999 8.747.76 4.073 4.681 6.758 8.747 5.999 8.85-1.647 17.448 3.315 20.443 11.803 1.087 3.081 3.981 5.006 7.072 5.006.828 0 1.671-.138 2.496-.43 3.906-1.378 5.955-5.662 4.576-9.568-1.856-5.26-4.892-9.775-8.722-13.333l21.719-37.617c2.071-3.588.842-8.176-2.745-10.246z"/><path d="m377.03 70.098c-8.847 1.647-17.448-3.315-20.443-11.803-1.378-3.906-5.663-5.956-9.568-4.576-3.906 1.378-5.955 5.662-4.576 9.568 1.856 5.259 4.899 9.764 8.728 13.321l-21.208 36.732c-2.071 3.587-.842 8.174 2.745 10.245 1.181.682 2.471 1.006 3.743 1.006 2.592 0 5.113-1.345 6.502-3.751l21.248-36.8c3.006.891 6.158 1.379 9.388 1.379 2.041 0 4.112-.188 6.189-.575 4.072-.759 6.758-4.675 5.999-8.747-.76-4.073-4.68-6.755-8.747-5.999z"/><path d="m29.555 158.718c.828 0 1.671-.138 2.496-.43 7.294-2.575 13.461-6.937 18.145-12.449l40.89 23.608c1.182.682 2.471 1.006 3.743 1.006 2.592 0 5.113-1.346 6.502-3.751 2.071-3.587.842-8.174-2.745-10.245l-40.89-23.608c2.432-6.812 3.126-14.334 1.709-21.938-.76-4.073-4.681-6.755-8.747-5.999-4.072.759-6.758 4.675-5.999 8.747 2.459 13.196-4.942 26.017-17.6 30.484-3.906 1.379-5.955 5.663-4.576 9.569 1.087 3.08 3.981 5.006 7.072 5.006z"/><path d="m94.139 340.791-43.943 25.371c-4.683-5.512-10.851-9.874-18.145-12.449-3.904-1.38-8.19.67-9.568 4.576-1.379 3.906.67 8.19 4.576 9.569 12.657 4.468 20.059 17.289 17.6 30.484-.759 4.072 1.927 7.988 5.999 8.747.465.086.927.128 1.383.128 3.541 0 6.692-2.52 7.364-6.127 1.417-7.604.723-15.126-1.709-21.938l43.943-25.371c3.587-2.071 4.816-6.658 2.745-10.245-2.072-3.588-6.659-4.817-10.245-2.745z"/><path d="m283.353 498.802c-5.877-5.029-12.738-8.189-19.853-9.489v-52.789c0-4.142-3.357-7.5-7.5-7.5s-7.5 3.358-7.5 7.5v52.789c-7.115 1.3-13.977 4.46-19.854 9.489-3.146 2.693-3.515 7.428-.821 10.575 2.692 3.147 7.426 3.515 10.575.822 10.197-8.728 25.002-8.728 35.199 0 1.414 1.21 3.148 1.802 4.873 1.802 2.116 0 4.219-.89 5.702-2.624 2.694-3.148 2.326-7.882-.821-10.575z"/><path d="m484.941 144.143c-12.657-4.468-20.059-17.289-17.6-30.484.759-4.072-1.927-7.988-5.999-8.747-4.069-.756-7.988 1.927-8.747 5.999-1.417 7.604-.723 15.126 1.709 21.938l-36.489 21.067c-3.587 2.071-4.816 6.658-2.745 10.245 1.389 2.406 3.91 3.751 6.502 3.751 1.272 0 2.562-.324 3.743-1.006l36.489-21.067c4.683 5.512 10.851 9.874 18.145 12.449.825.292 1.668.43 2.496.43 3.091 0 5.985-1.925 7.072-5.005 1.379-3.907-.67-8.191-4.576-9.57z"/></g><path d="m408.458 290.27c-1.115-.764-1.167-2.365-.117-3.216 8.79-7.126 14.413-18.005 14.413-30.203 0-13.206-5.025-25.716-15.091-32.741 24.036-14.647 34.668-42.967 20.518-67.475-9.547-16.536-23.365-21.906-39.641-28.904-3.417-.03-6.854.276-10.261.933-5.721 6.136-9.886 5.642-15.069 5.429-1.051-12.23-7.854-23.768-19.291-30.372-10.564-6.099-22.797-6.669-33.363-2.619-1.262.484-2.622-.362-2.726-1.709-2.073-26.821-24.478-47.942-51.83-47.942-28.3 0-51.303 22.611-51.97 50.75-5.19 1.399-9.778 1.4-15.11-3.66-7.057-.264-14.27 1.389-20.838 5.181-6.577 3.797-11.621 9.226-14.92 15.48-.274 6.563-1.403 10.799-4.371 14.892-24.703-13.492-55.786-4.876-69.936 19.632-13.676 23.688-6.587 53.651 15.605 68.856 1.115.764 1.167 2.365.117 3.216-8.79 7.126-14.413 18.005-14.413 30.203 0 7.537 2.147 14.571 5.862 20.527 5.733 2.696 9.827 3.592 10.796 11.365-24.036 14.647-32.116 45.874-17.966 70.383 13.676 23.688 43.17 32.53 67.434 20.914 1.219-.584 2.631.172 2.843 1.507 1.776 11.176 8.386 21.485 18.95 27.584 6.587 3.803 13.822 5.456 20.898 5.18 5.978-5.06 9.366-4.213 15.05-3.66 6.599 27.964 22.701 40.255 51.001 40.255s52.272-12.116 52.939-40.255c11.117 5.205 24.511 5.082 35.948-1.521s18.239-18.141 19.291-30.372c24.703 13.492 55.786 4.876 69.936-19.632 13.675-23.689-2.496-52.801-24.688-68.006z" fill="#ffde80"/><path d="m433.15 358.27c-14.15 24.51-45.24 33.13-69.94 19.64-1.05 12.23-7.85 23.77-19.29 30.37s-24.83 6.72-35.95 1.52c-.67 28.14-23.67 50.75-51.97 50.75s-51.3-22.61-51.97-50.75c104.998-17.296 192.43-107.283 194.04-217.88 0-22.33-3.33-43.88-9.53-64.18 17.81.15 35.06 9.46 44.61 25.99 11.405 19.747 8.368 43.867-5.827 60.152-10.06.917-11.001 3.928-12.143 10.227 10.07 7.02 16.66 18.68 16.66 31.89 0 12.2-5.63 23.08-14.42 30.2-1.05.85-.99 2.45.12 3.22 22.19 15.201 29.28 45.171 15.61 68.851z" fill="#ffce61"/><g><path d="m205.93 135.43c-1.12.6-2.32.88-3.5.88-2.69 0-5.29-1.46-6.64-4-4.49-8.5-6.87-18.11-6.87-27.78v-5.99c5.23.19 10.38 1.45 15.11 3.66-.01.36-.11 1.97-.11 2.33 0 7.24 1.77 14.42 5.13 20.77 1.94 3.66.54 8.2-3.12 10.13z" fill="#ffce61"/></g><g><path d="m175.46 153.19c-1.18.68-2.47 1-3.74 1-2.6 0-5.12-1.35-6.51-3.76-3.88-6.74-9.64-12.42-16.42-16.34.45-5.19 1.93-10.27 4.37-14.89 1.85 1.1 3.99 2.39 4.16 2.49 8.66 5.21 15.87 12.54 20.89 21.25 2.07 3.59.83 8.18-2.75 10.25z" fill="#ffce61"/></g><g><path d="m127.53 274.29c-.06 4.1-3.41 7.37-7.49 7.37h-.13c-8.03-.14-16.1 2.2-23.09 6.23-4.33-3.01-8-6.88-10.8-11.36 2.07-1.14 4.24-2.34 4.41-2.43 9.11-5.04 19.38-7.61 29.73-7.43 4.14.06 7.44 3.48 7.37 7.62z" fill="#ffce61"/></g><g><path d="m211.78 383.3c-5.1 7.42-7.8 16.13-7.8 25.18 0 .36.04.96.05 1.32-4.71 2.21-9.84 3.46-15.05 3.66v-4.98c0-12.1 3.61-23.74 10.44-33.68 2.35-3.41 7.02-4.28 10.43-1.93 3.42 2.35 4.28 7.02 1.93 10.43z" fill="#ffce61"/></g><g><path d="m397.27 203.56c-1.47 0-2.95.07-4.4.21-4.12.39-7.15 4.05-6.76 8.17.39 4.13 4.05 7.15 8.17 6.76.98-.09 1.99-.14 2.99-.14 3.558 0 7.152.676 10.55 1.879 2.29-4.446 4.56-8.984 5.646-13.948-5.144-1.919-10.61-2.931-16.196-2.931z" fill="#ffce61"/></g><g><path d="m372.06 159.87c-1.5 2.6-3.25 5.06-5.21 7.3-1.48 1.71-3.56 2.58-5.66 2.58-1.74 0-3.5-.61-4.92-1.84-3.12-2.72-3.45-7.46-.73-10.59 1.32-1.52 2.51-3.18 3.53-4.95 3.23-5.59 4.69-11.87 4.14-18.28 4.84-2.64 9.92-4.44 15.07-5.42-.01 2.83-.04 5.97-.03 6.4.32 8.68-1.8 17.21-6.19 24.8z" fill="#ffce61"/></g><g><path d="m212.59 209.05c10.019 17.353 5.449 33.976-11.904 43.995s-33.803 10.969-43.822-6.384c-.493-.854-4.894-3.539-5.31-4.415-8.042-16.912-1.856-37.44 14.643-46.966 10.718-6.188 23.281-6.285 33.682-1.366 5.788 4.321 8.88 8.501 12.711 15.136z" fill="#ffce61"/><path d="m202.475 258.122c-17.354 10.015-39.54 4.07-49.561-13.278-.495-.855-.947-1.723-1.363-2.597 10.406 4.925 22.969 4.833 33.693-1.357 16.504-9.532 22.688-30.063 14.634-46.977 6.44 3.043 12.05 8.011 15.881 14.647 10.015 17.354 4.07 39.541-13.284 49.562z" fill="#ffbf61"/></g><circle cx="264.902" cy="381.686" fill="#ffce61" r="22.373"/><path d="m287.12 379c1.04 8.63-3.03 17.44-11.03 22.06-8.94 5.17-19.98 3.45-26.96-3.5 13.22-5.05 25.94-11.28 37.99-18.56z" fill="#ffbf61"/><path d="m427.32 213.88c-1.262 1.357-5.261 6.073-12.14 10.23-5.19-3.5-11.62-5.55-17.91-5.55-.43 0-.86.01-1.29.03.72-4.95 1.25-9.96 1.6-15.02 8.46.05 16.65 2.38 23.82 6.76.35.21 3.32 1.99 5.92 3.55z" fill="#ffbf61"/><circle cx="179.359" cy="321.399" fill="#ffce61" r="22.373"/><circle cx="261.269" cy="148.522" fill="#ffce61" r="22.373"/><g><path d="m362.393 241.811c16.396 28.399 8.917 55.604-19.482 72s-55.321 17.952-71.717-10.447c-.807-1.398-8.009-5.792-8.69-7.225-13.162-27.678-3.037-61.273 23.965-76.862 17.541-10.127 38.101-10.286 55.122-2.236 9.473 7.07 14.533 13.912 20.802 24.77z" fill="#ffce61"/><path d="m345.84 322.12c-28.4 16.39-64.71 6.66-81.11-21.73-.81-1.4-1.55-2.82-2.23-4.25 17.03 8.06 37.59 7.91 55.14-2.22 27.01-15.6 37.13-49.2 23.95-76.88 10.54 4.98 19.72 13.11 25.99 23.97 16.39 28.4 6.66 64.71-21.74 81.11z" fill="#ffbf61"/></g><g><path d="m277.813 400.834c0 10.48 1.708 20.562 4.868 29.978 16.152 32.985 47.22 59.148 88.747 59.148 52.008 0 89.855-37.119 89.855-89.126 0-41.527-26.289-69.987-59.322-89.302-9.416-3.16-19.499-4.866-29.98-4.866-52.008 0-94.168 42.161-94.168 94.168z" fill="#8db9ff"/><path d="m466.151 400.832c0 52.01-42.16 94.17-94.17 94.17-41.53 0-76.78-26.88-89.3-64.19 9.42 3.17 19.51 4.88 29.99 4.88 52.01 0 94.17-42.16 94.17-94.17 0-10.48-1.71-20.57-4.88-29.99 37.31 12.52 64.19 47.77 64.19 89.3z" fill="#70abf2"/><path d="m323.291 383.615h29.47c1.105 0 2-.895 2-2v-29.47c0-1.105.895-2 2-2h30.439c1.105 0 2 .895 2 2v29.47c0 1.105.895 2 2 2h5.73l22 1.499c1.105 0 2 .895 2 2l.635 27.553c0 1.105-.895 2-2 2l-29.85-.099c-1.105 0-2 .895-2 2l1 28.27c0 1.105-.895 2-2 2l-28.209 1.217c-1.105 0-2-.895-2-2l-1.746-22.273v-5.728c0-1.105-.895-2-2-2h-29.47c-1.105 0-2-.895-2-2v-30.439c.001-1.105.896-2 2.001-2z" fill="#f5f8f9"/><path d="m422.671 385.612v30.44c0 1.11-.9 2-2 2h-29.47c-1.1 0-2 .9-2 2v29.47c0 1.11-.9 2-2 2h-30.44c-1.1 0-2-.89-2-2v-23.74c18.21-9.11 33.06-23.96 42.17-42.17h23.74c1.1 0 2 .9 2 2z" fill="#e8edf2"/></g></g></svg>