<svg id="Capa_1" enable-background="new 0 0 512 512" height="512" viewBox="0 0 512 512" width="512" xmlns="http://www.w3.org/2000/svg"><g><g><path d="m194.745 412.96c-1.565.571-3.258.87-5.024.839l-29.787-.521c-27.345-.478-52.019-18.061-61.398-43.752-5.555-15.217-5.377-31.91.5-47.004l11.512-29.58 11.855-16.22c4.132-10.612-.818-23.524-4.723-34.221-3.625-9.932-10.594-18.43-19.623-23.931l-22.27-13.567c-6.576-4.006-8.66-12.585-4.653-19.161 4.007-6.577 12.585-8.66 19.161-4.653l22.27 13.567c14.406 8.776 25.525 22.337 31.31 38.183 6.231 17.069-.78 34.414-7.373 51.346l4.786 6.597-16.266 41.758c-3.417 8.775-3.52 18.478-.291 27.324 5.452 14.934 19.795 25.155 35.69 25.433l29.788.521c7.699.135 13.832 6.486 13.697 14.185-.104 5.933-3.9 10.936-9.161 12.857z" fill="#ffce61"/></g><g><path d="m314.512 412.96c1.565.571 3.258.87 5.024.839l29.787-.521c27.345-.478 52.019-18.061 61.398-43.752 5.555-15.217 5.377-31.91-.5-47.004l-18.292-46.976c-3.792-9.739-4.209-20.424-1.234-30.384.267-.893-2.755-5.761-2.433-6.641 3.625-9.932 13.909-14.45 22.937-19.95l22.27-13.567c6.576-4.006 8.66-12.585 4.653-19.161-4.007-6.577-12.585-8.66-19.161-4.653l-22.27 13.567c-14.406 8.776-22.23 22.489-28.015 38.335-.779 2.134-4.878 4.659-5.456 6.838-4.046 15.25-3.046 30.92 2.723 45.736l18.291 46.975c3.417 8.775 3.52 18.478.291 27.324-5.452 14.934-19.795 25.155-35.69 25.433l-29.788.521c-7.699.135-13.832 6.486-13.697 14.185.104 5.932 3.901 10.935 9.162 12.856z" fill="#ffce61"/></g><g><path d="m148.263 263.119c-.464 7.665-2.112 15.278-4.945 22.551l-2.029 5.213c-5.769 1.772-11.888 2.72-18.234 2.72-4.224 0-8.396-.216-12.506-.659l6.779-17.4c.474-1.216.886-2.442 1.247-3.678 2.864-9.601 2.565-19.893-.896-29.36-3.626-9.931-10.59-18.43-19.615-23.931l-22.273-13.567c-6.583-4.007-8.664-12.589-4.656-19.161 4.007-6.583 12.589-8.664 19.161-4.656l22.273 13.567c14.402 8.777 25.528 22.334 31.307 38.189 3.552 9.722 5.015 19.993 4.387 30.172z" fill="#ffbf61"/></g><g><path d="m433.468 205.006-22.272 13.567c-1.628.999-3.194 2.091-4.687 3.266-6.748 5.357-11.971 12.527-14.927 20.665-.319.876-.618 1.762-.886 2.658-.814.021-1.628.031-2.441.031-8.911 0-17.379-1.885-25.033-5.264.598-2.359 1.319-4.687 2.163-6.985 1.648-4.543 3.739-8.88 6.222-12.98 6.191-10.24 14.804-18.945 25.085-25.209l22.272-13.567c6.573-4.007 15.154-1.926 19.161 4.656 4.007 6.573 1.916 15.155-4.657 19.162z" fill="#ffbf61"/></g><path d="m163.989 179.152c13.544-15.411 33.068-24.244 53.585-24.244h4.812v-49.602c-12.187 19.062-34.846 28.662-57.018 24.157l-3.115-.633z" fill="#70abf2"/><path d="m345.267 134c-13.544-15.411-33.068-24.244-53.585-24.244h-4.812v-49.603c12.187 19.062 34.846 28.662 57.018 24.157l3.115-.633z" fill="#f25555"/><path d="m340.997 111.904c0-12.28 2.747-23.918 7.66-34.334 6.3-2.713 7.948-6.349 8.348-13.877-5.72-7.093-9.023-16.217-8.634-26.125.813-20.683 19.185-37.568 39.884-37.568 22.764 0 43.704 7.797 60.305 20.861 20.221 25.009 31.714 45.494 31.714 76.635l-1.067 29.912c0 53.906-35.344 90.365-89.25 90.365-18.964 0-28.506-8.581-40.76-25.262-.558-2.59-.854-5.276-.858-8.032-.014-9.268 3.201-17.781 8.573-24.493-.017-7.126-.842-10.762-8.236-13.711-4.924-10.426-7.679-22.076-7.679-34.371z" fill="#ff7e7b"/><path d="m485.853 97.599v28.361c0 53.899-43.7 97.599-97.599 97.599-10.858 0-20.83-4.337-28.093-11.394-5.408-5.264-9.313-12.043-10.961-19.656 4.533 1.751 9.467 2.72 14.587 2.72 53.909 0 97.61-43.7 97.61-97.599v-28.361c0-17.616-4.667-34.14-12.836-48.408 3.06 2.4 5.965 4.986 8.705 7.726 17.667 17.668 28.587 42.063 28.587 69.012z" fill="#ff6464"/><g><g><path d="m378.168 84.949c-1.051 3.286-4.09 5.388-7.366 5.388-.773 0-1.566-.113-2.338-.361-7.572-2.411-14.35-6.655-19.8-12.403 2.318-4.914 5.12-9.56 8.344-13.877 3.904 4.832 10.24 9.684 16.122 11.548 4.07 1.288 6.326 5.636 5.038 9.705z" fill="#ff6464"/></g><g><path d="m373.347 148.387c-5.924 1.885-12.527 6.717-16.431 11.6-3.183-4.265-5.944-8.86-8.241-13.712 5.48-5.851 12.321-10.178 19.996-12.609 4.069-1.298 8.406.958 9.704 5.027 1.287 4.07-.969 8.407-5.028 9.694z" fill="#ff6464"/></g></g><path d="m291.12 3.091v205.612c0 2.063-1.017 3.994-2.718 5.162-9.356 6.422-21.7 6.422-31.056 0l-2.718-1.866-9.961-103.887 9.961-108.112h33.401c1.707 0 3.091 1.384 3.091 3.091z" fill="#ff7e7b"/><path d="m270.555 504.888v-7.004c0-14.603 12.544-27.218 26.987-29.378 41.794-6.252 72.514-18.593 72.514-49.101 0-40.229-48.923-86.931-112.105-86.931-1.049 0-4.391-2.418-5.433-2.392-61.731 1.589-111.263 49.761-111.263 89.322 0 27.276 23.547 43.454 58.403 51.044 4.131.9 10.258.012 14.686.675 14.443 2.161 26.542 12.157 26.542 26.76v7.004c0 1.707 1.384 3.091 3.091 3.091h23.488c1.706.001 3.09-1.383 3.09-3.09z" fill="#ffde80"/><path d="m370.05 419.407c0 30.504-29.453 47.131-71.247 53.384-14.443 2.163-25.167 14.515-25.167 29.113v7.005c0 1.71-1.381 3.091-3.091 3.091h-29.783c-1.71 0-3.091-1.38-3.091-3.091v-7.005c0-14.598-10.724-26.95-25.167-29.113-4.43-.659-8.715-1.442-12.846-2.349 44.102-6.49 77.779-41.187 77.779-83.012 0-22.159-9.457-42.33-24.92-57.35 1.051-.031 2.091-.041 3.142-.041 63.181 0 114.391 49.14 114.391 89.368z" fill="#ffce61"/><g><path d="m213.944 400.996c-2.277 0-4.532-1.002-6.058-2.925-2.652-3.343-2.092-8.203 1.251-10.855 10.538-8.36 27.924-13.352 46.508-13.352 17.144 0 33.136 4.165 43.877 11.427 3.534 2.39 4.463 7.193 2.072 10.728-2.389 3.536-7.192 4.464-10.728 2.073-8.126-5.494-21.293-8.775-35.221-8.775-14.985 0-29.125 3.833-36.903 10.005-1.421 1.127-3.116 1.674-4.798 1.674z" fill="#ffce61"/></g><g><path d="m301.595 396.022c-2.39 3.534-7.191 4.461-10.734 2.071-3.637-2.462-8.283-4.471-13.578-5.954.103-1.556.154-3.132.154-4.708 0-3.863-.288-7.654-.855-11.373 8.86 1.916 16.771 5.069 22.942 9.23 3.534 2.39 4.461 7.201 2.071 10.734z" fill="#ffbf61"/></g><g><path d="m292.526 414.247c0 10.797 1.76 21.183 5.015 30.883 16.639 33.98 48.645 60.934 91.426 60.934 53.577 0 92.567-38.239 92.567-91.816 0-42.78-27.082-72.099-61.113-91.997-9.701-3.255-20.088-5.013-30.885-5.013-53.577-.002-97.01 43.431-97.01 97.009z" fill="#8db9ff"/><path d="m486.549 414.245c0 53.58-43.432 97.012-97.012 97.012-42.783 0-79.097-27.691-91.995-66.127 9.704 3.266 20.099 5.027 30.895 5.027 53.58 0 97.012-43.432 97.012-97.012 0-10.796-1.762-21.191-5.027-30.895 38.435 12.897 66.127 49.211 66.127 91.995z" fill="#70abf2"/><path d="m339.377 396.507h30.36c1.138 0 2.06-.922 2.06-2.06v-30.36c0-1.138.922-2.06 2.06-2.06h31.358c1.138 0 2.06.922 2.06 2.06v30.36c0 1.138.922 2.06 2.06 2.06h5.903l22.664 1.545c1.138 0 2.06.922 2.06 2.06l.654 28.384c0 1.138-.922 2.06-2.06 2.06l-30.751-.102c-1.138 0-2.06.922-2.06 2.06l1.03 29.124c0 1.138-.922 2.06-2.06 2.06l-29.06 1.254c-1.138 0-2.06-.922-2.06-2.06l-1.798-22.945v-5.901c0-1.138-.922-2.06-2.06-2.06h-30.36c-1.138 0-2.06-.922-2.06-2.06v-31.358c0-1.138.922-2.061 2.06-2.061z" fill="#f5f8f9"/><path d="m441.756 398.565v31.359c0 1.143-.927 2.06-2.06 2.06h-30.359c-1.133 0-2.06.927-2.06 2.06v30.359c0 1.143-.927 2.06-2.06 2.06h-31.359c-1.133 0-2.06-.917-2.06-2.06v-24.456c18.76-9.385 34.058-24.683 43.443-43.443h24.456c1.132.001 2.059.928 2.059 2.061z" fill="#e8edf2"/></g><path d="m166.131 160.466c0-18.079-5.362-33.092-15.416-46.536 5.72-7.093 7.952-14.67 7.563-24.579-.728-18.519-12.227-33.5-28.743-40.387-2.006-.421-4.315-.554-6.481-.554-53.904 0-97.602 43.698-97.602 97.602v28.354c0 28.998 12.645 55.042 32.722 72.919 21.859 12.081 40.145 18.044 65.053 18.044 21.721 0 35.737-10.719 35.77-32.44.014-9.268-3.201-17.781-8.573-24.493 9.997-13.42 15.707-29.908 15.707-47.93z" fill="#ff7e7b"/><path d="m154.392 208.395c5.378 6.717 8.592 15.226 8.571 24.498-.01 10.858-4.564 20.624-11.816 27.681-7.263 7.057-17.225 11.394-28.093 11.394-24.899 0-47.636-9.323-64.87-24.693 42.423-10.662 74.389-58.082 74.389-114.968 0-2.802-.031-46.049-.082-48.728-.278-13.928-1.298-25.322-2.957-34.614 17.915 3.06 32.677 18.523 33.398 37.014.391 9.91-2.905 19.027-8.633 26.125-1.985 7.352-1.112 12.006 8.349 13.877 4.913 10.416 7.66 22.055 7.66 34.335 0 12.292-2.752 23.942-7.678 34.368-8.134 2.872-10.897 6.217-8.238 13.711z" fill="#ff6464"/><g><g><path d="m133.14 133.36c1.051 3.286 4.09 5.388 7.366 5.388.773 0 1.566-.113 2.338-.361 7.572-2.411 14.35-6.655 19.8-12.403-2.318-4.914-5.12-9.56-8.344-13.877-3.904 4.832-10.24 9.684-16.122 11.548-4.069 1.288-6.325 5.635-5.038 9.705z" fill="#f25555"/></g><g><path d="m137.962 196.798c5.924 1.885 12.527 6.717 16.431 11.6 3.183-4.265 5.944-8.86 8.241-13.712-5.48-5.851-12.321-10.178-19.996-12.609-4.069-1.298-8.406.958-9.704 5.027-1.287 4.069.969 8.406 5.028 9.694z" fill="#f25555"/></g></g><path d="m254.628 0v233.75c0 2.063-1.017 3.994-2.718 5.162-9.356 6.422-21.7 6.422-31.056 0-1.701-1.168-2.718-3.099-2.718-5.162v-230.659c0-1.707 1.384-3.091 3.091-3.091z" fill="#8db9ff"/></g></svg>