<svg id="Capa_1" enable-background="new 0 0 512 512" height="512" viewBox="0 0 512 512" width="512" xmlns="http://www.w3.org/2000/svg"><g><path d="m141.469 0c-3.278 0-5.748 3.027-5.043 6.229 11.355 51.53 44.913 95.938 93.139 120.85l15.658 8.089c12.433 6.422 20.242 19.246 20.242 33.239 0 46.899-38.019 84.919-84.919 84.919h-78.069c-55.413 0-100.335 44.921-100.335 100.335 0 55.413 44.921 100.335 100.335 100.335h32.231c11.109 0 20.115 9.006 20.115 20.115v34.799c0 1.707 1.384 3.091 3.091 3.091h31.061c1.707 0 3.091-1.384 3.091-3.091v-38.857c0-30.318-24.578-54.895-54.895-54.895h-13.16c-21.004 0-40.65-10.387-52.477-27.745-10.843-15.914-9.457-37.167 3.361-51.538 12.327-13.821 32.259-17.922 49.041-10.09l32.261 15.055c16.02 7.476 32.581 13.601 49.51 18.337 28.216 7.894 57.628 5.37 87.092 5.37 101.428 0 174.611-77.209 174.611-178.637l-1.455-35.579c0-63.872-41.114-117.448-104.985-117.448-1.629 0-5.212-.989-5.212-.989-24.308 1.245-47.289 11.765-64.135 29.504-4.133 4.352-7.813 9.055-11.014 14.036-6.707 10.436-20.154 14.189-31.176 8.495-32.418-16.746-54.901-46.084-64.53-80.199-.623-2.211-2.648-3.73-4.945-3.73z" fill="#ff7e7b"/><path d="m476.281 147.418v40.033c0 50.709-20.558 96.626-53.79 129.869-33.232 33.232-79.15 53.79-129.859 53.79-29.997 0-59.767-4.184-88.444-12.376 11.665 1.288 23.412 1.927 35.2 1.927 50.719 0 96.626-20.558 129.859-53.79s53.79-79.139 53.79-129.858v-40.033c0-46.608-27.565-86.775-67.279-105.086 1.618-.082 3.246-.124 4.874-.124 63.869-.001 115.649 51.769 115.649 115.648z" fill="#ff6464"/><path d="m442.276 175.508-5.997 10.401c0 82.251-60.396 150.897-142.647 151.185-42.218.155-84.786-9.212-123.058-27.07-11.253-5.595-7.357-22.536 5.204-22.649l4.771-.041c63.188 0 115.03-49.534 118.709-111.826l1.8-1.829c35.283 0 33.548 8.365 68.82 8.365 35.273 0 34.827-9.165 70.11-9.165z" fill="#ffde80"/><path d="m442.276 147.418v28.09h-1.237c-35.283 0-35.283 12.943-70.556 12.943s-35.273-12.943-70.556-12.943h-.67c.144-2.349.216-4.72.216-7.1 0-5.76-.68-11.397-1.989-16.838-4.668-19.393-.752-39.652 10.593-56.047.392-.567.773-1.134 1.133-1.7 2.071-3.215 4.441-6.245 7.069-9.006 11.49-12.108 27.657-19.043 44.351-19.043 45.013 0 81.646 36.623 81.646 81.644z" fill="#ff6464"/><path d="m442.276 175.508v11.943c0 64.764-41.157 120.131-98.811 140.895 9.243-6.368 17.868-13.561 25.782-21.475 33.232-33.232 53.79-79.139 53.79-129.858v-.072c4.295-9.08 15.497-4.934 15.497-4.934z" fill="#ffce61"/><path d="m442.276 147.418v28.09h-1.237c-7.306 0-13.097.556-18.002 1.432v-39.961c0-20.032-5.09-38.879-14.055-55.305 20.176 14.87 33.294 38.807 33.294 65.744z" fill="#f25555"/><g fill="#ffce61"><circle cx="338.465" cy="231.068" r="14.493"/><circle cx="392.363" cy="185.909" r="22.484"/><circle cx="330.316" cy="295.757" r="22.484"/></g><g><path d="m287.041 399.988c0 12.399 2.021 24.326 5.759 35.466 19.109 39.023 55.864 69.976 104.994 69.976 61.528 0 106.304-43.914 106.304-105.442 0-49.129-31.101-82.799-70.182-105.65-11.14-3.738-23.069-5.757-35.468-5.757-61.528.001-111.407 49.879-111.407 111.407z" fill="#8db9ff"/><path d="m509.857 399.986c0 61.531-49.878 111.409-111.409 111.409-49.133 0-90.836-31.801-105.647-75.941 11.144 3.75 23.081 5.773 35.48 5.773 61.531 0 111.409-49.878 111.409-111.409 0-12.398-2.023-24.336-5.773-35.48 44.139 14.812 75.94 56.515 75.94 105.648z" fill="#70abf2"/><path d="m340.845 379.616h34.865c1.307 0 2.366-1.059 2.366-2.366v-34.865c0-1.307 1.059-2.366 2.366-2.366h36.012c1.307 0 2.366 1.059 2.366 2.366v34.865c0 1.307 1.059 2.366 2.366 2.366h6.779l26.027 1.774c1.307 0 2.366 1.059 2.366 2.366l.752 32.597c0 1.307-1.059 2.366-2.366 2.366l-35.314-.118c-1.307 0-2.366 1.059-2.366 2.366l1.183 33.446c0 1.307-1.059 2.366-2.366 2.366l-33.373 1.44c-1.307 0-2.366-1.059-2.366-2.366l-2.065-26.35v-6.777c0-1.307-1.059-2.366-2.366-2.366h-34.865c-1.307 0-2.366-1.059-2.366-2.366v-36.012c-.002-1.306 1.058-2.366 2.365-2.366z" fill="#f5f8f9"/><path d="m458.417 381.98v36.012c0 1.313-1.065 2.366-2.366 2.366h-34.865c-1.301 0-2.366 1.065-2.366 2.366v34.865c0 1.313-1.065 2.366-2.366 2.366h-36.012c-1.301 0-2.366-1.053-2.366-2.366v-28.086c21.544-10.778 39.112-28.346 49.89-49.89h28.086c1.301.001 2.365 1.065 2.365 2.367z" fill="#e8edf2"/></g><g fill="#ffce61"><circle cx="367.779" cy="132.346" r="7.728"/><circle cx="270.138" cy="296.915" r="7.728"/><circle cx="333.769" cy="125.766" r="7.728"/><circle cx="355.712" cy="101.628" r="7.728"/></g></g></svg>