<svg id="Capa_1" enable-background="new 0 0 512 512" height="512" viewBox="0 0 512 512" width="512" xmlns="http://www.w3.org/2000/svg"><g><g><path d="m507.879 173.781c0 16.04-3.41 31.791-9.91 46.245l.031 116.029c.144 3.523.217 7.046.217 10.58 0 17.183-1.731 34.346-5.182 51.2-3.472 16.998-2.524 34.604 2.761 51.128l4.121 12.908c4.628 14.473 8.899 26.662 9.477 41.835.111 2.921-2.234 5.35-5.157 5.35l-16.961 2.944h-55.476c-2.845 0-5.151-2.306-5.151-5.151v-41.269c0-26.125-2.38-49.232-8.447-74.709l-1.695-41.479-10.626-5.137c-1.195 7.592-2.658 15.154-4.378 22.664l-7.654 33.378c-.041.154-.072.309-.113.474-4.935 21.737-5.347 44.267-1.452 66.22l6.902 38.959c.559 3.155-1.868 6.049-5.072 6.049h-276.227c-3.204 0-5.631-2.894-5.072-6.049l6.902-38.959c3.894-21.953 3.482-44.483-1.452-66.22-.041-.165-.072-.319-.113-.474l-7.654-33.378c-1.731-7.541-3.194-15.133-4.389-22.757l-11.745 5.084-.566 41.624c-6.068 25.476-8.448 48.583-8.448 74.709v41.269c0 2.845-2.306 5.151-5.151 5.151h-74.924c-2.923 0-5.268-2.429-5.157-5.35.578-15.173 3.217-30.306 7.845-44.778l4.121-12.908c3.204-10.013 4.811-20.418 4.811-30.844 0-6.789-.68-13.588-2.05-20.284-4.162-20.315-5.82-41.063-4.965-61.78v-96.559l5.948-5.02-5.948-14.532-.01.01c-6.47-14.443-9.87-30.164-9.87-46.173v-29.195c0-28.567 19.45-53.466 47.162-60.389l111.074-27.722c18.347-4.296 32.039-19.635 34.223-38.354l1.589-13.569c.303-2.595 2.502-4.552 5.115-4.552h41.161l16.978 8.537 14.374-8.537h41.161c2.613 0 4.812 1.957 5.116 4.552l1.589 13.569c2.184 18.718 15.875 34.058 34.223 38.354l101.897 25.432 8.646 3.518c27.712 6.923 43.572 30.595 43.572 59.161v29.195z" fill="#e59683"/><path d="m512 173.781c0 16.04-3.41 31.791-9.91 46.245l-6.174 11.126 6.179 8.344.026 96.559c.144 3.523.217 7.046.217 10.58 0 17.183-1.731 34.346-5.182 51.2-3.472 16.998-2.524 34.604 2.761 51.128l4.121 12.908c4.625 14.474 7.263 29.607 7.85 44.782.103 2.915-2.236 5.347-5.161 5.347h-19.45c-.103-16.957-2.792-33.955-7.963-50.129l-4.121-12.908c-5.285-16.524-6.233-34.13-2.761-51.128 3.451-16.854 5.182-34.017 5.182-51.2 0-3.534-.072-7.057-.217-10.58l-.03-113.091c-.001-1.938.421-3.846 1.169-5.634 5.739-13.707 8.74-28.501 8.74-43.549v-37.437c0-23.169-12.795-43.937-32.42-54.641l9.982 2.493c27.712 6.924 47.162 31.823 47.162 60.39z" fill="#d8816c"/><path d="m106.109 344.163-11.631 43.752c-.237.989-.464 1.968-.68 2.957l-4.389-19.12c-5.975-26.084-9.014-52.859-9.024-79.602v-73.174c0-5.974 4.843-10.817 10.817-10.817 5.974 0 10.817 4.843 10.817 10.817v73.163c.01 17.41 1.37 34.81 4.09 52.024z" fill="#d8816c"/><g><g><path d="m149.072 291.643c-2.558 0-5.061-1.27-6.532-3.59-2.285-3.604-1.216-8.378 2.388-10.662 19.801-12.554 31.622-34.046 31.622-57.491v-64.283c0-4.267 3.459-7.726 7.726-7.726 4.268 0 7.726 3.459 7.726 7.726v64.283c0 28.767-14.505 55.137-38.801 70.541-1.281.814-2.713 1.202-4.129 1.202z" fill="#d8816c"/></g><g><path d="m361.897 291.643c-1.415 0-2.847-.388-4.13-1.202-24.296-15.403-38.8-41.774-38.8-70.541v-64.283c0-4.267 3.459-7.726 7.726-7.726s7.726 3.459 7.726 7.726v64.283c0 23.445 11.821 44.937 31.621 57.491 3.605 2.285 4.673 7.059 2.388 10.662-1.469 2.32-3.972 3.59-6.531 3.59z" fill="#d8816c"/></g></g><path d="m420.798 208.158c5.974 0 10.817 4.843 10.817 10.817v73.163c-.01 26.754-3.049 53.528-9.024 79.612l-4.389 19.12c-.216-.989-.443-1.968-.68-2.957l-11.651-43.659c2.73-17.245 4.1-34.676 4.11-52.117v-73.163c0-5.973 4.843-10.816 10.817-10.816z" fill="#d8816c"/><g><path d="m502.1 239.496c-3.843 3.029-8.999 6.24-13.172 8.754-2.174 1.319-4.739 1.432-6.912.536-1.494-.608-2.802-1.679-3.698-3.163-2.194-3.647-1.02-8.396 2.637-10.601 6.552-3.956 15.592-9.712 21.135-14.997z" fill="#c67161"/></g><g><path d="m9.898 239.496c3.843 3.029 7.871 5.8 12.043 8.314 2.174 1.319 4.739 1.432 6.912.536 1.494-.608 2.802-1.679 3.698-3.163 2.194-3.647 1.02-8.396-2.637-10.601-6.552-3.956-14.464-9.272-20.006-14.556z" fill="#d8816c"/></g></g><path d="m240.324 0h31.352v37.042h-31.352z" fill="#f5f8f9"/><path d="m279.73 26.799h-47.069c-7.447 0-13.854 5.723-14.205 13.161-.374 7.942 5.954 14.499 13.814 14.499h3.701c.966 0 1.803.672 2.012 1.615l5.867 26.512 12.15 7.589 12.15-7.589 5.867-26.512c.209-.944 1.045-1.615 2.012-1.615h3.31c7.447 0 13.854-5.723 14.205-13.161.374-7.943-5.955-14.499-13.814-14.499z" fill="#e8edf2"/><path d="m279.73 82.586h-47.069c-7.447 0-13.854 5.723-14.205 13.161-.374 7.942 5.954 14.499 13.814 14.499h3.701c.966 0 1.803.672 2.012 1.615l5.867 26.512 8.798 9.517 15.502-9.517 5.867-26.512c.209-.944 1.045-1.615 2.012-1.615h3.31c7.447 0 13.854-5.723 14.205-13.161.374-7.943-5.955-14.499-13.814-14.499z" fill="#f5f8f9"/><path d="m279.73 138.373h-47.069c-7.447 0-13.854 5.723-14.205 13.161-.374 7.942 5.954 14.499 13.814 14.499h3.701c.966 0 1.803.672 2.012 1.615l5.867 26.512 10.848 9.262 13.452-9.262 5.867-26.512c.209-.944 1.045-1.615 2.012-1.615h3.31c7.447 0 13.854-5.723 14.205-13.161.374-7.942-5.955-14.499-13.814-14.499z" fill="#e8edf2"/><path d="m279.73 194.16h-47.069c-7.447 0-13.854 5.723-14.205 13.161-.374 7.942 5.954 14.499 13.814 14.499h3.701c.966 0 1.803.672 2.012 1.615l5.867 26.512 10.848 12.038 13.452-12.038 5.867-26.512c.209-.944 1.045-1.615 2.012-1.615h3.31c7.447 0 13.854-5.723 14.205-13.161.374-7.942-5.955-14.499-13.814-14.499z" fill="#f5f8f9"/><path d="m279.73 249.947h-47.069c-7.447 0-13.854 5.723-14.205 13.161-.374 7.942 5.954 14.499 13.814 14.499h3.701c.966 0 1.803.672 2.012 1.615l5.867 26.512h24.3l5.867-26.512c.209-.944 1.045-1.615 2.012-1.615h3.31c7.447 0 13.854-5.723 14.205-13.161.374-7.942-5.955-14.499-13.814-14.499z" fill="#e8edf2"/><g><path d="m151.054 407.055c0 11.68 1.904 22.915 5.425 33.409 18 36.76 52.624 65.918 98.904 65.918 57.96 0 100.138-41.367 100.138-99.327 0-46.279-29.297-77.996-66.112-99.522-10.494-3.522-21.731-5.423-33.411-5.423-57.959 0-104.944 46.985-104.944 104.945z" fill="#8db9ff"/><path d="m360.946 407.053c0 57.962-46.985 104.947-104.947 104.947-46.283 0-85.567-29.956-99.52-71.536 10.498 3.533 21.743 5.438 33.422 5.438 57.962 0 104.947-46.985 104.947-104.947 0-11.679-1.906-22.924-5.439-33.422 41.581 13.953 71.537 53.237 71.537 99.52z" fill="#70abf2"/><path d="m201.736 387.865h32.843c1.231 0 2.229-.998 2.229-2.229v-32.843c0-1.231.998-2.229 2.229-2.229h33.923c1.231 0 2.229.998 2.229 2.229v32.843c0 1.231.998 2.229 2.229 2.229h6.386l24.517 1.671c1.231 0 2.229.998 2.229 2.229l.708 30.706c0 1.231-.998 2.229-2.229 2.229l-33.266-.111c-1.231 0-2.229.998-2.229 2.229l1.114 31.506c0 1.231-.998 2.229-2.229 2.229l-31.437 1.356c-1.231 0-2.229-.998-2.229-2.229l-1.946-24.822v-6.384c0-1.231-.998-2.229-2.229-2.229h-32.843c-1.231 0-2.229-.998-2.229-2.229v-33.923c.002-1.231 1-2.228 2.23-2.228z" fill="#f5f8f9"/><path d="m312.49 390.091v33.924c0 1.237-1.003 2.229-2.229 2.229h-32.843c-1.226 0-2.229 1.003-2.229 2.229v32.843c0 1.237-1.003 2.229-2.229 2.229h-33.924c-1.226 0-2.229-.992-2.229-2.229v-26.457c20.294-10.153 36.844-26.702 46.996-46.996h26.457c1.227-.001 2.23 1.002 2.23 2.228z" fill="#e8edf2"/></g></g></svg>