<svg id="Capa_1" enable-background="new 0 0 512 512" height="512" viewBox="0 0 512 512" width="512" xmlns="http://www.w3.org/2000/svg"><g><g><path d="m206.226 384.531h99.548v49.457h-99.548z" fill="#7a6d79"/><path d="m484.279 389.829-42.125 2.846h-421.063c-11.648.001-21.091-9.442-21.091-21.091v-350.493c0-11.648 9.443-21.091 21.091-21.091h422.807l40.186 5.579c11.648 0 21.091 9.443 21.091 21.091l.194 342.068c.001 11.649-9.442 21.091-21.09 21.091z" fill="#918291"/><path d="m512 21.088v350.499c0 11.651-9.447 21.088-21.088 21.088h-53.569c11.641 0 21.088-9.436 21.088-21.088v-350.499c0-11.641-9.447-21.088-21.088-21.088h53.569c11.641 0 21.088 9.447 21.088 21.088z" fill="#7a6d79"/><path d="m34.359 355.391v-318.106c0-1.707 1.384-3.091 3.091-3.091h420.981l14.696 2.571c1.707 0 3.091 1.384 3.091 3.091l-3.618 311.817c0 1.707-1.384 3.091-3.091 3.091l-11.077 3.717h-420.982c-1.707 0-3.091-1.384-3.091-3.09z" fill="#8db9ff"/><path d="m477.643 37.282v318.11c0 1.71-1.391 3.091-3.091 3.091h-16.122v-324.291h16.122c1.701 0 3.091 1.39 3.091 3.09z" fill="#70abf2"/><path d="m461.481 510.07-23.691 1.93h-392.507c-6.033 0-10.924-4.891-10.924-10.924v-64.31c0-6.033 4.891-10.924 10.924-10.924h391.344l25.597 2.683c6.033 0 10.924 4.891 10.924 10.924l-.743 59.697c-.001 6.034-4.891 10.924-10.924 10.924z" fill="#918291"/><g fill="#7a6d79"><path d="m477.643 436.766v64.314c0 6.027-4.893 10.92-10.93 10.92h-32.966c6.037 0 10.93-4.893 10.93-10.92v-64.314c0-6.037-4.893-10.92-10.93-10.92h32.966c6.037 0 10.93 4.883 10.93 10.92z"/><path d="m276.36 483.292h-40.72c-1.138 0-2.06-.922-2.06-2.06v-24.62c0-1.138.922-2.06 2.06-2.06h40.719c1.138 0 2.06.922 2.06 2.06v24.62c.001 1.137-.921 2.06-2.059 2.06z"/><path d="m194.164 483.292h-40.719c-1.138 0-2.06-.922-2.06-2.06v-24.62c0-1.138.922-2.06 2.06-2.06h40.719c1.138 0 2.06.922 2.06 2.06v24.62c0 1.137-.922 2.06-2.06 2.06z"/><path d="m358.555 483.292h-40.719c-1.138 0-2.06-.922-2.06-2.06v-24.62c0-1.138.922-2.06 2.06-2.06h40.719c1.138 0 2.06.922 2.06 2.06v24.62c.001 1.137-.922 2.06-2.06 2.06z"/></g><circle cx="94.798" cy="469.051" fill="#ffe07d" r="14.5"/><circle cx="417.202" cy="469.051" fill="#e8edf2" r="14.5"/></g><g><g><path d="m70.415 114.27c-4.267 0-7.726-3.459-7.726-7.726v-36.08c0-4.267 3.459-7.726 7.726-7.726h36.08c4.267 0 7.726 3.459 7.726 7.726s-3.459 7.726-7.726 7.726h-28.353v28.354c0 4.267-3.459 7.726-7.727 7.726z" fill="#f5f8f9"/></g><g><path d="m441.377 114.27c-4.267 0-7.726-3.459-7.726-7.726v-28.354h-28.354c-4.267 0-7.726-3.459-7.726-7.726s3.459-7.726 7.726-7.726h36.081c4.267 0 7.726 3.459 7.726 7.726v36.08c-.001 4.267-3.46 7.726-7.727 7.726z" fill="#f5f8f9"/></g><g><path d="m106.496 329.939h-36.08c-4.267 0-7.726-3.459-7.726-7.726v-36.08c0-4.267 3.459-7.726 7.726-7.726s7.726 3.459 7.726 7.726v28.354h28.354c4.267 0 7.726 3.459 7.726 7.726 0 4.266-3.459 7.726-7.726 7.726z" fill="#f5f8f9"/></g><g><path d="m441.377 329.939h-36.081c-4.267 0-7.726-3.459-7.726-7.726s3.459-7.726 7.726-7.726h28.354v-28.354c0-4.267 3.459-7.726 7.726-7.726s7.726 3.459 7.726 7.726v36.08c.001 4.266-3.458 7.726-7.725 7.726z" fill="#f5f8f9"/></g></g><g><path d="m375.385 231.204c3.695 4.901 5.733 10.988 5.733 17.123 0 10.012-5.207 19.172-13.697 24.311l1.484 3.379c1.551 3.513 2.335 7.236 2.335 11.074 0 11.179-6.69 21.153-17.037 25.393l-5.896 2.422c-10.366 4.25-21.296 6.413-32.505 6.413-16.09 0-30.562-9.571-36.86-24.388-3.943-9.284-9.361-17.784-16.109-25.278 0 0-19.93-11.753-29.777 25.278-6.298 14.817-20.77 24.388-36.86 24.388-11.208 0-22.139-2.163-32.505-6.413l-5.896-2.422c-10.347-4.24-17.037-14.214-17.037-25.393 0-3.838.785-7.561 2.335-11.074l1.484-3.379c-8.49-5.14-13.697-14.3-13.697-24.311 0-6.135 2.039-12.223 5.733-17.123l1.618-2.144c-5.283-4.958-8.404-11.936-8.404-19.392 0-6.068 2.106-12.003 5.925-16.721l3.494-4.326c-.871-1.321-1.694-2.69-2.431-4.125-1.953-3.809-2.996-8.097-2.996-12.376 0-9.533 5.102-18.473 13.304-23.335l1.905-1.129c-1.809-3.848-2.804-8.097-2.804-12.5 0-11.62 6.863-22.196 17.487-26.924l8.997-4.001c.01-9.782 6.212-18.549 15.42-21.832 17.41-6.212 35.615-9.351 54.098-9.351h27.547c18.482 0 36.687 3.139 54.098 9.351 9.208 3.283 15.41 12.05 15.42 21.832l8.997 4.001c10.624 4.728 17.487 15.305 17.487 26.924 0 4.403-.995 8.653-2.804 12.5l1.905 1.129c8.203 4.862 13.304 13.802 13.304 23.335 0 4.288-1.043 8.566-2.996 12.376-.737 1.436-1.56 2.804-2.431 4.125l3.494 4.326c3.819 4.719 5.925 10.653 5.925 16.721 0 7.456-3.12 14.434-8.404 19.392z" fill="#619be0"/><g fill="#f5f8f9"><path d="m382.75 231.491c5.693-5.334 9.045-12.841 9.045-20.866 0-6.533-2.264-12.927-6.374-18.004l-3.765-4.651c.939-1.427 1.829-2.897 2.622-4.442 2.106-4.104 3.219-8.711 3.219-13.324 0-10.262-5.485-19.885-14.314-25.115l-2.048-1.213c1.944-4.146 3.016-8.721 3.016-13.45 0-12.516-7.389-23.892-18.824-28.981l-9.679-4.308c-.017-10.527-6.683-19.969-16.602-23.503-18.739-6.678-38.329-10.064-58.225-10.064h-14.821-14.822c-19.896 0-39.486 3.386-58.225 10.064-9.918 3.534-16.585 12.976-16.602 23.503l-9.68 4.308c-11.435 5.09-18.823 16.465-18.823 28.981 0 4.729 1.072 9.304 3.016 13.45l-2.048 1.213c-8.829 5.23-14.314 14.853-14.314 25.115 0 4.613 1.113 9.22 3.219 13.325.793 1.545 1.683 3.015 2.622 4.442l-3.764 4.65c-4.111 5.077-6.374 11.471-6.374 18.004 0 8.025 3.351 15.532 9.045 20.866l-1.742 2.309c-3.98 5.277-6.172 11.822-6.172 18.431 0 10.78 5.606 20.637 14.744 26.167l-1.605 3.641c-1.664 3.778-2.508 7.787-2.508 11.914 0 12.036 7.196 22.766 18.331 27.335l6.348 2.604c11.155 4.577 22.925 6.897 34.983 6.897 17.325 0 32.899-10.302 39.677-26.247 4.245-9.987 10.079-19.14 17.34-27.206 2.855-3.171 2.598-8.056-.573-10.911-2.508-2.258.981-8.547-1.82-7.008-.74.406-8.495 6.919-9.092 7.582-8.406 9.339-15.161 19.936-20.076 31.499-4.349 10.229-14.341 16.84-25.456 16.84-10.036 0-19.832-1.932-29.117-5.741l-6.348-2.604c-5.312-2.18-8.744-7.298-8.744-13.039 0-1.969.403-3.881 1.197-5.684l1.646-3.736c7.355 2.307 15.055 3.503 22.774 3.503h4.85c18.44 0 35.74-8.163 47.464-22.397 4.294-5.213 9.792-9.491 15.899-12.37l1.229-.579c3.86-1.819 5.515-6.423 3.696-10.283s3.648-9.923-.213-8.104l-11.301 4.988c-8.159 3.847-15.503 9.561-21.238 16.524-8.778 10.657-21.731 16.769-35.537 16.769h-4.85c-9.764 0-19.495-2.399-28.14-6.938-5.002-2.625-8.108-7.766-8.108-13.415 0-3.272 1.085-6.513 3.055-9.124l2.596-3.441c11.961 6.082 25.302 9.294 38.729 9.294 12.664 0 24.984-4.482 34.689-12.621l6.941-5.821c5.257-4.408 11.93-6.837 18.79-6.837 4.267 0 7.726-3.459 7.726-7.726s-3.459-7.726-7.726-7.726c-10.486 0-20.686 3.711-28.72 10.449l-6.941 5.821c-6.927 5.809-15.72 9.008-24.76 9.008-11.574 0-23.074-2.908-33.257-8.411l-5.351-2.891c-4.259-2.301-6.904-6.738-6.904-11.578 0-3.005 1.041-5.946 2.932-8.281l2.376-2.935c8.063 6.193 18.053 9.72 28.662 9.72 11.588 0 22.925-2.171 33.694-6.452l3.486-1.385c11.082-4.406 22.75-6.64 34.678-6.64h4.37c4.267 0 3.459-3.459 3.459-7.726s.808-7.726-3.459-7.726h-4.37c-13.891 0-27.479 2.602-40.386 7.733l-3.486 1.385c-8.945 3.556-18.361 5.359-27.986 5.359-11.925 0-22.714-6.591-28.158-17.202-.991-1.931-1.515-4.099-1.515-6.27 0-4.829 2.581-9.358 6.737-11.819l4.082-2.418c1.044.769 2.136 1.486 3.284 2.13 15.642 8.77 33.255 13.305 51.017 13.304 6.353 0 12.727-.58 19.033-1.755l21.744-4.05c4.195-.781 2.767-4.034 1.985-8.229-.781-4.195 2.463-8.635-1.729-7.853l-24.83 4.942c-20.386 3.797-41.575.304-59.662-9.837-5.128-2.875-8.314-8.313-8.314-14.192 0-6.419 3.79-12.254 9.654-14.864l8.216-3.657c.347.475.699.948 1.081 1.4 15.844 18.752 39.009 29.507 63.558 29.507h7.094c4.267 0 7.726-3.459 7.726-7.726s-3.459-7.726-7.726-7.726h-7.094c-19.989 0-38.853-8.758-51.754-24.027-1.453-1.72-2.253-3.906-2.253-6.156 0-4.024 2.547-7.635 6.338-8.986 17.069-6.083 34.914-9.168 53.038-9.168h14.823 14.822c18.124 0 35.968 3.085 53.038 9.168 3.791 1.351 6.338 4.962 6.338 8.986 0 2.251-.8 4.437-2.253 6.156-12.901 15.269-31.765 24.027-51.754 24.027h-7.094c-4.267 0-7.726 3.459-7.726 7.726s3.459 7.726 7.726 7.726h7.094c24.549 0 47.714-10.755 63.558-29.507.382-.452.733-.925 1.08-1.4l8.216 3.657c5.865 2.61 9.654 8.445 9.654 14.864 0 5.879-3.186 11.316-8.313 14.192-18.088 10.141-39.277 13.633-59.663 9.837l-24.981-4.651c-4.197-.782-.798 3.368-1.579 7.562-.782 4.195-2.21 7.448 1.985 8.229l21.744 4.05c6.307 1.175 12.679 1.756 19.033 1.755 17.76 0 35.376-4.535 51.017-13.304 1.148-.644 2.239-1.36 3.284-2.129l4.082 2.418c4.155 2.461 6.737 6.99 6.737 11.819 0 2.171-.524 4.34-1.515 6.271-5.444 10.61-16.233 17.201-28.158 17.201-9.625 0-19.041-1.803-27.986-5.358l-3.486-1.386c-12.907-5.131-26.495-7.733-40.386-7.733h-4.37c-4.267 0-3.459 3.459-3.459 7.726s.738 7.726 5.006 7.726h2.824c11.928 0 23.596 2.234 34.678 6.639l3.486 1.386c10.77 4.281 22.106 6.451 33.694 6.451 10.609 0 20.599-3.527 28.662-9.72l2.377 2.936c1.89 2.335 2.932 5.276 2.932 8.281 0 4.841-2.645 9.277-6.904 11.578l-5.351 2.891c-10.182 5.503-21.682 8.411-33.256 8.411-9.039 0-17.832-3.199-24.76-9.008l-6.941-5.821c-8.034-6.738-18.234-10.449-28.72-10.449-4.267 0-7.726 3.459-7.726 7.726s3.459 7.726 7.726 7.726c6.86 0 13.534 2.428 18.79 6.837l6.941 5.821c9.705 8.139 22.025 12.621 34.689 12.621 13.426 0 26.768-3.212 38.728-9.294l2.595 3.441c1.971 2.612 3.056 5.853 3.056 9.125 0 5.649-3.107 10.79-8.108 13.415-8.645 4.539-18.376 6.938-28.14 6.938h-4.85c-13.806 0-26.759-6.112-35.537-16.768-5.735-6.963-13.079-12.677-21.24-16.525l-13.486-6.732c-3.86-1.818 3.793 5.989 1.974 9.849s-.164 8.464 3.696 10.283l1.227.578c6.109 2.88 11.607 7.158 15.901 12.372 11.724 14.233 29.025 22.396 47.464 22.396h4.85c7.718 0 15.419-1.196 22.773-3.503l1.646 3.735c.794 1.803 1.197 3.716 1.197 5.685 0 5.741-3.432 10.859-8.744 13.038l-6.348 2.605c-9.285 3.809-19.081 5.74-29.118 5.74-11.115 0-21.107-6.61-25.456-16.84-4.689-11.032-11.053-21.185-18.928-30.204-.379-.434-8.113-9.126-8.499-9.555-2.855-3.172-.389 4.833-3.56 7.687-3.172 2.855-3.428 7.74-.573 10.911 7.261 8.066 13.095 17.219 17.34 27.206 6.778 15.945 22.353 26.247 39.678 26.247 12.058 0 23.827-2.32 34.982-6.897l6.348-2.605c11.136-4.569 18.331-15.298 18.331-27.335 0-4.127-.844-8.136-2.509-11.915l-1.604-3.64c9.138-5.529 14.744-15.386 14.744-26.167 0-6.609-2.192-13.154-6.172-18.431z"/><path d="m272.815 114.841c0-9.91-8.573-17.817-18.707-16.711-7.712.842-13.95 7.068-14.814 14.778-.341 3.045.136 5.947 1.236 8.519 1.469 3.435 2.374 7.085 2.374 10.821v139.149c0 7.211 5.641 13.396 12.851 13.528 7.345.134 13.342-5.78 13.342-13.094v-139.51c0-3.77.91-7.454 2.386-10.923.856-2.014 1.332-4.23 1.332-6.557z"/></g></g></g></svg>