<svg id="Capa_1" enable-background="new 0 0 512 512" height="512" viewBox="0 0 512 512" width="512" xmlns="http://www.w3.org/2000/svg"><g><path d="m366.33 98.279-3.204 132.44c-.021 16.328-3.564 32.451-10.394 47.285l-17.091 37.087c-4.584 9.941-16.699 16.194-17.627 27.063-.123 1.422 2.452 4.11 4.862 6.706l.041.041c2.06 2.215 4.007 4.368 4.069 5.615v.062l7.871 157.422h-182.928c-3.414 0-6.181-2.767-6.181-6.181v-140.074c0-4.187.869-8.774 1.38-13.279 0 0 5.35-9.429 4.489-12.867-3.111-12.414-11.608-25.195-19.489-35.487l-35.195-48.112c-8.962-11.71-23.071-32.595-23.071-32.595-1.113-5.816-1.69-11.753-1.69-17.74v-97.878c-.01-16.267 7.644-30.741 19.543-40.033 0 0 10.477-1.999 15.597-3.832 2.679-.958 6.583-2.678 9.818-4.162 3.224-1.483 5.79-2.73 5.79-2.73v-25.826c0-8.623 3.544-16.421 9.251-22.066 5.706-5.646 13.587-9.138 22.271-9.138 18.409 2.617 28.938 17.204 28.938 34.439l2.421 13.671c0-8.612 3.492-16.421 9.138-22.066 5.645-5.645 13.444-9.138 22.067-9.138 17.472 4.1 28.175 19.666 28.175 36.901l3.018 11.219c0-9.024 3.492-16.823 9.138-22.375 5.645-5.542 13.444-8.829 22.056-8.829 18.234 4.801 28.742 20.356 28.742 37.591l2.462 15.432c0-8.612 3.523-16.421 9.21-22.056 5.687-5.645 13.516-9.138 22.128-9.138 17.699 5.604 24.395 25.393 24.395 42.628z" fill="#ffdcd0"/><g fill="#ff7e7b"><circle cx="287.884" cy="147.674" r="7.726"/><circle cx="268.823" cy="126.303" r="7.726"/><circle cx="238.37" cy="200.543" r="7.726"/><circle cx="233.409" cy="232.746" r="7.726"/><circle cx="205.649" cy="215.687" r="7.726"/><circle cx="130.469" cy="167.499" r="7.726"/><circle cx="108.821" cy="143.146" r="7.726"/><circle cx="208.088" cy="341.618" r="7.726"/><circle cx="194.732" cy="368.659" r="7.726"/></g><path d="m372.995 86.844-.049 48.357-10.84 84.661 10.384 19.687c-1.059 13.247-4.443 26.224-10.014 38.342l-17.091 37.087-38.9 17.142c1.205-9.488 3.863-18.76 7.881-27.485l17.091-37.087c6.82-14.824 10.364-30.957 10.374-47.285l.103-164.613c17.175.083 31.061 14.011 31.061 31.194z" fill="#ffc7b6"/><g fill="#ffc7b6"><path d="m154.441 0c17.257.124 31.359 14.048 31.359 31.202v35.078c0 8.614-6.983 15.598-15.598 15.598-8.614 0-15.598-6.983-15.598-15.598z"/><path d="m279.395 96.596v-62.776c17.226 0 31.195 13.967 31.195 31.204v31.572c0 8.614-6.983 15.598-15.598 15.598-8.614-.001-15.597-6.984-15.597-15.598z"/><path d="m122.915 57.028-.002 40.023c0 8.614-6.983 15.598-15.598 15.598-8.614 0-15.598-6.983-15.598-15.598l-.002-29.3c8.604-6.721 19.444-10.723 31.2-10.723z"/><path d="m217.005 79.525-.003-62.615c17.226 0 31.198 13.972 31.198 31.198v31.417c0 8.614-6.983 15.598-15.598 15.598-8.614-.001-15.597-6.984-15.597-15.598z"/></g><path d="m167.103 308.014c-2.493 2.174-3.41 5.573-2.555 8.757.381 1.422.659 2.895.834 4.399 1.556 13.64-6.222 26.208-18.255 31.297.443-3.863.618-7.665-.247-11.105-3.111-12.414-12.692-22.685-20.573-32.976l-34.707-45.359c-8.963-11.713-14.999-25.291-17.74-39.621 3.853-13.866 16.112-24.559 31.544-25.518 17.379-1.071 33.028 11.188 36.417 28.258.01.082.031.165.041.247.649 3.379 3.163 6.057 6.511 6.83 17.359 4.007 31.132 18.564 33.265 37.272 1.68 14.68-4.192 28.474-14.535 37.519z" fill="#ff7e7b"/><path d="m341.884 142.402c-1.854 1.597-3.585 3.41-5.202 5.378-9.849 11.991-10.395 28.618-2.565 41.393 1.504 2.442 1.391 5.522-.227 7.819-.041.062-.072.113-.113.175-8.097 11.713-6.377 27.774 4.224 37.766.824.773 1.679 1.494 2.555 2.153 7.036 5.33 15.7 7.082 23.691 5.473v-108.281c-9.199-.083-16.442 2.989-22.363 8.124z" fill="#ff7e7b"/><path d="m372.944 135.201-.093 95.405c-.098 1.31.234-.425-.371 8.942-9.797 5.439-22.365 4.78-31.925-2.462.845-5.553 1.277-11.167 1.277-16.823l.051-77.861c7.676-6.655 17.555-9.869 31.061-7.201z" fill="#ff6464"/><g fill="#ff7e7b"><path d="m304.599 265.906c0 10.866-19.675 11.028-19.675 11.028s-19.675-.162-19.675-11.028 8.809-19.675 19.675-19.675 19.675 8.809 19.675 19.675z"/><path d="m214.407 473.374c0 10.866-19.675 11.028-19.675 11.028s-19.675-.162-19.675-11.028 8.809-19.675 19.675-19.675 19.675 8.809 19.675 19.675z"/><path d="m216.468 153.332c0 14.016-25.379 14.225-25.379 14.225s-25.379-.209-25.379-14.225 11.363-25.379 25.379-25.379 25.379 11.362 25.379 25.379z"/></g><g><path d="m229.888 407.031c0 11.682 1.904 22.92 5.426 33.417 18.005 36.768 52.636 65.933 98.927 65.933 57.973 0 100.161-41.376 100.161-99.349 0-46.29-29.304-78.014-66.127-99.545-10.496-3.522-21.736-5.424-33.419-5.424-57.972-.001-104.968 46.995-104.968 104.968z" fill="#8db9ff"/><path d="m439.828 407.029c0 57.976-46.996 104.971-104.971 104.971-46.294 0-85.587-29.963-99.543-71.552 10.5 3.534 21.748 5.44 33.43 5.44 57.975 0 104.971-46.996 104.971-104.971 0-11.682-1.906-22.929-5.44-33.43 41.59 13.955 71.553 53.248 71.553 99.542z" fill="#70abf2"/><path d="m280.582 387.836h32.851c1.231 0 2.229-.998 2.229-2.229v-32.851c0-1.231.998-2.229 2.229-2.229h33.931c1.231 0 2.229.998 2.229 2.229v32.851c0 1.231.998 2.229 2.229 2.229h6.387l24.523 1.671c1.231 0 2.229.998 2.229 2.229l.708 30.713c0 1.231-.998 2.229-2.229 2.229l-33.274-.111c-1.231 0-2.229.998-2.229 2.229l1.115 31.513c0 1.231-.998 2.229-2.229 2.229l-31.444 1.357c-1.231 0-2.229-.998-2.229-2.229l-1.946-24.827v-6.385c0-1.231-.998-2.229-2.229-2.229h-32.851c-1.231 0-2.229-.998-2.229-2.229v-33.931c-.001-1.231.998-2.229 2.229-2.229z" fill="#f5f8f9"/><path d="m391.361 390.063v33.932c0 1.237-1.003 2.229-2.229 2.229h-32.85c-1.226 0-2.229 1.003-2.229 2.229v32.85c0 1.237-1.003 2.229-2.229 2.229h-33.931c-1.226 0-2.229-.992-2.229-2.229v-26.463c20.299-10.155 36.852-26.708 47.007-47.007h26.463c1.223.001 2.227 1.004 2.227 2.23z" fill="#e8edf2"/></g></g></svg>