<svg id="Capa_1" enable-background="new 0 0 512 512" height="512" viewBox="0 0 512 512" width="512" xmlns="http://www.w3.org/2000/svg"><g><path d="m475.006 477.262h-449.008v-105.054l9.32-47.103-9.32-47.102v-126.31h449.008z" fill="#918291"/><path d="m.433 106.49c-.289.979-.433 1.988-.433 3.018v42.186l267.629 22.979 226.106-22.979v-45.204l-205.357-17.14z" fill="#70abf2"/><path d="m508.84 106.49h-508.407c.258-.907.629-1.772 1.123-2.586l29.525-49.212c.979-1.638 2.751-2.637 4.667-2.637h402.698l36.561 2.468c1.916 0 3.688.999 4.667 2.637l28.044 46.744c.494.814.865 1.679 1.122 2.586z" fill="#8db9ff"/><path d="m485.998 151.694v126.311l-11.848 45.402 11.848 48.797v105.058h-27.815v-325.568z" fill="#7a6d79"/><g><path d="m119.728 372.208h-36.417l-6.289-5.17-9.163 5.17h-41.861v-39.377l5.054-7.726-5.054-7.727v-39.375h41.861l9.163 9.724 6.289-9.724h36.417c3.006 0 5.443 2.437 5.443 5.443v83.319c0 3.006-2.437 5.443-5.443 5.443z" fill="#f5f8f9"/><path d="m26.002 317.378v15.453h41.856v39.373h15.453v-94.199h-15.453v39.373z" fill="#e8edf2"/></g><path d="m32 240.134c-17.673 0-32-14.327-32-32v-56.441h64l13.979 31.707-13.979 24.734c0 17.673-14.327 32-32 32z" fill="#f5f8f9"/><path d="m96 240.134c-17.673 0-32-14.327-32-32v-56.441h64l10.481 30.543-10.481 25.898c0 17.673-14.327 32-32 32z" fill="#8db9ff"/><path d="m160 240.134c-17.673 0-32-14.327-32-32v-56.441h64l8.146 32.87-8.146 23.571c0 17.673-14.327 32-32 32z" fill="#f5f8f9"/><path d="m224 240.134c-17.673 0-32-14.327-32-32v-56.441h64l8.87 38.864-8.87 17.577c0 17.673-14.327 32-32 32z" fill="#8db9ff"/><path d="m288 240.134c-17.673 0-32-14.327-32-32v-56.441h64l8.713 38.864-8.713 17.577c0 17.673-14.327 32-32 32z" fill="#f5f8f9"/><path d="m352 240.134c-17.673 0-32-14.327-32-32v-56.441h64l8.705 32.289-8.705 24.152c0 17.673-14.327 32-32 32z" fill="#8db9ff"/><path d="m416 240.134c-17.673 0-32-14.327-32-32v-56.441h64l9.344 33.452-9.344 22.989c0 17.673-14.327 32-32 32z" fill="#f5f8f9"/><path d="m480 236.145c-8.431 0-16.101.728-21.817-4.601-6.265-5.842-10.183-14.168-10.183-23.41v-56.441h22.793l37.486 6.115-.388 48.28c0 17.673-10.218 30.057-27.891 30.057z" fill="#8db9ff"/><path d="m512 151.694v56.444c0 17.668-14.33 31.997-31.997 31.997-7.85 0-15.306-2.706-21.819-8.591 6.974-5.862 12.609-13.588 12.609-23.406v-56.444l21.197-10.568z" fill="#70abf2"/><path d="m174.75 302.059h162.501v154.762h-162.501z" fill="#8db9ff"/><path d="m206.769 293.406h98.463v163.416h-98.463z" fill="#f5f8f9"/><path d="m392.272 372.208h36.417l6.289-5.17 9.163 5.17h35.631v-94.205h-35.631l-9.163 9.724-6.289-9.724h-36.417c-3.006 0-5.443 2.437-5.443 5.443v83.319c0 3.006 2.437 5.443 5.443 5.443z" fill="#f5f8f9"/><path d="m485.998 278.005v39.373l-3.704 7.727 3.704 7.726v39.373h-27.815v-94.199z" fill="#e8edf2"/><path d="m444.142 317.378v-39.373h-15.453v94.199h15.453v-39.373h27.099v-15.453z" fill="#e8edf2"/><path d="m458.183 317.378h27.815v15.453h-27.815z" fill="#d5dee2"/><g><path d="m264.87 306.572v154.322h-15.453v-154.322c0-4.265 3.461-7.726 7.726-7.726 4.265-.001 7.727 3.461 7.727 7.726z" fill="#e8edf2"/></g><g><path d="m275.12 388.7h-35.953c-4.268 0-7.726-3.459-7.726-7.726s3.459-7.726 7.726-7.726h35.953c4.268 0 7.726 3.459 7.726 7.726s-3.459 7.726-7.726 7.726z" fill="#d5dee2"/></g><g><path d="m158.1 97.899c0 10.896 1.776 21.377 5.061 31.166 16.792 34.292 49.091 61.492 92.263 61.492 54.068 0 93.415-38.589 93.415-92.657 0-43.172-27.33-72.759-61.673-92.84-9.789-3.286-20.271-5.06-31.167-5.06-54.068 0-97.899 43.831-97.899 97.899z" fill="#ff7e7b"/><path d="m353.9 97.897c0 54.071-43.83 97.901-97.901 97.901-43.175 0-79.822-27.945-92.838-66.733 9.793 3.296 20.283 5.073 31.178 5.073 54.07 0 97.901-43.83 97.901-97.901 0-10.895-1.778-21.385-5.073-31.178 38.788 13.016 66.733 49.662 66.733 92.838z" fill="#ff6464"/><path d="m205.38 79.997h30.638c1.148 0 2.079-.931 2.079-2.079v-30.638c0-1.148.931-2.079 2.079-2.079h31.645c1.148 0 2.079.931 2.079 2.079v30.638c0 1.148.931 2.079 2.079 2.079h5.957l22.871 1.559c1.148 0 2.079.931 2.079 2.079l.66 28.644c0 1.148-.931 2.079-2.079 2.079l-31.032-.103c-1.148 0-2.079.931-2.079 2.079l1.04 29.391c0 1.148-.931 2.079-2.079 2.079l-29.326 1.265c-1.148 0-2.079-.931-2.079-2.079l-1.815-23.155v-5.955c0-1.148-.931-2.079-2.079-2.079h-30.638c-1.148 0-2.079-.931-2.079-2.079v-31.646c0-1.148.931-2.079 2.079-2.079z" fill="#f5f8f9"/><path d="m308.697 82.074v31.646c0 1.154-.936 2.079-2.079 2.079h-30.638c-1.144 0-2.079.936-2.079 2.079v30.638c0 1.154-.936 2.079-2.079 2.079h-31.646c-1.144 0-2.079-.925-2.079-2.079v-24.681c18.931-9.471 34.37-24.909 43.841-43.841h24.681c1.143 0 2.078.936 2.078 2.08z" fill="#e8edf2"/></g><path d="m346.849 315.925h-181.698c-2.845 0-5.151-2.306-5.151-5.151v-27.074c0-2.845 2.306-5.151 5.151-5.151h181.698c2.845 0 5.151 2.306 5.151 5.151v27.074c0 2.845-2.306 5.151-5.151 5.151z" fill="#ff7e7b"/><path d="m512 109.508v42.186h-41.207v-42.186c0-1.03-.144-2.04-.433-3.018l15.642-11.212 25.565 11.212c.289.979.433 1.988.433 3.018z" fill="#619be0"/><path d="m511.567 106.49h-41.207c-.258-.907-.629-1.772-1.123-2.586l-30.792-51.849h37.808c1.916 0 3.688.999 4.667 2.637l29.525 49.212c.494.814.865 1.679 1.122 2.586z" fill="#70abf2"/><path d="m506.557 512h-145.53l-105.738-16.061-105.738 16.061h-144.108c-3.006 0-5.443-2.437-5.443-5.443v-53.353c0-3.006 2.437-5.443 5.443-5.443h169.307l83.781 16.042 78.72-16.042h169.306c3.006 0 5.443 2.437 5.443 5.443v53.353c0 3.006-2.437 5.443-5.443 5.443z" fill="#f5f8f9"/><path d="m174.75 447.758h162.501v43.092h-162.501z" fill="#e8edf2"/><path d="m361.027 485.03v26.97h-211.476v-26.97c0-2.843 2.308-5.151 5.151-5.151h201.174c2.854 0 5.151 2.308 5.151 5.151z" fill="#d5dee2"/></g></svg>