<svg id="Capa_1" enable-background="new 0 0 512 512" height="512" viewBox="0 0 512 512" width="512" xmlns="http://www.w3.org/2000/svg"><g><g><path d="m229.762 248.412c-6.565-5.506-16.346-4.647-21.85 1.917-1.343 1.601-2.792 3.097-4.306 4.445-7.781 6.929-17.673 10.442-29.404 10.442-2.776 0-5.343-.356-7.905-.546-38.924-2.886-53.581-26.898-53.581-56.316 0-28.711 9.804-51.866 53.695-56.33 2.547-.351 5.148-.532 7.79-.532 11.396 0 22.386 3.355 31.781 9.702 7.098 4.795 16.738 2.929 21.534-4.169 4.795-7.098 2.929-16.739-4.169-21.534-14.542-9.824-31.537-15.018-49.145-15.018-48.457 0-87.88 39.423-87.88 87.88s39.423 87.88 87.88 87.88c19.292 0 36.594-6.327 50.033-18.296 2.633-2.344 5.137-4.927 7.443-7.677 5.505-6.562 4.647-16.344-1.916-21.848z" fill="#ff7e7b"/><path d="m166.298 264.67c-2.446.373-4.996.549-7.639.549-31.355 0-56.864-25.509-56.864-56.864s25.509-56.864 56.864-56.864c2.612 0 5.203.176 7.753.529-27.675 3.814-49.069 27.623-49.069 56.335 0 28.671 21.332 52.459 48.955 56.315z" fill="#ff6464"/><path d="m466.989 227.46c-1.011-1.153-.459-2.947 1.017-3.362 8.654-2.434 16.647-6.926 23.319-13.238 10.737-10.158 16.491-22.844 16.491-37.164 0-29.294-19.94-52.034-50.408-52.034l-13.393-1.187h-25.689c-8.565 0-15.509 6.944-15.509 15.509v144.303c0 8.351 6.418 15.537 14.76 15.929 8.906.419 16.259-6.677 16.259-15.491v-42.406c0-1.913 2.37-2.805 3.632-1.367l47.365 54c3.066 3.496 7.355 5.282 11.666 5.282 1.431 0 2.886-.207 4.278-.603 1.869-1.673 3.839-2.44 5.724-4.224 6.105-5.774 2.468-16.072-3.073-22.389zm-33.155-73.894c0-1.145.928-2.073 2.073-2.073h20.838c13.138 0 24.236 10.124 24.236 22.107 0 12.086-11.099 22.297-24.236 22.297h-20.838c-1.145 0-2.073-.928-2.073-2.073z" fill="#ff7e7b"/><path d="m507.875 270.184c5.546 6.323 5.39 16.025-.715 21.798-1.876 1.772-4.074 2.985-6.385 3.649 3.535-3.711 4.374-9.888.197-14.449l-43.521-49.716c-3.206-3.662-1.581-9.318 3.022-10.898 19.214-6.595 33.259-25.966 32.87-46.967 0-29.292-24.783-53.122-55.257-53.122h18.657c30.474 0 55.257 23.83 55.257 53.122 0 14.325-5.908 27.8-16.647 37.958-6.675 6.312-14.667 10.801-23.322 13.236-1.472.415-2.032 2.208-1.016 3.369z" fill="#ff6464"/><path d="m318.169 122.1-11.999-1.626h-27.816c-8.565 0-15.509 6.944-15.509 15.509v144.303c0 5.138 2.434 9.828 6.246 12.773 3.793.17 5.261 1.634 8.471 1.786 8.906.419 13.17-6.844 13.17-15.658l.951-43.973c0-.797 2.63-1.326 3.29-1.673.288-.151.616-.237.963-.237h9.794l12.438-1.455c15.029 0 27.054-5.64 37.9-16.243 10.983-10.737 16.097-23.638 16.097-38.717 0-31.074-22.48-54.789-53.996-54.789zm.411 80.187h-22.644c-1.145 0-2.073-.928-2.073-2.073v-46.648c0-1.145.928-2.073 2.073-2.073h22.644c14.168 0 26.137 11.603 26.137 25.337 0 13.799-11.97 25.457-26.137 25.457z" fill="#ff7e7b"/><g fill="#ff6464"><path d="m295.936 233.305c-1.14 0-2.073.933-2.073 2.073v45.348c0 8.81-7.349 15.911-16.263 15.486-3.203-.145-6.126-1.296-8.51-3.151 3.721-2.83 6.116-7.307 6.116-12.335v-38.589c0-4.857 3.974-8.832 8.832-8.832z"/><path d="m375.738 176.824c0 15.081-6.053 29.303-17.03 40.041-10.852 10.604-25.104 16.439-40.124 16.439h-18.657c15.02 0 29.272-5.836 40.124-16.439 10.977-10.738 17.03-24.96 17.03-40.041 0-31.065-25.644-56.345-57.154-56.345h18.657c31.511 0 57.154 25.281 57.154 56.345z"/></g></g><g><path d="m91.173 391.526c-.144 0-.288-.004-.433-.012-3.443-.198-6.308-2.718-6.942-6.107l-28.404-151.71-13.37 59.651c-.768 3.425-3.809 5.86-7.318 5.86h-27.206c-4.143 0-7.5-3.358-7.5-7.5s3.357-7.5 7.5-7.5h21.2l20.034-89.385c.778-3.474 3.911-5.898 7.451-5.859 3.56.063 6.584 2.62 7.239 6.119l29.537 157.758 10.617-34.34c.971-3.142 3.876-5.285 7.165-5.285h393.757c4.143 0 7.5 3.358 7.5 7.5s-3.357 7.5-7.5 7.5h-388.225l-17.94 58.025c-.976 3.156-3.893 5.285-7.162 5.285z" fill="#ff6464"/></g></g></svg>