<svg id="Capa_1" enable-background="new 0 0 512 512" height="512" viewBox="0 0 512 512" width="512" xmlns="http://www.w3.org/2000/svg"><g><path d="m121.206 371.895c-9.539 12.115-14.732 27.083-14.732 42.505l239.27 39.384-2.565-39.384c0-15.422-5.192-30.39-14.732-42.505l-5.378-6.83c-14.32-18.183-22.159-41.846-22.159-64.984l29.535-54.857c8.664-16.122 2.658-36.211-13.423-44.936l-51.097-27.722h-82.188l-51.097 27.722c-16.091 8.726-22.097 28.814-13.434 44.936l29.041 55.104c0 23.138-7.345 46.554-21.665 64.737z" fill="#ff7e7b"/><path d="m266.832 387.266v24.508l-55.743-13.495c-8.18-1.978-15.113-7.376-19.027-14.814l-43.814-83.136 32.986-16.153 29.999 55.826 2.4 7.974s5.584 12.475 12.476 12.475l16.833 2.915c13.197-.001 23.89 10.703 23.89 23.9z" fill="#ffc7b6"/><path d="m191.263 159.299-20.169 12.787c-11.514 7.3-13.554 23.27-4.244 33.23l27.707 29.641c1.286 1.375 3.492 1.292 4.669-.177l25.603-31.936 25.603 31.936c1.178 1.469 3.384 1.553 4.669.177l27.707-29.641c9.31-9.96 7.27-25.93-4.244-33.23l-20.169-12.787z" fill="#ff6464"/><g><path d="m224.828 286.004c-4.267 0-7.726-3.459-7.726-7.726v-97.255c0-4.267 3.459-7.726 7.726-7.726s7.726 3.459 7.726 7.726v97.255c0 4.266-3.459 7.726-7.726 7.726z" fill="#ff6464"/></g><path d="m253.995 46.18h-58.334v-17.013c0-16.108 13.058-29.167 29.167-29.167 16.108 0 29.167 13.059 29.167 29.167z" fill="#685e68"/><path d="m247.284 188.612c-14.051 7.421-30.862 7.421-44.913 0-16.258-8.587-26.431-25.464-26.431-43.851v-49.693c0-27 21.888-48.888 48.888-48.888 27 0 48.888 21.888 48.888 48.888v49.693c0 18.387-10.173 35.264-26.432 43.851z" fill="#ffdcd0"/><path d="m224.828 35.659c26.477 0 63.665 27.47 65.43 63.979l.13 25.348c.056 10.905-14.843 16.381-14.843 16.381 0-5.422-3.893-7.058-7.355-10.851-2.759-3.022-6.406-5.257-10.605-6.278-12.573-3.057-23.537-10.73-30.715-21.497-.971-1.457-3.112-1.457-4.083 0-7.178 10.766-18.142 18.44-30.715 21.497-9.467 2.302-16.131 10.78-16.131 20.523-10.905 0-19.73-8.87-19.674-19.775l.13-25.348c1.564-32.349 25.384-58.563 56.218-64.117 3.965-.715 8.047.138 12.213.138z" fill="#918291"/><path d="m293.39 124.982c.051 10.91-8.767 19.779-19.676 19.779 0-4.873-1.669-9.426-4.512-13.052-.319-.412-.659-.804-1.01-1.195.505-1.751.773-3.616.762-5.532l-.124-25.342c-1.566-32.348-25.384-58.566-56.217-64.118 3.966-.721 8.046-1.092 12.218-1.092 36.551 0 66.663 28.701 68.425 65.21z" fill="#7a6d79"/><path d="m338.158 442.642-6.459 3.658-9.526-3.665-26.725-.011-21.991 46.365h86.284c8.406 0 16.687 2.038 24.133 5.94l24.787-10.415h18.453c28.975 0 52.464-23.489 52.464-52.464 0-28.975-23.489-52.464-52.464-52.464h-13.568c-2.96 0-5.841-.953-8.216-2.718l-13.134-9.757c-7.826-5.814-18.935-.228-18.935 9.522 0 2.22-1.8 4.019-4.019 4.019h-18.172c-13.877 0-24.154 12.897-21.056 26.423z" fill="#e59683"/><path d="m335.226 464.735c-.587.134-1.164.196-1.731.196-3.523 0-6.707-2.421-7.531-5.996l-3.791-16.297h15.988l2.864 12.846c.959 4.152-1.637 8.304-5.799 9.251z" fill="#d8816c"/><path d="m443.912 510.292-13.817 1.708h-26.977c-10.707 0-19.386-8.679-19.386-19.386v-1.015c0-10.146 8.225-18.371 18.371-18.371 11.89 0 21.529-9.639 21.529-21.529 0-9.465 3.715-18.536 10.317-25.275l8.072-.437 4.465-11.583-8.656-29.079c-2.476-8.317 3.755-16.673 12.433-16.673 4.326 0 8.53.524 12.551 1.512 21.82 9.089 35.782 26.284 35.782 50.909v32.349c0 32.352-22.332 56.87-54.684 56.87z" fill="#ffde80"/><path d="m502.682 421.076v32.348c0 32.348-26.228 58.576-58.576 58.576h-20.604c32.348 0 58.576-26.228 58.576-58.576v-42.65c0-16.38-7.51-30.998-19.264-40.61 9.436 2.308 17.863 7.18 24.518 13.835 9.488 9.489 15.35 22.593 15.35 37.077z" fill="#ffce61"/><path d="m72.028 474.03-62.71-9.796v-68.215c0-1.707 1.384-3.091 3.091-3.091h59.62v81.102z" fill="#918291"/><path d="m72.028 392.928h147.151c31.242 0 61.255 12.171 83.672 33.932 5.132 4.981 8.028 8.619 8.028 15.771l-.145.424c-5.081 14.898-5.03 31.069.145 45.935 0 6.882-3.808 13.198-9.894 16.411-8.21 4.334-17.354 6.6-26.639 6.6h-22.682l-8.698-9.076-170.938.194z" fill="#8db9ff"/><path d="m251.665 512h-64.598l-9.449-25.947 9.449-32.812h64.598c16.226 0 29.38 13.154 29.38 29.38-.001 16.225-13.155 29.379-29.38 29.379z" fill="#70abf2"/><path d="m88.285 470.152h-32.513v-80.48c0-3.089 2.504-5.593 5.593-5.593h21.326c3.089 0 5.593 2.504 5.593 5.593v80.48z" fill="#f5f8f9"/><g><path d="m463.041 441.989c-1.298 2.833-4.1 4.502-7.026 4.502-1.071 0-2.174-.227-3.214-.701-8.52-3.915-15.216-10.848-18.852-19.367.278-.278.556-.556.834-.824l11.703-11.198.834 3.606c1.813 6.078 6.161 11.085 11.93 13.732 3.873 1.782 5.573 6.366 3.791 10.25z" fill="#ffce61"/></g><path d="m156.087 506.22-20.603 5.78h-123.075c-1.707 0-3.091-1.384-3.091-3.091v-44.676h126.166l20.603 3.785z" fill="#e59683"/><path d="m166.122 464.23-10.034 47.77h-20.604v-47.77z" fill="#d8816c"/><path d="m187.066 512h-30.979v-59.816c0-3.089 2.504-5.593 5.593-5.593h19.793c3.089 0 5.593 2.504 5.593 5.593z" fill="#f5f8f9"/><path d="m283.223 242.433c-3.872-2.755-9.141-1.43-11.316 2.619l-10.049 18.679c-4.006 7.445-1.021 16.728 6.572 20.444l16.967-31.582c1.859-3.461 1.028-7.882-2.174-10.16z" fill="#ff6464"/><path d="m166.433 242.433c3.872-2.755 9.141-1.43 11.316 2.619l10.049 18.679c4.006 7.445 1.021 16.728-6.572 20.444l-16.967-31.582c-1.859-3.461-1.028-7.882 2.174-10.16z" fill="#ff6464"/><path d="m300.911 300.081-29.958 55.64c-2.534 4.708-7.458 7.644-12.805 7.644h-37.797c-6.892 0-12.476-5.584-12.476-12.475 0-5.336 2.163-10.168 5.656-13.66 3.492-3.492 8.324-5.656 13.66-5.656h15.772l25.466-47.399z" fill="#ffdcd0"/></g></svg>