<svg id="Capa_1" enable-background="new 0 0 512 512" height="512" viewBox="0 0 512 512" width="512" xmlns="http://www.w3.org/2000/svg"><g><path d="m266.14 485.471c-5.671 7.377-5.711 12.433-10.859 19.981-.744 1.17-2.054 1.857-3.44 1.857l-27.129 4.682-105.02.005-23.81-11.206-20.494 11.208-28.527.002c-2.276 0-4.121-1.845-4.121-4.121v-10.92c0-11.888 1.38-23.684 4.069-35.181 2.699-11.497 6.706-22.674 11.991-33.326 2.359-4.759 4.461-9.622 6.315-14.567v-129.565c0-11.445 3.482-22.303 9.632-31.359 6.15-9.055 14.948-16.308 25.579-20.531l42.87 11.126c12.414 5.635 24.599 10.058 34.808 1.023l6.704-1.023c.721.474 1.463.927 2.215 1.36l32.523 22.922c4.904 2.792 9.086 6.583 12.321 11.064s5.522 9.632 6.645 15.175c2.781 13.763-2.457 26.166-13.037 35.397l-2.998 2.627 29.52 25.63c7.891 6.748 14.587 14.68 19.882 23.457 5.285 8.787 9.169 18.42 11.425 28.557 6.315 28.266.943 53.041-17.064 75.726z" fill="#ffde80"/><path d="m271.316 491.293c-5.669 7.38-9.427 11.288-14.567 18.842-.742 1.164-2.06 1.854-3.441 1.854h-28.598c3.873-7.005 11.301-15.999 15.7-22.19 18.008-24.323 24.807-56.073 18.492-86.381-5.079-32.214-24.59-40.908-45.874-57.309-4.914-3.781-5.738-10.776-2.029-15.731 20.47-27.29 2.895-64.592-26.29-86.824.721.474 1.463.927 2.215 1.36l37.045 21.129c4.904 2.792 9.086 6.583 12.321 11.064s5.522 9.632 6.645 15.175c2.781 13.763-2.029 27.959-12.609 37.19l-2.998 2.627 1.968 7.353 9.634 2.555 19.571 16.712c7.891 6.748 14.587 14.68 19.882 23.457 5.285 8.787 9.169 18.42 11.425 28.557 6.315 28.268-.484 57.876-18.492 80.56z" fill="#ffce61"/><path d="m75.387 430.053h44.304v81.947h-44.304z" fill="#ffdcd0"/><path d="m236.063 134.655-5.687 4.574v23.911c0 13.114-11.579 23.2-24.57 21.387l-40.321-6.099-3.479 6.88 3.479 8.675v14.01c0 7.819 2.153 15.339 6.037 21.83 3.255 5.45 7.726 10.168 13.186 13.732l-3.513 3.152c-10.209 9.035-24.776 11.219-37.189 5.584l-43.68-19.862c9.076-13.372 13.98-29.206 13.98-45.493v-32.791c0-9.272-2.246-18.409-6.552-26.63l11.497-27.362v-20.366c0-15.988 6.48-30.462 16.957-40.95 10.477-10.477 24.951-16.957 40.939-16.957 30.05 0 54.414 24.364 54.414 54.404v20.212c0 2.162.557 4.287 1.617 6.17l6.738 11.971c3.791 6.718 2.164 15.186-3.853 20.018z" fill="#ffdcd0"/><path d="m127.905 297.562c-4.267 0-7.726 3.459-7.726 7.726v96.217c0 4.267 3.459 7.726 7.726 7.726s7.726-3.459 7.726-7.726v-96.217c.001-4.267-3.458-7.726-7.726-7.726z" fill="#ffce61"/><path d="m141.555 432.295c0 7.294-5.913 13.217-13.207 13.217h-61.615c-3.647 0-6.954-1.483-9.344-3.873s-3.863-5.697-3.863-9.344c0-6.521 4.729-11.93 10.941-13.001l33.072-4.699 33.065 4.699c3.111.536 5.851 2.153 7.809 4.461 1.957 2.297 3.142 5.274 3.142 8.54z" fill="#ffce61"/><path d="m141.555 406.283c0 6.521-4.729 11.929-10.951 13.011h-66.138c-6.212-1.082-10.941-6.49-10.941-13.011 0-7.294 5.913-13.207 13.207-13.207h61.615c7.294 0 13.208 5.913 13.208 13.207z" fill="#ffbf61"/><path d="m220.666 336.409c-3.551 1.641-7.435 2.541-11.366 2.541h-4.79c-4.265 0-7.726 3.461-7.726 7.726s3.461 7.726 7.726 7.726h4.79c8.264 0 16.294-2.398 23.159-6.834-4.18-3.233-7.506-7.74-11.793-11.159z" fill="#ffce61"/><path d="m238.927 342.01c-.402.68-.917 1.308-1.545 1.854-4.584 4.007-9.931 6.954-15.659 8.695-2.843-2.06-5.748-4.183-8.695-6.449-2.38-1.834-3.801-4.419-4.203-7.16h.474c6.593 0 13.063-2.514 18.028-6.851z" fill="#ffbf61"/><g><path d="m259.32 407.031c0 11.682 1.904 22.92 5.426 33.417 18.004 36.768 52.636 65.933 98.927 65.933 57.973 0 100.161-41.376 100.161-99.349 0-46.29-29.304-78.014-66.127-99.545-10.496-3.522-21.736-5.424-33.419-5.424-57.972-.001-104.968 46.995-104.968 104.968z" fill="#8db9ff"/><path d="m469.26 407.029c0 57.975-46.996 104.971-104.971 104.971-46.293 0-85.587-29.963-99.543-71.552 10.5 3.534 21.748 5.44 33.43 5.44 57.975 0 104.971-46.996 104.971-104.971 0-11.682-1.906-22.929-5.44-33.43 41.59 13.955 71.553 53.248 71.553 99.542z" fill="#70abf2"/><path d="m310.014 387.836h32.851c1.231 0 2.229-.998 2.229-2.229v-32.851c0-1.231.998-2.229 2.229-2.229h33.931c1.231 0 2.229.998 2.229 2.229v32.851c0 1.231.998 2.229 2.229 2.229h6.387l24.523 1.671c1.231 0 2.229.998 2.229 2.229l.708 30.713c0 1.231-.998 2.229-2.229 2.229l-33.274-.111c-1.231 0-2.229.998-2.229 2.229l1.115 31.513c0 1.231-.998 2.229-2.229 2.229l-31.444 1.357c-1.231 0-2.229-.998-2.229-2.229l-1.946-24.827v-6.385c0-1.231-.998-2.229-2.229-2.229h-32.851c-1.231 0-2.229-.998-2.229-2.229v-33.931c0-1.231.998-2.229 2.229-2.229z" fill="#f5f8f9"/><path d="m420.793 390.063v33.931c0 1.237-1.003 2.229-2.229 2.229h-32.85c-1.226 0-2.229 1.003-2.229 2.229v32.85c0 1.237-1.003 2.229-2.229 2.229h-33.931c-1.226 0-2.229-.992-2.229-2.229v-26.462c20.299-10.155 36.852-26.708 47.007-47.007h26.463c1.224 0 2.227 1.004 2.227 2.23z" fill="#e8edf2"/></g><path d="m188.258 0h-38.27c-38.273 0-69.3 31.027-69.3 69.3v46.7c0 .556.012 1.11.035 1.662.857 20.468 18.241 36.37 38.726 36.37h12.188c8.486 0 15.809-5.949 17.547-14.255.91-4.351-1.701-8.665-5.978-9.875-9.85-2.788-16.649-11.779-16.649-22.016 0-7.933 6.431-14.364 14.364-14.364h10.452c18.275.443 35.457-11.259 44.775-27.037 4.642.321 8.231 2.936 12.771 8.698 4.393 1.794 9.133 2.746 13.975 2.746h11.469c8.788 0 15.913-7.124 15.913-15.913-.001-34.25-27.767-62.016-62.018-62.016z" fill="#e59683"/><path d="m165.486 178.427v15.556l-13.557-1.968c-4.224-.587-7.17-4.492-6.583-8.715.587-4.234 4.492-7.18 8.715-6.593z" fill="#ffc7b6"/><g><path d="m218.664 43.443v1.236c0 10.116-4.162 21.788-9.745 30.504-.185-.072-.381-.155-.567-.237-4.553-1.947-8.715-4.811-12.208-8.458 4.358-6.284 7.067-14.165 7.067-21.809v-1.236c0-4.275 3.461-7.726 7.726-7.726 4.265-.001 7.727 3.45 7.727 7.726z" fill="#d8816c"/></g></g></svg>