<svg id="Capa_1" enable-background="new 0 0 512 512" height="512" viewBox="0 0 512 512" width="512" xmlns="http://www.w3.org/2000/svg"><g><path d="m476.914 501.896-.61-272.544c0-126.465-93.456-228.72-219.921-228.72-3.656 0-7.676-.546-11.29-.376-59.089 2.78-112.4 28.025-151.563 67.365-36.501 47.744-59.424 98.858-66.882 161.731v99.018l10.658 16.124v157.402z" fill="#f5f8f9"/><path d="m485.349 229.349v99.021l-9.045 19.656v153.868h-16.71v-280.724c0-80.931-61.152-172.576-136.272-202.678-27.166-10.879-54.126-16.71-80.22-18.131 4.265-.237 8.571-.361 12.898-.361 63.233 0 120.57 25.721 162.099 67.25 38.37 45.375 60.754 97.29 67.25 162.099z" fill="#e8edf2"/><g fill="#e8edf2"><path d="m79.128 338.569v163.325h-52.477v-173.524h42.289c5.625 0 10.188 4.564 10.188 10.199z"/><path d="m480.646 332.083v169.81h-47.826v-163.324c0-5.635 4.564-10.199 10.199-10.199h16.576z"/></g><g><path d="m459.595 328.37h25.755v173.524h-25.755z" fill="#d5dee2"/></g><g fill="#e8edf2"><path d="m135.077 109.168-39.198 120.902h-69.228v-.721c0-63.047 25.569-120.232 66.879-161.728z"/><path d="m413.202 73.136-42.512 42.512 42.114 113.701h63.5c-1.959-57.119-18.686-118.314-63.102-156.213z"/></g><g><path d="m459.595 229.349v-8.18c0-47.893-21.417-99.536-54.466-139.96l13.465-13.464c41.238 41.485 66.756 98.619 66.756 161.605h-25.755z" fill="#d5dee2"/></g><ellipse cx="256" cy="229.352" fill="#8db9ff" rx="176.868" ry="176.868" transform="matrix(.707 -.707 .707 .707 -87.196 248.195)"/><circle cx="256" cy="229.352" fill="#7a6d79" r="147.416"/><ellipse cx="256" cy="229.352" fill="#918291" rx="126.813" ry="126.812" transform="matrix(.23 -.973 .973 .23 -26.033 425.809)"/><path d="m311.182 294.775h-110.115l-25.205 170.723h160.524z" fill="#e8edf2"/><path d="m230.808 210.242h50.34c11.357 0 20.564 9.207 20.564 20.564v18.572h-91.468v-18.572c0-11.357 9.207-20.564 20.564-20.564z" fill="#f5f8f9"/><path d="m177.193 271.194h157.569v36.972c0 3.764-3.051 6.816-6.816 6.816h-143.937c-3.764 0-6.816-3.051-6.816-6.816z" fill="#d5dee2"/><path d="m359.059 476.004h-206.163v-29.627c0-4.306 3.49-7.796 7.796-7.796h190.571c4.306 0 7.796 3.49 7.796 7.796z" fill="#d5dee2"/><path d="m154.076 243.366h203.803c4.505 0 8.156 3.652 8.156 8.156v19.941c0 4.505-3.652 8.156-8.156 8.156h-203.803c-4.505 0-8.156-3.652-8.156-8.156v-19.941c0-4.504 3.652-8.156 8.156-8.156z" fill="#8db9ff"/><path d="m504.829 510.689-45.234 1.311h-454.739c-2.682 0-4.856-2.174-4.856-4.856v-29.638c0-2.682 2.174-4.856 4.856-4.856h454.738l45.825 3.354c2.682 0 4.856 2.174 4.856 4.856l-.59 24.972c.001 2.682-2.173 4.857-4.856 4.857z" fill="#918291"/><path d="m512 477.509v29.638c0 2.678-2.174 4.852-4.852 4.852h-47.553v-39.353h47.553c2.678.001 4.852 2.175 4.852 4.863z" fill="#7a6d79"/><g fill="#8db9ff"><path d="m421.069 419.352h38.526l35.208-1.723c2.758 0 4.994-2.236 4.994-4.994l.146-22.231c0-2.758-2.236-4.994-4.994-4.994l-35.353-3.057h-38.526c-2.758 0-4.994 2.236-4.994 4.994v27.012c-.001 2.757 2.235 4.993 4.993 4.993z"/><path d="m90.887 419.352h-75.635c-2.758 0-4.994-2.236-4.994-4.994v-27.012c0-2.758 2.236-4.994 4.994-4.994h75.635c2.758 0 4.994 2.236 4.994 4.994v27.012c-.001 2.758-2.236 4.994-4.994 4.994z"/></g><g><path d="m501.698 387.348v27.011c0 2.761-2.235 4.996-4.996 4.996h-37.107v-37.004h37.107c2.761.001 4.996 2.236 4.996 4.997z" fill="#70abf2"/></g><g fill="#5de1c4"><g><g><circle cx="55.532" cy="193.922" r="7.726"/><circle cx="67.273" cy="153.068" r="7.726"/><circle cx="89.264" cy="112.625" r="7.726"/></g><g><circle cx="456.469" cy="193.922" r="7.726"/><circle cx="444.727" cy="153.068" r="7.726"/><circle cx="422.736" cy="112.625" r="7.726"/></g></g><g><circle cx="52.734" cy="355.734" r="7.726"/><circle cx="52.734" cy="446.455" r="7.726"/></g><g><circle cx="459.266" cy="355.734" r="7.726"/><circle cx="459.266" cy="446.455" r="7.726"/></g></g><g><g fill="#0ed2b3"><path d="m464.2 193.921c0 3.595-2.452 6.614-5.779 7.469-.587-5.048-1.391-10.116-2.39-15.175.144-.021.288-.021.443-.021 4.264.001 7.726 3.462 7.726 7.727z"/><path d="m452.455 153.064c0 2.74-1.432 5.151-3.585 6.521-1.607-4.749-3.379-9.467-5.305-14.155.381-.062.773-.093 1.164-.093 4.265.001 7.726 3.462 7.726 7.727z"/><path d="m430.461 112.63c0 1.422-.381 2.751-1.061 3.894-2.246-3.925-4.595-7.798-7.036-11.6.124-.021.247-.021.371-.021 4.265 0 7.726 3.451 7.726 7.727z"/></g><g><g fill="#0ed2b3"><path d="m466.991 355.732c0 4.152-3.286 7.541-7.397 7.706v-15.412c4.111.165 7.397 3.554 7.397 7.706z"/><path d="m466.991 446.46c0 4.152-3.286 7.541-7.397 7.706v-15.412c4.111.155 7.397 3.544 7.397 7.706z"/></g></g></g></g></svg>