<svg id="Capa_1" enable-background="new 0 0 512 512" height="512" viewBox="0 0 512 512" width="512" xmlns="http://www.w3.org/2000/svg"><g><g><path d="m318.089 198.404c1.808.93 3.462 1.836 4.975 2.712 9.45 5.469 15.258 15.56 15.258 26.478v275.288c0 3.559 2.885 6.444 6.444 6.444h112.72l8.528-4.774c3.559 0 6.444-2.885 6.444-6.444l-2.141-277.785c0-5.636 1.478-11.175 4.325-16.04 6.446-11.012 20.052-32.286 20.052-61.664v-53.02l-68.181-9.423-108.424 20.704z" fill="#e59683"/><path d="m501.087 90.603v53.02c0 29.383-11.351 52.225-17.806 63.233-2.846 4.865-4.317 10.406-4.317 16.045v279.984c0 3.555-2.889 6.444-6.444 6.444h-15.035v-301.464c0-5.638 1.471-11.18 4.317-16.045 6.454-11.008 17.806-33.85 17.806-63.233v-40.991z" fill="#d8816c"/><path d="m363.05 80.17-5.823-40.475c0-1.873-.216-3.7-.635-5.45-2.494-10.577-12.086-18.457-23.541-18.457-11.467 0-21.051 7.902-23.533 18.496h-.004c-.008.032-.013.066-.021.098-.038.167-.091.328-.126.496-.011.055-.01.11-.013.165-.309 1.506-.478 3.057-.478 4.652v5.266l5.303 32.599z" fill="#e59683"/><path d="m363.055 80.175-54.18-2.9v-32.314l19.711.008c3.751.002 6.699-3.231 6.317-6.962-.096-.938-.263-2.118-.544-3.764-1.622-6.873-6.25-12.608-12.425-15.776 3.318-1.708 7.099-2.674 11.115-2.674 11.459 0 21.049 7.872 23.541 18.45.419 1.751.634 3.576.634 5.456z" fill="#d8816c"/><g><path d="m496.955 51.464c0-12.235-5.032-26.601-16.871-28.063-.973-.12-1.964-.186-2.969-.186-13.24 0-23.973 10.733-23.973 23.973l-5.317 21.808 5.317 21.611c0 13.24 10.733 23.973 23.973 23.973 1.006 0 1.996-.066 2.969-.186 11.839-1.463 17.05-15.124 17.05-27.358z" fill="#e59683"/><path d="m466.737 100.432c.249.005.505.004.766-.004 7.069-.222 12.581-6.245 12.581-13.318v-63.709c11.838 1.463 21.004 11.553 21.004 23.788v43.42c0 12.234-9.166 22.324-21.004 23.787-.971.122-1.96.188-2.969.188-11.123 0-20.483-7.585-23.181-17.86 3.708 2.349 8.095 3.708 12.803 3.708z" fill="#d8816c"/></g><g><path d="m450.786 36.465c0-12.234-6.781-25.172-18.62-26.635-.973-.12-1.964-.186-2.969-.186-13.24 0-23.973 10.733-23.973 23.973l-5.197 32.519 5.197 25.998c0 2.694.444 5.284 1.264 7.701 0 0 3.727 4.463 5.637 6.728 4.398 5.21 9.721 9.545 17.072 9.545 1.006 0 1.996-.066 2.969-.186 11.839-1.463 18.977-15.025 18.977-27.259z" fill="#e59683"/><path d="m419.763 103.845h.109c6.832-.049 12.295-5.724 12.295-12.557v-81.458c11.838 1.463 21.004 11.553 21.004 23.787v58.518c0 12.234-9.166 22.324-21.004 23.787v-.001c-.971.122-1.96.188-2.969.188-10.548 0-19.501-6.812-22.709-16.275 3.801 2.529 8.368 4.011 13.274 4.011z" fill="#d8816c"/></g><path d="m402.814 26.821c0-12.234-5.831-20.297-18.62-26.635-.973-.12-1.963-.186-2.969-.186-13.24 0-23.973 10.733-23.973 23.973v21.012l4.896 14.351-4.896 28.888c0 2.694.444 5.284 1.264 7.701 0 0 3.727 4.463 5.637 6.728 4.398 5.21 9.721 9.545 17.072 9.545 1.006 0 1.996-.066 2.969-.186 11.839-1.463 18.977-15.025 18.977-27.259z" fill="#e59683"/><path d="m384.198.19c11.831 1.455 20.998 11.546 20.998 23.785v64.251c0 12.23-9.168 22.32-20.998 23.785-.97.124-1.969.19-2.977.19-10.537 0-19.467-6.79-22.691-16.244-.009-.019-.019-.028-.019-.028-.818-2.425-1.255-5.012-1.255-7.703v-43.24c8.141.062 15.902 2.514 22.487 7.024 1.891 1.295 4.455-.059 4.455-2.351z" fill="#d8816c"/><path d="m356.904 67.474c12.924-.019 23.405 10.452 23.405 23.376 0 6.457-2.615 12.297-6.847 16.529-4.223 4.232-10.071 6.847-16.529 6.847h-24.888l-4.528 84.798c-1.436-1.017-4.625-2.42-6.166-3.133-.685-.342-2.585 2.875-3.261 2.513-22.378-11.916-38.589-34.667-38.589-59.298v-44.966c0-14.693 11.907-26.61 26.61-26.629z" fill="#e59683"/><g><path d="m390.626 186.514c-3.403.897-6.971-.807-8.36-4.041-2.628-6.12-8.026-15.229-18.594-22.557-8.601-5.973-19.289-8.999-31.77-8.999-4.253 0-7.675-3.494-7.588-7.745l.403-19.584c.108-5.251 4.453-9.42 9.704-9.312l3.804.078c.525.011.942.445.931.97l-.445 21.589c12.608.987 23.715 4.771 33.093 11.283 13.268 9.199 20.135 20.545 23.596 28.667 1.698 3.985-.585 8.547-4.774 9.651z" fill="#d8816c"/></g></g><path d="m60.863 272.586h25.273v157.083h-25.273z" fill="#d5dee2"/><path d="m474.871 469.764h-140.028c-5.716 0-10.349-4.633-10.349-10.349v-194.272c0-5.716 4.633-10.349 10.349-10.349h140.028c5.716 0 10.349 4.633 10.349 10.349v194.271c0 5.716-4.633 10.35-10.349 10.35z" fill="#7a6d79"/><g><path d="m383.151 421.991h-129.291c-44.11 0-79.868-35.758-79.868-79.868v-72.169c11.702-13.322 26.541-5.204 26.541 6.377v65.792c0 29.452 23.875 53.327 53.327 53.327h135.669c13.32 11.702 5.204 26.541-6.378 26.541z" fill="#d5dee2"/></g><path d="m97.66 285.995v25.45c0 3.131-2.538 5.668-5.668 5.668h-36.985c-3.131 0-5.668-2.538-5.668-5.668v-25.45c0-3.131 2.538-5.668 5.668-5.668h36.985c3.13 0 5.668 2.538 5.668 5.668z" fill="#e8edf2"/><path d="m210.515 285.995v25.45c0 3.131-2.538 5.668-5.668 5.668h-36.985c-3.131 0-5.668-2.538-5.668-5.668v-25.45c0-3.131 2.538-5.668 5.668-5.668h36.985c3.13 0 5.668 2.538 5.668 5.668z" fill="#e8edf2"/><path d="m182.453 282.474-37.133 5.54h-78.284c-30.996 0-56.124-25.128-56.124-56.124v-219.081c0-7.074 5.735-12.809 12.809-12.809h170.623l32.992 4.402c7.074 0 12.809 5.735 12.809 12.809l-1.568 209.138c0 30.997-25.128 56.125-56.124 56.125z" fill="#918291"/><path d="m248.943 12.805v219.089c0 30.988-25.126 56.124-56.124 56.124h-54.6c30.998 0 56.124-25.136 56.124-56.124v-231.894h41.794c7.078 0 12.806 5.738 12.806 12.805z" fill="#7a6d79"/><path d="m210.518 217.688v14.206c0 9.769-7.919 17.688-17.688 17.688h-62.903l-8.185-16.977 8.185-16.977h78.531c1.137-.001 2.06.922 2.06 2.06z" fill="#7a6d79"/><path d="m129.926 215.627v33.955h-62.892c-9.775 0-17.699-7.924-17.699-17.699v-14.196c0-1.138.922-2.06 2.06-2.06z" fill="#685e68"/><path d="m203.785 174.283-9.442 3.412h-140.88c-2.276 0-4.121-1.845-4.121-4.121v-131.023c0-2.276 1.845-4.121 4.121-4.121h140.881l8.087 3.214c2.276 0 4.121 1.845 4.121 4.121l1.355 124.397c-.001 2.276-1.846 4.121-4.122 4.121z" fill="#86e8d0"/><path d="m210.518 217.688v14.206c0 9.766-7.922 17.688-17.688 17.688h-1.33c1.844-5.563 2.843-11.507 2.843-17.688v-16.267h14.113c1.134 0 2.062.927 2.062 2.061z" fill="#685e68"/><path d="m210.518 42.546v131.029c0 2.277-1.844 4.121-4.121 4.121h-12.053v-139.27h12.053c2.276 0 4.121 1.854 4.121 4.12z" fill="#5de1c4"/><path d="m136.89 71.011-3.672 3.672c-1.207 1.207-3.164 1.207-4.371 0l-3.672-3.672c-5.702-5.702-14.948-5.702-20.65 0-5.702 5.702-5.702 14.948 0 20.65l24.322 24.322c1.207 1.207 3.164 1.207 4.371 0l24.322-24.322c5.702-5.702 5.702-14.948 0-20.65-5.703-5.702-14.948-5.702-20.65 0z" fill="#f5f8f9"/><path d="m339.106 432.881h-25.45c-3.131 0-5.668-2.538-5.668-5.668v-36.985c0-3.131 2.538-5.668 5.668-5.668h25.45c3.131 0 5.668 2.538 5.668 5.668v36.985c0 3.13-2.538 5.668-5.668 5.668z" fill="#e8edf2"/><path d="m400.027 331.492h-86.038c-3.315 0-6.002-2.687-6.002-6.002v-29.605c0-3.315 2.687-6.002 6.002-6.002h86.038z" fill="#685e68"/><path d="m111.723 460.676c-.051 11.837-3.07 23.643-9.076 34.295-2.967 5.264-7.232 9.519-12.269 12.455-5.038 2.946-10.838 4.574-16.875 4.574-12.084 0-23.22-6.511-29.144-17.029-6.057-10.745-9.076-22.674-9.076-34.614 0-.865.021-1.731.051-2.596l.113.051c25.416 4.727 46.899 8.218 76.276 2.864z" fill="#918291"/><path d="m111.723 460.285v.391c-24.724 9.601-52.323 8.571-76.275-2.864l-.113-.051c0-.144.01-.278.021-.422.464-10.92 3.461-21.757 9.004-31.585 2.967-5.254 7.232-9.519 12.259-12.455 5.038-2.946 10.838-4.574 16.885-4.574 6.037 0 11.837 1.628 16.874 4.574 5.038 2.936 9.302 7.201 12.269 12.455 6.047 10.713 9.066 22.622 9.076 34.531z" fill="#7a6d79"/><path d="m35.356 457.339c-.01.144-.021.278-.021.422" fill="#918291"/><path d="m111.723 460.676v-.391" fill="#918291"/><g><g><path d="m114.015 155.881h-32.824c-4.267 0-7.726-3.459-7.726-7.726 0-4.268 3.459-7.726 7.726-7.726h32.824c4.267 0 7.726 3.459 7.726 7.726 0 4.268-3.459 7.726-7.726 7.726z" fill="#5de1c4"/></g><g><path d="m178.662 155.881h-32.824c-4.267 0-7.726-3.459-7.726-7.726 0-4.268 3.459-7.726 7.726-7.726h32.824c4.267 0 7.726 3.459 7.726 7.726.001 4.268-3.458 7.726-7.726 7.726z" fill="#5de1c4"/></g></g><path d="m476.625 480.38-19.142 3.874h-63.716c-5.863 0-10.616-4.753-10.616-10.616v-221.688c0-5.863 4.753-10.616 10.616-10.616h63.716l19.142 2.94c5.863 0 10.616 4.753 10.616 10.616v214.873c.001 5.864-4.752 10.617-10.616 10.617z" fill="#918291"/><path d="m493.632 251.951v37.931l-15.843 68.524 15.843 77.298v37.931c0 5.862-4.749 10.621-10.611 10.621h-25.538v-242.926h25.538c5.862 0 10.611 4.76 10.611 10.621z" fill="#7a6d79"/><path d="m436.124 289.884c-3.19 0-5.777 2.587-5.777 5.777v134.267c0 3.19 2.586 5.777 5.777 5.777h40.502v-145.821z" fill="#7a6d79"/><path d="m457.483 289.883h36.149v145.822h-36.149z" fill="#685e68"/></g></svg>