<svg id="Capa_1" enable-background="new 0 0 512 512" height="512" viewBox="0 0 512 512" width="512" xmlns="http://www.w3.org/2000/svg"><g><path d="m139.351 372.573c-62.891-62.879-62.891-164.826 0-227.705l136.281-136.254c11.487-11.485 30.112-11.485 41.6 0l179.122 179.086 5.394 7.565c11.488 11.485 9.739 28.725-1.749 40.21l-135.98 130.194c-32.824 32.818-73.211 55.411-116.213 53.973-39.39-1.319-78.388-17.008-108.455-47.069z" fill="#8db9ff"/><path d="m503.385 236.317-136.282 136.256c-35.089 35.082-82.338 50.59-128.188 46.533 31.118-.43 62.105-12.515 85.849-36.255l168.53-168.496c8.211-8.21 8.211-21.511.007-29.713l10.084 10.082c11.49 11.487 11.483 30.113 0 41.593z" fill="#70abf2"/><path d="m118.174 426.551c-4.904-2.193-9.479-4.967-13.64-8.238-1.522-7.26-4.286-9.442-10.932-10.93-3.271-4.16-6.046-8.734-8.24-13.637-.855-1.911-.442-4.151 1.039-5.632l40.403-40.395 25.126-17.861 29.966 29.96-17.686 25.3-40.403 40.395c-1.48 1.48-3.721 1.893-5.633 1.038z" fill="#f5f8f9"/><path d="m326.867 334.21-28.823-21.05-127.358-127.332c-4.064-4.064-4.064-10.652 0-14.716l160.127-160.095c4.024-4.023 10.548-4.023 14.572 0l126.814 126.789 23.686 30.447c4.024 4.023 4.024 10.546 0 14.569l-154.299 151.388c-4.065 4.064-10.655 4.064-14.719 0z" fill="#f5f8f9"/><path d="m500.981 181.145-160.129 160.097c-4.065 4.065-10.652 4.065-14.717 0l-32.058-32.052c4.066 4.065 10.652 4.065 14.717 0l160.129-160.098c4.022-4.021 4.022-10.548 0-14.569l32.058 32.052c4.022 4.022 4.022 10.549 0 14.57z" fill="#e8edf2"/><path d="m209.092 175.556 74.853-74.838c1.61-1.609 4.219-1.609 5.829 0l113.767 113.745 2.337 8.291c1.61 1.609 1.61 4.218 0 5.828l-69.796 69.782c-1.61 1.609-4.219 1.609-5.829 0l-7.394-3.235-113.767-113.746c-1.609-1.609-1.609-4.218 0-5.827z" fill="#86e8d0"/><path d="m411.255 228.006-74.848 74.833c-1.61 1.61-4.219 1.61-5.829 0l-7.716-7.714 80.677-80.661 7.716 7.714c1.611 1.61 1.611 4.218 0 5.828z" fill="#5de1c4"/><path d="m294.979 374.51c-9.696 4.038-19.814 6.768-30.077 8.169-6.223.855-12.488-1.298-16.929-5.748l-24.812-24.807 9.814-19.158 20.839-11.5 43.152 43.144c3.072 3.06 2.011 8.231-1.987 9.9z" fill="#70abf2"/><path d="m253.815 321.466-30.653 30.659-63.358-63.346 8.389-22.265 22.275-8.383z" fill="#f5f8f9"/><path d="m190.468 258.131-30.664 30.648-24.812-24.807c-4.451-4.44-6.605-10.704-5.749-16.926 1.401-10.261 4.132-20.377 8.171-30.071 1.669-3.997 6.842-5.058 9.902-1.988z" fill="#70abf2"/><g><g><path d="m425.323 149.214c-1.978 0-3.955-.755-5.464-2.263l-54.842-54.83c-3.018-3.018-3.018-7.909 0-10.928 3.018-3.016 7.911-3.016 10.929 0l54.842 54.83c3.018 3.018 3.018 7.909 0 10.928-1.509 1.508-3.487 2.263-5.465 2.263z" fill="#e8edf2"/></g><g><path d="m389.492 157.594c-1.978 0-3.956-.755-5.464-2.263l-27.392-27.386c-3.018-3.018-3.018-7.909 0-10.928 3.018-3.016 7.911-3.016 10.929 0l27.392 27.386c3.018 3.018 3.018 7.909 0 10.928-1.509 1.508-3.487 2.263-5.465 2.263z" fill="#e8edf2"/></g></g><path d="m65.628 497.296c-15.712 15.709-36.346 16.368-51.64 0-6.832-7.311-13.861-14.586-13.984-24.126-.103-7.971 2.169-16.007 6.875-22.917 13.692-20.105 41.127-20.136 57.409-18.063 0 0 6.027 2.458 8.291 2.974 1.536.35 2.736 1.549 3.087 3.085 2.171 9.522 9.084 39.929-10.038 59.047z" fill="#ff7e7b"/><path d="m67.172 500.46c-15.713 15.71-41.39 15.38-56.691-.989-6.831-7.314-10.355-16.761-10.469-26.3 15.404 11.105 37.011 9.725 50.87-4.131 9.974-9.972 13.055-24.178 13.405-36.849 4.565.587 8.243 1.329 10.51 1.844 1.535.35 2.731 1.545 3.081 3.08 2.174 9.518 8.418 44.224-10.706 63.345z" fill="#ff6464"/><g><g><g><path d="m310.366 252.547c-3.094 0-6.014-1.87-7.204-4.926-1.548-3.977.421-8.455 4.398-10.003l50.31-19.581-15.07-15.066c-3.018-3.018-3.018-7.909 0-10.928 3.018-3.016 7.911-3.016 10.929 0l23.441 23.437c1.846 1.846 2.635 4.498 2.098 7.052s-2.327 4.665-4.759 5.612l-61.342 23.875c-.921.358-1.869.528-2.801.528z" fill="#0ed2b3"/></g></g><g><g><path d="m275.588 210.221c-6.48 0-12.955-2.401-17.931-7.18-7.603-7.301-10.021-18.353-6.16-28.156 1.563-3.971 6.05-5.925 10.021-4.359 3.972 1.563 5.924 6.049 4.36 10.019-1.556 3.952-.58 8.407 2.485 11.351 3.919 3.763 10.145 3.866 14.174.235 2.154-1.941 3.381-4.599 3.456-7.484.075-2.889-1.007-5.604-3.046-7.643-3.121-3.12-4.772-3.885-7.12-4.776-.238-.091-.397-.146-.453-.164-2.761-.913-4.794-3.306-5.23-6.18-.437-2.875.759-5.758 3.124-7.45l21.976-15.725c3.074-2.201 7.289-1.852 9.962.819l15.767 15.764c3.018 3.018 3.018 7.909 0 10.928-3.018 3.016-7.911 3.016-10.929 0l-11.133-11.132-7.068 5.058c.654.587 1.329 1.227 2.034 1.932 4.993 4.993 7.752 11.907 7.568 18.97-.186 7.164-3.226 13.756-8.56 18.562-4.898 4.414-11.1 6.611-17.297 6.611z" fill="#0ed2b3"/></g></g><path d="m283.634 225.819c0 4.267 3.46 7.726 7.728 7.726s7.728-3.459 7.728-7.726-3.46-7.726-7.728-7.726-7.728 3.458-7.728 7.726z" fill="#0ed2b3"/></g><g><path d="m118.928 403.911-14.394 14.402c-4.07-3.194-7.738-6.861-10.932-10.93l14.405-14.402c3.019-3.008 7.913-3.008 10.922 0 3.018 3.019 3.018 7.912-.001 10.93z" fill="#ff7e7b"/></g><path d="m141.057 329.221h30.394v52.905h-30.394z" fill="#e8edf2" transform="matrix(.707 -.707 .707 .707 -205.719 214.626)"/><path d="m198.678 384.323c-1.978 0-3.955-.755-5.464-2.263l-63.352-63.34c-3.018-3.018-3.018-7.909 0-10.928 3.018-3.016 7.911-3.016 10.929 0l63.352 63.34c3.018 3.018 3.018 7.909 0 10.927-1.509 1.51-3.487 2.264-5.465 2.264z" fill="#70abf2"/></g></svg>