<svg id="Capa_1" enable-background="new 0 0 512 512" height="512" viewBox="0 0 512 512" width="512" xmlns="http://www.w3.org/2000/svg"><g><path d="m383.033 224.242c0-19.533-11.905-33.364-31.438-33.364l-21.331-2.004h-206.481v35.452l135.895 8.049z" fill="#e8edf2"/><path d="m387.523 224.239v.082l-14.086 8.054-13.729-8.054c.165-19.12-15.885-35.418-35.366-35.449h27.815c19.532.001 35.366 15.835 35.366 35.367z" fill="#d5dee2"/><path d="m123.783 98.392v35.452l78.981 2.543 61.57-2.543c17.993.102 32.85-11.554 34.614-29.453.181-1.838-1.228-3.445-3.075-3.445l-31.982-2.555h-140.108z" fill="#918291"/><path d="m304.934 101.833c-1.762 17.905-17.204 32.111-35.201 32.008l-14.902 4.583-26.099-4.583c19.038 0 35.181-16.04 35.16-35.449h37.962c1.854 0 3.255 1.608 3.08 3.441z" fill="#7a6d79"/><g><path d="m314.293 235.481c-7.243 0-13.115-5.872-13.115-13.115v-38.816c0-12.367-10.06-23.477-22.427-23.477h-145.798c-7.243 0-13.115-5.872-13.115-13.115s5.872-13.115 13.115-13.115h136.78l8.585.725c26.83 0 44.286 22.151 44.286 48.981v38.816c0 7.244-1.068 13.116-8.311 13.116z" fill="#86e8d0"/></g><g><path d="m327.412 183.547v38.817c0 7.242-5.872 13.114-13.114 13.114-.443 0-.876-.021-1.308-.072v-51.859c0-26.826-21.83-49.706-48.655-49.706h14.423c26.825 0 48.654 22.88 48.654 49.706z" fill="#5de1c4"/></g><g><path d="m443.049 326.928v-22.027c0-12.367-10.06-23.477-22.427-23.477h-145.798c-7.243 0-13.115-5.872-13.115-13.115s5.872-13.115 13.115-13.115h145.799c26.83 0 48.656 22.877 48.656 49.706v22.027l-13.163 10.163z" fill="#f5f8f9"/></g><path d="m371.786 268.033h26.229v97.742h-26.229z" fill="#e8edf2"/><path d="m411.729 237.622-1.378 42.798c0 5.794-4.697 10.492-10.492 10.492l-40.151 3.35h-216.262v-69.935h216.262l41.529 2.803c5.795 0 10.492 4.697 10.492 10.492z" fill="#918291"/><path d="m414.04 234.819v48.954c0 5.79-4.698 10.487-10.487 10.487h-43.845v-69.939h43.845c5.789.001 10.487 4.698 10.487 10.498z" fill="#7a6d79"/><path d="m241.877 261.536h26.229v265.063h-26.229z" fill="#e8edf2" transform="matrix(0 -1 1 0 -139.075 649.059)"/><g><path d="m132.952 269.03c-7.112 0-12.877-5.766-12.877-12.877l.001-201.17c0-4.238-2.941-7.803-6.889-8.759-.68-.165-1.317-3.206-2.047-3.206l-22.676 2.954c-7.112 0-12.877-5.766-12.877-12.877s5.766-12.877 12.877-12.877l22.676 2.512c.712 0 1.345-2.49 2.047-2.448 18.186 1.099 32.644 16.244 32.644 34.702l-.001 201.17c-.001 7.11-5.767 12.876-12.878 12.876z" fill="#f5f8f9"/></g><path d="m113.186 20.274v25.95c-.68-.165-1.391-.258-2.122-.258h-22.602c-7.108 0-12.877-5.759-12.877-12.877 0-7.108 5.769-12.877 12.877-12.877h22.602c.711 0 1.421.021 2.122.062z" fill="#e8edf2"/><path d="m90.519 52.148h-72.002c-10.227 0-18.517-8.291-18.517-18.517v-1.073c0-10.227 8.29-18.518 18.517-18.518h72.002c1.138 0 2.06.922 2.06 2.06v33.987c0 1.138-.922 2.061-2.06 2.061z" fill="#86e8d0"/><g><circle cx="132.953" cy="357.28" fill="#f5f8f9" r="118.185"/><path d="m251.138 357.277c0 65.272-52.91 118.193-118.182 118.193-30.864 0-58.968-11.826-80.014-31.225 16.112 7.263 33.996 11.311 52.817 11.311 71.041 0 128.629-57.587 128.629-128.628 0-13.856-2.194-27.197-6.253-39.703 14.462 19.604 23.003 43.824 23.003 70.052z" fill="#e8edf2"/><g><g><path d="m132.953 347.805c-4.268 0-7.726-3.459-7.726-7.726v-93.986c0-4.268 3.459-7.726 7.726-7.726s7.726 3.459 7.726 7.726v93.986c0 4.267-3.459 7.726-7.726 7.726z" fill="#e8edf2"/></g><g><path d="m115.673 355.035c-1.311 0-2.639-.334-3.856-1.036l-76.643-44.251c-3.695-2.134-4.962-6.859-2.828-10.554 2.133-3.696 6.857-4.961 10.554-2.828l76.643 44.251c3.695 2.134 4.962 6.859 2.828 10.554-1.43 2.479-4.028 3.864-6.698 3.864z" fill="#e8edf2"/></g><g><path d="m32.265 423.144c-2.67 0-5.268-1.385-6.698-3.864-2.134-3.695-.867-8.421 2.828-10.554l90.203-52.078c3.693-2.133 8.421-.868 10.554 2.828 2.134 3.695.867 8.421-2.828 10.554l-90.203 52.078c-1.217.702-2.546 1.036-3.856 1.036z" fill="#e8edf2"/></g><g><path d="m132.953 474.565c-4.268 0-7.726-3.459-7.726-7.726v-90.728c0-4.268 3.459-7.726 7.726-7.726s7.726 3.459 7.726 7.726v90.728c0 4.268-3.459 7.726-7.726 7.726z" fill="#e8edf2"/></g><g><path d="m229.592 420.806c-1.311 0-2.639-.334-3.856-1.036l-82.103-47.402c-3.695-2.134-4.962-6.859-2.828-10.554 2.133-3.696 6.857-4.961 10.554-2.828l82.103 47.402c3.695 2.134 4.962 6.859 2.828 10.554-1.431 2.478-4.028 3.864-6.698 3.864z" fill="#e8edf2"/></g><g><path d="m141.783 359.913c-2.67 0-5.268-1.385-6.698-3.864-2.134-3.695-.867-8.421 2.828-10.554l93.543-54.007c3.693-2.132 8.422-.868 10.554 2.828 2.134 3.695.867 8.421-2.828 10.554l-93.543 54.007c-1.216.702-2.545 1.036-3.856 1.036z" fill="#e8edf2"/></g></g><g><g><path d="m140.682 450.756v16.081c0 4.265-3.462 7.726-7.726 7.726-4.265 0-7.726-3.461-7.726-7.726v-12.743c5.263-.804 10.424-1.917 15.452-3.338z" fill="#d5dee2"/></g><g><path d="m237.312 412.773c.062 1.411-.258 2.854-1.02 4.172-1.354 1.929-4.796 5.632-10.559 2.823l-20.202-11.662c3.276-4.007 6.305-8.221 9.066-12.609l18.863 10.889c2.379 1.38 3.75 3.822 3.852 6.387z" fill="#d5dee2"/></g></g><path d="m132.955 224.322c-73.431 0-132.955 59.534-132.955 132.955 0 21.657 5.178 42.104 14.363 60.172 24.833 41.615 67.911 65.079 119.685 65.079 73.421 0 125.63-51.892 125.63-125.323 0-73.422-53.302-132.883-126.723-132.883zm0 238.538c-58.319 0-105.583-47.265-105.583-105.583 0-58.308 47.265-105.583 105.583-105.583 58.308 0 105.583 47.275 105.583 105.583 0 58.318-47.275 105.583-105.583 105.583z" fill="#918291"/><path d="m265.91 357.277c0 73.431-59.534 132.955-132.955 132.955-51.767 0-96.631-29.587-118.595-72.782 20.449 20.624 47.811 34.367 78.325 37.457 12.414 5.13 26.012 7.953 40.27 7.953 58.308 0 105.583-47.265 105.583-105.583 0-10.209-1.453-20.078-4.162-29.412.01-.309.01-.629.01-.938 0-30.668-10.735-58.834-28.649-80.931 36.242 23.757 60.173 64.727 60.173 111.281z" fill="#7a6d79"/><g><path d="m55.601 285.666c-6.872 0-13.655-3.145-18.056-9.095-7.37-9.963-5.266-24.013 4.696-31.381 26.412-19.535 57.779-29.861 90.713-29.861 32.933 0 64.299 10.325 90.709 29.857 9.963 7.369 12.067 21.418 4.698 31.381-7.37 9.964-21.419 12.065-31.381 4.698-18.63-13.779-40.77-21.062-64.026-21.062-23.257 0-45.397 7.283-64.027 21.064-4.014 2.968-8.691 4.399-13.326 4.399z" fill="#86e8d0"/></g><circle cx="132.953" cy="357.28" fill="#918291" r="24.602"/></g><circle cx="384.901" cy="423.719" fill="#f5f8f9" r="66.514"/><path d="m451.415 423.724c0 36.726-29.782 66.508-66.519 66.508-17.647 0-33.707-6.882-45.616-18.111 7.592 2.586 15.751 3.997 24.23 3.997 41.403 0 74.977-33.563 74.977-74.966 0-7.067-.979-13.907-2.802-20.387 9.806 11.59 15.73 26.579 15.73 42.959z" fill="#e8edf2"/><g><g><path d="m365.702 420.366c-1.311 0-2.64-.334-3.856-1.036l-36.611-21.138c-3.695-2.134-4.962-6.859-2.828-10.554 2.133-3.696 6.859-4.961 10.554-2.828l36.611 21.138c3.695 2.134 4.962 6.859 2.828 10.554-1.43 2.479-4.028 3.864-6.698 3.864z" fill="#e8edf2"/></g><g><path d="m329.106 463.664c-2.67 0-5.267-1.385-6.698-3.864-2.134-3.695-.867-8.421 2.828-10.554l36.611-21.138c3.694-2.132 8.42-.868 10.554 2.828 2.134 3.695.867 8.421-2.828 10.554l-36.611 21.138c-1.217.702-2.545 1.036-3.856 1.036z" fill="#e8edf2"/></g><g><path d="m384.901 495.88c-4.268 0-7.726-3.459-7.726-7.726v-42.275c0-4.268 3.459-7.726 7.726-7.726s7.726 3.459 7.726 7.726v42.275c.001 4.267-3.458 7.726-7.726 7.726z" fill="#e8edf2"/></g><g><path d="m440.696 463.664c-1.311 0-2.64-.334-3.856-1.036l-36.611-21.138c-3.695-2.134-4.962-6.859-2.828-10.554 2.132-3.696 6.859-4.961 10.554-2.828l36.611 21.138c3.695 2.134 4.962 6.859 2.828 10.554-1.43 2.479-4.028 3.864-6.698 3.864z" fill="#e8edf2"/></g><g><path d="m404.1 420.366c-2.67 0-5.267-1.385-6.698-3.864-2.134-3.695-.867-8.421 2.828-10.554l36.611-21.138c3.694-2.132 8.42-.868 10.554 2.828 2.134 3.695.867 8.421-2.828 10.554l-36.611 21.138c-1.217.702-2.546 1.036-3.856 1.036z" fill="#e8edf2"/></g></g><g><g><path d="m392.623 470.257v17.894c0 .567-.062 1.113-.175 1.648-.752 3.482-3.843 6.078-7.551 6.078-3.698 0-6.799-2.596-7.551-6.078-.113-.536-.175-1.082-.175-1.648v-13.279c5.377-.979 10.548-2.544 15.452-4.615z" fill="#d5dee2"/></g><g><path d="m447.397 459.801c-1.432 2.483-4.028 3.863-6.696 3.863-.793 0-1.587-.113-2.349-.371-.515-.165-1.03-.381-1.514-.67l-18.296-10.559c3.523-3.801 6.655-7.984 9.333-12.455l16.689 9.632c.494.288.948.618 1.349.999 2.628 2.391 3.328 6.357 1.484 9.561z" fill="#d5dee2"/></g></g><g><path d="m384.901 497.96c-40.937 0-74.241-33.304-74.241-74.24s33.305-74.241 74.241-74.241 74.24 33.305 74.24 74.241-33.303 74.24-74.24 74.24zm0-133.03c-32.416 0-58.789 26.372-58.789 58.789 0 32.415 26.372 58.788 58.789 58.788 32.415 0 58.788-26.372 58.788-58.788s-26.372-58.789-58.788-58.789z" fill="#918291"/></g><g><path d="m459.141 423.724c0 40.929-33.306 74.235-74.245 74.235-26.115 0-49.129-13.568-62.367-34.017 10.292 6.737 22.345 11.002 35.325 11.971 8.097 4.214 17.297 6.593 27.042 6.593 32.42 0 58.792-26.373 58.792-58.782 0-8.633-1.865-16.833-5.223-24.22-.278-13.073-3.904-25.312-10.065-35.912 18.616 13.506 30.741 35.428 30.741 60.132z" fill="#7a6d79"/></g><path d="m385.551 442.068h-1.301c-11.455 0-20.741-9.286-20.741-20.741v-70.918c0-3.006 2.437-5.443 5.443-5.443h31.898c3.006 0 5.443 2.437 5.443 5.443v70.918c-.001 11.455-9.287 20.741-20.742 20.741z" fill="#7a6d79"/><g><path d="m443.049 326.928v21.063c0 2.844 2.305 5.15 5.15 5.151l58.649.014c2.845.001 5.152-2.306 5.152-5.151v-15.926c0-2.845-2.306-5.151-5.151-5.151z" fill="#918291"/></g></g></svg>