<svg id="Capa_1" enable-background="new 0 0 512 512" height="512" viewBox="0 0 512 512" width="512" xmlns="http://www.w3.org/2000/svg"><g><g><path d="m11.765 0h109.483c8.552 0 15.414 6.998 15.457 15.55.063 12.665 12.85 22.376 26.206 16.976 6.884-2.783 10.953-9.711 10.984-17.136.036-8.733 7.316-15.757 16.142-15.376 8.379.362 14.858 7.595 14.768 15.981-.29 27.051-22.387 48.969-49.505 48.969-21.904 0-40.531-14.299-47.038-34.051h-96.497c-1.138 0-2.061-.923-2.061-2.061v-26.791c-.001-1.138.922-2.061 2.061-2.061z" fill="#918291"/></g><g><path d="m155.299 111.338c-4.269 0-7.73-3.461-7.73-7.73v-69.557c0-4.269 3.461-7.73 7.73-7.73s7.73 3.461 7.73 7.73v69.557c0 4.269-3.461 7.73-7.73 7.73z" fill="#7a6d79"/></g><g><path d="m155.299 512c-4.269 0-7.73-3.461-7.73-7.73v-38.562c0-4.269 3.461-7.73 7.73-7.73s7.73 3.461 7.73 7.73v38.562c0 4.269-3.461 7.73-7.73 7.73z" fill="#f25555"/></g><path d="m218.22 418.769 27.303-3.508c8.117 0 14.721-6.604 14.721-14.721l-2.522-51.801c0-14.89-2.388-29.605-7.097-43.734-10.522-31.564-7.499-67.3 3.023-98.863 4.709-14.13 7.097-28.844 7.097-43.734l.664-51.07c0-8.118-6.604-14.721-14.721-14.721l-39.989-3.649h-151.535c-8.117 0-14.721 6.604-14.721 14.721v55.499c0 14.891 2.388 29.605 7.097 43.734 10.521 31.564 10.521 66.33 0 97.894-4.709 14.128-7.097 28.842-7.097 43.734v55.499c0 8.117 6.604 14.721 14.721 14.721h163.056z" fill="#f5f8f9"/><path d="m259.571 206.919c-10.523 31.57-10.523 66.334 0 97.894 4.7 14.131 7.091 28.849 7.091 43.732v55.502c0 8.122-6.607 14.718-14.718 14.718h-33.724v-70.22c0-14.883-2.391-29.601-7.091-43.732-10.523-31.559-10.523-66.324 0-97.894 4.7-14.131 7.091-28.838 7.091-43.732v-55.502c0-8.122-6.586-14.718-14.718-14.718h48.442c8.111 0 14.718 6.607 14.718 14.718v55.502c0 14.894-2.391 29.602-7.091 43.732z" fill="#e8edf2"/><path d="m232.092 347.983 1.379 28.112c0 6.627-5.37 11.997-11.997 11.997l-3.254 1.742h-33.528c-6.576 0-11.904 5.329-11.904 11.904v54.038h-34.971v-54.038c0-6.576-5.329-11.904-11.904-11.904h-44.547c-6.617 0-11.987-5.37-11.987-11.997v-29.282c0-4.308.241-8.612.732-12.883 3.499-5.46 4.468-10.116 2.958-15.46.512-1.877 1.077-3.74 1.701-5.586 1.434-4.248 2.701-8.547 3.814-12.883 5.979-4.804 4.619-9.752 3.257-15.46 1.955-11.766 2.773-23.71 2.432-35.62 22.551.227 22.819 4.142 45.917 4.142 23.365 0 23.365-10.441 46.721-10.441 23.098 0 18.866 14.324 41.428 14.551.495 18.15 2.519 37.835 8.342 55.099 3.69 10.933 5.411 22.435 5.411 33.969z" fill="#ff7e7b"/><path d="m234.949 135.134-2.448 27.355c0 11.781-2.477 22.973-6.208 34.146-6.792 20.387-9.7 42.294-3.455 64.446-22.562-.227-22.829-10.431-45.927-10.431-23.355 0-23.355 10.441-46.721 10.441-23.098 0-23.366-10.204-45.917-10.431-.505-18.171-3.669-36.259-9.503-53.544-3.69-10.925-5.39-22.407-5.39-33.94v-29.282c0-6.627 5.37-11.997 11.987-11.997h136.853l4.732 1.239c6.627.001 11.997 5.371 11.997 11.998z" fill="#e8edf2"/><path d="m237.731 348.545v29.292c0 6.627-5.37 11.997-11.997 11.997h-7.514v-41.289c0-14.883-2.391-29.601-7.091-43.732-5.133-15.367-7.751-31.487-7.885-47.638 5.963-3.674 11.017.379 19.593 3.906.495 18.15 3.659 36.228 9.482 53.492 3.691 10.936 5.412 22.438 5.412 33.972z" fill="#ff6464"/><path d="m237.731 133.895v29.292c0 11.781-1.886 23.407-5.617 34.579-6.792 20.387-9.895 41.907-9.276 63.315-9.235-.093-14.728-1.855-19.593-3.906-.144-17.017 2.484-34.054 7.885-50.256 4.7-14.131 7.091-28.838 7.091-43.732v-41.289h7.514c6.626 0 11.996 5.37 11.996 11.997z" fill="#d5dee2"/><g><g fill="#ff6464"><path d="m107.257 301.742h-28.673c1.319-5.102 2.401-10.266 3.257-15.46h25.417c4.267 0 7.73 3.463 7.73 7.73s-3.464 7.73-7.731 7.73z"/><path d="m114.987 327.941c0 4.267-3.463 7.73-7.73 7.73h-37.146c.598-5.215 1.577-10.389 2.958-15.46h34.188c4.267 0 7.73 3.463 7.73 7.73z"/></g></g><path d="m189.004 214.173h-67.409c-3.984 0-7.213-3.229-7.213-7.213v-42.047c0-3.984 3.229-7.213 7.213-7.213h67.409c3.984 0 7.213 3.229 7.213 7.213v42.047c0 3.984-3.23 7.213-7.213 7.213z" fill="#8db9ff"/><path d="m170.05 320.212h-8.766v-8.766c0-4.269-3.461-7.73-7.73-7.73s-7.73 3.461-7.73 7.73v8.766h-8.767c-4.269 0-7.73 3.461-7.73 7.73s3.461 7.73 7.73 7.73h8.767v8.767c0 4.269 3.461 7.73 7.73 7.73s7.73-3.461 7.73-7.73v-8.767h8.766c4.269 0 7.73-3.461 7.73-7.73s-3.461-7.73-7.73-7.73z" fill="#f5f8f9"/><path d="m179.999 473.685h-49.4c-2.845 0-5.152-2.307-5.152-5.152v-17.194c0-2.845 2.307-5.152 5.152-5.152h49.4c2.845 0 5.152 2.307 5.152 5.152v17.194c0 2.846-2.307 5.152-5.152 5.152z" fill="#ff6464"/><g><path d="m326.668 329.034c1.735.893 3.323 1.762 4.775 2.603 9.069 5.249 14.643 14.933 14.643 25.411v148.765c0 3.415 2.769 6.184 6.184 6.184h108.18l8.185-4.582c3.415 0 6.184-2.769 6.184-6.184l-2.055-151.162c0-5.409 1.419-10.725 4.151-15.394 6.186-10.569 19.245-30.985 19.245-59.181v-50.884l-65.435-9.043-104.057 19.871z" fill="#ffdcd0"/><path d="m502.296 225.574v50.885c0 28.199-10.894 50.122-17.089 60.686-2.731 4.669-4.143 9.987-4.143 15.398v153.272c0 3.412-2.773 6.184-6.184 6.184h-14.43v-173.885c0-5.411 1.412-10.729 4.143-15.398 6.194-10.564 17.089-32.487 17.089-60.686v-39.341z" fill="#ffc7b6"/><path d="m369.818 215.562-5.589-38.845c0-1.798-.207-3.551-.609-5.23-2.394-10.151-11.599-17.714-22.593-17.714-11.005 0-20.203 7.584-22.585 17.751h-.004c-.008.031-.012.063-.02.094-.037.16-.087.315-.121.476-.011.053-.009.106-.012.158-.296 1.445-.459 2.934-.459 4.465v5.054l5.089 31.286z" fill="#ffdcd0"/><path d="m369.823 215.566-51.998-2.783v-31.013l18.917.008c3.6.001 6.429-3.101 6.063-6.682-.092-.9-.252-2.032-.522-3.612-1.556-6.596-5.998-12.1-11.925-15.141 3.185-1.639 6.813-2.566 10.668-2.566 10.997 0 20.201 7.555 22.593 17.707.402 1.68.608 3.432.608 5.236z" fill="#ffc7b6"/><g><path d="m498.33 188.012c0-11.742-4.829-25.529-16.191-26.933-.934-.115-1.885-.178-2.85-.178-12.707 0-23.008 10.301-23.008 23.008l-5.103 20.93 5.103 20.741c0 12.707 10.301 23.008 23.008 23.008.965 0 1.916-.063 2.85-.178 11.362-1.404 16.363-14.514 16.363-26.256z" fill="#ffdcd0"/><path d="m469.329 235.007c.239.005.484.004.735-.004 6.784-.213 12.074-5.994 12.074-12.782v-61.143c11.362 1.404 20.158 11.088 20.158 22.83v41.671c0 11.741-8.797 21.425-20.158 22.829-.932.117-1.881.181-2.849.181-10.676 0-19.658-7.28-22.247-17.141 3.558 2.255 7.769 3.559 12.287 3.559z" fill="#ffc7b6"/></g><g><path d="m454.02 173.616c0-11.742-6.508-24.159-17.87-25.563-.934-.115-1.885-.178-2.85-.178-12.707 0-23.008 10.301-23.008 23.008l-4.987 31.21 4.987 24.952c0 2.585.426 5.071 1.213 7.39 0 0 3.577 4.284 5.41 6.457 4.22 5 9.329 9.161 16.385 9.161.965 0 1.916-.063 2.85-.178 11.362-1.404 18.213-14.42 18.213-26.162z" fill="#ffdcd0"/><path d="m424.246 238.283h.104c6.557-.047 11.8-5.494 11.8-12.051v-78.178c11.361 1.405 20.158 11.088 20.158 22.83v56.161c0 11.741-8.797 21.425-20.158 22.83v-.001c-.932.117-1.881.181-2.849.181-10.123 0-18.716-6.537-21.795-15.619 3.65 2.425 8.032 3.847 12.74 3.847z" fill="#ffc7b6"/></g><path d="m407.98 164.361c0-11.742-5.596-19.479-17.87-25.563-.934-.115-1.885-.178-2.85-.178-12.707 0-23.008 10.301-23.008 23.008v20.166l4.699 13.773-4.699 27.724c0 2.585.426 5.071 1.213 7.39 0 0 3.577 4.284 5.41 6.457 4.22 5 9.329 9.161 16.385 9.161.965 0 1.916-.063 2.85-.178 11.362-1.404 18.213-14.42 18.213-26.162z" fill="#ffdcd0"/><path d="m390.114 138.802c11.354 1.396 20.153 11.081 20.153 22.827v61.664c0 11.737-8.799 21.422-20.153 22.827-.931.119-1.889.182-2.857.182-10.113 0-18.683-6.517-21.778-15.589-.009-.018-.018-.027-.018-.027-.785-2.327-1.205-4.81-1.205-7.393v-41.499c7.813.059 15.262 2.413 21.582 6.741 1.815 1.243 4.276-.057 4.276-2.256z" fill="#ffc7b6"/><path d="m363.919 203.376c12.404-.018 22.462 10.031 22.462 22.435 0 6.197-2.51 11.801-6.572 15.863-4.052 4.062-9.666 6.572-15.863 6.572h-23.886l-4.346 81.384c-1.378-.976-4.439-2.323-5.917-3.007-.657-.329-2.481 2.759-3.129 2.412-21.476-11.436-37.035-33.271-37.035-56.91v-43.155c0-14.102 11.427-25.538 25.538-25.556z" fill="#ffdcd0"/><g><path d="m396.283 317.622c-3.266.861-6.691-.774-8.023-3.878-2.522-5.874-7.703-14.616-17.846-21.649-8.255-5.732-18.512-8.637-30.491-8.637-4.081 0-7.366-3.353-7.282-7.434l.387-18.795c.104-5.04 4.273-9.041 9.313-8.937l3.651.075c.504.01.904.427.894.931l-.427 20.72c12.1.947 22.76 4.579 31.76 10.829 12.734 8.829 19.324 19.717 22.645 27.512 1.63 3.826-.561 8.204-4.581 9.263z" fill="#ffc7b6"/></g><g><path d="m414.188 511.997c-4.27 0-7.73-3.461-7.73-7.73v-86.042c0-4.269 3.46-7.73 7.73-7.73s7.73 3.461 7.73 7.73v86.042c0 4.269-3.46 7.73-7.73 7.73z" fill="#ff7e7b"/></g><path d="m423.977 431.35h-19.579c-4.076 0-7.221-3.586-6.689-7.627l3.626-27.541h25.704l3.626 27.541c.533 4.041-2.612 7.627-6.688 7.627z" fill="#e8edf2"/><g fill="#f5f8f9"><path d="m443.964 400.536h-59.552c-3.36 0-6.085-2.724-6.085-6.085v-18.654c0-3.36 2.724-6.085 6.085-6.085h59.552c3.36 0 6.085 2.724 6.085 6.085v18.654c0 3.361-2.725 6.085-6.085 6.085z"/><path d="m443.964 488.887h-59.552c-3.36 0-6.085-2.724-6.085-6.085v-18.654c0-3.36 2.724-6.085 6.085-6.085h59.552c3.36 0 6.085 2.724 6.085 6.085v18.654c0 3.36-2.725 6.085-6.085 6.085z"/></g></g></g></svg>