<svg id="Capa_1" enable-background="new 0 0 512 512" height="512" viewBox="0 0 512 512" width="512" xmlns="http://www.w3.org/2000/svg"><g><path d="m393.397 161.492c0 32.407-7.363 59.599-21.703 88.661l-32.035 74.036c-11.808 23.945-21.642 50.499-21.642 77.203v60.992c0 7.958-6.465 14.412-14.412 14.412-9.203 0-14.472 1.049-22.594-2.811-8.112-3.85-15.39-9.492-21.207-16.626-17.439-21.392-29.906-46.387-36.505-73.184l-5.425-22.051c-1.071-4.324-3.541-7.999-6.856-10.603-3.315-2.594-7.474-4.118-11.931-4.118-8.905 0-16.657 6.084-18.788 14.721l-5.425 22.051c-3.305 13.404-8.061 26.344-14.186 38.615-6.125 12.281-13.599 23.873-22.319 34.569-5.816 7.134-13.084 12.776-21.196 16.626-8.123 3.86-17.089 5.93-26.292 5.93-7.958 0-14.412-6.455-14.412-14.412v-64.32c0-26.704-6.146-53.048-17.954-76.993l-36.721-74.45c-7.175-14.525-12.621-29.792-16.276-45.471-3.655-15.671-5.518-31.772-5.518-47.975 0-29.504 11.962-56.229 31.295-75.562s46.058-31.295 75.562-31.295c18.736 0 37.143 4.921 53.377 14.279l39.233 22.617 13.521-1.189 1.877-7.863 23.072-13.564c8.122-4.684 16.78-8.246 25.747-10.645 2.853-.762 5.739-1.4 8.647-1.925 0 0 12.553 1.055 18.943 1.055 29.504 0 51.59 13.416 70.923 32.749 19.335 19.331 31.2 47.036 31.2 76.541z" fill="#f5f8f9"/><path d="m398.173 156.294c.01 32.026-7.424 64.255-21.794 93.444l-36.721 74.45c-11.808 23.945-17.954 50.289-17.954 76.993v64.32c0 2.759-.782 5.343-2.131 7.546-2.532 4.118-7.083 6.866-12.271 6.866h-.01c-9.25 0-18.25-2.09-26.405-5.988 0-.001 0-.002-.001-.003 1.719-2.368 2.728-5.281 2.728-8.421v-26.126c0-6.515-1.401-12.931-3.913-18.943-1.217-2.913-2.338-5.886-3.355-8.916-4.53-13.517-6.835-27.651-6.835-42.043 0-45.766 23.416-86.175 58.89-109.87 5-3.34 9.083-7.896 11.62-13.347 12.931-27.789 20.145-59.186 20.061-89.962 0-29.504-11.962-56.229-31.296-75.562-15.061-15.061-34.6-25.644-56.455-29.587 6.238-1.132 12.59-1.709 18.983-1.709 29.504 0 56.229 11.962 75.562 31.295 19.335 19.334 31.297 46.059 31.297 75.563z" fill="#e8edf2"/><path d="m256.262 110.051c-1.431 2.481-4.025 3.871-6.702 3.871-1.307 0-2.635-.34-3.85-1.04l-46.243-26.55 15.401-9.049 38.563 22.226c3.686 2.131 4.963 6.846 2.831 10.542z" fill="#e8edf2"/><g fill="#ffde80"><path d="m91.631 79.03c-21.388 10.978-31.173 20.763-42.151 42.151-.768 1.497-2.902 1.497-3.67 0-10.979-21.388-20.764-31.173-42.151-42.151-1.497-.768-1.497-2.902 0-3.67 21.388-10.978 31.173-20.763 42.151-42.151.768-1.497 2.902-1.497 3.67 0 10.978 21.388 20.763 31.173 42.151 42.151 1.496.768 1.496 2.902 0 3.67z"/><path d="m355.596 176.118c-17.067 8.85-25.092 16.875-33.943 33.943-.773 1.49-2.893 1.49-3.666 0-8.85-17.067-16.875-25.093-33.943-33.943-1.49-.773-1.49-2.893 0-3.666 17.067-8.85 25.093-16.875 33.943-33.943.773-1.49 2.893-1.49 3.666 0 8.85 17.067 16.875 25.093 33.943 33.943 1.49.773 1.49 2.893 0 3.666z"/><path d="m240.961 252.851c-10.623 5.852-16.365 11.594-22.217 22.217-1.168 2.121-4.23 2.121-5.398 0-5.852-10.623-11.594-16.365-22.217-22.217-2.121-1.168-2.121-4.23 0-5.398 10.623-5.852 16.365-11.594 22.217-22.217 1.168-2.121 4.23-2.121 5.398 0 5.852 10.623 11.594 16.365 22.217 22.217 2.121 1.169 2.121 4.23 0 5.398z"/></g><g><path d="m291.135 369.479c0 12.29 2.003 24.113 5.709 35.155 18.941 38.682 55.375 69.364 104.075 69.364 60.99 0 105.374-43.53 105.374-104.519 0-48.699-30.829-82.074-69.568-104.725-11.043-3.706-22.867-5.707-35.158-5.707-60.99.001-110.432 49.443-110.432 110.432z" fill="#8db9ff"/><path d="m512 369.477c0 60.992-49.441 110.434-110.434 110.434-48.703 0-90.04-31.522-104.723-75.276 11.047 3.717 22.879 5.723 35.169 5.723 60.992 0 110.434-49.441 110.434-110.434 0-12.29-2.005-24.123-5.723-35.169 43.755 14.681 75.277 56.019 75.277 104.722z" fill="#70abf2"/><path d="m344.467 349.286h34.56c1.295 0 2.345-1.05 2.345-2.345v-34.56c0-1.295 1.05-2.345 2.345-2.345h35.696c1.295 0 2.345 1.05 2.345 2.345v34.56c0 1.295 1.05 2.345 2.345 2.345h6.72l25.799 1.758c1.295 0 2.345 1.05 2.345 2.345l.745 32.311c0 1.295-1.05 2.345-2.345 2.345l-35.005-.117c-1.295 0-2.345 1.05-2.345 2.345l1.173 33.153c0 1.295-1.05 2.345-2.345 2.345l-33.081 1.427c-1.295 0-2.345-1.05-2.345-2.345l-2.047-26.119v-6.718c0-1.295-1.05-2.345-2.345-2.345h-34.56c-1.295 0-2.345-1.05-2.345-2.345v-35.696c0-1.294 1.05-2.344 2.345-2.344z" fill="#f5f8f9"/><path d="m461.011 351.628v35.697c0 1.302-1.055 2.345-2.345 2.345h-34.56c-1.29 0-2.345 1.055-2.345 2.345v34.56c0 1.302-1.055 2.345-2.345 2.345h-35.697c-1.29 0-2.345-1.044-2.345-2.345v-27.84c21.355-10.683 38.77-28.098 49.453-49.453h27.84c1.288.001 2.344 1.056 2.344 2.346z" fill="#e8edf2"/></g></g></svg>