<svg id="Capa_1" enable-background="new 0 0 512 512" height="512" viewBox="0 0 512 512" width="512" xmlns="http://www.w3.org/2000/svg"><g><path d="m243.701 427.135c-48.57 0-98.499-20.584-148.402-61.179-39.563-32.185-69.427-69.414-83.707-88.742-15.455-20.916-15.455-51.28.001-72.197 14.28-19.327 44.144-56.556 83.707-88.741 49.903-40.596 99.832-61.179 148.402-61.179s98.498 20.583 148.401 61.178c39.564 32.185 69.428 69.414 83.708 88.742 15.454 20.916 15.454 51.28.001 72.195-14.281 19.329-44.146 56.558-83.709 88.743-49.903 40.596-99.833 61.18-148.402 61.18z" fill="#e59683"/><path d="m45.545 241.309-2.721 51.725c-16.596-15.319-29.515-29.278-37.869-38.858-6.603-7.572-6.603-18.543 0-26.125 8.375-9.601 21.325-23.601 37.972-38.951z" fill="#d8816c"/><path d="m482.443 254.176c-8.386 9.612-21.376 23.653-38.075 39.044 3.317-16.73-2.653-34.12-2.653-51.973 0-17.977 5.96-35.479 2.581-52.312 16.73 15.422 29.751 29.484 38.148 39.116 6.613 7.582 6.613 18.554-.001 26.125z" fill="#d8816c"/><path d="m449.436 241.248c0 17.853-1.751 35.243-5.068 51.973-45.472 41.928-118.428 87.228-200.667 87.228-29.259 0-54.658-8.241-83.435-10.277-47.35-18.807-88.13-50.083-117.442-77.136-3.235-16.658-4.935-33.965-4.935-51.725 0-12.801.887-25.369 2.596-37.632 0 0 4.114-6.715 5.059-11.521 45.472-41.939 115.854-90.365 198.156-90.365 82.198 0 152.532 48.069 198.014 89.977.969 4.826 4.385 6.874 5.084 11.805 1.742 12.267 2.638 24.849 2.638 37.673z" fill="#f5f8f9"/><path d="m446.788 203.574c-48.81-39.961-121.674-84.763-203.089-84.763-81.467 0-154.393 44.875-203.213 84.866.68-4.914 1.494-9.766 2.441-14.577 29.307-27.03 70.048-58.257 117.345-77.044l83.427-4.99 84.39 5.373c46.793 18.788 87.113 49.688 116.206 76.495.969 4.833 1.803 9.706 2.493 14.64z" fill="#e8edf2"/><path d="m397.566 241.114c0 53.817-27.619 101.174-69.465 128.669-24.062 9.666-49.84 16.122-76.676 17.176l-7.763-3.796-7.69 3.796c-21.081-.827-41.505-4.989-60.959-11.417-4.684-5.081-7.398-7.505-14.749-5.366-.32-.127-.639-.254-.958-.382-.01 0-.01-.01-.021-.01-17.89-11.766-33.18-27.159-44.822-45.132 2.346-8.389-1.048-10.813-7.737-13.371-9.693-18.882-15.596-40.029-16.704-62.439l3.905-7.727-3.905-7.727c1.108-22.41 7.011-43.558 16.704-62.439 7.077-3.614 9.21-5.165 7.741-13.376 1.238-1.911 2.517-3.792 3.836-5.643 18.479-14.264 28.47-24.019 44.464-34.528 26.362-10.59 51.316-15.61 80.934-15.61s55.172 2.965 81.534 13.545h.01c15.984 10.513 29.013 23.057 43.845 36.587 1.322 1.855 2.603 3.74 3.844 5.655-3.842 8.206-.447 10.145 7.737 13.371 10.801 21.037 16.895 44.888 16.895 70.164z" fill="#86e8d0"/><path d="m369.092 151.921c-37.365-19.213-80.055-33.11-125.393-33.11s-88.029 13.897-125.393 33.12c11.085-15.566 25.002-28.979 41.001-39.487.321-.132.642-.263.964-.393 7.345 1.762 10.077-.608 14.747-5.355 19.339-6.384 39.917-10.417 60.957-11.308 6.589 3.155 9.716 4.027 15.451-.08 14.852.481 29.837 2.597 44.69 6.618.01-.01.021 0 .021 0 4.73 1.446 5.24 1.014 16.239 4.782l7.199 8.088 7.552-2.736c.302.121.646.258 1.039.415 15.955 10.518 29.852 23.911 40.926 39.446z" fill="#5de1c4"/><path d="m328.163 112.475c-.618-.258-1.236-.505-1.854-.742.598.227 1.185.464 1.782.701.01 0 .01.01.021.01.021.011.031.021.051.031z" fill="#86e8d0"/><g fill="#5de1c4"><path d="m380.672 170.948-56.608 32.688c-1.216.701-2.545 1.04-3.853 1.04-2.668 0-5.275-1.391-6.696-3.863-2.143-3.698-.876-8.427 2.823-10.559l56.598-32.677c2.791 4.316 5.377 8.777 7.736 13.371z"/><path d="m158.689 248.84h-68.662c-.134-2.555-.196-5.13-.196-7.726s.062-5.172.196-7.726h68.661c4.265 0 7.726 3.461 7.726 7.726.001 4.265-3.46 7.726-7.725 7.726z"/><path d="m235.973 156.835c0 4.275 3.461 7.726 7.726 7.726s7.726-3.451 7.726-7.726v-48.632c-5.154.108-10.308.351-15.453.723v47.909z"/><path d="m196.125 174.152c1.422 2.483 4.028 3.863 6.696 3.863 1.308 0 2.637-.33 3.853-1.03 3.698-2.133 4.965-6.861 2.833-10.559l-28.106-48.673c-5.174 1.305-10.3 2.735-15.367 4.285z"/><path d="m173.389 290.634-58.926 34.017c-2.792-4.317-5.378-8.777-7.737-13.372l58.937-34.027c3.698-2.132 8.416-.876 10.549 2.823 2.143 3.698.876 8.427-2.823 10.559z"/><path d="m251.425 329.637v57.319c-2.565.103-5.141.155-7.726.155-2.586 0-5.161-.052-7.726-.155v-57.319c0-4.265 3.461-7.726 7.726-7.726s7.726 3.461 7.726 7.726z"/><path d="m172.122 208.715-65.396-37.766c2.359-4.595 4.945-9.066 7.747-13.372l65.375 37.756c3.698 2.132 4.965 6.861 2.833 10.549-1.432 2.483-4.028 3.873-6.696 3.873-1.308 0-2.637-.34-3.863-1.04z"/><path d="m210.146 314.679-35.129 60.853c-4.986-1.638-9.9-3.431-14.752-5.357l36.499-63.222c2.133-3.698 6.861-4.955 10.559-2.823 3.689 2.132 4.956 6.85 2.823 10.549z"/><path d="m308.806 112.89-29.184 50.558c-2.133 3.698-.865 8.417 2.823 10.559 1.226.701 2.555 1.03 3.863 1.03 2.668 0 5.264-1.38 6.696-3.863l31.583-54.711c-5.212-1.362-10.476-2.553-15.781-3.573z"/></g><g fill="#0ed2b3"><path d="m327.123 112.063-10.518 18.234c-5.069-1.576-10.199-3.008-15.381-4.275l11.147-19.306c3.091 1.051 6.995 2.431 12.053 4.286.937.361-.392-.175 2.699 1.061z"/><path d="m175.017 106.696 11.157 19.316c-5.182 1.277-10.312 2.709-15.37 4.285l-10.528-18.234c3.405-1.37 9.122-3.646 14.741-5.367z"/><path d="m251.425 95.292v23.663c-2.565-.103-5.141-.144-7.726-.144-2.586 0-5.161.041-7.726.144v-23.601c5.13-.206 10.281-.237 15.452-.062z"/></g><path d="m334.924 241.116c0 55.603-35.658 93.762-91.261 93.762-39.13 0-66.41-19.779-89.672-48.014-7.014-13.726-10.968-29.276-10.968-45.748 0-55.603 45.075-100.678 100.678-100.678 16.473 0 32.021 3.956 45.748 10.97 23.023 27.852 45.475 50.577 45.475 89.708z" fill="#918291"/><path d="m344.379 241.114c0 55.609-45.07 100.679-100.679 100.679-39.126 0-73.04-22.324-89.708-54.929 13.722 7.016 29.278 10.971 45.75 10.971 55.609 0 100.679-45.07 100.679-100.679 0-16.473-3.956-32.028-10.972-45.75 32.606 16.668 54.93 50.582 54.93 89.708z" fill="#7a6d79"/><g><path d="m281.777 341.794c0 12.811 2.088 25.135 5.951 36.645 19.744 40.321 57.721 72.303 108.484 72.303 63.574 0 109.838-45.374 109.838-108.948 0-50.762-32.135-85.551-72.515-109.162-11.511-3.863-23.836-5.948-36.647-5.948-63.574 0-115.111 51.536-115.111 115.11z" fill="#8db9ff"/><path d="m512 341.792c0 63.577-51.536 115.113-115.113 115.113-50.766 0-93.855-32.858-109.16-78.465 11.515 3.875 23.849 5.965 36.66 5.965 63.577 0 115.113-51.536 115.113-115.113 0-12.811-2.09-25.145-5.965-36.66 45.607 15.304 78.465 58.394 78.465 109.16z" fill="#70abf2"/><path d="m337.369 320.745h36.024c1.35 0 2.445-1.095 2.445-2.445v-36.024c0-1.35 1.095-2.445 2.445-2.445h37.209c1.35 0 2.445 1.095 2.445 2.445v36.024c0 1.35 1.095 2.445 2.445 2.445h7.005l26.892 1.833c1.35 0 2.445 1.095 2.445 2.445l.777 33.68c0 1.35-1.095 2.445-2.445 2.445l-36.488-.122c-1.35 0-2.445 1.095-2.445 2.445l1.222 34.558c0 1.35-1.095 2.445-2.445 2.445l-34.482 1.488c-1.35 0-2.445-1.095-2.445-2.445l-2.134-27.226v-7.002c0-1.35-1.095-2.445-2.445-2.445h-36.024c-1.35 0-2.445-1.095-2.445-2.445v-37.209c-.001-1.351 1.094-2.445 2.444-2.445z" fill="#f5f8f9"/><path d="m458.85 323.187v37.21c0 1.357-1.1 2.445-2.445 2.445h-36.024c-1.345 0-2.445 1.1-2.445 2.445v36.024c0 1.357-1.1 2.445-2.445 2.445h-37.21c-1.345 0-2.445-1.088-2.445-2.445v-29.02c22.26-11.136 40.412-29.288 51.548-51.548h29.02c1.346-.001 2.446 1.099 2.446 2.444z" fill="#e8edf2"/></g></g></svg>