<svg id="Capa_1" enable-background="new 0 0 512 512" height="512" viewBox="0 0 512 512" width="512" xmlns="http://www.w3.org/2000/svg"><g><path d="m427.048 497.498h-3.392l-13.065-2.801-314.375 2.801c-5.807 0-10.514-4.707-10.514-10.514v-407.314c0-5.807 4.707-10.514 10.514-10.514l286.293 4.026 11.939-4.026h32.6c5.807 0 10.514 4.707 10.514 10.514v407.314c0 5.807-4.707 10.514-10.514 10.514z" fill="#ffce61"/><path d="m423.656 353.64v143.857h-327.437c-5.815 0-10.514-4.709-10.514-10.514v-407.316c0-5.805 4.699-10.514 10.514-10.514h298.229v247.221l15.903 11.387c8.332 5.967 13.305 15.639 13.305 25.879z" fill="#ffbf61"/><path d="m456.26 456.439h-32.604l-13.638-3.865-196.645 3.865v-346.224l161.488 3.657 19.587-3.657h61.812c2.903 0 5.257 2.354 5.257 5.257v335.71c0 2.903-2.354 5.257-5.257 5.257z" fill="#f5f8f9"/><g><g><path d="m426.328 197.742h-63.44c-4.204 0-7.611-3.407-7.611-7.611s3.408-7.611 7.611-7.611h63.44c4.204 0 7.612 3.407 7.612 7.611s-3.408 7.611-7.612 7.611z" fill="#e8edf2"/></g><g><path d="m426.328 239.803h-63.44c-4.204 0-7.611-3.407-7.611-7.611s3.408-7.611 7.611-7.611h63.44c4.204 0 7.612 3.407 7.612 7.611s-3.408 7.611-7.612 7.611z" fill="#e8edf2"/></g><g><path d="m426.328 281.864h-63.44c-4.204 0-7.611-3.407-7.611-7.612s3.408-7.611 7.611-7.611h63.44c4.204 0 7.612 3.407 7.612 7.611s-3.408 7.612-7.612 7.612z" fill="#e8edf2"/></g></g><path d="m423.656 353.64v102.796h-210.28v-346.222h181.072v191.486c0 9.21 4.442 17.855 11.931 23.217l3.972 2.844c8.332 5.967 13.305 15.639 13.305 25.879z" fill="#e8edf2"/><g fill="#d5dee2"><path d="m394.448 182.524v15.223h-31.562c-4.202 0-7.611-3.41-7.611-7.611 0-4.212 3.41-7.612 7.611-7.612z"/><path d="m362.886 266.646h31.562v15.223h-31.562c-4.202 0-7.611-3.41-7.611-7.611-.001-4.212 3.409-7.612 7.611-7.612z"/><path d="m362.886 224.58h31.562v15.223h-31.562c-4.202 0-7.611-3.41-7.611-7.611-.001-4.202 3.409-7.612 7.611-7.612z"/></g><path d="m358.527 58.642-15.847-3.988h-281.683c-5.807 0-10.514 4.707-10.514 10.514v436.317c0 5.807 4.707 10.514 10.514 10.514h310.9l12.196-4.365c5.807 0 10.514-4.707 10.514-10.514l2.037-137.964c0-3.392-1.636-6.575-4.394-8.55l-23.783-14.659c-2.758-1.974-4.394-5.158-4.394-8.55l4.967-258.243c.001-5.804-4.706-10.512-10.513-10.512z" fill="#ffde80"/><path d="m402.344 353.64v147.846c0 5.805-4.709 10.514-10.514 10.514h-19.932v-158.36c0-3.389-1.634-6.576-4.394-8.545l-20.429-14.624c-2.75-1.969-4.394-5.155-4.394-8.545v-267.275h19.932c5.815 0 10.514 4.709 10.514 10.514v256.761c0 3.39 1.644 6.576 4.394 8.545l20.429 14.624c2.76 1.969 4.394 5.156 4.394 8.545z" fill="#ffce61"/><g><path d="m110.752 369.81c0 11.685 1.905 22.926 5.428 33.425 18.009 36.778 52.65 65.95 98.953 65.95 57.988 0 100.188-41.387 100.188-99.375 0-46.302-29.312-78.035-66.144-99.571-10.499-3.523-21.742-5.426-33.427-5.426-57.99.001-104.998 47.009-104.998 104.997z" fill="#ff7e7b"/><path d="m320.747 369.808c0 57.991-47.008 104.999-104.999 104.999-46.306 0-85.609-29.971-99.569-71.571 10.503 3.534 21.753 5.441 33.439 5.441 57.991 0 104.999-47.008 104.999-104.999 0-11.685-1.907-22.935-5.441-33.439 41.6 13.96 71.571 53.263 71.571 99.569z" fill="#ff6464"/><path d="m161.459 350.61h32.859c1.232 0 2.23-.998 2.23-2.23v-32.859c0-1.232.998-2.23 2.23-2.23h33.94c1.232 0 2.23.998 2.23 2.23v32.859c0 1.232.998 2.23 2.23 2.23h6.389l24.529 1.672c1.232 0 2.23.998 2.23 2.23l.708 30.721c0 1.232-.998 2.23-2.23 2.23l-33.282-.111c-1.232 0-2.23.998-2.23 2.23l1.115 31.521c0 1.232-.998 2.23-2.23 2.23l-31.453 1.357c-1.232 0-2.23-.998-2.23-2.23l-1.946-24.834v-6.387c0-1.232-.998-2.23-2.23-2.23h-32.859c-1.232 0-2.23-.998-2.23-2.23v-33.94c0-1.23.999-2.229 2.23-2.229z" fill="#f5f8f9"/><path d="m272.267 352.838v33.94c0 1.237-1.003 2.23-2.23 2.23h-32.859c-1.226 0-2.23 1.003-2.23 2.23v32.859c0 1.238-1.004 2.23-2.23 2.23h-33.94c-1.226 0-2.23-.992-2.23-2.23v-26.47c20.304-10.158 36.862-26.715 47.019-47.019h26.47c1.227 0 2.23 1.003 2.23 2.23z" fill="#e8edf2"/></g><path d="m288.258 227.609h-23.743l-49.382-12.584-52.358 12.584h-23.74c-2.903 0-5.257-2.354-5.257-5.257v-182.224c0-2.903 2.354-5.257 5.257-5.257h82.5l7.67-2.736 7.553 2.736h51.5c2.903 0 5.257 2.354 5.257 5.257v182.224c0 2.903-2.353 5.257-5.257 5.257z" fill="#f5f8f9"/><g><path d="m234.864 23.466c0-1.592 1.732-3.505 1.423-5.007-2.159-10.518-11.493-18.459-22.637-18.459-12.747 0-23.119 10.372-23.119 23.109v38.24c0 12.747 10.372 23.109 23.119 23.109 12.737 0 23.109-10.362 23.109-23.109 0-4.201-3.41-7.611-7.611-7.611-4.202 0-7.611 3.41-7.611 7.611 0 4.354-3.542 7.886-7.886 7.886-4.354 0-7.896-3.532-7.896-7.886v-38.24c0-4.344 3.542-7.886 7.896-7.886 2.715 0 5.116 1.384 6.536 3.482.852 1.259 3.575 2.631 3.575 4.26l-.536 2.865h12.032z" fill="#918291"/></g><g><path d="m236.758 23.109v11.762h-15.223v-11.762c0-1.664-.518-3.207-1.401-4.476h16.187c.285 1.451.437 2.943.437 4.476z" fill="#7a6d79"/></g><path d="m264.515 223.433v4.171h-101.74v-4.171c0-14.046 5.693-26.772 14.898-35.977s21.921-14.898 35.977-14.898c28.091 0 50.865 22.773 50.865 50.875z" fill="#d5dee2"/><path d="m223.85 181.274c-6.525 2.746-13.882 2.746-20.407 0-13.11-5.518-21.636-18.357-21.636-32.581v-11.52c0-17.584 14.255-31.839 31.839-31.839 17.584 0 31.839 14.255 31.839 31.839v11.52c.001 14.224-8.525 27.063-21.635 32.581z" fill="#e8edf2"/></g></svg>