<svg id="Capa_1" enable-background="new 0 0 512 512" height="512" viewBox="0 0 512 512" width="512" xmlns="http://www.w3.org/2000/svg"><g><path d="m164.126 388.062-40.188-40.188-121.143 144.484c-3.983 4.75-3.675 11.756.708 16.139 4.383 4.383 11.389 4.69 16.139.708z" fill="#f5f8f9"/><path d="m194.095 378.022-26.442-39.126-35.719-22.372-19.764 19.764c-5.333 5.333-5.333 13.978 0 19.311l31.649 31.648 12.945 9.048c5.333 5.333 13.978 5.333 19.311 0z" fill="#e8edf2"/><path d="m175.718 399.834 19.759-19.769.001-14.67h-14.671l-19.759 19.769c-5.336 5.336-13.98 5.336-19.316 0l14.67 14.67c5.336 5.326 13.979 5.326 19.316 0z" fill="#d5dee2"/><path d="m466.953 47.823c-4.621-4.621-14.363-15.7-14.363-15.7-60.16-46.741-147.124-42.472-202.393 12.798-23.553 23.553-38.569 54.296-42.665 87.353l-4.938 39.851c-3.054 24.644-11.882 48.063-25.586 68.434.277 8.65-2.25 11.166-9.353 12.5-3.128 3.778-6.432 7.427-9.924 10.918l-33.35 33.349 82.289 82.288 32.971-32.971c24.999-24.998 58.399-40.137 93.509-44.271l40.043-4.715c33.062-3.893 61.098-18.117 84.638-41.657 59.89-59.891 69.013-148.286 9.122-208.177z" fill="#ff7e7b"/><path d="m213.875 386.823 32.976-32.976c3.616-3.616 7.399-7.035 11.321-10.261.747-8.296 3.176-8.302 12.544-9.318 20.53-13.707 44.13-22.473 68.933-25.399l40.043-4.708c33.058-3.894 63.851-18.811 87.39-42.361 29.939-29.946 44.918-69.186 44.918-108.436s-14.979-78.5-44.916-108.447c-4.625-4.625-9.467-8.88-14.494-12.795 21.438 27.578 32.152 60.77 32.152 93.983 0 39.25-14.969 78.5-44.916 108.447-23.54 23.54-54.322 38.457-87.391 42.351l-40.043 4.718c-35.109 4.131-67.796 19.975-92.799 44.978l-32.966 32.966z" fill="#ff6464"/><g><path d="m167.653 253.058c3.336-4.021 6.454-8.188 9.353-12.5l82.769 82.768c-4.888 2.3-9.924 4.379-14.087 7.766z" fill="#ff6464"/></g><path d="m235.906 59.061c-6.251-6.251-6.251-16.386 0-22.636 6.251-6.251 16.386-6.251 22.636 0l198.465 198.464-23.1 22.172z" fill="#f5f8f9"/><g><path d="m258.173 343.587c4.038-3.328 8.221-6.428 12.548-9.313l-27.249-27.248c-4.326 2.874-8.509 5.975-12.548 9.313z" fill="#f25555"/></g><path d="m475.583 276.1c3.121-3.121 4.687-7.222 4.687-11.322s-1.566-8.2-4.687-11.322l-.402-.402-27.259-27.258c-2.555 2.998-5.264 5.924-8.097 8.757-4.78 4.78-9.859 9.199-15.195 13.238l28.31 28.309c6.253 6.243 16.39 6.243 22.643 0z" fill="#e8edf2"/><path d="m241.569 384.078-37.676-41.78-75.797-75.796c-6.377-6.377-16.715-6.377-23.092 0-6.377 6.377-6.377 16.715 0 23.092l75.802 75.802 43.699 40.013c6.377 6.377 11.464 3.08 17.84-3.297 6.377-6.376 5.601-11.657-.776-18.034z" fill="#f5f8f9"/><path d="m245.502 406.994c3.183-3.183 4.78-7.366 4.78-11.548 0-4.172-1.597-8.344-4.78-11.538l-14.351-14.35-27.259-27.258-23.086 23.097 41.599 41.599c6.377 6.375 16.72 6.375 23.097-.002z" fill="#e8edf2"/><g><path d="m355.973 58.971c10.802 0 21.193 1.761 30.898 5.017 33.997 16.647 60.963 48.669 60.963 91.47 0 53.603-38.258 92.612-91.861 92.612-42.801 0-72.134-27.095-92.042-61.143-3.257-9.705-5.015-20.097-5.015-30.9-.001-53.602 43.453-97.056 97.057-97.056z" fill="#ffde80"/><path d="m355.971 253.088c53.606 0 97.06-43.454 97.06-97.059 0-42.804-27.705-79.136-66.16-92.04 3.267 9.709 5.03 20.109 5.03 30.91 0 53.606-43.454 97.059-97.06 97.059-10.802 0-21.201-1.762-30.91-5.03 12.903 38.455 49.235 66.16 92.04 66.16z" fill="#ffce61"/><path d="m361.604 186.763c0-.001.001-.002.001-.003l-4.176-4.175c-.805-.805-2.11-.805-2.915 0l-21.478 21.478c-.805.805-2.11.805-2.915 0l-22.185-22.184c-.805-.805-.805-2.11 0-2.915l21.478-21.478c.805-.805.805-2.11 0-2.915l-21.478-21.478c-.805-.805-.805-2.11 0-2.915l22.184-22.184c.805-.805 2.11-.805 2.915 0l21.478 21.478c.805.805 2.11.805 2.915 0l4.175-4.175s0 0 0-.001l17.302-17.302c.809-.809 2.114-.802 2.915 0l22.185 22.185c.802.802.809 2.106 0 2.915l-21.478 21.478c-.802.802-.802 2.114 0 2.915l21.478 21.478c.802.802.809 2.106 0 2.915l-22.185 22.185c-.802.802-2.113.802-2.915 0z" fill="#f5f8f9"/><path d="m378.911 204.059c.793.803 2.112.803 2.915 0l22.18-22.18c.814-.814.804-2.112 0-2.915l-21.479-21.479c-.804-.803-.804-2.112 0-2.915l21.479-21.479c.814-.804.804-2.112 0-2.915l-14.361-14.361c-8.087 36.808-37.076 65.797-73.895 73.874l14.371 14.371c.804.803 2.112.803 2.915 0l21.479-21.479c.804-.804 2.112-.804 2.915 0l4.172 4.183z" fill="#e8edf2"/></g></g></svg>