<svg id="Capa_1" enable-background="new 0 0 512 512" height="512" viewBox="0 0 512 512" width="512" xmlns="http://www.w3.org/2000/svg"><g><path d="m78.377 458.097-43.636 45.9c-4.108 4.108-7.266 5.252-12.649 5.245-5.383.007-10.774-2.047-14.882-6.155-2.647-2.647-5.488-3.066-6.429-6.433-1.981-7.084-.187-15.004 5.383-20.574l45.098-45.099 21.642 8.749z" fill="#f5f8f9"/><path d="m489.218 109.568-272.349 272.561c-8.581 8.581-17.345 14.097-28.075 19.437-10.723 5.332-22.013 8.513-34.04 10.181-24.046 3.343-48.36 15.246-65.522 32.408l-12.398 12.398-25.573-25.573 12.398-12.398c17.162-17.162 28.256-39.461 31.6-63.507 3.336-24.054 14.431-46.352 31.593-63.515l215.73-215.734 19.188-6.643 11.676-24.222 25.583-25.584c12.922-12.923 29.859-19.384 46.795-19.377 13.683 0 27.366 4.226 38.935 12.668 0 0 4.216 5.396 6.695 7.874 25.846 25.846 23.61 63.181-2.236 89.026z" fill="#918291"/><path d="m81.025 460.745-45.098 45.099c-4.108 4.108-9.499 6.163-14.882 6.155-5.383.007-10.774-2.047-14.882-6.155-2.644-2.644-4.444-5.828-5.376-9.193 1.858.532 3.773.787 5.689.779 5.383.007 10.774-2.047 14.882-6.155l45.098-45.099 12.505 1.669z" fill="#e8edf2"/><path d="m492.62 112.97-25.583 25.584-20.068 10.797-10.797 20.068-215.73 215.734c-8.581 8.581-18.444 15.647-29.174 20.987-10.723 5.332-22.312 8.938-34.339 10.607-24.046 3.343-46.344 14.438-63.506 31.6l-12.398 12.398-14.569-14.569 12.398-12.398c17.162-17.162 39.46-28.257 63.506-31.6 12.027-1.668 23.616-5.274 34.339-10.607 10.73-5.34 20.593-12.406 29.174-20.987l272.178-272.183c23.369-23.369 25.598-59.85 6.709-85.733 2.754 1.996 5.376 4.24 7.853 6.716 25.845 25.846 25.852 67.74.007 93.586z" fill="#7a6d79"/><g fill="#86e8d0"><circle cx="470.572" cy="82.638" r="7.726"/><circle cx="449.966" cy="62.031" r="7.726"/><circle cx="429.36" cy="41.425" r="7.726"/></g><path d="m381.291 41.711h43.649v127.57h-43.649z" fill="#f5f8f9" transform="matrix(.707 -.707 .707 .707 43.475 315.949)"/><path d="m422.495 136.399h43.649v20.604h-43.649z" fill="#e8edf2" transform="matrix(.707 -.707 .707 .707 26.407 357.154)"/><path d="m266.477 292.535 108.037-108.04c4.261-4.261 4.261-11.169 0-15.43l-31.58-31.581c-4.261-4.261-11.169-4.261-15.429 0l-108.037 108.04c-4.261 4.261-4.261 11.169 0 15.43l31.58 31.581c4.26 4.261 11.168 4.261 15.429 0z" fill="#86e8d0"/><circle cx="180.536" cy="331.467" fill="#f5f8f9" r="29.285"/><g><g><path d="m306.958 205.043c-3.018-3.018-3.018-7.909 0-10.927l15.7-15.7c3.018-3.018 7.909-3.018 10.927 0s3.018 7.909 0 10.927l-15.7 15.7c-3.018 3.017-7.909 3.017-10.927 0z" fill="#5de1c4"/></g><g><path d="m260.397 251.605c-3.018-3.018-3.018-7.909 0-10.927l15.7-15.7c3.018-3.018 7.909-3.018 10.927 0s3.018 7.909 0 10.927l-15.7 15.7c-3.018 3.018-7.91 3.018-10.927 0z" fill="#5de1c4"/></g></g><g><path d="m154.365 357.639c-3.018-3.018-3.018-7.909 0-10.927l15.528-15.528c3.018-3.018 7.909-3.018 10.927 0s3.018 7.909 0 10.927l-15.528 15.528c-3.018 3.018-7.91 3.018-10.927 0z" fill="#e8edf2"/></g></g></svg>