<svg id="Capa_1" enable-background="new 0 0 512 512" height="512" viewBox="0 0 512 512" width="512" xmlns="http://www.w3.org/2000/svg"><g><path d="m206.226 384.531h99.548v49.457h-99.548z" fill="#7a6d79"/><path d="m484.279 389.829-42.125 2.846h-421.063c-11.648.001-21.091-9.442-21.091-21.091v-350.493c0-11.648 9.443-21.091 21.091-21.091h422.807l40.186 5.579c11.648 0 21.091 9.443 21.091 21.091l.194 342.068c.001 11.649-9.442 21.091-21.09 21.091z" fill="#918291"/><path d="m512 21.088v350.499c0 11.651-9.447 21.088-21.088 21.088h-53.569c11.641 0 21.088-9.436 21.088-21.088v-350.499c0-11.641-9.447-21.088-21.088-21.088h53.569c11.641 0 21.088 9.447 21.088 21.088z" fill="#7a6d79"/><path d="m34.359 355.391v-318.106c0-1.707 1.384-3.091 3.091-3.091h420.981l14.696 2.571c1.707 0 3.091 1.384 3.091 3.091l-3.618 311.817c0 1.707-1.384 3.091-3.091 3.091l-11.077 3.717h-420.982c-1.707 0-3.091-1.384-3.091-3.09z" fill="#8db9ff"/><path d="m477.643 37.282v318.11c0 1.71-1.391 3.091-3.091 3.091h-16.122v-324.291h16.122c1.701 0 3.091 1.39 3.091 3.09z" fill="#70abf2"/><g><path d="m249.741 171.957c5.324-2.144 11.439-1.547 16.264 1.669 10.584-6.691 22.265-12.671 34.915-14.512 15.894-2.313 32.109.59 46.213 8.275l.281.153c3.74 2.038 8.324-.534 8.534-4.788.381-7.707 5.967-14.161 13.54-15.642 8.604-1.683 17.053 3.539 19.395 11.987 6.019 21.161-7.066 43.012-28.561 47.698 0 0-.832.155-2.135.398-9.142-1.691-15.631 2.911-15.631 2.911.798.689 1.581 1.394 2.347 2.116 6.697 8.887 11.784 17.248 15.673 27.53 7.032 18.591 4.646 37.263-6.467 53.742-12.75 18.905-31.606 25.317-54.409 25.317h-.723c-29.277 0-57.093-2.394-84.648-11.924-9.412-4.318-18.517-9.369-27.228-15.127-18.97-12.539-32.86-31.417-39.186-53.259-2.404-8.302-3.581-16.91-3.493-25.553l.11-10.784c.071-6.983-1.47-13.888-4.503-20.178l-4.907-10.176c-17.351-35.98-2.068-79.207 34.042-96.286l.676-.32c19.41-9.18 42.245-7.29 59.881 4.957 21.918 15.221 30.697 43.385 21.307 68.364l-1.631 4.338c-1.789 4.76-2.036 9.962-.705 14.87l1.051 4.227z" fill="#ffdcd0"/><path d="m366.853 260.846c0 12.051-3.551 23.995-10.467 34.256-6.378 9.449-14.888 17.01-24.67 22.205-9.762 5.194-20.796 8.031-32.201 8.031h-.724c-29.609 0-58.73-6.495-85.365-18.879 17.91 4.206 36.339 6.368 54.924 6.368h.851c13.518 0 26.596-3.355 38.178-9.518 11.582-6.162 21.676-15.123 29.238-26.332 8.197-12.159 12.413-26.332 12.413-40.614 0-8.119-1.36-16.277-4.138-24.131 7.933 7.454 14.105 16.668 17.998 26.949 2.653 7.022 3.963 14.358 3.963 21.665z" fill="#ffc7b6"/><g><path d="m358.187 207.193-15.631 2.915c-1.771-1.536-4.128-3.561-6.055-4.891l-17.705-12.188c-3.336-2.299-4.177-6.867-1.878-10.202s6.867-4.177 10.202-1.878l17.705 12.188c2.357 1.624 4.666 3.404 6.837 5.282 1.604 1.379 4.51 5.096 6.525 8.774z" fill="#ffc7b6"/></g><path d="m296.702 273.916-2.583-4.197c-5.44-8.841-8.368-18.969-8.507-29.338 1.385-2.458 2.612-5.019 3.653-7.677 7.661-19.559 3.331-42.103-11.031-57.431l-3.794-4.05c-9.06-9.67-24.082-10.544-34.203-1.992-6.183 5.225-9.38 13.092-8.719 21.061-13.023-3.118-26.556-3.902-39.944-2.23l-15.733 1.964c-4.02.502-6.872 4.168-6.371 8.189s4.175 6.865 8.189 6.371l15.732-1.964c17.355-2.167 34.993.389 51.016 7.393l4.539 1.984c.956.418 1.953.616 2.934.616 2.828 0 5.522-1.644 6.726-4.401 1.623-3.713-.072-8.037-3.785-9.66l-4.538-1.983c-.981-.429-1.969-.835-2.961-1.235l-1.034-5.113c-.726-3.639.585-7.388 3.419-9.784 4.15-3.508 10.31-3.149 14.025.816l3.795 4.051c10.514 11.223 13.685 27.728 8.076 42.048-5.949 15.188-19.623 26.398-35.683 29.254l-26.984 4.799c-3.989.71-6.648 4.518-5.938 8.507.631 3.555 3.725 6.053 7.214 6.053.426 0 .859-.038 1.293-.115l26.984-4.799c11.421-2.031 21.916-7.29 30.378-14.851 1.762 7.454 4.701 14.616 8.756 21.206l2.584 4.198c1.385 2.252 3.79 3.492 6.254 3.492 1.312 0 2.64-.352 3.838-1.089 3.452-2.123 4.528-6.642 2.403-10.093z" fill="#ffc7b6"/></g><path d="m92.317 139.564c4.268 0 7.726-3.459 7.726-7.726s-3.459-7.726-7.726-7.726h-4.855v-49.047h4.855c4.268 0 7.726-3.459 7.726-7.726s-3.459-7.726-7.726-7.726h-25.162c-4.268 0-7.726 3.459-7.726 7.726s3.459 7.726 7.726 7.726h4.854v49.047h-4.854c-4.268 0-7.726 3.459-7.726 7.726s3.459 7.726 7.726 7.726h4.854v49.047h-4.854c-4.268 0-7.726 3.459-7.726 7.726s3.459 7.726 7.726 7.726h4.854v49.047h-4.854c-4.268 0-7.726 3.459-7.726 7.726s3.459 7.726 7.726 7.726h4.854v49.047h-4.854c-4.268 0-7.726 3.459-7.726 7.726s3.459 7.726 7.726 7.726h25.162c4.268 0 7.726-3.459 7.726-7.726s-3.459-7.726-7.726-7.726h-4.855v-49.047h4.855c4.268 0 7.726-3.459 7.726-7.726s-3.459-7.726-7.726-7.726h-4.855v-49.047h4.855c4.268 0 7.726-3.459 7.726-7.726s-3.459-7.726-7.726-7.726h-4.855v-49.047z" fill="#70abf2"/><g><path d="m336.072 132.449c-.245 0-.491-.012-.738-.035-2.977-.285-5.522-2.262-6.534-5.076l-12.478-34.694-6.946 9.452c-1.456 1.981-3.768 3.151-6.226 3.151h-15.594c-4.268 0-7.726-3.459-7.726-7.726s3.459-7.726 7.726-7.726h11.683l13.218-17.988c1.691-2.301 4.519-3.482 7.337-3.071 2.825.41 5.193 2.345 6.16 5.031l11.842 32.926 7.793-13.118c1.392-2.343 3.917-3.78 6.643-3.78h45.127c4.268 0 7.726 3.459 7.726 7.726s-3.459 7.726-7.726 7.726h-40.73l-13.915 23.423c-1.402 2.357-3.935 3.779-6.642 3.779z" fill="#e8edf2"/></g><g><g><path d="m439.632 333.063h-61.675c-4.268 0-7.726-3.459-7.726-7.726s3.459-7.726 7.726-7.726h61.675c4.268 0 7.726 3.459 7.726 7.726s-3.458 7.726-7.726 7.726z" fill="#70abf2"/></g><g><path d="m439.632 301.511h-48.567c-4.268 0-7.726-3.459-7.726-7.726s3.459-7.726 7.726-7.726h48.567c4.268 0 7.726 3.459 7.726 7.726 0 4.266-3.458 7.726-7.726 7.726z" fill="#70abf2"/></g></g><path d="m461.481 510.07-23.691 1.93h-392.507c-6.033 0-10.924-4.891-10.924-10.924v-64.31c0-6.033 4.891-10.924 10.924-10.924h391.344l25.597 2.683c6.033 0 10.924 4.891 10.924 10.924l-.743 59.697c-.001 6.034-4.891 10.924-10.924 10.924z" fill="#918291"/><g fill="#7a6d79"><path d="m477.643 436.766v64.314c0 6.027-4.893 10.92-10.93 10.92h-32.966c6.037 0 10.93-4.893 10.93-10.92v-64.314c0-6.037-4.893-10.92-10.93-10.92h32.966c6.037 0 10.93 4.883 10.93 10.92z"/><path d="m276.36 483.292h-40.72c-1.138 0-2.06-.922-2.06-2.06v-24.62c0-1.138.922-2.06 2.06-2.06h40.719c1.138 0 2.06.922 2.06 2.06v24.62c.001 1.137-.921 2.06-2.059 2.06z"/><path d="m194.164 483.292h-40.719c-1.138 0-2.06-.922-2.06-2.06v-24.62c0-1.138.922-2.06 2.06-2.06h40.719c1.138 0 2.06.922 2.06 2.06v24.62c0 1.137-.922 2.06-2.06 2.06z"/><path d="m358.555 483.292h-40.719c-1.138 0-2.06-.922-2.06-2.06v-24.62c0-1.138.922-2.06 2.06-2.06h40.719c1.138 0 2.06.922 2.06 2.06v24.62c.001 1.137-.922 2.06-2.06 2.06z"/></g><circle cx="94.798" cy="469.051" fill="#ffe07d" r="14.5"/><circle cx="417.202" cy="469.051" fill="#e8edf2" r="14.5"/><path d="m418.105 72.358-5.418 5.418c-.805.805-2.109.805-2.914 0l-5.418-5.418c-6.692-6.692-17.542-6.692-24.235 0-6.692 6.692-6.692 17.542 0 24.235l29.652 29.652c.805.805 2.109.805 2.914 0l29.652-29.652c6.692-6.692 6.692-17.542 0-24.235-6.691-6.693-17.541-6.693-24.233 0z" fill="#f5f8f9"/></g></svg>