<svg id="Capa_1" enable-background="new 0 0 512 512" height="512" viewBox="0 0 512 512" width="512" xmlns="http://www.w3.org/2000/svg"><g><g><path d="m104.862 45c0-20.711 16.791-37.5 37.503-37.5h227.018c20.712 0 37.503 16.789 37.503 37.5v422c0 20.711-16.791 37.5-37.503 37.5h-227.018c-20.712 0-37.503-16.789-37.503-37.5z" fill="#f5f8f9"/><path d="m406.884 45v422c0 20.71-16.79 37.5-37.5 37.5h-32c20.71 0 37.5-16.79 37.5-37.5v-422c0-20.71-16.79-37.5-37.5-37.5h32c20.71 0 37.5 16.79 37.5 37.5z" fill="#e8edf2"/><g><path d="m369.383 512h-227.018c-24.815 0-45.003-20.187-45.003-45v-422c0-24.813 20.188-45 45.003-45h227.018c24.814 0 45.003 20.187 45.003 45v422c-.001 24.813-20.189 45-45.003 45zm-227.018-497c-16.544 0-30.003 13.458-30.003 30v422c0 16.542 13.459 30 30.003 30h227.018c16.544 0 30.003-13.458 30.003-30v-422c0-16.542-13.459-30-30.003-30z" fill="#918291"/></g><g><g><path d="m268.125 45h-50.004c-4.142 0-7.5-3.357-7.5-7.5s3.358-7.5 7.5-7.5h50.004c4.143 0 7.5 3.357 7.5 7.5s-3.358 7.5-7.5 7.5z" fill="#d5dee2"/></g><circle cx="293.624" cy="37.5" fill="#d5dee2" r="7.5"/></g></g><g><path d="m222.597 251.57-23.73 1.504h-126.973c-6.173 0-11.178-5.004-11.178-11.178v-154.731c0-6.173 5.004-11.178 11.178-11.178h126.973l24.718 2.451c6.173 0 11.178 5.004 11.178 11.178l-.988 150.776c0 6.174-5.005 11.178-11.178 11.178z" fill="#8db9ff"/><path d="m237.804 87.17v154.73c0 6.17-5 11.17-11.18 11.17h-33.59c10.92 0 19.77-8.84 19.77-19.76v-137.56c0-10.91-8.85-19.76-19.77-19.76h33.59c6.18 0 11.18 5 11.18 11.18z" fill="#70abf2"/></g><g><path d="m222.597 464.602-23.73 1.504h-126.973c-6.173 0-11.178-5.004-11.178-11.178v-154.731c0-6.173 5.004-11.178 11.178-11.178h126.973l24.718 2.451c6.173 0 11.178 5.004 11.178 11.178l-.988 150.776c0 6.174-5.005 11.178-11.178 11.178z" fill="#ffde80"/><path d="m237.804 300.202v154.73c0 6.17-5 11.17-11.18 11.17h-33.59c10.92 0 19.77-8.84 19.77-19.76v-137.56c0-10.91-8.85-19.76-19.77-19.76h33.59c6.18 0 11.18 5 11.18 11.18z" fill="#ffce61"/></g><g><path d="m436.077 464.602-23.73 1.504h-126.973c-6.173 0-11.178-5.004-11.178-11.178v-154.731c0-6.173 5.004-11.178 11.178-11.178h126.973l24.718 2.451c6.173 0 11.178 5.004 11.178 11.178l-.988 150.776c0 6.174-5.005 11.178-11.178 11.178z" fill="#86e8d0"/><path d="m451.284 300.202v154.73c0 6.17-5 11.17-11.18 11.17h-33.59c10.92 0 19.77-8.84 19.77-19.76v-137.56c0-10.91-8.85-19.76-19.77-19.76h33.59c6.18 0 11.18 5 11.18 11.18z" fill="#5de1c4"/></g><g><path d="m436.077 251.57-23.73 1.504h-126.973c-6.173 0-11.178-5.004-11.178-11.178v-154.731c0-6.173 5.004-11.178 11.178-11.178h126.973l24.718 2.451c6.173 0 11.178 5.004 11.178 11.178l-.988 150.776c0 6.174-5.005 11.178-11.178 11.178z" fill="#ff7e7b"/><path d="m451.284 87.17v154.73c0 6.17-5 11.17-11.18 11.17h-33.59c10.92 0 19.77-8.84 19.77-19.76v-137.56c0-10.91-8.85-19.76-19.77-19.76h33.59c6.18 0 11.18 5 11.18 11.18z" fill="#ff6464"/></g><path d="m316.132 147.679h26.756c1.657 0 3-1.343 3-3v-26.756c0-1.657 1.343-3 3-3h27.704c1.657 0 3 1.343 3 3v26.756c0 1.657 1.343 3 3 3h26.756c1.657 0 3 1.343 3 3v27.704c0 1.657-1.343 3-3 3h-26.756c-1.657 0-3 1.343-3 3v26.756c0 1.657-1.343 3-3 3h-27.704c-1.657 0-3-1.343-3-3v-26.756c0-1.657-1.343-3-3-3h-26.756c-1.657 0-3-1.343-3-3v-27.704c0-1.657 1.343-3 3-3z" fill="#f5f8f9"/><g><path d="m343.381 347.86v45.02l-15.899 7.418-16.961-7.418v-45.02z" fill="#f5f8f9"/><path d="m343.381 392.88v25.23c0 9.07-7.36 16.43-16.43 16.43s-16.43-7.36-16.43-16.43v-25.23z" fill="#0ed2b3"/><path d="m345.443 349.383h-36.986c-1.732 0-3.136-1.404-3.136-3.136v-22.524c0-1.732 1.404-3.136 3.136-3.136h36.986c1.732 0 3.136 1.404 3.136 3.136v22.524c0 1.732-1.404 3.136-3.136 3.136z" fill="#e8edf2"/></g><g><path d="m141.381 420.649-35.206-35.206c-13.75-13.75-13.75-36.043 0-49.792l9.848-9.848c2.183-2.183 5.721-2.183 7.904 0l18.153 18.153c2.183 2.183 2.183 5.721 0 7.904l-6.297 6.297c-2.835 2.835-2.835 7.431 0 10.266l22.619 22.619c2.835 2.835 7.431 2.835 10.266 0l6.297-6.297c2.183-2.183 5.721-2.183 7.904 0l18.153 18.153c2.183 2.183 2.183 5.721 0 7.904l-9.848 9.848c-13.751 13.748-36.044 13.748-49.793-.001z" fill="#918291"/></g><g><path d="m202.658 139.307c0 7.283-2.776 14.552-8.326 20.102l-25.322 25.323-27.247-9.778-12.944-30.426 25.309-25.323c11.102-11.102 29.102-11.102 40.204 0 5.55 5.552 8.326 12.821 8.326 20.102z" fill="#f5f8f9"/><path d="m169.009 184.732-25.111 25.124c-11.102 11.102-29.102 11.102-40.204 0-11.115-11.102-11.115-29.102 0-40.204l25.125-25.124z" fill="#ff7e7b"/></g><g><path d="m415.154 347.86v45.02l-15.899 7.418-16.961-7.418v-45.02z" fill="#f5f8f9"/><path d="m415.154 392.88v25.23c0 9.07-7.36 16.43-16.43 16.43s-16.43-7.36-16.43-16.43v-25.23z" fill="#0ed2b3"/><path d="m417.217 349.383h-36.986c-1.732 0-3.136-1.404-3.136-3.136v-22.524c0-1.732 1.404-3.136 3.136-3.136h36.986c1.732 0 3.136 1.404 3.136 3.136v22.524c-.001 1.732-1.405 3.136-3.136 3.136z" fill="#e8edf2"/></g></g></svg>