<svg id="Capa_1" enable-background="new 0 0 512 512" height="512" viewBox="0 0 512 512" width="512" xmlns="http://www.w3.org/2000/svg"><g><g><path d="m317.882 414.942c0 10.802 1.761 21.193 5.017 30.898 16.648 33.997 48.669 60.963 91.471 60.963 53.604 0 92.613-38.258 92.613-91.861 0-42.801-27.095-72.134-61.143-92.042-9.705-3.257-20.098-5.015-30.9-5.015-53.604 0-97.058 43.454-97.058 97.057z" fill="#8db9ff"/><path d="m512 414.94c0 53.606-43.454 97.06-97.06 97.06-42.805 0-79.136-27.705-92.041-66.16 9.709 3.267 20.109 5.03 30.91 5.03 53.606 0 97.06-43.454 97.06-97.06 0-10.802-1.762-21.201-5.03-30.91 38.456 12.904 66.161 49.236 66.161 92.04z" fill="#70abf2"/><path d="m364.756 397.194h30.375c1.138 0 2.061-.923 2.061-2.061v-30.375c0-1.138.923-2.061 2.061-2.061h31.374c1.138 0 2.061.923 2.061 2.061v30.375c0 1.138.923 2.061 2.061 2.061h5.906l22.675 1.545c1.138 0 2.061.923 2.061 2.061l.655 28.398c0 1.138-.923 2.061-2.061 2.061l-30.766-.102c-1.138 0-2.061.923-2.061 2.061l1.031 29.138c0 1.138-.923 2.061-2.061 2.061l-29.075 1.254c-1.138 0-2.061-.923-2.061-2.061l-1.799-22.956v-5.904c0-1.138-.923-2.061-2.061-2.061h-30.375c-1.138 0-2.061-.923-2.061-2.061v-31.373c-.002-1.138.921-2.061 2.06-2.061z" fill="#f5f8f9"/><path d="m467.186 399.253v31.374c0 1.144-.928 2.061-2.061 2.061h-30.375c-1.134 0-2.061.928-2.061 2.061v30.374c0 1.144-.928 2.061-2.061 2.061h-31.374c-1.134 0-2.061-.917-2.061-2.061v-24.468c18.769-9.39 34.075-24.695 43.464-43.464h24.469c1.132.001 2.06.929 2.06 2.062z" fill="#e8edf2"/></g><g fill="#f5f8f9"><path d="m217.29 489.951c-37.52 0-68.045-30.525-68.045-68.045v-96.908c0-23.319-18.971-42.29-42.29-42.29s-42.29 18.971-42.29 42.29v102.399c0 7.112-5.766 12.877-12.877 12.877-7.112 0-12.877-5.766-12.877-12.877v-102.399c0-37.52 30.525-68.044 68.045-68.044s68.045 30.524 68.045 68.044v96.908c0 23.319 18.971 42.291 42.29 42.291s42.29-18.972 42.29-42.291v-116.315c0-7.112 5.766-12.877 12.877-12.877 7.112 0 12.877 5.766 12.877 12.877v116.315c0 37.52-30.525 68.045-68.045 68.045z"/><path d="m172.515 203.067c-6.174 0-11.626-4.454-12.684-10.744l-23.257-138.381c-1.993-11.861 1.318-23.931 9.086-33.114 7.768-9.182 19.121-14.449 31.149-14.449h31.867c7.112 0 12.877 5.766 12.877 12.877s-5.766 12.877-12.877 12.877h-31.867c-4.5 0-8.579 1.892-11.485 5.328-2.907 3.436-4.097 7.773-3.351 12.21l23.258 138.381c1.179 7.014-3.551 13.655-10.565 14.834-.723.123-1.442.181-2.151.181z"/><path d="m372.4 203.067c6.174 0 11.626-4.454 12.684-10.744l23.258-138.381c1.993-11.861-1.318-23.931-9.086-33.114-7.768-9.182-19.121-14.449-31.149-14.449h-31.867c-7.112 0-12.877 5.766-12.877 12.877s5.766 12.877 12.877 12.877h31.867c4.5 0 8.579 1.892 11.485 5.328 2.907 3.436 4.097 7.773 3.351 12.21l-23.258 138.381c-1.179 7.014 3.551 13.655 10.565 14.834.722.123 1.441.181 2.15.181z"/></g><path d="m254.923 327.475h35.068c6.276 0 11.363-5.087 11.363-11.363v-14.083l-4.832-11.981 4.832-20.367h-57.794l5.259 19.495-5.259 12.853v14.083c0 6.275 5.088 11.363 11.363 11.363z" fill="#918291"/><g><path d="m326.628 38.199 15.901-1.115c10.635 0 18.858-6.866 18.858-17.501 0-10.635-7.57-17.84-18.206-17.84l-17.96-1.503c-.61 0-1.761-.212-2.356-.156-9.788.911-17.449 9.148-17.449 19.173 0 10.195 7.923 18.54 17.948 19.213.434.029 2.824-.271 3.264-.271z" fill="#918291"/><path d="m363.498 19.254c0 10.642-8.623 19.265-19.264 19.265h-19.564c-.608 0-1.205-.031-1.803-.093 9.787-.907 17.441-9.138 17.441-19.172 0-5.316-2.153-10.127-5.645-13.609-3.08-3.091-7.201-5.13-11.796-5.553.598-.061 1.195-.092 1.803-.092h19.563c5.326 0 10.137 2.153 13.619 5.645 3.493 3.482 5.646 8.293 5.646 13.609z" fill="#7a6d79"/></g><g><path d="m202.628 38.199 15.901-1.115c10.635 0 18.858-6.866 18.858-17.501 0-10.635-7.57-17.84-18.205-17.84l-17.96-1.503c-.61 0-1.761-.212-2.356-.156-9.788.911-17.449 9.148-17.449 19.173 0 10.195 7.923 18.54 17.948 19.213.433.029 2.823-.271 3.263-.271z" fill="#918291"/><path d="m239.498 19.254c0 10.642-8.623 19.265-19.264 19.265h-19.564c-.608 0-1.205-.031-1.803-.093 9.787-.907 17.441-9.138 17.441-19.172 0-5.316-2.153-10.127-5.645-13.609-3.08-3.091-7.201-5.13-11.796-5.553.598-.061 1.195-.092 1.803-.092h19.563c5.326 0 10.137 2.153 13.619 5.645 3.493 3.482 5.646 8.293 5.646 13.609z" fill="#7a6d79"/></g><path d="m301.357 269.681v32.348c-9.406 1.947-19.069 2.936-28.897 2.936s-19.491-.989-28.897-2.936v-32.348z" fill="#7a6d79"/><path d="m390.798 158.318-5.718 34.006c-1.051 6.284-6.511 10.745-12.682 10.745-.711 0-1.432-.062-2.153-.186-7.005-1.174-11.744-7.819-10.559-14.835l5.944-35.387c1.422-.165 2.874-.247 4.327-.247 3.729 0 7.438.536 11.044 1.576 3.502 1.011 6.778 2.474 9.797 4.328z" fill="#e8edf2"/><path d="m185.234 188.049c1.174 7.016-3.554 13.66-10.57 14.835-.721.124-1.442.186-2.153.186-6.171 0-11.621-4.461-12.682-10.745l-5.707-33.986c2.988-1.854 6.264-3.327 9.797-4.347 3.595-1.04 7.314-1.576 11.044-1.576 1.453 0 2.905.083 4.327.247z" fill="#e8edf2"/><path d="m272.46 282.34c-3.511 0-7 .834-10.456.538-22.555-1.934-43.805-10.121-61.982-23.987-20.275-15.467-35.329-37.411-42.387-61.792-2.769-9.564 2.74-19.561 12.304-22.33 9.561-2.772 19.561 2.739 22.331 12.304 10.262 35.448 43.236 60.205 80.188 60.205 36.951 0 69.926-24.757 80.188-60.204 2.769-9.564 12.767-15.074 22.328-12.303 8.084 5.545 12.308 14.671 9.539 24.234-7.058 24.38-21.465 41.529-41.741 56.996-20.963 15.989-43.887 26.339-70.312 26.339z" fill="#86e8d0"/><path d="m387.285 197.105c-7.067 24.374-22.118 46.317-42.392 61.79-20.964 15.988-46.008 24.436-72.432 24.436-3.513 0-6.995-.144-10.456-.453 22.551-1.926 43.803-10.116 61.976-23.982 19.378-14.783 48.45-40.733 50.994-84.125 9.569 2.77 15.071 12.763 12.31 22.334z" fill="#5de1c4"/><g><path d="m98.428 437.107c0 28.601-18.039 49.137-46.641 49.137-23.071 0-37.044-13.136-49.316-32.231-1.604-4.996-2.471-10.324-2.471-15.854 0-28.602 23.186-51.788 51.788-51.788 5.363 0 10.535.815 15.4 2.328 20.05 10.335 31.24 25.17 31.24 48.408z" fill="#918291"/><path d="m103.573 438.153c0 28.613-23.185 51.798-51.785 51.798-23.069 0-42.622-15.082-49.304-35.941 5.001 1.615 10.326 2.482 15.857 2.482 28.6 0 51.785-23.185 51.785-51.785 0-5.531-.866-10.856-2.481-15.857 20.846 6.694 35.928 26.234 35.928 49.303z" fill="#7a6d79"/><path d="m66.195 438.159c0 9.202-5.205 14.394-14.408 14.394-3.963 0-7.604.884-10.464-1.426-3.781-3.054-6.198-7.729-6.198-12.967 0-9.202 7.46-16.662 16.662-16.662 5.235 0 9.906 2.414 12.961 6.19 2.315 2.86 1.447 6.503 1.447 10.471z" fill="#f5f8f9"/><path d="m68.446 438.153c0 9.201-7.457 16.671-16.659 16.671-3.968 0-7.599-1.383-10.455-3.709 10.145-5.027 18.403-13.285 23.418-23.43 2.314 2.856 3.696 6.5 3.696 10.468z" fill="#e8edf2"/></g></g></svg>