<svg id="Capa_1" enable-background="new 0 0 512 512" height="512" viewBox="0 0 512 512" width="512" xmlns="http://www.w3.org/2000/svg"><g><path d="m324.105 419.056-68.105 22.901-68.136-22.87c5.635-4.193 9.189-10.889 9.189-18.296v-23.055l9.154-17.897-9.154-27.792h117.893l-8.291 28.955 8.291 16.733v23.055c.001 7.397 3.545 14.083 9.159 18.266z" fill="#ffdcd0"/><path d="m341.42 424.718s-14.616-3.633-17.315-5.662l-68.105 22.901-68.136-22.87c-2.699 2.019-23.575 6.832-23.575 6.832l15.486 79.272 17.28 6.808h42.717l17.144-5.075 15.312 5.075h42.717l14.552-6.592z" fill="#86e8d0"/><path d="m116.139 194.822v-54.96c0-72.374 54.973-131.909 125.441-139.126 4.74-.486 10.249.578 15.118.578l.743.129c77.243 0 126.877 61.177 126.877 138.419v54.96z" fill="#e59683"/><path d="m395.857 139.867v54.96h-30.349v-54.96c0-38.632-15.659-73.596-40.96-98.907-21.953-21.953-51.159-36.633-83.723-40.146 4.987-.536 10.045-.814 15.175-.814 38.621 0 73.586 15.648 98.897 40.96 25.301 25.311 40.96 60.276 40.96 98.907z" fill="#d8816c"/><path d="m494.422 504.201-11-18.369c-14.649-24.446-39.033-41.475-67.034-46.811l-74.968-14.302-11.923 80.688 34.734 6.592h125.771c4.003-.001 6.476-4.365 4.42-7.798z" fill="#e8edf2"/><path d="m95.612 439.02c-28 5.337-52.385 22.365-67.034 46.811l-11 18.369c-2.056 3.433.417 7.797 4.419 7.797h125.771l32.006-6.808-15.486-79.272z" fill="#e8edf2"/><path d="m382.011 180.832h-252.022c-13.779 0-24.949 11.17-24.949 24.949 0 34.636 28.078 62.714 62.715 62.714h176.492c34.636 0 62.715-28.078 62.715-62.714-.002-13.779-11.172-24.949-24.951-24.949z" fill="#ffc7b6"/><path d="m314.947 332.047v45.689l-1.793 1.566c-12.352 10.807-28.206 16.761-44.617 16.761h-25.074c-16.411 0-32.265-5.954-44.617-16.761l-1.792-1.566v-45.689z" fill="#ffc7b6"/><path d="m341.878 325.421-42.968 37.595c-8.409 7.358-19.203 11.413-30.376 11.413h-25.067c-11.173 0-21.967-4.055-30.375-11.413l-42.969-37.595c-15.016-13.138-23.629-32.119-23.629-52.071v-92.518c6.168 0 11.654-3.92 13.652-9.755l17.334-50.604c3.556-10.381 14.62-16.159 25.171-13.145l5.701 1.629c31.158 8.9 64.185 8.897 95.341-.008l5.656-1.616c10.552-3.016 21.618 2.762 25.175 13.144l17.333 50.6c1.999 5.835 7.485 9.755 13.652 9.755v92.518c-.002 19.952-8.615 38.933-23.631 52.071z" fill="#ffdcd0"/><g><g><path d="m256 275.99c-5.573 0-11.146-1.294-16.226-3.882-3.802-1.938-5.314-6.59-3.377-10.392 1.937-3.803 6.591-5.313 10.392-3.376 5.769 2.941 12.655 2.94 18.421 0 3.803-1.936 8.455-.425 10.392 3.376 1.938 3.802.426 8.455-3.376 10.392-5.08 2.588-10.653 3.882-16.226 3.882z" fill="#ffc7b6"/></g><g><path d="m256 322.396c-9.4 0-18.797-2.578-27.366-7.739-3.655-2.201-4.834-6.95-2.632-10.605 2.201-3.657 6.949-4.836 10.605-2.633 12.324 7.423 26.461 7.423 38.788 0 3.655-2.203 8.402-1.024 10.605 2.633 2.201 3.655 1.023 8.403-2.633 10.605-8.568 5.159-17.97 7.739-27.367 7.739z" fill="#ffc7b6"/></g><g><path d="m322.892 194.822c-1.388 0-2.794-.374-4.06-1.159-8.666-5.366-23.869-5.366-32.535 0-3.625 2.247-8.389 1.128-10.636-2.501-2.247-3.628-1.128-8.389 2.501-10.636 13.682-8.475 35.123-8.475 48.805 0 3.629 2.246 4.748 7.008 2.501 10.636-1.462 2.361-3.989 3.66-6.576 3.66z" fill="#ffc7b6"/></g><g><path d="m229.764 194.822c-1.388 0-2.793-.374-4.06-1.159-8.665-5.365-23.868-5.366-32.535 0-3.629 2.246-8.39 1.126-10.637-2.501-2.246-3.628-1.127-8.389 2.501-10.636 13.684-8.476 35.122-8.475 48.806 0 3.628 2.246 4.747 7.008 2.501 10.636-1.462 2.361-3.989 3.66-6.576 3.66z" fill="#ffc7b6"/></g><g><path d="m302.564 238.47c-4.268 0-7.726-3.459-7.726-7.726v-19.239c0-4.268 3.459-7.726 7.726-7.726 4.268 0 7.726 3.459 7.726 7.726v19.239c.001 4.267-3.458 7.726-7.726 7.726z" fill="#ffc7b6"/></g><g><path d="m209.436 238.47c-4.267 0-7.726-3.459-7.726-7.726v-19.239c0-4.268 3.459-7.726 7.726-7.726s7.726 3.459 7.726 7.726v19.239c0 4.267-3.459 7.726-7.726 7.726z" fill="#ffc7b6"/></g></g><path d="m272.228 512-4.121-20.002-11.676-4.66-12.538 4.66-4.121 20.002z" fill="#e8edf2"/><path d="m234.007 467.443 9.886 24.555h24.214l9.886-24.555-21.993-25.486z" fill="#f5f8f9"/><path d="m326.042 446.139-37.711 29.667c-2.261 1.779-5.542 1.361-7.284-.929l-25.047-32.92 58.947-41.166z" fill="#5de1c4"/><path d="m256 441.957-25.042 32.913c-1.744 2.293-5.03 2.709-7.291.924l-37.699-29.758 11.085-45.245z" fill="#5de1c4"/><g fill="#f5f8f9"><path d="m197.055 512v-111.21l-74.071 19.552c-5.798 1.53-9.068 7.669-7.104 13.335l18.737 45.493c.477 1.158 1.605 1.914 2.858 1.914h23.381c2.402 0 3.886 2.62 2.65 4.68l-15.737 26.236z"/><path d="m314.945 512v-111.21l74.071 19.552c5.798 1.53 9.068 7.669 7.104 13.335l-18.737 45.493c-.477 1.158-1.605 1.914-2.858 1.914h-23.381c-2.402 0-3.886 2.62-2.65 4.68l15.737 26.236z"/></g></g></svg>