<svg id="Capa_1" enable-background="new 0 0 512 512" height="512" viewBox="0 0 512 512" width="512" xmlns="http://www.w3.org/2000/svg"><g><path d="m316.123 59.812h-120.246c0-33.033 26.778-59.812 59.811-59.812h.623c33.034 0 59.812 26.779 59.812 59.812z" fill="#7a6d79"/><path d="m378.742 225.636h-256.468v-93.956c0-66.183 63.589-112.951 126-94.797 2.033.591 4.753 3.906 6.781 4.637 1.055.38 2.21.38 3.266 0 2.009-.724 3.334-4.033 5.348-4.62 4.843-1.412 9.693-2.433 14.52-3.084 57.795 4.359 100.553 36.797 100.553 97.864z" fill="#918291"/><path d="m389.727 131.68v93.952h-26.012v-93.952c0-51.705-38.796-91.552-85.525-97.856 4.368-.598 8.705-.886 13.011-.886 52.302 0 98.526 42.309 98.526 98.742z" fill="#7a6d79"/><g><path d="m263.726 36.883v58.792c0 4.265-3.461 7.726-7.726 7.726s-7.726-3.462-7.726-7.726v-58.792c2.029.587 4.059 1.246 6.088 1.978.525.185 1.082.288 1.638.288s1.113-.103 1.638-.288c2.029-.731 4.059-1.391 6.088-1.978z" fill="#7a6d79"/></g><path d="m314.998 409.446-56.093 53.548-58.566-54.352 2.843-.69c8.705-2.266 14.783-10.127 14.783-19.12v-15.576l4.198-12.068-4.198-41.037h76.068l-7.062 40.747 7.062 12.359v15.576c0 8.993 6.078 16.854 14.783 19.12z" fill="#e59683"/><path d="m131.606 425.218c-33.151 6.676-56.989 35.809-56.989 69.609v13.052c0 2.277 1.844 4.121 4.121 4.121h74.091l32.193-4.067-15.404-91.882z" fill="#e8edf2"/><path d="m338.405 415.091-23.407-5.645-56.093 53.548-58.565-54.352-30.723 7.409 15.404 91.882 15.828 4.067h39.492l15.071-5.667 16.247 5.667h39.492l19.737-5.982z" fill="#ffce61"/><path d="m380.394 425.218-41.988-10.127-7.642 92.431 28.408 4.478h74.09c2.277 0 4.121-1.844 4.121-4.121v-13.052c0-33.8-23.838-62.933-56.989-69.609z" fill="#e8edf2"/><path d="m350.937 263.184h-189.874c-29.68 0-53.74-24.06-53.74-53.74 0-11.807 9.572-21.379 21.379-21.379h254.596c11.807 0 21.379 9.572 21.379 21.379 0 29.68-24.06 53.74-53.74 53.74z" fill="#d8816c"/><circle cx="141.845" cy="260.044" fill="#ffde80" r="19.571"/><circle cx="370.155" cy="260.044" fill="#ffde80" r="19.571"/><path d="m294.034 320.15v53.106c-11.795 5.449-24.735 8.324-38.034 8.324s-26.239-2.874-38.034-8.324v-53.106z" fill="#d8816c"/><path d="m256 359.942c16.995 0 33.991-6.23 47.293-18.689l36.318-34.014c6.215-5.821 11.41-12.642 15.37-20.181 5.739-10.927 8.737-23.084 8.737-35.426v-63.568h-.044c-5.876 0-11.041-3.891-12.662-9.539-10.888-37.93-37.941-69.132-73.946-85.284l-19.094-8.566c-1.254-.563-2.689-.563-3.944 0l-19.094 8.566c-36.005 16.152-63.059 47.354-73.946 85.284-1.621 5.648-6.786 9.539-12.662 9.539h-.044v63.568c0 12.342 2.999 24.499 8.737 35.426 3.959 7.539 9.154 14.36 15.37 20.181l36.318 34.014c13.302 12.459 30.298 18.689 47.293 18.689z" fill="#e59683"/><g><g><g><path d="m256 265.565c-5.413 0-10.826-1.257-15.76-3.771-3.802-1.937-5.315-6.59-3.377-10.391 1.937-3.803 6.59-5.314 10.391-3.377 5.477 2.789 12.016 2.789 17.493 0 3.8-1.937 8.455-.426 10.391 3.377 1.938 3.802.425 8.455-3.377 10.391-4.935 2.515-10.348 3.771-15.761 3.771z" fill="#d8816c"/></g><g><path d="m229.59 183.256c-1.259 0-2.534-.308-3.715-.957-8.104-4.457-17.778-4.455-25.879 0-3.736 2.056-8.438.691-10.493-3.048s-.691-8.437 3.048-10.493c12.762-7.016 28.004-7.018 40.768 0 3.739 2.055 5.104 6.753 3.048 10.493-1.406 2.558-4.05 4.005-6.777 4.005z" fill="#d8816c"/></g><g><path d="m282.41 183.256c-2.727 0-5.371-1.447-6.778-4.005-2.055-3.739-.691-8.438 3.048-10.493 12.766-7.016 28.007-7.016 40.768 0 3.739 2.056 5.104 6.753 3.048 10.493-2.056 3.739-6.752 5.104-10.493 3.048-8.103-4.457-17.779-4.455-25.879 0-1.179.649-2.455.957-3.714.957z" fill="#d8816c"/></g></g><g><g><path d="m256 309.291c-8.878 0-17.756-2.062-25.849-6.185-3.803-1.937-5.315-6.589-3.377-10.391 1.937-3.803 6.589-5.314 10.391-3.377 11.795 6.008 25.875 6.008 37.67 0 3.8-1.936 8.455-.426 10.391 3.377 1.938 3.802.426 8.455-3.377 10.391-8.093 4.123-16.971 6.185-25.849 6.185z" fill="#d8816c"/></g></g><g><g><path d="m299.082 226.799c-4.268 0-7.726-3.459-7.726-7.726v-17.419c0-4.268 3.459-7.726 7.726-7.726s7.726 3.459 7.726 7.726v17.419c.001 4.267-3.458 7.726-7.726 7.726z" fill="#d8816c"/></g><g><path d="m212.918 226.799c-4.268 0-7.726-3.459-7.726-7.726v-17.419c0-4.268 3.459-7.726 7.726-7.726 4.268 0 7.726 3.459 7.726 7.726v17.419c0 4.267-3.459 7.726-7.726 7.726z" fill="#d8816c"/></g></g></g><g><path d="m276.573 467.404-9.241 18.162-11.332 5.642-11.332-5.642-9.241-18.162 4.914-18.663 15.659-7.349 20.573 8.803z" fill="#f5f8f9"/><path d="m256 441.392-20.573 26.012-47.099-24.384 12.521-34.378z" fill="#ffbf61"/><path d="m331.306 439.074-54.733 28.33-20.573-26.012 55.151-32.876z" fill="#ffbf61"/><path d="m271.659 512h-31.318l4.327-26.434h22.664z" fill="#e8edf2"/></g><g fill="#f5f8f9"><path d="m200.849 511.997v-109.785c0-1.997-1.866-3.47-3.808-3.006l-56.468 13.481c-4.913 1.173-8.087 5.94-7.275 10.925l7.42 45.534c.162.997 1.024 1.729 2.034 1.729h23.317c1.646 0 2.627 1.834 1.714 3.203l-16.684 25.025c-.295.443-.408.983-.314 1.507l2.044 11.387z"/><path d="m311.151 511.997v-109.732c0-2.014 1.895-3.49 3.848-2.996l56.547 14.29c4.86 1.228 7.967 5.976 7.147 10.921l-7.406 44.671c-.165.994-1.025 1.723-2.033 1.723h-23.322c-1.646 0-2.627 1.834-1.714 3.203l16.684 25.025c.295.443.408.983.314 1.507l-2.044 11.387h-48.021z"/></g></g></svg>