<svg id="Capa_1" enable-background="new 0 0 512 512" height="512" viewBox="0 0 512 512" width="512" xmlns="http://www.w3.org/2000/svg"><g><g><path d="m265.834 110.841-140.48 15.096c-6.365 17.405-9.622 35.792-9.622 54.325v14.554l268.666 3.148c-1.174-24.724.069-49.942-8.357-73.352z" fill="#918291"/></g><g><path d="m396.268 180.26v17.843l-30.895-.361v-18.45c0-19.522-3.245-38.879-9.601-57.216l30.874 3.863c6.367 17.399 9.622 35.788 9.622 54.321z" fill="#7a6d79"/></g><path d="m416.377 438.998-82.888-15.803c-2.626-.503-5.071-1.449-7.272-2.742-8.229 7.37-16.963 14.485-25.92 22.027-4.121 3.091-8.241 8.241-12.362 12.362-7.211 10.302-21.634 18.543-29.875 16.483-29.792-7.266-52.916-27.35-72.997-50.482-2.013 1.087-4.206 1.903-6.553 2.352l-82.888 15.803c-8.839 1.689-17.317 4.533-25.239 8.406l-3.118 7.627c8.664 18.564 15.125 34.406 15.125 54.885l3.249 2.079h157.743l18.572-8.672 17.899 8.672h146.507l5.271-3.631c0-20.48 2.777-32.63 11.441-51.193l-1.002-9.531c-8.056-3.996-16.689-6.922-25.693-8.642z" fill="#f5f8f9"/><path d="m258.06 471.325c8.241 2.06 59.928-43.501 68.157-50.872-6.821-4.007-11.271-11.398-11.271-19.685l.227-23.055-4.157-11.681 3.93-33.997h-117.892l5.564 32.002-5.338 13.675-.227 23.055c0 8.572-4.768 16.174-11.991 20.075 20.082 23.133 43.207 43.216 72.998 50.483z" fill="#e59683"/><path d="m491.806 511.996h-65.446v-1.03c0-20.48 4.491-39.662 13.155-58.225l2.555-5.099c16.987 8.416 31.4 21.582 41.341 38.168l11.94 19.954c1.637 2.75-.341 6.232-3.545 6.232z" fill="#ff7e7b"/><path d="m382.004 180.824h-252.008c-13.778 0-24.948 11.17-24.948 24.948 0 34.634 28.077 62.711 62.711 62.711h176.482c34.634 0 62.711-28.077 62.711-62.711 0-13.778-11.169-24.948-24.948-24.948z" fill="#d8816c"/><path d="m315.173 332.035v45.678l-1.792 1.566c-12.352 10.807-28.206 16.761-44.617 16.761h-25.074c-16.411 0-32.265-5.954-44.617-16.761l-1.792-1.566v-45.678z" fill="#d8816c"/><path d="m341.873 325.405-42.966 37.593c-8.409 7.357-19.202 11.412-30.375 11.412h-25.066c-11.173 0-21.965-4.055-30.374-11.412l-42.966-37.593c-15.015-13.137-23.628-32.117-23.628-52.068v-91.12c0-3.445 1.722-6.661 4.588-8.572 17.028-11.349 29.622-28.223 35.658-47.776l7.384-23.921 61.893-15.476 61.847 15.476 7.384 23.921c6.036 19.553 18.63 36.427 35.658 47.776 2.866 1.91 4.588 5.127 4.588 8.572v91.12c.003 19.951-8.61 38.931-23.625 52.068z" fill="#e59683"/><g><g><path d="m256.001 275.977c-5.573 0-11.146-1.294-16.226-3.882-3.802-1.938-5.314-6.59-3.376-10.392 1.939-3.802 6.594-5.31 10.392-3.376 5.766 2.939 12.652 2.941 18.419 0 3.803-1.935 8.455-.425 10.392 3.376 1.938 3.802.426 8.455-3.376 10.392-5.08 2.588-10.653 3.882-16.225 3.882z" fill="#d8816c"/></g><g><path d="m256 322.382c-9.399 0-18.797-2.579-27.364-7.74-3.656-2.202-4.834-6.95-2.633-10.605 2.201-3.657 6.951-4.836 10.605-2.633 12.325 7.423 26.461 7.423 38.785 0 3.652-2.203 8.401-1.024 10.605 2.633 2.201 3.655 1.023 8.403-2.633 10.605-8.566 5.159-17.968 7.74-27.365 7.74z" fill="#d8816c"/></g><g><path d="m322.889 194.815c-1.388 0-2.794-.374-4.06-1.159-8.665-5.366-23.867-5.366-32.534 0-3.625 2.247-8.389 1.128-10.636-2.501-2.247-3.628-1.128-8.389 2.501-10.636 13.682-8.474 35.121-8.475 48.803 0 3.629 2.246 4.748 7.008 2.501 10.636-1.462 2.361-3.989 3.66-6.575 3.66z" fill="#d8816c"/></g><g><path d="m229.766 194.815c-1.388 0-2.794-.374-4.06-1.159-8.666-5.365-23.868-5.365-32.534 0-3.625 2.247-8.389 1.128-10.636-2.501-2.247-3.628-1.128-8.389 2.501-10.636 13.683-8.476 35.122-8.475 48.803 0 3.629 2.246 4.748 7.008 2.501 10.636-1.462 2.361-3.989 3.66-6.575 3.66z" fill="#d8816c"/></g><g><path d="m302.562 238.459c-4.268 0-7.726-3.459-7.726-7.726v-19.238c0-4.268 3.459-7.726 7.726-7.726 4.268 0 7.726 3.459 7.726 7.726v19.238c0 4.268-3.458 7.726-7.726 7.726z" fill="#d8816c"/></g><g><path d="m209.438 238.459c-4.268 0-7.726-3.459-7.726-7.726v-19.238c0-4.268 3.459-7.726 7.726-7.726s7.726 3.459 7.726 7.726v19.238c0 4.268-3.458 7.726-7.726 7.726z" fill="#d8816c"/></g></g><path d="m382.152 98.691 2.245 19.906-27.347 7.342h-231.697v-27.248l130.67-12.22z" fill="#e8edf2"/><path d="m381.31 63.428v35.263h-255.957v-35.263c0-7.376 3.935-14.175 10.322-17.853l69.568-40.074c6.254-3.605 13.351-5.501 20.563-5.501h60.389c7.211 0 14.309 1.896 20.562 5.501l46.328 26.687 23.281 16.115c6.386 3.678 4.944 7.749 4.944 15.125z" fill="#f5f8f9"/><path d="m386.647 98.691v27.248h-29.597v-27.248l16.116-6.854z" fill="#d5dee2"/><path d="m386.647 63.428v35.263h-29.597v-53.93c0-4.78-1.659-9.323-4.584-12.929l23.859 13.743c6.386 3.678 10.322 10.477 10.322 17.853z" fill="#e8edf2"/><path d="m274.45 41.851h-10.504v-10.504c0-4.268-3.459-7.726-7.726-7.726-4.268 0-7.726 3.459-7.726 7.726v10.504h-10.504c-4.268 0-7.726 3.459-7.726 7.726s3.459 7.726 7.726 7.726h10.504v10.504c0 4.268 3.459 7.726 7.726 7.726 4.268 0 7.726-3.459 7.726-7.726v-10.503h10.504c4.268 0 7.726-3.459 7.726-7.726s-3.459-7.727-7.726-7.727z" fill="#ff7e7b"/><path d="m274.386 489.856 19.935-14.308 46.257-52.502c5.04-5.692 2.769-14.671-4.371-17.283l-21.262-7.784-44.501 50.571-12.385 22.775z" fill="#e8edf2"/><path d="m294.322 475.548-16.277 18.471-24.054-26.888 16.452-18.584 23.014 25.991c.299.33.577.67.865 1.01z" fill="#d5dee2"/><path d="m243.384 512v-6.172c0-1.23-.452-2.417-1.269-3.336l-70.693-79.446c-5.04-5.692-2.769-14.671 4.371-17.283l21.262-7.784 80.212 90.899c1.668 1.884 2.589 4.313 2.589 6.829v16.293z" fill="#e8edf2"/><path d="m85.64 510.966v1.03h-65.447c-3.204 0-5.182-3.482-3.544-6.233l11.94-19.954c10.024-16.73 24.611-29.988 41.794-38.405l2.101 5.336c8.665 18.564 13.156 37.746 13.156 58.226z" fill="#ff7e7b"/></g></svg>