<svg id="Capa_1" enable-background="new 0 0 512 512" height="512" viewBox="0 0 512 512" width="512" xmlns="http://www.w3.org/2000/svg"><g><path d="m95.749 439.067c-27.971 5.334-52.337 22.352-66.973 46.778l-10.99 18.355c-2.056 3.433.418 7.797 4.419 7.797h125.566l31.386-3.095-15.162-82.847z" fill="#e8edf2"/><path d="m344.873 425.455-10.15 80.101-19.78 6.444h-51.217l-6.906-5.135-8.546 5.135h-51.217l-18.335-4.553-14.726-81.395 14.577-2.781c5.522-1.051 10.25-4.038 13.547-8.18l40.125 24.961 23.755 1.896 30.534-2.349 32.141-26.166c3.286 4.996 8.52 8.653 14.752 9.838z" fill="#70abf2"/><path d="m318.676 413.433-32.141 26.166-30.535 2.349-23.756-1.895-40.125-24.961c3.142-3.925 4.986-8.89 4.986-14.216v-27.124l8.376-12.806-8.376-28.751h117.79l-6.251 26.812 6.251 14.745v27.124c0 4.604 1.381 8.931 3.781 12.557z" fill="#e59683"/><path d="m263.726 441.948v70.052h-15.453v-70.052c0-4.265 7.726 0 7.726 0s7.727-4.265 7.727 0z" fill="#619be0"/><path d="m483.223 485.845c-14.636-24.426-39.001-41.444-66.973-46.778l-71.381-13.611-10.146 80.1 29.506 6.44h125.566c4.002 0 6.475-4.364 4.419-7.797z" fill="#e8edf2"/><path d="m388.343 201.547 2.133-78.641c-.068-47.312-38.704-83.72-83.766-83.766h-106.684c-19.473 0-33.966 16.595-52.493 18.481-9.837 7.907-17.939 18.082-23.469 29.979-5.14 11.06-7.804 23.109-7.804 35.306v78.641z" fill="#7a6d79"/><path d="m395.743 122.903v78.644h-30.328v-78.644c0-5.421-.526-10.812-1.563-16.101-1.173-5.981-9.154-7.283-12.117-1.957-9.052 16.272-22.578 30.018-39.456 39.331l-45.822 25.291c-3.194 1.772-6.81 2.699-10.456 2.699s-7.263-.927-10.456-2.699l-45.822-25.291c-31.647-17.461-51.509-50.509-52.189-86.555 14.598-11.734 33.017-18.481 52.498-18.481h111.939c44.458-.836 84.438 38.072 83.772 83.763z" fill="#685e68"/><path d="m256 441.948-24.652 32.389c-1.957 2.575-5.656 3.039-8.2 1.03l-35.696-28.711 5.182-44.092z" fill="#8db9ff"/><path d="m322.117 448.397-33.264 26.991c-2.545 1.998-6.233 1.525-8.2-1.051l-24.653-32.389 63.366-39.384z" fill="#8db9ff"/><path d="m130.098 181.104h251.804c13.767 0 24.928 11.16 24.928 24.928 0 34.606-28.054 62.66-62.66 62.66h-176.339c-34.606 0-62.66-28.054-62.66-62.66-.001-13.768 11.16-24.928 24.927-24.928z" fill="#d8816c"/><path d="m314.895 332.193v41.557l-3.812 3.338c-11.785 10.312-26.898 15.988-42.557 15.988h-25.054c-15.659 0-30.771-5.676-42.557-15.988l-3.812-3.338v-41.557z" fill="#d8816c"/><path d="m365.415 181.108v73.184l-21.191 20.902c-11.785 5.893-25.693 5.779-37.385-.319l-25.291-13.176c-16.009-8.345-35.088-8.345-51.097 0l-25.291 13.176c-11.693 6.099-25.6 6.212-37.385.319l-21.191-20.902v-73.184c6.16 0 11.641-3.925 13.64-9.745l23.663-69.073h144.224l23.663 69.073c.999 2.905 2.874 5.347 5.264 7.057 2.392 1.709 5.297 2.688 8.377 2.688z" fill="#e59683"/><path d="m365.415 254.292v19.254c0 19.934-8.612 38.899-23.612 52.024l-42.927 37.56c-8.406 7.355-19.192 11.404-30.349 11.404h-4.801l-8.329-4.378-7.124 4.378h-4.801c-11.157 0-21.943-4.049-30.349-11.404l-42.927-37.56c-14.999-13.124-23.612-32.09-23.612-52.024v-19.254l21.191 10.6c11.785 5.893 25.693 5.779 37.385-.319l25.291-13.176c5.648-2.944 11.678-4.849 17.821-5.716 6.076 5.363 10.439 4.49 15.455 0 6.143.867 12.173 2.772 17.821 5.716l25.291 13.176c11.693 6.099 25.6 6.212 37.385.319z" fill="#f5f8f9"/><path d="m303.311 124.756-17.367 12.777-28.451 15.705c-.93.513-2.057.513-2.987 0l-29.822-16.462-15.858-12.989c-5.148-2.842-14.39-5.808-14.39-5.808-17.81-15.479-28.374-38.089-28.374-62.241.001-30.783 24.955-55.738 55.738-55.738h68.399c30.783 0 55.737 24.955 55.737 55.737 0 24.152-10.564 46.762-28.374 62.241z" fill="#918291"/><g><g><path d="m229.786 195.089c-1.388 0-2.793-.374-4.06-1.159-8.656-5.36-23.844-5.36-32.5 0-3.629 2.247-8.39 1.127-10.637-2.501-2.246-3.628-1.127-8.389 2.501-10.636 13.675-8.469 35.096-8.469 48.771 0 3.628 2.246 4.747 7.008 2.501 10.636-1.461 2.361-3.989 3.66-6.576 3.66z" fill="#d8816c"/></g><g><path d="m322.834 195.089c-1.388 0-2.793-.374-4.06-1.159-8.656-5.36-23.844-5.36-32.5 0-3.63 2.247-8.39 1.127-10.637-2.501-2.246-3.628-1.127-8.389 2.501-10.636 13.675-8.469 35.096-8.469 48.771 0 3.628 2.246 4.747 7.008 2.501 10.636-1.461 2.361-3.989 3.66-6.576 3.66z" fill="#d8816c"/></g><g><path d="m209.476 238.698c-4.267 0-7.726-3.459-7.726-7.726v-19.222c0-4.268 3.459-7.726 7.726-7.726s7.726 3.459 7.726 7.726v19.222c0 4.268-3.459 7.726-7.726 7.726z" fill="#d8816c"/></g><g><path d="m302.524 238.698c-4.267 0-7.726-3.459-7.726-7.726v-19.222c0-4.268 3.459-7.726 7.726-7.726s7.726 3.459 7.726 7.726v19.222c0 4.268-3.459 7.726-7.726 7.726z" fill="#d8816c"/></g></g><path d="m229.792 139.592-21.108-11.651c-5.151-2.843-9.91-6.181-14.247-9.962-.402-2.596-.608-5.233-.608-7.901v-31.575c0-5.121 4.151-9.272 9.272-9.272 5.121 0 9.272 4.151 9.272 9.272v31.575c-.001 12.279 6.675 23.58 17.419 29.514z" fill="#7a6d79"/><path d="m308.899 69.231c5.121 0 9.272 4.151 9.272 9.272v31.575c0 2.668-.206 5.305-.608 7.901-4.337 3.781-9.096 7.118-14.247 9.962l-21.108 11.651c10.745-5.934 17.42-17.235 17.42-29.514v-31.575c0-5.121 4.151-9.272 9.271-9.272z" fill="#7a6d79"/><path d="m197.057 511.997v-111.218l-74.069 19.552c-5.797 1.53-9.068 7.669-7.104 13.334l18.737 45.492c.477 1.158 1.605 1.914 2.858 1.914h23.381c2.402 0 3.886 2.62 2.651 4.68l-15.738 26.246z" fill="#f5f8f9"/><path d="m314.943 511.997v-111.218l74.069 19.552c5.797 1.53 9.068 7.669 7.104 13.334l-18.737 45.492c-.477 1.158-1.605 1.914-2.858 1.914h-23.381c-2.402 0-3.886 2.62-2.651 4.68l15.738 26.246z" fill="#f5f8f9"/><g><path d="m263.726 245.69v128.844h-15.453v-128.844c5.131-.732 10.323-.732 15.453 0z" fill="#e8edf2"/></g></g></svg>