<svg id="Capa_1" enable-background="new 0 0 512 512" height="512" viewBox="0 0 512 512" width="512" xmlns="http://www.w3.org/2000/svg"><g><g><path d="m224.394 295.856c4.452-7.763-13.956-20.935-14.36-30.616-1.062-25.455-21.856-46.137-47.317-47.059-27.998-1.014-51.014 21.382-51.014 49.154 0 16.657 8.288 31.369 20.956 40.267l2.094 9.616-2.525 8.167c2.922 14.773 13.849 26.664 28.075 30.97 2.665 5.947-.235 9.583-4.165 14.892-.054 1.4-.031 2.823.093 4.263 1.399 16.236 14.67 29.249 30.93 30.347 19.482 1.316 35.695-14.097 35.695-33.297-.002-6.6 7.259-69.702 1.538-76.704z" fill="#e59683"/><g fill="#d8816c"><path d="m160.298 356.353c-2.462 4.44-3.956 9.498-4.162 14.896.021.01.031.01.051.021 4.533 1.37 9.251 2.07 14.031 2.07 2.297 0 4.605-.165 6.861-.484 4.224-.597 7.16-4.512 6.562-8.736s-4.512-7.18-8.736-6.562c-4.738.67-10.033.186-14.607-1.205z"/><path d="m131.443 317.454c0 2.72.268 5.367.783 7.932 3.812 1.844 7.819 3.245 11.981 4.193.577.134 1.154.196 1.731.196 3.523 0 6.706-2.421 7.52-6.006.948-4.162-1.648-8.303-5.81-9.251-5.223-1.195-10.59-3.822-14.989-6.912-.783 3.152-1.216 6.449-1.216 9.848z"/></g></g><path d="m287.606 295.856c-4.452-7.763 13.956-20.935 14.36-30.616 1.062-25.455 21.856-46.137 47.317-47.059 27.998-1.014 46.053 21.434 46.053 49.206 0 16.657-8.288 31.369-20.956 40.267.786 3.156 1.21 6.456 1.21 9.855 0 18.345-11.988 31.621-28.684 36.675 3.114 5.594 4.673 12.172 4.071 19.155-1.399 16.236-15.515 33.008-26.137 32.519-19.482 1.316-35.695-14.097-35.695-33.297.001-6.601-7.26-69.703-1.539-76.705z" fill="#e59683"/><path d="m400.295 267.337c0-27.773-23.014-50.169-51.014-49.159-3.616.134-7.139.659-10.518 1.556 21.149 5.501 36.766 24.734 36.766 47.604 0 14.742-6.49 27.959-16.761 36.962-2.349 2.071-3.657 5.13-3.276 8.241.196 1.607.288 3.255.288 4.914 0 15.411-9.004 32.944-22.107 39.826-3.945 2.081-5.769 6.665-4.646 10.971 1.092 4.203 1.391 8.725.711 13.402-.919 6.358-3.89 10.834-8.056 14.321l9.549 8.808c13.228-3.595 23.327-15.221 24.539-29.268.123-1.441.147-2.864.093-4.265-3.55-6.402-7.76-10.254-4.162-14.896 14.219-4.301 25.155-16.192 28.08-30.965.508-2.566-2.64-8.072-2.64-8.072l2.199-9.71c12.672-8.902 20.955-23.612 20.955-40.27z" fill="#d8816c"/><path d="m351.702 356.353c2.462 4.44 3.956 9.498 4.162 14.896-.021.01-.031.01-.051.021-4.533 1.37-9.251 2.07-14.031 2.07-2.297 0-4.605-.165-6.861-.484-4.224-.597-7.16-4.512-6.562-8.736s4.512-7.18 8.736-6.562c4.738.67 10.033.186 14.607-1.205z" fill="#c67161"/><path d="m380.557 317.454c0 2.72-.268 5.367-.783 7.932-3.812 1.844-7.819 3.245-11.981 4.193-.577.134-1.154.196-1.731.196-3.523 0-6.706-2.421-7.52-6.006-.948-4.162 1.648-8.303 5.81-9.251 5.223-1.195 10.59-3.822 14.989-6.912.783 3.152 1.216 6.449 1.216 9.848z" fill="#c67161"/><path d="m309.682 402.36c-7.706 19.645-20.017 34.51-37.138 46.872l-14.618 10.559c-1.082.773-2.534.783-3.616 0l-14.319-10.281c-17.296-12.413-29.721-27.41-37.437-47.22 2.514-.943 4.913-2.178 5.832-6.256 4.33-3.905 6.974-9.54 6.974-15.669v-18.285l11.231-15.871-11.231-39.252h81.28l-17.133 35.762 17.133 19.352v18.296c0 6.147 2.663 11.803 7.019 15.708.232 3.242 3.435 5.351 6.023 6.285z" fill="#ffdcd0"/><path d="m123.048 419.255c-35.427 7.129-60.903 38.26-60.903 74.388v13.207c0 2.845 2.306 5.151 5.151 5.151h78.44l35.381-6.622-4.698-99.001z" fill="#e8edf2"/><path d="m335.463 406.349-23.021-5.554c-.639-.165-1.267-.361-1.885-.598-7.706 19.645-20.892 36.674-38.013 49.036l-14.618 10.559c-1.082.773-2.534.783-3.616 0l-14.319-10.281c-17.296-12.413-30.596-29.586-38.312-49.396-.69.268-1.401.494-2.122.68l-23.14 5.583 4.698 99.001 15.942 6.621h30.991l26.25-8.169 29.92 8.169h30.724l17.259-6.985z" fill="#8db9ff"/><path d="m449.856 493.642c0-36.128-25.476-67.259-60.903-74.388l-53.489-12.906-3.262 98.667 34.063 6.985h78.44c2.845 0 5.151-2.306 5.151-5.151z" fill="#e8edf2"/><path d="m197.057 511.996v-117.602c0-1.997-1.866-3.47-3.808-3.006l-60.612 14.471c-5.251 1.254-8.643 6.348-7.775 11.676l7.808 47.918c.244 1.495 1.535 2.593 3.05 2.593h22.505c2.468 0 3.941 2.751 2.571 4.805l-16.711 25.067c-.443.664-.611 1.474-.47 2.26l2.121 11.817h51.321z" fill="#f5f8f9"/><path d="m314.943 511.996v-117.549c0-2.014 1.895-3.49 3.848-2.996l60.699 15.339c5.194 1.313 8.515 6.387 7.639 11.672l-7.792 46.999c-.247 1.491-1.537 2.585-3.049 2.585h-22.512c-2.468 0-3.941 2.751-2.571 4.805l16.711 25.067c.443.664.611 1.474.47 2.26l-2.121 11.817h-51.322z" fill="#f5f8f9"/><path d="m392.364 205.949h-279.284v-100.415c0-70.921 68.323-120.983 135.195-101.159 1.995.591 3.989 4.607 5.98 5.324v-.073c1.128.406 2.362.479 3.49.073v-.073c1.991-.717 3.985-4.66 5.98-5.251 5.329-1.58 10.667-2.716 15.979-3.433 61.467 2.625 112.466 39.322 112.466 104.592z" fill="#e59683"/><path d="m398.924 105.53v100.42h-27.804v-100.42c0-55.247-41.464-97.845-91.416-104.592 4.667-.629 9.313-.938 13.907-.938 55.917 0 105.313 45.234 105.313 105.53z" fill="#d8816c"/><path d="m357.465 246.079h-202.93c-31.72 0-57.435-25.714-57.435-57.435 0-12.619 10.23-22.849 22.849-22.849h272.101c12.619 0 22.849 10.23 22.849 22.849 0 31.721-25.714 57.435-57.434 57.435z" fill="#ffc7b6"/><path d="m296.64 306.957v55.114c-12.589 5.923-26.413 9.055-40.64 9.055-14.216 0-28.051-3.121-40.64-9.045v-55.124z" fill="#ffc7b6"/><path d="m256 349.49c18.164 0 36.328-6.658 50.545-19.973l38.815-36.353c6.642-6.221 12.195-13.511 16.426-21.568 6.133-11.678 9.338-24.671 9.338-37.861v-67.938h-.047c-6.28 0-11.8-4.159-13.533-10.195-11.636-40.538-40.55-73.885-79.03-91.148l-20.407-9.155c-1.341-.601-2.874-.601-4.215 0l-20.407 9.155c-38.48 17.263-67.394 50.61-79.03 91.148-1.733 6.036-7.253 10.195-13.533 10.195h-.047v67.938c0 13.191 3.205 26.184 9.338 37.861 4.232 8.057 9.784 15.347 16.426 21.568l38.815 36.353c14.218 13.315 32.382 19.973 50.546 19.973z" fill="#ffdcd0"/><g><g><g><path d="m256 249.124c-5.704 0-11.405-1.324-16.604-3.973-3.802-1.938-5.314-6.589-3.377-10.392s6.59-5.313 10.392-3.376c6.003 3.059 13.173 3.059 19.178 0 3.8-1.937 8.455-.426 10.391 3.377 1.938 3.802.426 8.455-3.377 10.391-5.197 2.648-10.901 3.973-16.603 3.973z" fill="#ffc7b6"/></g><g><path d="m227.774 161.155c-1.259.001-2.535-.308-3.715-.957-8.82-4.849-19.351-4.849-28.17 0-3.738 2.055-8.436.691-10.493-3.048-2.056-3.739-.691-8.436 3.048-10.493 13.482-7.412 29.578-7.412 43.059 0 3.739 2.056 5.104 6.753 3.048 10.493-1.406 2.559-4.05 4.005-6.777 4.005z" fill="#ffc7b6"/></g><g><path d="m319.827 161.155c-1.259.001-2.534-.308-3.715-.957-8.819-4.849-19.352-4.849-28.17 0-3.74 2.055-8.436.691-10.493-3.048-2.055-3.739-.691-8.437 3.048-10.493 13.481-7.412 29.579-7.412 43.059 0 3.739 2.055 5.104 6.753 3.048 10.493-1.406 2.559-4.05 4.005-6.777 4.005z" fill="#ffc7b6"/></g></g><g><g><path d="m256 295.856c-9.406 0-18.811-2.184-27.386-6.553-3.802-1.938-5.314-6.589-3.377-10.392s6.589-5.314 10.392-3.376c12.756 6.499 27.986 6.498 40.741 0 3.803-1.936 8.455-.425 10.392 3.376 1.938 3.802.426 8.455-3.376 10.392-8.574 4.369-17.98 6.553-27.386 6.553z" fill="#ffc7b6"/></g></g><g><g><path d="m302.044 207.692c-4.268 0-7.726-3.459-7.726-7.726v-18.617c0-4.268 3.459-7.726 7.726-7.726s7.726 3.459 7.726 7.726v18.617c.001 4.267-3.458 7.726-7.726 7.726z" fill="#ffc7b6"/></g><g><path d="m209.956 207.692c-4.267 0-7.726-3.459-7.726-7.726v-18.617c0-4.268 3.459-7.726 7.726-7.726s7.726 3.459 7.726 7.726v18.617c0 4.267-3.459 7.726-7.726 7.726z" fill="#ffc7b6"/></g></g></g><g><path d="m263.726 4.378v64.766c0 4.265-3.461 7.726-7.726 7.726s-7.726-3.461-7.726-7.726v-64.766c1.998.587 3.997 1.236 5.985 1.957.567.206 1.154.309 1.741.309s1.174-.103 1.741-.309c1.988-.721 3.987-1.37 5.985-1.957z" fill="#d8816c"/></g><path d="m228.048 511.996v-21.966c0-2.845 2.306-5.151 5.151-5.151h45.869c2.845 0 5.151 2.306 5.151 5.151v21.966z" fill="#ffde80"/><path d="m398.275 111.01-27.154 3.984h-260.24c-5.624 0-10.184-4.56-10.184-10.184v-24.347c0-5.624 4.56-10.184 10.184-10.184h254.254l33.785 3.984c5.625 0 10.184 4.56 10.184 10.184l-.646 16.379c.001 5.625-4.559 10.184-10.183 10.184z" fill="#f5f8f9"/><path d="m411.307 80.466v24.343c0 5.625-4.564 10.188-10.188 10.188h-29.999v-9.467c0-12.485-2.122-24.322-5.985-35.252h35.984c5.624 0 10.188 4.563 10.188 10.188z" fill="#e8edf2"/><g><path d="m293.178 91.799c0 22.799-14.379 39.168-37.178 39.168-18.39 0-29.528-10.471-39.31-25.692-1.28-3.983-1.971-8.23-1.971-12.639 0-22.799 18.482-41.281 41.281-41.281 4.275 0 8.398.65 12.276 1.856 15.982 8.238 24.902 20.064 24.902 38.588z" fill="#918291"/><path d="m297.279 92.632c0 22.808-18.481 41.289-41.279 41.289-18.388 0-33.975-12.022-39.301-28.649 3.987 1.288 8.231 1.978 12.64 1.978 22.797 0 41.278-18.481 41.278-41.279 0-4.409-.69-8.653-1.978-12.64 16.618 5.337 28.64 20.913 28.64 39.301z" fill="#7a6d79"/><path d="m267.484 92.636c0 7.335-4.149 11.474-11.484 11.474-3.159 0-6.061.705-8.341-1.137-3.014-2.435-4.941-6.161-4.941-10.336 0-7.335 5.946-13.282 13.282-13.282 4.173 0 7.896 1.924 10.331 4.934 1.845 2.281 1.153 5.185 1.153 8.347z" fill="#f5f8f9"/><path d="m269.279 92.632c0 7.335-5.944 13.289-13.279 13.289-3.163 0-6.057-1.102-8.334-2.957 8.087-4.007 14.67-10.59 18.667-18.677 1.844 2.277 2.946 5.183 2.946 8.345z" fill="#e8edf2"/></g><g><path d="m318.088 402.154c-8.221 21.458-22.385 39.888-41.021 53.341l-13.207 9.54v31.07c0 4.275-3.461 7.726-7.726 7.726s-7.726-3.451-7.726-7.726v-31.049l-12.918-9.271c-18.821-13.516-33.089-32.058-41.33-53.692l5.398-1.298c.721-.185 1.432-.412 2.122-.68 2.514-.948 4.78-2.339 6.706-4.08 7.118 19.027 19.604 35.335 36.117 47.202l11.61 8.334 11.909-8.602c16.308-11.775 28.529-28.084 35.637-46.894 1.947 1.71 4.374 3.216 6.898 4.122.618.237 1.246.433 1.885.598z" fill="#f5f8f9"/></g></g></svg>