<svg id="Capa_1" enable-background="new 0 0 512 512" height="512" viewBox="0 0 512 512" width="512" xmlns="http://www.w3.org/2000/svg"><g><path d="m282.247 442.452c13.902-2.78 19.699-12.465 24.521-23.22-5.807-4.181-9.494-18.527-9.494-18.527v-23l-8.67-12.393 8.67-33.333h-58.933-58.933l6.356 31.297-6.356 14.42v23.01s-7.785 20.365-18.547 22.417l-2.835.562c31.076 31.465 81.571 27.297 124.221 18.767z" fill="#ffdcd0"/><path d="m81.075 438.926c-27.99 5.337-52.371 22.367-67.017 46.809l-11.932 19.922c-1.645 2.747.334 6.239 3.536 6.239h123.442l29.337-9.421-18.398-75.228z" fill="#5de1c4"/><path d="m315.821 423.123c-3.356-.64-6.422-1.996-9.053-3.89-4.822 10.755-10.62 20.439-24.521 23.22-42.65 8.53-93.144 12.697-124.22-18.768l-17.984 3.562 39.366 84.649h117.865l19.937-88.507z" fill="#f5f8f9"/><path d="m460.44 477.813c-14.874-20.186-36.885-34.147-61.743-38.887l-81.486-15.538-1.186 78.689 31.554 9.819h78.626z" fill="#5de1c4"/><path d="m394.066 157.79c0-6.87-3.119-13.009-8.017-17.085-1.116-.929-1.586-2.412-1.333-3.842.298-1.689.314-3.457-.001-5.245s-.935-3.444-1.793-4.929c-.726-1.257-.792-2.812-.061-4.067 3.209-5.505 4.04-12.341 1.69-18.797s-7.381-11.158-13.377-13.313c-1.367-.491-2.316-1.725-2.567-3.155-.297-1.689-.887-3.356-1.795-4.928s-2.056-2.916-3.37-4.019c-1.113-.933-1.706-2.372-1.448-3.801 1.132-6.271-.425-12.979-4.841-18.241-4.416-5.263-10.752-7.961-17.124-7.935-1.452.006-2.766-.829-3.491-2.086-.857-1.486-1.982-2.85-3.372-4.017-1.391-1.167-2.93-2.037-4.542-2.624-1.365-.496-2.415-1.645-2.661-3.076-1.081-6.28-3.333-11.795-9.283-15.23-6.709-3.873-13.091-4.655-20.489-2.948l-7.875-2.347-6.041-2.725c-2.874-6.609-8.903-11.694-16.532-13.039-6.766-1.193-13.353.813-18.218 4.929-1.109.938-2.651 1.143-4.016.646-1.612-.587-3.35-.91-5.166-.91s-3.554.322-5.166.91c-1.364.497-2.907.292-4.016-.646-4.864-4.116-11.452-6.122-18.218-4.929-7.629 1.345-13.654 6.435-16.528 13.044-2.268 4.863-5.886 4.281-13.92 5.067-6.45-3.216-14.337-3.242-21.045.632-5.95 3.435-9.707 9.206-10.788 15.486-.246 1.431-1.296 2.58-2.661 3.076-1.612.586-3.151 1.457-4.542 2.624s-2.515 2.531-3.372 4.017c-.726 1.258-2.039 2.092-3.491 2.086-6.372-.026-12.708 2.672-17.124 7.935s-5.973 11.971-4.841 18.241c.258 1.429-.336 2.868-1.448 3.801-1.314 1.102-2.463 2.447-3.37 4.019-.908 1.572-1.498 3.239-1.795 4.928-.252 1.43-1.201 2.664-2.567 3.155-5.997 2.155-11.028 6.857-13.377 13.313-2.35 6.456-1.518 13.292 1.69 18.797.731 1.255.665 2.809-.061 4.067-.858 1.485-1.477 3.141-1.793 4.929-.315 1.788-.3 3.556-.001 5.245.253 1.43-.217 2.914-1.333 3.842-4.898 4.076-8.017 10.215-8.017 17.085s3.119 13.009 8.017 17.085c1.116.929 1.586 2.412 1.333 3.842-.298 1.689-.314 3.457.001 5.245.467 2.651 3.498 8.71 5.09 10.655-4.287 5.793-7.576 9.859-4.927 17.138s8.708 12.329 15.716 14.012c.03 2.513.678 5.053 2.024 7.384s3.222 4.162 5.383 5.445c-2.047 6.91-.703 14.682 4.277 20.616 4.979 5.934 12.4 8.607 19.56 7.792.888 2.351 2.365 4.516 4.427 6.247 2.062 1.73 4.451 2.809 6.921 3.275.44 7.193 4.361 14.037 11.07 17.91s14.596 3.847 21.045.632c1.638 1.906 3.767 3.435 6.297 4.356s5.143 1.118 7.623.711c2.874 6.609 8.899 11.699 16.528 13.044s15.031-1.377 19.992-6.604c2.191 1.23 4.715 1.939 7.407 1.939s5.215-.709 7.407-1.939c4.961 5.228 12.363 7.949 19.992 6.604s13.654-6.435 16.528-13.044c2.48.407 5.094.21 7.623-.711 2.53-.921 4.658-2.45 6.297-4.356 6.45 3.216 14.337 3.242 21.045-.632 6.709-3.873 10.63-10.717 11.07-17.91 2.47-.466 4.858-1.545 6.921-3.275s3.54-3.895 4.427-6.247c7.16.816 14.581-1.857 19.56-7.792 4.979-5.934 6.323-13.706 4.277-20.616 2.161-1.283 4.037-3.113 5.383-5.445 1.346-2.331 1.994-4.871 2.024-7.384 7.008-1.682 13.066-6.732 15.716-14.012 2.649-7.279-3.583-14.085-7.87-19.878 1.592-1.944 3.445-5.264 3.913-7.915.315-1.788.3-3.556.001-5.245-.253-1.43-1.843-.853-.727-1.782 4.895-4.076 12.136-10.215 12.136-17.085z" fill="#ffce61"/><path d="m370.897 223.702c7.006-1.679 13.065-6.728 15.713-14.013 2.648-7.274.536-14.074-3.75-19.875 1.597-1.937 3.452-5.265 3.915-7.913.319-1.782.299-3.555 0-5.244-.247-1.432.216-2.916 1.339-3.843 4.894-4.08 8.016-10.211 8.016-17.083s-3.122-13.013-8.016-17.083c-1.123-.938-1.587-2.421-1.339-3.843.299-1.69.319-3.462 0-5.244-.319-1.793-.938-3.452-1.793-4.935-.721-1.257-.793-2.813-.062-4.07 3.215-5.502 4.039-12.333 1.69-18.794-2.349-6.45-7.377-11.158-13.374-13.312-1.37-.495-2.318-1.721-2.566-3.153-.299-1.69-.886-3.359-1.803-4.925-.907-1.576-2.05-2.926-3.369-4.018-1.113-.938-1.7-2.38-1.442-3.802 1.133-6.275-.422-12.982-4.843-18.247-4.42-5.265-10.757-7.954-17.124-7.934-1.453.01-2.761-.824-3.493-2.081-.855-1.494-1.978-2.854-3.369-4.018-1.391-1.174-2.936-2.04-4.544-2.627-1.36-.495-2.411-1.648-2.658-3.07-1.082-6.285-4.843-12.055-10.788-15.486-6.707-3.874-14.6-3.854-21.05-.639 31.456 24.738 51.568 63.675 51.568 108.917 0 17.866.051 59.203 0 60.924-.26 7.997-1.131 15.261-2.545 21.88 7.656 6.975 16.049 12.87 25.017 17.783.429-1.399.652-2.83.67-4.252z" fill="#ffbf61"/><g fill="#ffbf61"><path d="m194.39 36.294c1.288.289 2.658.258 3.998-.165 4.07-1.278 6.337-5.616 5.059-9.685-1.793-5.729-4.358-9.325-9.036-13.065-3.895-.567-9.613.309-13.92 5.069 2.256 1.803 7.346 9.84 8.212 12.611.855 2.742 3.09 4.658 5.687 5.235z"/><path d="m282.272 13.38c-4.678 3.74-7.243 7.336-9.036 13.065-1.278 4.07.989 8.407 5.059 9.685 1.339.422 2.71.453 3.998.165 2.596-.577 4.832-2.494 5.687-5.234.865-2.772 5.955-10.808 8.212-12.611-4.307-4.761-10.025-5.637-13.92-5.07z"/><path d="m193.147 47.807c-4.268 0-7.728 3.459-7.728 7.728s3.459 7.728 7.728 7.728c5.723 0 10.379 4.656 10.379 10.379 0 4.268 3.459 7.728 7.728 7.728 4.268 0 7.728-3.459 7.728-7.728-.001-14.246-11.591-25.835-25.835-25.835z"/><path d="m149.097 78.694c-3.019-3.017-7.911-3.017-10.929 0-8.003 8.004-8.004 21.029 0 29.035 1.509 1.509 3.486 2.264 5.465 2.264 1.977 0 3.955-.755 5.464-2.263 3.019-3.018 3.019-7.911.001-10.928-1.979-1.979-1.979-5.2 0-7.178 3.017-3.019 3.017-7.912-.001-10.93z"/><path d="m338.516 78.694c-3.019-3.017-7.911-3.017-10.929 0-3.018 3.019-3.018 7.911 0 10.929 1.979 1.978 1.979 5.199 0 7.178-3.018 3.018-3.018 7.911.001 10.928 1.509 1.508 3.486 2.263 5.464 2.263s3.955-.755 5.465-2.264c8.003-8.005 8.002-21.03-.001-29.034z"/><path d="m283.537 47.807c-14.245 0-25.834 11.589-25.834 25.834 0 4.268 3.459 7.728 7.728 7.728 4.268 0 7.728-3.459 7.728-7.728 0-5.723 4.656-10.379 10.379-10.379 4.268 0 7.728-3.459 7.728-7.728s-3.461-7.727-7.729-7.727z"/></g><path d="m347.79 180.901h16.495c13.772 0 24.936 11.164 24.936 24.936 0 34.618-28.063 62.681-62.681 62.681h-176.398c-34.618 0-62.681-28.063-62.681-62.681 0-13.772 11.164-24.936 24.936-24.936h16.495z" fill="#ffc7b6"/><path d="m297.269 331.98v45.726l-1.793 1.566c-12.374 10.819-28.211 16.764-44.603 16.764h-25.058c-16.413 0-32.25-5.955-44.614-16.774l-1.793-1.566v-45.716z" fill="#ffc7b6"/><path d="m347.786 180.902v92.473c0 19.937-8.603 38.905-23.615 52.042l-42.944 37.576c-8.408 7.346-19.195 11.406-30.354 11.406h-25.058c-11.169 0-21.956-4.059-30.364-11.416l-42.944-37.566c-15.002-13.137-23.615-32.105-23.615-52.042v-92.473c13.693 0 24.8-11.107 24.8-24.8 0-3.193-.606-6.242-1.707-9.042-.507-1.29.389-2.653 1.77-2.77 2.395-.203 4.781-.916 6.995-2.2 4.896-2.819 7.844-7.712 8.378-12.931.119-1.161 1.124-1.996 2.284-1.866 8.203.919 16.309-2.361 21.593-8.554.606-.71 1.619-.926 2.445-.493 4.639 2.428 12.128 3.306 17.763-.589.714-.493 1.651-.46 2.356.046 13.059 9.376 32.019 9.64 45.573-.025.699-.498 1.613-.519 2.335-.055 4.456 2.86 11.884 4 17.683.738.857-.482 1.923-.317 2.562.43 2.681 3.136 6.182 5.638 10.331 7.153 3.725 1.356 7.557 1.761 11.246 1.341 1.119-.128 2.157.649 2.26 1.77.215 2.342.925 4.674 2.175 6.842 2.875 4.978 7.888 7.934 13.206 8.391 1.374.118 2.259 1.481 1.755 2.765-1.1 2.802-1.701 5.854-1.701 9.05.002 13.692 11.099 24.799 24.792 24.799z" fill="#ffdcd0"/><g><g><path d="m238.342 275.935c-5.572 0-11.145-1.294-16.224-3.882-3.803-1.937-5.316-6.591-3.378-10.393 1.937-3.803 6.591-5.315 10.393-3.378 5.767 2.938 12.652 2.938 18.415 0 3.803-1.936 8.456-.426 10.394 3.377s.426 8.456-3.377 10.394c-5.079 2.588-10.651 3.882-16.223 3.882z" fill="#ffc7b6"/></g><g><path d="m238.341 322.331c-9.397 0-18.795-2.579-27.361-7.739-3.656-2.202-4.835-6.951-2.633-10.606 2.202-3.658 6.949-4.836 10.606-2.633 12.323 7.423 26.457 7.422 38.777 0 3.652-2.203 8.404-1.024 10.606 2.633 2.202 3.655 1.023 8.405-2.633 10.606-8.567 5.16-17.965 7.739-27.362 7.739z" fill="#ffc7b6"/></g><g><path d="m264.572 194.784c-2.587 0-5.114-1.299-6.576-3.659-2.247-3.628-1.128-8.392 2.5-10.638 13.682-8.472 35.117-8.474 48.799 0 3.629 2.247 4.749 7.009 2.501 10.637-2.247 3.629-7.01 4.749-10.637 2.501-8.666-5.367-23.865-5.365-32.525 0-1.268.784-2.674 1.159-4.062 1.159z" fill="#ffc7b6"/></g><g><path d="m212.11 194.784c-1.389 0-2.794-.374-4.062-1.159-8.662-5.365-23.861-5.365-32.525 0-3.626 2.248-8.39 1.128-10.637-2.501-2.248-3.628-1.128-8.391 2.501-10.637 13.682-8.473 35.117-8.473 48.799 0 3.628 2.247 4.747 7.01 2.5 10.638-1.461 2.36-3.989 3.659-6.576 3.659z" fill="#ffc7b6"/></g><g><path d="m284.896 238.422c-4.268 0-7.728-3.459-7.728-7.728v-19.235c0-4.268 3.459-7.728 7.728-7.728s7.728 3.459 7.728 7.728v19.235c-.001 4.269-3.46 7.728-7.728 7.728z" fill="#ffc7b6"/></g><g><path d="m191.786 238.422c-4.268 0-7.728-3.459-7.728-7.728v-19.235c0-4.268 3.459-7.728 7.728-7.728 4.268 0 7.728 3.459 7.728 7.728v19.235c0 4.269-3.459 7.728-7.728 7.728z" fill="#ffc7b6"/></g></g><path d="m299.223 455.947c-19.122 10.177-39.809 15.542-60.882 15.542-21.072 0-41.759-5.365-60.88-15.542l1.033-35.725c34.932 28.473 86.129 28.182 120.729-.873z" fill="#e8edf2"/><path d="m179.409 511.896v-111.19l-74.056 19.548c-5.796 1.53-9.066 7.668-7.103 13.332l15.71 45.319c.431 1.244 1.604 2.079 2.92 2.079h25.304c2.402 0 3.886 2.621 2.651 4.681l-15.733 26.232h50.307z" fill="#86e8d0"/><path d="m297.274 511.896v-111.19l74.056 19.548c5.796 1.53 9.066 7.668 7.103 13.332l-16.431 47.397h-27.504c-2.402 0-3.886 2.621-2.651 4.681l15.733 26.232z" fill="#86e8d0"/><g><path d="m341.938 427.734c0 15.773 4.334 30.533 11.875 43.155 19.32 21.117 41.694 36.245 72.46 36.245 46.539 0 80.681-32.862 80.681-79.401 0-30.767-16.478-54.488-37.6-72.386-12.622-7.541-27.379-11.879-43.151-11.879-46.538.001-84.265 37.728-84.265 84.266z" fill="#8db9ff"/><path d="m510.466 427.739c0 46.53-37.72 84.261-84.261 84.261-30.766 0-57.678-16.485-72.391-41.11 12.622 7.542 27.386 11.869 43.151 11.869 46.54 0 84.271-37.721 84.271-84.261 0-15.764-4.328-30.529-11.88-43.15 24.624 14.703 41.11 41.625 41.11 72.391z" fill="#70abf2"/><path d="m468.026 408.07c0 5.677-2.164 11.344-6.491 15.671l-19.741 19.741-21.241-7.623-10.091-23.72 19.731-19.741c8.655-8.655 22.688-8.655 31.343 0 4.327 4.328 6.49 9.995 6.49 15.672z" fill="#f5f8f9"/><path d="m441.794 443.483-19.576 19.587c-8.655 8.655-22.688 8.655-31.343 0-8.665-8.655-8.665-22.688 0-31.343l19.587-19.586z" fill="#ff7e7b"/></g></g></svg>