<svg id="Capa_1" enable-background="new 0 0 512 512" height="512" viewBox="0 0 512 512" width="512" xmlns="http://www.w3.org/2000/svg"><g><g><path d="m463.97 384.186c20.412 0 36.959-16.547 36.959-36.959v-86.307h-36.959l-10.813 54.684z" fill="#86e8d0"/><path d="m455.484 267.439h46.358c5.61 0 10.158-4.548 10.158-10.158v-13.233c0-5.61-4.548-10.158-10.158-10.158h-46.358z" fill="#0ed2b3"/></g><g><path d="m48.03 384.186c-20.412 0-36.959-16.547-36.959-36.959v-86.307h36.959l10.813 54.684z" fill="#86e8d0"/><path d="m56.516 267.439h-46.358c-5.61 0-10.158-4.548-10.158-10.158v-13.233c0-5.61 4.548-10.158 10.158-10.158h46.358z" fill="#0ed2b3"/></g><path d="m408.598 469.141-19.433 3.146h-290.347c-11.22 0-20.315-9.095-20.315-20.315v-48.272h350.803l-.392 45.125c-.001 11.22-9.096 20.316-20.316 20.316z" fill="#f5f8f9"/><path d="m433.5 403.697v48.274c0 11.219-9.097 20.315-20.315 20.315h-30.905c11.219 0 20.315-9.096 20.315-20.315v-48.274z" fill="#e8edf2"/><g><path d="m185.477 123.21c-4.268 0-7.726-3.459-7.726-7.726v-29.005c0-16.605 13.509-30.114 30.114-30.114h96.272c16.605 0 30.114 13.509 30.114 30.114v28.557c0 4.267-3.459 7.726-7.726 7.726s-7.726-3.459-7.726-7.726v-28.557c0-8.084-6.576-14.661-14.661-14.661h-96.272c-8.085 0-14.661 6.577-14.661 14.661v29.005c-.002 4.267-3.461 7.726-7.728 7.726z" fill="#ffce61"/></g><path d="m298.534 78.202c-27.673-8.76-57.394-8.76-85.068 0-7.779 2.462-16.165-1.254-19.406-8.743-.042-.098-.085-.195-.127-.293-3.699-8.549.745-18.48 9.62-21.306 34.113-10.862 70.78-10.862 104.892 0 8.876 2.826 13.319 12.758 9.62 21.306-.042.098-.085.195-.127.293-3.239 7.488-11.625 11.205-19.404 8.743z" fill="#ffde80"/><path d="m198.84 139.638h-26.727v-24.686c0-7.38 5.983-13.363 13.363-13.363 7.38 0 13.363 5.983 13.363 13.363v24.686z" fill="#e8edf2"/><path d="m339.886 139.638h-26.726v-24.686c0-7.38 5.983-13.363 13.363-13.363 7.38 0 13.363 5.983 13.363 13.363z" fill="#e8edf2"/><path d="m460.983 245.726-4.335 157.974c0 16.823-13.65 30.473-30.473 30.473l-17.425 1.439h-330.25c-16.823 0-30.473-13.65-30.473-30.473v-94.777l10.816-61.646z" fill="#5de1c4"/><path d="m463.973 248.717v156.423c0 16.823-13.65 30.473-30.473 30.473h-30.473c16.823 0 30.473-13.65 30.473-30.473v-156.423z" fill="#0ed2b3"/><path d="m463.973 248.717v61.728c-4.605 5.728-9.89 10.992-15.803 15.669-8.674 6.871-18.379 12.207-28.845 15.844-10.487 3.647-21.397 5.491-32.451 5.491h-261.748c-22.159 0-43.927-7.572-61.296-21.335-5.841-4.626-11.147-9.931-15.803-15.752v-61.646h415.946z" fill="#0ed2b3"/><path d="m460.914 151.552-1.745 93.661c0 23.55-6.489 45.917-24.96 60.545-6.809 5.398-13.905 12.959-21.991 15.771-8.097 2.812-16.648 4.286-25.343 4.286h-261.749c-17.379 0-34.243-5.872-47.862-16.658-9.23-7.314-16.545-16.534-21.541-26.877-5.007-10.333-7.696-21.788-7.696-33.563v-99.062c0-11.219 9.096-20.315 20.315-20.315h358.83l13.426 1.898c11.219-.001 20.316 9.095 20.316 20.314z" fill="#86e8d0"/><path d="m463.973 149.654v99.062c0 23.55-10.765 45.812-29.236 60.441-6.809 5.398-14.433 9.56-22.52 12.372-8.097 2.812-16.648 4.286-25.343 4.286h-20.604c8.695 0 17.245-1.473 25.343-4.286 8.087-2.812 15.71-6.974 22.52-12.372 18.471-14.629 29.236-36.891 29.236-60.441v-99.062c0-11.219-9.096-20.315-20.315-20.315h20.604c11.218 0 20.315 9.097 20.315 20.315z" fill="#5de1c4"/><g><path d="m98.853 391.626h39.737c1.683 0 3.047-1.364 3.047-3.047v-262.028c0-5.69-4.612-10.302-10.302-10.302h-25.228c-5.69 0-10.302 4.612-10.302 10.302v262.028c.001 1.683 1.365 3.047 3.048 3.047z" fill="#f5f8f9"/><path d="m93.644 347.731h50.156c4.488 0 8.126-3.638 8.126-8.126v-33.846c0-4.488-3.638-8.126-8.126-8.126h-50.156c-4.488 0-8.126 3.638-8.126 8.126v33.846c0 4.488 3.638 8.126 8.126 8.126z" fill="#f5f8f9"/><g><path d="m118.722 325.328c-4.268 0-7.726-3.459-7.726-7.726v-17.062c0-4.267 3.459-7.726 7.726-7.726 4.268 0 7.726 3.459 7.726 7.726v17.062c0 4.267-3.459 7.726-7.726 7.726z" fill="#ffce61"/></g><g><path d="m143.8 355.457h-50.156c-8.74 0-15.852-7.112-15.852-15.853v-33.846c0-8.741 7.112-15.853 15.852-15.853h50.156c8.74 0 15.852 7.112 15.852 15.853v33.846c0 8.742-7.112 15.853-15.852 15.853zm-50.156-50.098c-.22 0-.399.18-.399.4v33.846c0 .22.179.4.399.4h50.156c.22 0 .399-.18.399-.4v-33.846c0-.22-.179-.4-.399-.4z" fill="#ffde80"/></g></g><g><path d="m206.79 210.158h29.733c1.138 0 2.06-.922 2.06-2.06v-29.733c0-1.138.922-2.06 2.06-2.06h30.713c1.138 0 2.06.922 2.06 2.06v29.733c0 1.138.922 2.06 2.06 2.06h29.733c1.138 0 2.06.922 2.06 2.06v30.713c0 1.138-.922 2.06-2.06 2.06h-29.733c-1.138 0-2.06.922-2.06 2.06v29.733c0 1.138-.922 2.06-2.06 2.06h-30.713c-1.138 0-2.06-.922-2.06-2.06v-29.733c0-1.138-.922-2.06-2.06-2.06h-29.733c-1.138 0-2.06-.922-2.06-2.06v-30.713c-.001-1.138.922-2.06 2.06-2.06z" fill="#f5f8f9"/></g><g><path d="m373.41 391.626h39.737c1.683 0 3.047-1.364 3.047-3.047v-262.028c0-5.69-4.612-10.302-10.302-10.302h-25.228c-5.69 0-10.302 4.612-10.302 10.302v262.028c0 1.683 1.365 3.047 3.048 3.047z" fill="#f5f8f9"/><path d="m368.2 347.731h50.155c4.488 0 8.126-3.638 8.126-8.126v-33.846c0-4.488-3.638-8.126-8.126-8.126h-50.155c-4.488 0-8.126 3.638-8.126 8.126v33.846c0 4.488 3.638 8.126 8.126 8.126z" fill="#f5f8f9"/><g><path d="m393.278 325.328c-4.268 0-7.726-3.459-7.726-7.726v-17.062c0-4.267 3.459-7.726 7.726-7.726 4.268 0 7.726 3.459 7.726 7.726v17.062c0 4.267-3.459 7.726-7.726 7.726z" fill="#ffce61"/></g><g><path d="m418.356 355.457h-50.156c-8.74 0-15.852-7.112-15.852-15.853v-33.846c0-8.741 7.112-15.853 15.852-15.853h50.156c8.74 0 15.852 7.112 15.852 15.853v33.846c0 8.742-7.111 15.853-15.852 15.853zm-50.156-50.098c-.22 0-.399.18-.399.4v33.846c0 .22.179.4.399.4h50.156c.22 0 .399-.18.399-.4v-33.846c0-.22-.179-.4-.399-.4z" fill="#ffde80"/></g></g></g></svg>