<svg id="Capa_1" enable-background="new 0 0 512 512" height="512" viewBox="0 0 512 512" width="512" xmlns="http://www.w3.org/2000/svg"><g><g><path d="m287.937 411.556c1.536-1.536 2.873-3.223 4.09-5l-23.906-5.766c-9.306-2.419-15.803-10.82-15.803-20.435v-18.299l-3.221-11.703 3.221-43.406h-40.645-40.645l4.041 42.128-4.041 12.98v18.299c0 9.615-6.497 18.016-15.803 20.435l-23.374 5.638c38.385 44.479 113.81 44.523 156.086 5.129z" fill="#e59683"/><path d="m78.723 419.243c-35.43 7.137-60.904 38.27-60.904 74.396v13.21c0 2.845 2.306 5.151 5.151 5.151h78.438l27.558-8.395-8.583-94.411z" fill="#5de1c4"/><path d="m301.263 408.784-9.236-2.228c-1.218 1.777-2.554 3.464-4.09 5-42.276 39.393-117.701 39.35-156.085-5.129l-11.469 2.766 8.802 96.824 23.545 5.983h117.887l10.214-6.45z" fill="#f5f8f9"/><path d="m405.527 493.639c0-36.126-25.474-67.259-60.904-74.396l-43.361-10.459-19.602 92.836 40.279 10.38h87.993z" fill="#5de1c4"/></g><path d="m286.331 440.86c-23.449 12.104-48.817 18.486-74.658 18.486-25.84 0-51.208-6.381-74.656-18.485l13.031-30.553c35.967 29.317 88.681 29.017 124.306-.899z" fill="#e8edf2"/><path d="m348.432 239.238-3.491-131.186c0-65.439-49.352-107.625-110.039-107.048-5.155.72-10.334 1.835-15.505 3.368 0 0-3.989 5.519-5.979 6.235-1.128.406-2.362.406-3.49 0-1.991-.717-5.984-6.235-5.984-6.235-66.871-19.824-135.192 30.229-135.192 101.151v138.027c0 16.998-3.235 33.828-9.519 49.596-.809 2.029.116 4.347 2.103 5.252 88.203 40.189 189.574 43.281 279.881 8.718 0 0 6.983-9.172 13.84-12.305 1.985-.907 2.908-3.223 2.1-5.251-6.284-15.77-8.725-33.323-8.725-50.322z" fill="#918291"/><path d="m362.018 298.4c-6.861 3.132-13.794 6.037-20.8 8.716-6.202-17.225-15.154-46.993-15.154-62.508l.734-78.824.348-60.112c0-55.455-42.042-98.157-92.243-104.668 61.522-8.602 119.687 39.075 119.687 104.523v138.025c0 16.998 3.235 33.832 9.529 49.594.804 2.029-.123 4.347-2.101 5.254z" fill="#7a6d79"/><g><path d="m219.398 4.373v59.421c0 4.265-3.462 7.726-7.726 7.726-4.265 0-7.726-3.461-7.726-7.726v-59.421c1.999.587 3.997 1.236 5.985 1.957 1.123.402 2.359.402 3.492 0 1.988-.721 3.976-1.37 5.975-1.957z" fill="#7a6d79"/></g><path d="m313.138 246.069h-202.93c-31.72 0-57.435-25.714-57.435-57.435 0-12.619 10.23-22.849 22.849-22.849h272.102c12.619 0 22.849 10.23 22.849 22.849 0 31.72-25.714 57.435-57.435 57.435z" fill="#d8816c"/><path d="m96.548 224.721v-58.938h.052c3.142 0 6.088-1.04 8.468-2.833s4.193-4.347 5.058-7.355c11.641-40.538 40.548-73.885 79.036-91.151l20.408-9.159c1.339-.598 2.874-.598 4.214 0l20.408 9.159c19.234 8.633 36.087 21.284 49.583 36.85s23.633 34.027 29.443 54.301c1.731 6.027 7.253 10.188 13.537 10.188h.041v58.886l-17.729 29.21h-197.021z" fill="#e59683"/><path d="m252.323 306.951v55.105c-12.589 5.924-26.424 9.055-40.651 9.055s-28.052-3.132-40.641-9.055v-55.105z" fill="#d8816c"/><path d="m326.795 224.669v9.055c0 13.187-3.204 26.188-9.334 37.86-4.234 8.056-9.787 15.35-16.432 21.572l-38.807 36.345c-12.207 11.429-27.31 17.952-42.825 19.574 0 0-5.147-1.534-7.726-1.534s-7.726 1.534-7.726 1.534c-15.515-1.622-30.617-8.145-42.815-19.574l-38.818-36.345c-6.645-6.222-12.197-13.516-16.421-21.572-6.14-11.672-9.344-24.673-9.344-37.86v-9.004l25.549 12.939c11.971 5.985 26.095 5.862 37.963-.319l25.672-13.382c5.772-3.006 11.936-4.938 18.214-5.81 5.739 3.062 10.198 2.384 15.453 0 6.277.872 12.442 2.804 18.214 5.81l25.683 13.382c11.868 6.181 25.981 6.305 37.952.319z" fill="#f5f8f9"/><path d="m219.398 218.148v130.927c-2.565.268-5.151.402-7.726.402s-5.161-.134-7.726-.402v-130.927c5.119-.721 10.332-.721 15.452 0z" fill="#e8edf2"/><g><g><path d="m147.847 160.114c-2.727 0-5.371-1.447-6.778-4.005-2.055-3.739-.691-8.438 3.048-10.493 13.481-7.411 29.578-7.411 43.059 0 3.739 2.055 5.105 6.753 3.049 10.492-2.055 3.74-6.755 5.104-10.492 3.049-8.821-4.847-19.352-4.847-28.171 0-1.181.649-2.457.957-3.715.957z" fill="#d8816c"/></g><g><path d="m275.5 160.114c-1.259 0-2.534-.308-3.715-.957-8.817-4.847-19.348-4.848-28.171 0-3.737 2.055-8.437.692-10.492-3.049-2.055-3.739-.69-8.437 3.049-10.492 13.482-7.411 29.579-7.411 43.059 0 3.739 2.055 5.104 6.754 3.048 10.493-1.407 2.558-4.051 4.005-6.778 4.005z" fill="#d8816c"/></g><g><g><path d="m257.717 206.652c-4.268 0-7.726-3.459-7.726-7.726v-18.618c0-4.268 3.459-7.726 7.726-7.726 4.268 0 7.726 3.459 7.726 7.726v18.618c0 4.267-3.458 7.726-7.726 7.726z" fill="#d8816c"/></g><g><path d="m165.629 206.652c-4.268 0-7.726-3.459-7.726-7.726v-18.618c0-4.268 3.459-7.726 7.726-7.726 4.268 0 7.726 3.459 7.726 7.726v18.618c.001 4.267-3.458 7.726-7.726 7.726z" fill="#d8816c"/></g></g></g><path d="m152.73 512v-117.613c0-1.997-1.866-3.47-3.808-3.006l-60.613 14.471c-5.251 1.254-8.643 6.348-7.775 11.677l7.949 48.783c.162.997 1.024 1.729 2.034 1.729h25.306c1.646 0 2.627 1.834 1.714 3.203l-18.009 27.014c-.295.443-.408.983-.314 1.507l2.194 12.235z" fill="#86e8d0"/><path d="m270.617 512v-117.56c0-2.014 1.895-3.49 3.848-2.996l60.7 15.34c5.194 1.313 8.515 6.387 7.639 11.672l-7.935 47.861c-.165.994-1.025 1.723-2.033 1.723h-25.31c-1.646 0-2.627 1.834-1.714 3.203l18.009 27.014c.295.443.408.983.314 1.507l-2.196 12.236z" fill="#86e8d0"/><g><path d="m325.677 427.746c0 15.77 4.333 30.529 11.874 43.149 19.317 21.114 41.689 36.24 72.45 36.24 46.532 0 80.67-32.857 80.67-79.39 0-30.762-16.476-54.481-37.594-72.376-12.621-7.54-27.375-11.878-43.145-11.878-46.533.001-84.255 37.723-84.255 84.255z" fill="#8db9ff"/><path d="m494.181 427.751c0 46.523-37.715 84.249-84.249 84.249-30.761 0-57.67-16.483-72.381-41.105 12.62 7.541 27.383 11.868 43.145 11.868 46.534 0 84.259-37.715 84.259-84.249 0-15.762-4.327-30.524-11.878-43.144 24.621 14.7 41.104 41.619 41.104 72.381z" fill="#70abf2"/><path d="m451.748 408.084c0 5.677-2.164 11.343-6.49 15.669l-19.738 19.739-21.239-7.622-10.09-23.717 19.728-19.739c8.654-8.654 22.685-8.654 31.338 0 4.327 4.328 6.491 9.994 6.491 15.67z" fill="#f5f8f9"/><path d="m425.519 443.492-19.574 19.584c-8.654 8.654-22.685 8.654-31.339 0-8.664-8.654-8.664-22.685 0-31.339l19.584-19.584z" fill="#ff7e7b"/></g></g></svg>