<svg id="Capa_1" enable-background="new 0 0 512 512" height="512" viewBox="0 0 512 512" width="512" xmlns="http://www.w3.org/2000/svg"><g><path d="m431.928 69.259-3.356 338.81-114.902 67.658h-127.413l-110.271-79.2-16.474-73.409 16.474-55.498v-262.438c0-2.843 2.318-5.151 5.161-5.151l285.598-.031c.752 0 1.494.082 2.215.237l14.865 55.871c0 1.7 1.38 3.091 3.091 3.091l44.776 7.856c.153.71.236 1.452.236 2.204z" fill="#f5f8f9"/><path d="m436.014 69.259v198.361l10.361 64.355-10.361 71.711-28.845 16.988v-355.536c0-.134 0-1.133-.01-2.689l28.618 4.605c.154.711.237 1.453.237 2.205z" fill="#e8edf2"/><path d="m435.777 67.055h-63.727c-1.71 0-3.091-1.391-3.091-3.091v-63.727c1.916.422 3.678 1.381 5.079 2.781l58.947 58.947c1.412 1.412 2.37 3.184 2.792 5.09z" fill="#d5dee2"/><g><g><g><path d="m358.323 285.421h-155.379c-4.267 0-7.726-3.459-7.726-7.726s3.459-7.726 7.726-7.726h155.379c4.267 0 7.726 3.459 7.726 7.726 0 4.266-3.459 7.726-7.726 7.726z" fill="#e8edf2"/></g><g><path d="m166.845 285.421h-10.073c-4.267 0-7.726-3.459-7.726-7.726s3.459-7.726 7.726-7.726h10.073c4.267 0 7.726 3.459 7.726 7.726 0 4.266-3.459 7.726-7.726 7.726z" fill="#ff7e7b"/></g></g><g><g><path d="m367.249 326.683h-164.305c-4.267 0-7.726-3.459-7.726-7.726s3.459-7.726 7.726-7.726h164.304c4.267 0 7.726 3.459 7.726 7.726.001 4.266-3.458 7.726-7.725 7.726z" fill="#e8edf2"/></g><g><path d="m166.845 326.683h-10.073c-4.267 0-7.726-3.459-7.726-7.726s3.459-7.726 7.726-7.726h10.073c4.267 0 7.726 3.459 7.726 7.726 0 4.266-3.459 7.726-7.726 7.726z" fill="#ff7e7b"/></g></g><g><g><path d="m337.773 367.944h-134.829c-4.267 0-7.726-3.459-7.726-7.726s3.459-7.726 7.726-7.726h134.829c4.267 0 7.726 3.459 7.726 7.726s-3.459 7.726-7.726 7.726z" fill="#e8edf2"/></g><g><path d="m166.845 367.944h-10.073c-4.267 0-7.726-3.459-7.726-7.726s3.459-7.726 7.726-7.726h10.073c4.267 0 7.726 3.459 7.726 7.726s-3.459 7.726-7.726 7.726z" fill="#ff7e7b"/></g></g></g><g><path d="m158.989 142.854c0 10.797 1.76 21.183 5.015 30.883 16.639 33.98 48.645 60.934 91.426 60.934 53.577 0 92.567-38.239 92.567-91.816 0-42.78-27.082-72.099-61.113-91.997-9.701-3.255-20.088-5.013-30.885-5.013-53.577-.001-97.01 43.432-97.01 97.009z" fill="#ff7e7b"/><path d="m353.011 142.852c0 53.58-43.432 97.012-97.012 97.012-42.783 0-79.097-27.691-91.995-66.127 9.704 3.266 20.099 5.027 30.895 5.027 53.58 0 97.012-43.432 97.012-97.012 0-10.796-1.762-21.191-5.027-30.895 38.436 12.897 66.127 49.211 66.127 91.995z" fill="#ff6464"/><path d="m205.839 125.114h30.36c1.138 0 2.06-.922 2.06-2.06v-30.36c0-1.138.922-2.06 2.06-2.06h31.358c1.138 0 2.06.922 2.06 2.06v30.36c0 1.138.922 2.06 2.06 2.06h5.903l22.664 1.545c1.138 0 2.06.922 2.06 2.06l.654 28.384c0 1.138-.922 2.06-2.06 2.06l-30.751-.102c-1.138 0-2.06.922-2.06 2.06l1.03 29.124c0 1.138-.922 2.06-2.06 2.06l-29.06 1.254c-1.138 0-2.06-.922-2.06-2.06l-1.798-22.945v-5.901c0-1.138-.922-2.06-2.06-2.06h-30.36c-1.138 0-2.06-.922-2.06-2.06v-31.358c0-1.138.922-2.061 2.06-2.061z" fill="#f5f8f9"/><path d="m308.219 127.172v31.359c0 1.143-.927 2.06-2.06 2.06h-30.359c-1.133 0-2.06.927-2.06 2.06v30.359c0 1.143-.927 2.06-2.06 2.06h-31.36c-1.133 0-2.06-.917-2.06-2.06v-24.456c18.76-9.385 34.058-24.683 43.443-43.443h24.456c1.133.001 2.06.928 2.06 2.061z" fill="#e8edf2"/></g><g><path d="m464.666 238.963c-15.827 0-28.657 12.83-28.657 28.657v64.355l4.839 21.878-4.834 12.35c-.712-4.077-2.969-8.91-6.129-12.029-8.03-7.927-20.944-7.912-28.956.032l-82.553 81.856c-12.728 12.621-19.888 29.803-19.888 47.728v24.088c0 2.276 1.845 4.121 4.121 4.121l79.64-.002c1.417 0 2.745-.723 3.485-1.931 1.275-2.081 2.69-4.09 4.241-6.011l78.347-97.07c4.542-5.627 7.019-12.641 7.019-19.873v-137.473c0-5.896-4.779-10.676-10.675-10.676z" fill="#e59683"/><g><path d="m446.511 397.392-50.649 55.113c-4.042 4.399-10.885 4.687-15.283.645-4.398-4.042-4.686-10.884-.645-15.282l50.65-55.115c3.626-3.946 5.429-8.942 5.429-13.918v-36.86c3.245 1.803 6.305 4.069 9.066 6.799 16.257 16.051 16.885 41.796 1.432 58.618z" fill="#d8816c"/></g></g><g><path d="m47.334 238.963c15.827 0 28.657 12.83 28.657 28.657v64.355l-4.839 21.878 4.834 12.35c.712-4.077 2.969-8.91 6.129-12.029 8.03-7.927 20.944-7.912 28.956.032l82.553 81.856c12.728 12.621 19.888 29.803 19.888 47.728v24.088c0 2.276-1.845 4.121-4.121 4.121l-79.64-.002c-1.417 0-2.745-.723-3.485-1.931-1.275-2.081-2.69-4.09-4.241-6.011l-78.347-97.07c-4.542-5.627-7.019-12.641-7.019-19.873v-137.473c0-5.896 4.779-10.676 10.675-10.676z" fill="#e59683"/><g><path d="m65.489 397.392 50.649 55.113c4.042 4.399 10.885 4.687 15.283.645 4.398-4.042 4.686-10.884.644-15.282l-50.65-55.115c-3.626-3.946-5.429-8.942-5.429-13.918v-36.86c-3.245 1.803-6.305 4.069-9.066 6.799-16.256 16.051-16.884 41.796-1.431 58.618z" fill="#d8816c"/></g></g></g></svg>