<svg id="Capa_1" enable-background="new 0 0 512 512" height="512" viewBox="0 0 512 512" width="512" xmlns="http://www.w3.org/2000/svg"><g><path d="m169.701 50.082c6.3-5.572 15.999-18.747 15.999-18.747 19.969-10.94 44.45-17.379 70.9-17.379 26.24 0 50.541 6.339 70.422 17.121 0 0 13.431 12.533 19.694 17.979 0 0-5.785 28.852-82.576 28.852s-94.439-27.826-94.439-27.826z" fill="#ffdcd0"/><g><path d="m115.872 196.788h-16.681c-7.112 0-12.877-5.766-12.877-12.877 0-7.112 5.766-12.877 12.877-12.877h16.681c19.409 0 38.031-9.207 49.814-24.628 4.32-5.651 12.402-6.732 18.051-2.413 5.651 4.318 6.731 12.4 2.414 18.05-16.625 21.756-42.898 34.745-70.279 34.745z" fill="#ffc7b6"/></g><g><path d="m396.128 196.788h16.681c7.112 0 12.877-5.766 12.877-12.877 0-7.112-5.766-12.877-12.877-12.877h-16.681c-19.409 0-38.031-9.207-49.814-24.628-4.32-5.651-12.402-6.732-18.051-2.413-5.651 4.318-6.731 12.4-2.414 18.05 16.625 21.756 42.898 34.745 70.279 34.745z" fill="#ffc7b6"/></g><g fill="#ffb5a5"><path d="m370.228 165.374c-.546 8.86-1.957 17.585-4.203 26.074-15.752-5.728-29.834-15.865-40.177-29.402-4.317-5.656-3.235-13.733 2.411-18.059 5.656-4.316 13.732-3.235 18.059 2.421 6.314 8.262 14.597 14.742 23.91 18.966z"/><path d="m186.153 162.046c-10.343 13.537-24.426 23.674-40.177 29.402-2.246-8.489-3.657-17.215-4.203-26.074 9.313-4.224 17.596-10.704 23.911-18.966 4.327-5.656 12.403-6.737 18.059-2.421 5.645 4.327 6.727 12.403 2.41 18.059z"/></g><path d="m329.075 221.048c12.89-18.927 19.783-41.296 19.783-64.196v-83.015h-185.716v83.016c0 22.899 6.893 45.269 19.783 64.196 8.869 13.023 13.612 28.415 13.612 44.171 0 10.36-1.903 20.631-5.614 30.304-6.62 17.252-8.025 36.07-4.039 54.113l8.802 8.581h120.617l8.814-8.581c3.986-18.044 2.581-36.861-4.039-54.113-3.711-9.672-5.615-19.944-5.615-30.304 0-15.757 4.743-31.149 13.612-44.172z" fill="#ffdcd0"/><path d="m348.12 45.614s-7.191 32.296-83.981 32.296-99.733-31.709-99.733-31.709c6.294-5.573 13.444-10.57 21.294-14.866 6.428 4.039 12.877 7.397 19.594 9.468l.649.206.639.237c15.834 6.006 32.461 9.055 49.418 9.055h.659c24.107 0 48.687-6.83 70.362-19.224 7.758 4.204 14.835 9.087 21.099 14.537z" fill="#ffc7b6"/><path d="m492.542 154.567-33.1 41.599-34.058-60.513h11.59c30.35 0 51.716-30.669 40.291-58.772-.258-.639-.536-1.267-.814-1.896-10.559-23.612-34.913-37.437-60.606-34.408-11.981 1.411-23.179 6.294-32.368 14.103-9.02 8.84-32.365 26.398-47.451 32.492-2.191 1.155-4.201 2.557-6.002 4.162-6.328 5.638-14.303 11.907-14.303 20.608l-.194 37.426c0 18.78-5.555 35.342-17.505 49.837l-4.893 5.934c-13.64 16.545-22.59 38.744-22.59 60.192l1.939 56.818c0 2.885 1.164 5.481 3.049 7.376.927 1.017 5.25 2.479 6.771 2.949 4.565 1.41 10.867.097 13.293-5.505.62-1.016 1.346-1.928 2.153-2.73 2.746-2.729 5.611-1.737 9.369-1.737 2.833 0 5.687.824 8.221 2.555 6.882 4.543 5.971 11.957 5.25 20.167-.145 1.802-.209 2.35-1.051 6.336l-29.618 134.963c-.319 1.432-1.226 2.658-2.504 3.379l-3.07 1.731c-10.281 5.8-16.946 8.532-28.34 8.532-3.439 0-7.073 1.786-10.478 1.261-8.977-1.386-17.725-4.597-25.672-9.616-1.164-.731-1.988-1.896-2.277-3.245l-7.025-31.792 1.813-9.935-8.164-18.806-4.086-18.493 1.294-12.538-8.022-17.943-6.5-29.424c-.222-1.828-.912-2.302-1.133-8.303 0-7.49 3.75-14.546 10.085-18.729 6.892-4.718 16.256-2.699 20.573 4.368.972.851 1.832 5.542 9.694 6.294 5.759 0 10.426-4.667 10.426-10.426v-54.569c0-21.448-7.459-42.217-21.098-58.762l-4.893-5.934c-11.95-14.495-18.482-32.698-18.482-51.479v-38.282c0-11.178-6.191-21.428-16.081-26.641-14.196-5.61-38.226-23.395-47.451-32.492-9.189-7.809-20.388-12.692-32.369-14.103-25.693-3.029-50.047 10.796-60.606 34.408-.278.628-.556 1.257-.814 1.896-11.425 28.104 9.941 58.772 40.291 58.772h11.59l-34.058 60.513-33.1-41.599c-20.841-26.187-25.302-61.44-11.631-91.985 16.009-35.799 52.952-56.774 91.893-52.169 38.717 2.969 62.396 39.704 99.187 51.067 18.389 6.974 37.746 10.457 57.093 10.457 38.224.171 77.682-14.603 107.799-40.394 13.774-11.703 30.535-19.017 48.481-21.129 38.941-4.605 75.884 16.37 91.893 52.169 13.671 30.544 9.21 65.797-11.631 91.985z" fill="#ff7e7b"/><g fill="#ff6464"><path d="m331.389 90.19c-7.149 5.645-11.445 14.309-11.445 23.622v38.282c0 18.78-6.531 36.984-18.482 51.479l-4.893 5.934c-13.64 16.545-21.098 37.314-21.098 58.762v54.569c0 2.885 1.164 5.481 3.049 7.376 1.484 1.628 3.997 2.627 6.676 2.761l-12.239-.299c-10.062-.246-18.09-8.473-18.09-18.538v-45.869c0-21.448 7.459-42.217 21.098-58.762l4.893-5.934c11.95-14.495 18.482-32.698 18.482-51.479v-25.023c0-8.849 3.884-17.122 10.405-22.767 2.236-1.937 18.945-12.919 21.644-14.114z"/><path d="m326.166 343.298c-.144 1.803-.206 2.349-1.051 6.336l-18.215 82.488-8.05 13.552 2.606 11.1-6.988 31.647c-.319 1.432-1.226 2.658-2.504 3.379l-3.07 1.731c-10.281 5.8-21.696 8.684-33.09 8.684-3.441 0-6.871-.258-10.281-.793 3.733-.581 8.587-2.003 13.424-3.769 8.845-3.23 15.436-10.747 17.455-19.944l28.11-128.075c.845-3.987.906-4.533 1.051-6.336.639-7.294-2.318-14.371-7.809-19.048 2.73-2.74 6.428-4.203 10.188-4.203 2.833 0 5.687.824 8.221 2.555 6.882 4.542 10.725 12.485 10.003 20.696z"/><path d="m319.532 374.925c0 .01-.01.031-.01.041"/><path d="m192.489 375.017c-.01-.031-.01-.062-.021-.093"/><g><path d="m256 398.228c-18.162 0-36.325-3.667-53.354-11.002-5.151-2.215-8.921-6.748-10.158-12.208l7.623 34.522c17.925 6.851 36.912 10.271 55.888 10.271 15.151 0 30.307-2.187 44.926-6.553l5.247-24.71c-16.1 6.453-33.136 9.68-50.172 9.68z"/><path d="m256 443.082c-15.144 0-30.288-3.06-44.494-9.179-4.121-1.772-7.15-5.398-8.159-9.756l7.201 32.626c14.639 5.264 30.051 7.891 45.452 7.891 11.775 0 23.554-1.541 34.991-4.617l5.18-24.398c-12.936 4.95-26.552 7.433-40.171 7.433z"/></g></g><path d="m319.521 374.966-7.634 34.573c-7.18 2.74-14.526 4.935-21.974 6.573l5.203-23.684c4.811-1.463 9.57-3.194 14.237-5.202 2.586-1.113 4.832-2.812 6.572-4.924 1.742-2.092 2.989-4.606 3.596-7.336z" fill="#f25555"/><path d="m308.694 423.993-7.242 32.781c-7.088 2.545-14.361 4.481-21.727 5.79l5.099-23.241c5.316-1.411 10.559-3.214 15.669-5.419 2.091-.896 3.894-2.266 5.295-3.966 1.412-1.701 2.422-3.73 2.906-5.945z" fill="#f25555"/><path d="m203.347 424.147c-.021-.052-.031-.103-.041-.155" fill="#ff6464"/><ellipse cx="76.812" cy="174.006" fill="#f5f8f9" rx="52.905" ry="44.623" transform="matrix(.908 -.419 .419 .908 -65.782 48.129)"/><ellipse cx="436.36" cy="174.006" fill="#f5f8f9" rx="44.623" ry="52.905" transform="matrix(.419 -.908 .908 .419 95.68 497.465)"/><g><path d="m300.809 405.207c0 10.797 1.76 21.183 5.015 30.883 16.64 33.981 48.646 60.934 91.427 60.934 53.578 0 92.568-38.24 92.568-91.817 0-42.781-27.082-72.1-61.113-91.998-9.701-3.255-20.088-5.013-30.885-5.013-53.578-.001-97.012 43.433-97.012 97.011z" fill="#8db9ff"/><path d="m494.833 405.205c0 53.58-43.433 97.013-97.013 97.013-42.784 0-79.098-27.692-91.996-66.128 9.704 3.266 20.099 5.027 30.895 5.027 53.58 0 97.013-43.433 97.013-97.013 0-10.796-1.762-21.191-5.027-30.895 38.437 12.897 66.128 49.212 66.128 91.996z" fill="#70abf2"/><path d="m347.66 387.467h30.36c1.138 0 2.06-.922 2.06-2.06v-30.36c0-1.138.922-2.06 2.06-2.06h31.358c1.138 0 2.06.922 2.06 2.06v30.36c0 1.138.922 2.06 2.06 2.06h5.903l22.664 1.545c1.138 0 2.06.922 2.06 2.06l.654 28.385c0 1.138-.922 2.06-2.06 2.06l-30.751-.102c-1.138 0-2.06.922-2.06 2.06l1.03 29.124c0 1.138-.922 2.06-2.06 2.06l-29.06 1.254c-1.138 0-2.06-.922-2.06-2.06l-1.798-22.945v-5.901c0-1.138-.922-2.06-2.06-2.06h-30.36c-1.138 0-2.06-.922-2.06-2.06v-31.358c0-1.14.922-2.062 2.06-2.062z" fill="#f5f8f9"/><path d="m450.041 389.525v31.359c0 1.143-.927 2.06-2.06 2.06h-30.36c-1.133 0-2.06.927-2.06 2.06v30.36c0 1.143-.927 2.06-2.06 2.06h-31.359c-1.133 0-2.06-.917-2.06-2.06v-24.457c18.76-9.385 34.058-24.683 43.443-43.443h24.457c1.131.001 2.059.928 2.059 2.061z" fill="#e8edf2"/></g></g></svg>