<svg width="106" height="94" viewBox="0 0 106 94" fill="none" xmlns="http://www.w3.org/2000/svg">
<path d="M60.3309 26.3904L60.5047 26.4282C60.9881 26.5458 62.3364 26.9616 62.6247 27.9738C62.9703 29.2149 61.4587 30.2397 61.287 30.4539C61.1153 30.6681 59.0356 27.3333 58.8193 27.2031C58.6031 27.0729 59.078 25.7499 60.3309 26.3904Z" fill="#C7C7C7" stroke="#8A8A8A" stroke-linecap="round" stroke-linejoin="round"/>
<path d="M61.9696 93.2733L62.3936 94.359C62.3936 94.359 61.5096 94.7097 61.7576 94.9197C61.9607 95.0828 62.173 95.2343 62.3936 95.3733C62.3936 95.3733 62.7116 97.824 62.7116 97.9647C62.7156 98.059 62.7398 98.1514 62.7825 98.2358C62.8253 98.3201 62.8857 98.3945 62.9597 98.454C63.0996 98.5233 64.7956 98.3847 65.7856 98.1033C66.7757 97.8219 70.2737 96.2847 70.7676 95.934C71.2616 95.5833 72.4636 94.5333 72.4997 94.2183C72.5357 93.9033 72.6057 93.5883 72.2877 93.5547C71.9697 93.5211 69.3536 93.9747 68.2936 93.9747C67.6057 93.9879 66.9217 93.8688 66.2796 93.624C66.1736 93.5547 65.9616 92.574 65.7496 92.5047C65.5376 92.4354 64.9376 92.6097 64.9376 92.6097L64.7617 91.9797L61.7216 92.784L61.9696 93.2733Z" fill="white" stroke="#263238" stroke-linecap="round" stroke-linejoin="round"/>
<path d="M65.0436 94.1133C64.8316 94.4283 63.4176 94.779 63.0657 94.569C62.8627 94.4449 62.6318 94.3728 62.3936 94.359C62.3936 94.359 61.5096 94.7097 61.7576 94.9197C61.9607 95.0828 62.173 95.2343 62.3936 95.3733C62.3936 95.3733 62.7116 97.824 62.7116 97.9647C62.7156 98.059 62.7398 98.1514 62.7825 98.2358C62.8253 98.3201 62.8857 98.3945 62.9597 98.454C63.0996 98.5233 64.7956 98.3847 65.7856 98.1033C66.7757 97.8219 70.2737 96.2847 70.7676 95.934C71.2616 95.5833 72.4636 94.5333 72.4997 94.2183C72.5357 93.9033 72.6057 93.5883 72.2877 93.5547C71.9697 93.5211 69.3536 93.9747 68.2936 93.9747C67.6057 93.9879 66.9217 93.8688 66.2796 93.624C66.1736 93.5547 65.9616 92.574 65.7496 92.5047C65.5376 92.4354 64.9376 92.6097 64.9376 92.6097C64.7956 92.742 65.2556 93.792 65.0436 94.1133Z" fill="white" stroke="#263238" stroke-linecap="round" stroke-linejoin="round"/>
<path d="M70.2377 95.3334C69.2138 96.0327 67.8358 96.3834 65.7857 96.837C64.2063 97.1877 63.0933 97.4145 62.663 97.4985C62.6926 97.7463 62.7117 97.9185 62.7117 97.9584C62.7157 98.0527 62.7399 98.1451 62.7826 98.2295C62.8254 98.3138 62.8858 98.3882 62.9598 98.4477C63.0997 98.517 64.7957 98.3784 65.7857 98.097C66.7758 97.8156 70.2738 96.2784 70.7677 95.9277C71.2617 95.577 72.4637 94.527 72.4998 94.212C72.5358 93.897 72.6058 93.582 72.2878 93.5484C71.6936 94.2369 71.0033 94.838 70.2377 95.3334Z" fill="white" stroke="#263238" stroke-linecap="round" stroke-linejoin="round"/>
<path d="M61.4397 92.3577C61.4397 92.3577 61.4397 93.3027 61.9697 93.4077C62.4997 93.5127 64.5497 92.952 64.9377 92.6034C65.3257 92.2548 64.6897 91.3077 64.6897 91.3077L61.3698 92.112L61.4397 92.3577Z" fill="#263238" stroke="#263238" stroke-linecap="round" stroke-linejoin="round"/>
<path d="M39.6227 89.9133L38.8786 90.915C38.8786 90.915 38.8786 90.495 38.5606 90.6504C38.2426 90.8058 38.0285 91.0704 37.7889 91.5996C37.5494 92.1288 36.3813 93.6513 36.4873 94.0461C36.5933 94.4409 38.9846 95.6526 39.6503 96.3372C40.316 97.0218 41.164 97.5741 41.9081 97.6266C42.6522 97.6791 45.2556 97.7043 45.6011 97.5468C45.9467 97.3893 45.8683 96.942 45.7071 96.5997C45.546 96.2574 43.8479 95.5203 43.6613 95.3628C43.4748 95.2053 42.3342 93.2628 42.2791 92.994C42.224 92.7252 42.7031 91.8348 42.4402 91.5996C42.3824 91.5317 42.3006 91.4883 42.2116 91.4782C42.1225 91.468 42.033 91.4919 41.9611 91.545L42.3851 90.8352L39.6227 89.9133Z" fill="white" stroke="#263238" stroke-linecap="round" stroke-linejoin="round"/>
<path d="M38.5606 90.6588C38.2405 90.8184 38.0285 91.0788 37.7889 91.608C37.5494 92.1372 36.3813 93.6597 36.4873 94.0545C36.5933 94.4493 38.9846 95.661 39.6503 96.3456C40.316 97.0302 41.164 97.5825 41.9081 97.635C42.6522 97.6875 45.2556 97.7127 45.6011 97.5552C45.9467 97.3977 45.8683 96.9504 45.7071 96.6081C45.546 96.2658 43.8479 95.5287 43.6613 95.3712C43.4748 95.2137 42.3342 93.2712 42.2791 93.0024C42.224 92.7336 42.7031 91.8432 42.4402 91.608C42.3824 91.5402 42.3006 91.4968 42.2116 91.4866C42.1225 91.4765 42.033 91.5004 41.9611 91.5534C41.9611 91.5534 41.9611 92.133 41.7491 92.1603C41.5371 92.1876 40.6319 92.3976 39.9153 92.1855C39.1987 91.9734 38.8786 90.9255 38.8786 90.9255L38.8638 90.8037C38.8362 90.6924 38.762 90.5601 38.5606 90.6588Z" fill="white" stroke="#263238" stroke-linecap="round" stroke-linejoin="round"/>
<path d="M42.2007 96.9756C41.323 96.7131 39.7033 95.3964 39.0652 94.6341C38.4271 93.8718 37.0194 93.0549 37.0194 93.0549L36.9049 93.0549C36.6442 93.4896 36.4407 93.8949 36.4809 94.0608C36.5869 94.4556 38.9783 95.6673 39.644 96.3519C40.3097 97.0365 41.1577 97.5888 41.9018 97.6413C42.6459 97.6938 45.2493 97.719 45.5948 97.5615C45.6895 97.5118 45.7643 97.4318 45.8071 97.3345C45.8498 97.2372 45.858 97.1284 45.8301 97.026L45.7814 97.0365C45.3362 97.1079 43.0763 97.2402 42.2007 96.9756Z" fill="white" stroke="#263238" stroke-linecap="round" stroke-linejoin="round"/>
<path d="M40.0977 88.5084L39.4914 89.6004C39.4307 89.7099 39.4162 89.8387 39.4512 89.9588C39.4862 90.0788 39.5677 90.1802 39.6779 90.2409L41.7068 91.3476C41.7636 91.3784 41.8262 91.3975 41.8907 91.4036C41.9552 91.4097 42.0203 91.4027 42.082 91.383C42.1437 91.3634 42.2007 91.3315 42.2496 91.2893C42.2984 91.2471 42.3381 91.1954 42.3661 91.1376L42.9258 89.9784L40.0977 88.5084Z" fill="#263238" stroke="#263238" stroke-linecap="round" stroke-linejoin="round"/>
<path d="M45.1157 62.3277C45.1157 62.3277 43.9857 66.2484 44.2677 68.067C44.5496 69.8856 44.8337 71.5677 44.8337 72.267C44.8337 72.9663 43.8437 80.247 43.2077 81.507C42.5717 82.767 39.3217 87.807 39.5337 88.5777C39.7457 89.3484 43.0656 90.4677 43.7016 90.6084C44.3376 90.7491 45.1157 90.2577 45.6817 89.5584C46.2478 88.8591 49.5677 83.187 50.6976 80.9484C51.8276 78.7098 52.4657 77.2377 52.6777 76.7484C52.842 76.3363 52.9836 75.9157 53.1017 75.4884C53.1017 75.4884 56.5637 80.3877 57.3417 82.767C58.1198 85.1463 59.5317 89.9784 59.6737 90.8877C59.8158 91.797 60.3797 92.3577 61.4397 92.3577C62.4997 92.3577 64.9737 91.9377 65.1136 91.0284C65.2536 90.1191 64.2656 81.8577 64.1257 79.9677C63.9858 78.0777 62.7816 74.5077 61.7216 71.7777C60.6616 69.0477 59.5317 66.6684 59.5317 66.6684L59.2497 63.5877L46.2456 62.3277L45.1157 62.3277Z" fill="#92E3A9" stroke="#263238" stroke-linecap="round" stroke-linejoin="round"/>
<path d="M53.1017 75.4884L53.9497 71.9184L57.0576 69.2577" stroke="#263238" stroke-linecap="round" stroke-linejoin="round"/>
<path d="M57.9545 70.3245C58.1156 70.2321 58.2449 70.1544 58.3297 70.0977" stroke="#263238" stroke-linecap="round" stroke-linejoin="round"/>
<path d="M54.5857 72.1284C54.5857 72.1284 56.0909 71.3472 57.2209 70.7319" stroke="#263238" stroke-linecap="round" stroke-linejoin="round"/>
<path d="M48.2957 64.0077C48.2957 64.0077 48.8618 66.3177 47.1658 67.7184" stroke="#263238" stroke-linecap="round" stroke-linejoin="round"/>
<path d="M45.3277 60.7884C45.3277 60.7884 44.7616 62.3277 45.0457 62.6784C45.3298 63.0291 50.6976 64.1484 54.3016 64.077C57.9056 64.0056 59.1077 63.867 59.2497 63.5877C59.3917 63.3084 59.4617 61.9077 59.4617 61.9077C59.4617 61.9077 56.7757 62.5377 52.8897 62.0484C49.0037 61.5591 46.6696 60.9984 46.6696 60.9984C46.6696 60.9984 45.4697 60.5784 45.3277 60.7884Z" fill="#263238" stroke="#263238" stroke-linecap="round" stroke-linejoin="round"/>
<path d="M47.1042 47.3001C47.1042 47.3001 43.7546 52.4472 43.7546 53.3271C43.7546 54.207 47.1042 57.3906 47.3099 57.5943C47.5155 57.798 48.6094 54.48 48.6094 51.8382C48.5723 50.0884 48.2729 48.3538 47.7212 46.6911L47.1042 47.3001Z" fill="#92E3A9" stroke="#263238" stroke-linecap="round" stroke-linejoin="round"/>
<path d="M48.8257 42.3945C48.8257 42.3945 46.9177 45.3345 46.8117 46.4895C46.7057 47.6445 46.8117 52.5795 46.7587 54.0495C46.7057 55.5195 44.9037 60.3495 44.9037 61.0845C44.9037 61.8195 48.8257 62.922 53.5427 63.027C58.2597 63.132 60.0087 62.3445 60.3797 61.662C60.7507 60.9795 60.3267 58.092 60.2737 56.622C60.2207 55.152 60.3797 51.687 60.4327 50.217C60.4857 48.747 59.8497 46.542 58.9487 45.282C58.3232 44.3557 57.7906 43.371 57.3587 42.342C55.6263 41.9553 53.875 41.6574 52.1117 41.4495C49.6207 41.1933 48.8257 42.3945 48.8257 42.3945Z" fill="#92E3A9" stroke="#263238" stroke-linecap="round" stroke-linejoin="round"/>
<path d="M56.1927 57.4053C55.776 58.2542 55.2746 59.0597 54.696 59.8098C54.2223 60.3708 53.6472 60.8395 53 61.1916L53.619 61.6515C53.619 61.6515 55.4783 60.5259 56.9241 57.4053L56.1927 57.4053Z" fill="#263238" stroke="#263238" stroke-linecap="round" stroke-linejoin="round"/>
<path d="M60.1571 27.5895C60.1571 27.5895 61.41 29.0007 61.6263 29.8995C61.8425 30.7983 61.5817 31.737 61.7111 32.1234C61.8404 32.5098 62.7477 33.3624 62.6184 33.7908C62.4891 34.2192 61.9273 34.4754 61.9273 34.4754C61.9273 34.4754 61.8849 36.8274 61.5393 37.554C61.1938 38.2806 60.1571 38.5809 59.6313 38.5809C59.1056 38.5809 58.5523 38.5389 58.5523 38.5389C58.5523 38.5389 57.9035 39.7359 57.558 40.5906C57.2124 41.4453 57.6873 42.8166 57.8166 43.1568C57.9459 43.497 58.2067 43.7994 57.9036 43.8855C57.6004 43.9716 57.1255 43.4655 55.7836 42.6444C54.4416 41.8233 51.8107 40.0782 51.8107 40.0782C51.8107 40.0782 52.9343 38.7531 53.0636 37.5981C53.1929 36.4431 52.8049 34.1751 53.7971 31.4388C54.7893 28.7025 57.0492 27.4614 57.876 27.3333C58.7028 27.2052 59.996 27.3333 60.1571 27.5895Z" fill="white" stroke="#263238" stroke-linecap="round" stroke-linejoin="round"/>
<path d="M58.5607 38.5389L57.1784 37.8543C57.1784 37.8543 56.358 39.822 56.3135 40.1202" stroke="#263238" stroke-linecap="round" stroke-linejoin="round"/>
<path d="M54.5879 39.6498L55.1497 38.7951" stroke="#263238" stroke-linecap="round" stroke-linejoin="round"/>
<path d="M61.1938 33.0642C61.1938 33.0642 60.9352 33.6627 60.0278 33.8769" stroke="#263238" stroke-linecap="round" stroke-linejoin="round"/>
<path d="M59.9408 30.9684C59.9408 30.9684 60.4602 30.2397 61.1068 30.6681" stroke="#263238" stroke-linecap="round" stroke-linejoin="round"/>
<path d="M61.6686 35.8446C61.3042 35.8627 60.9393 35.8194 60.5895 35.7165C60.1962 35.5688 59.8417 35.3348 59.5529 35.0319C59.5529 35.0319 59.7649 36.315 60.1889 36.4431C60.6129 36.5712 61.6686 35.8446 61.6686 35.8446Z" fill="#263238" stroke="#263238" stroke-linecap="round" stroke-linejoin="round"/>
<path d="M59.8561 34.7736C59.5195 34.9361 59.2353 35.1885 59.0356 35.5023" stroke="#263238" stroke-linecap="round" stroke-linejoin="round"/>
<path d="M61.0199 32.1864C61.0199 32.4342 60.9245 32.6358 60.8079 32.6358C60.6913 32.6358 60.5959 32.4258 60.5959 32.1864C60.5959 31.947 60.6913 31.737 60.8079 31.737C60.9245 31.737 61.0199 31.9386 61.0199 32.1864Z" fill="#263238"/>
<path d="M59.996 27.6315C59.996 27.6315 59.8666 29.1708 59.2179 30.1116C58.5692 31.0524 57.2315 31.8231 56.8859 34.005C56.676 35.5638 56.6051 37.1379 56.6739 38.709C56.6739 38.709 55.5524 39.0513 53.0911 38.5809C50.6298 38.1105 48.9465 37.6821 48.6391 36.2709C48.3317 34.8597 48.9847 32.9361 49.892 31.3107C50.7994 29.6853 51.0135 27.5454 52.3088 26.4345C53.6042 25.3236 57.577 25.6218 58.6561 25.7919C59.7352 25.962 60.6426 26.3064 60.6871 26.7768C60.7316 27.2472 59.996 27.6315 59.996 27.6315Z" fill="#C7C7C7" stroke="#8A8A8A" stroke-linecap="round" stroke-linejoin="round"/>
<path d="M53.9307 37.659C53.9773 38.0286 54.0239 38.2617 54.0239 38.2617" stroke="#8A8A8A" stroke-linecap="round" stroke-linejoin="round"/>
<path d="M57.8909 26.5983C57.8909 26.5983 57.0831 27.6273 57.1976 28.7697C57.3121 29.9121 56.3327 31.8021 55.4083 32.7723C54.484 33.7425 53.848 35.3469 53.848 36.3759C53.848 36.4536 53.848 36.5292 53.848 36.6048" stroke="#8A8A8A" stroke-linecap="round" stroke-linejoin="round"/>
<path d="M55.2981 27.0561C55.3466 26.8632 55.4445 26.6861 55.5822 26.5416" stroke="#8A8A8A" stroke-linecap="round" stroke-linejoin="round"/>
<path d="M51.7725 37.9194C51.7725 37.9194 50.5005 36.7182 51.8297 34.7169C53.159 32.7156 54.4267 31.9722 54.8889 30.3069C55.0695 29.5568 55.1641 28.789 55.1709 28.0179" stroke="#8A8A8A" stroke-linecap="round" stroke-linejoin="round"/>
<path d="M52.3766 28.2363C52.1592 28.5466 52.0303 28.9094 52.0035 29.2863C52.0035 30.3741 51.1364 32.3754 50.7909 32.7744C50.4453 33.1734 48.5967 35.0046 49.1754 36.8358" stroke="#8A8A8A" stroke-linecap="round" stroke-linejoin="round"/>
<path d="M53.619 26.8272C53.4247 26.9968 53.2393 27.1763 53.0636 27.3648" stroke="#8A8A8A" stroke-linecap="round" stroke-linejoin="round"/>
<path d="M58.0879 44.0136C58.0879 44.0136 56.7078 43.2009 55.0669 41.3613C53.426 39.5217 51.2615 38.6733 50.5725 38.6733C49.8835 38.6733 49.6206 38.8434 49.2772 39.6141C48.9338 40.3848 48.1536 41.7519 48.196 42.3084C48.2384 42.8649 48.7578 43.035 49.2772 42.951C49.7966 42.867 50.528 42.531 51.9972 42.6507C53.4663 42.7704 55.7962 43.8918 56.5297 44.148C57.2632 44.4042 57.9989 44.7045 58.2575 44.148" fill="#263238"/>
<path d="M58.0879 44.0136C58.0879 44.0136 56.7078 43.2009 55.0669 41.3613C53.426 39.5217 51.2615 38.6733 50.5725 38.6733C49.8835 38.6733 49.6206 38.8434 49.2772 39.6141C48.9338 40.3848 48.1536 41.7519 48.196 42.3084C48.2384 42.8649 48.7578 43.035 49.2772 42.951C49.7966 42.867 50.528 42.531 51.9972 42.6507C53.4663 42.7704 55.7962 43.8918 56.5297 44.148C57.2632 44.4042 57.9989 44.7045 58.2575 44.148" stroke="#263238" stroke-linecap="round" stroke-linejoin="round"/>
<path d="M66.3306 50.0847C66.3306 50.0847 67.1044 48.7995 67.2231 48.2472C67.3418 47.6949 68.0138 47.2602 68.3128 47.2413C68.5484 47.2542 68.7768 47.3265 68.9763 47.4513C69.1481 47.3731 69.3413 47.3539 69.5253 47.3969C69.7092 47.4399 69.8735 47.5426 69.9918 47.6886C70.473 48.2073 70.0978 48.6252 70.0978 48.6252C70.0978 48.6252 70.719 48.9864 70.0448 50.2653C69.3706 51.5442 67.0938 51.9747 66.8415 51.9453C66.5892 51.9159 66.3306 50.0847 66.3306 50.0847Z" fill="white" stroke="#263238" stroke-linecap="round" stroke-linejoin="round"/>
<path d="M64.4883 50.2422L66.2627 49.5387C66.2979 49.5245 66.3357 49.5177 66.3737 49.5189C66.4117 49.52 66.4491 49.5289 66.4834 49.5451C66.5177 49.5613 66.5482 49.5844 66.573 49.613C66.5978 49.6415 66.6163 49.6749 66.6274 49.7109L67.2803 51.8697C67.2995 51.9346 67.2936 52.0043 67.2639 52.0653C67.2341 52.1262 67.1825 52.174 67.1192 52.1994L65.5907 52.8042L64.4883 50.2422Z" fill="#263238" stroke="#263238" stroke-linecap="round" stroke-linejoin="round"/>
<path d="M49.6398 44.6604C49.6398 44.6604 48.919 46.836 49.1352 47.9637C49.3514 49.0914 51.4545 57.4977 51.9993 58.2537C52.5442 59.0097 53.1738 58.6317 53.8776 58.6905C54.5815 58.7493 63.1738 55.9164 64.2826 55.2066C65.3914 54.4968 66.0952 54.5556 66.0358 53.5686C65.9765 52.5816 65.7666 50.7084 64.4882 50.238C63.2099 49.7676 61.658 50.658 60.3797 51.0213C59.1013 51.3846 57.028 51.9159 57.028 51.9159C57.028 51.9159 56.782 46.9221 56.3644 45.807C56.2022 45.3496 55.942 44.9324 55.6017 44.5841C55.2613 44.2357 54.8489 43.9645 54.3928 43.7889" fill="#92E3A9"/>
<path d="M49.6398 44.6604C49.6398 44.6604 48.919 46.836 49.1352 47.9637C49.3514 49.0914 51.4545 57.4977 51.9993 58.2537C52.5442 59.0097 53.1738 58.6317 53.8776 58.6905C54.5815 58.7493 63.1738 55.9164 64.2826 55.2066C65.3914 54.4968 66.0952 54.5556 66.0358 53.5686C65.9765 52.5816 65.7666 50.7084 64.4882 50.238C63.2099 49.7676 61.658 50.658 60.3797 51.0213C59.1013 51.3846 57.028 51.9159 57.028 51.9159C57.028 51.9159 56.782 46.9221 56.3644 45.807C56.2022 45.3496 55.942 44.9324 55.6017 44.5841C55.2613 44.2357 54.8489 43.9645 54.3928 43.7889" stroke="#263238" stroke-linecap="round" stroke-linejoin="round"/>
<path d="M54.9716 54.3414C55.2535 53.7114 55.686 52.9302 56.2605 52.4514" stroke="#263238" stroke-linecap="round" stroke-linejoin="round"/>
<path d="M54.5815 55.3809C54.5815 55.3809 54.6494 55.1415 54.7935 54.7929" stroke="#263238" stroke-linecap="round" stroke-linejoin="round"/>
<path d="M54.908 53.3292C54.908 53.3292 55.8238 51.8865 56.6209 51.8403" stroke="#263238" stroke-linecap="round" stroke-linejoin="round"/>
<path d="M53.265 44.2088L54.1787 41.798C54.1787 41.798 56.4599 40.748 56.6867 40.748C56.9135 40.748 57.9036 43.9862 57.7467 44.213C57.5898 44.4398 56.1482 45.3428 55.6161 45.6431C55.1864 45.848 54.7234 45.976 54.2487 46.0211L53.265 44.2088Z" fill="white" stroke="#263238" stroke-linecap="round" stroke-linejoin="round"/>
<path d="M55.6987 42.7011C55.6987 42.7011 56.5361 44.3601 56.7587 44.3601C56.9813 44.3601 58.1282 43.9065 58.1282 43.6062C58.1282 43.3059 57.5198 41.5713 57.3671 41.1198C57.2145 40.6683 56.1502 41.0442 55.7708 41.1954C55.3913 41.3466 55.2429 41.7981 55.6987 42.7011Z" fill="white" stroke="#263238" stroke-linecap="round" stroke-linejoin="round"/>
<path d="M53.265 44.2088C53.265 44.2088 53.5703 41.9492 53.8735 41.8736C54.1766 41.798 55.1667 40.7438 55.3956 40.7438C55.6246 40.7438 56.5362 41.1953 56.5362 41.1953C56.5362 41.1953 57.2951 42.9278 56.992 43.1546C56.6888 43.3814 56.0783 42.2495 56.0783 42.2495C56.0783 42.2495 55.6225 43.3793 55.0903 43.6817L54.5582 43.982" fill="white"/>
<path d="M53.265 44.2088C53.265 44.2088 53.5703 41.9492 53.8735 41.8736C54.1766 41.798 55.1667 40.7438 55.3956 40.7438C55.6246 40.7438 56.5362 41.1953 56.5362 41.1953C56.5362 41.1953 57.2951 42.9278 56.992 43.1546C56.6888 43.3814 56.0783 42.2495 56.0783 42.2495C56.0783 42.2495 55.6225 43.3793 55.0903 43.6817L54.5582 43.982" stroke="#263238" stroke-linecap="round" stroke-linejoin="round"/>
<path d="M51.5923 44.6603L52.8113 43.9778C52.8816 43.9371 52.9593 43.9104 53.0399 43.8994C53.1206 43.8884 53.2027 43.8933 53.2815 43.9138C53.3603 43.9343 53.4342 43.9699 53.499 44.0188C53.5638 44.0676 53.6183 44.1286 53.6593 44.1983L54.5073 45.6158C54.586 45.7462 54.6131 45.9008 54.5833 46.0498C54.5536 46.1987 54.4691 46.3315 54.3462 46.4222L52.6629 47.6822L51.5923 44.6603Z" fill="white" stroke="#263238" stroke-linecap="round" stroke-linejoin="round"/>
<path d="M39.6439 39.4629C40.5543 40.3847 41.3696 41.3942 42.0777 42.4764C43.0656 44.0577 45.652 47.5983 45.652 47.5983C45.652 47.5983 49.68 45.1875 50.4432 44.736C51.2064 44.2845 51.4311 44.2089 51.9633 44.736C52.4954 45.2631 53.7207 47.3715 53.4239 48.1233C53.1271 48.8751 49.3175 51.9663 47.7953 52.9533C46.2732 53.9403 45.2111 54.8433 43.6147 53.6316C42.0183 52.4199 38.7387 42.3315 38.2151 41.3529C37.6914 40.3743 39.1203 39.0933 39.6439 39.4629Z" fill="#263238" stroke="#263238" stroke-linecap="round" stroke-linejoin="round"/>
<path d="M42.824 90.5579L43.248 92.0972C43.248 92.0972 42.2579 92.6579 42.4699 93.1472C42.6819 93.6365 43.39 93.7079 43.39 93.7079C43.39 93.7079 44.096 97.9772 44.662 98.1872C45.2281 98.3972 49.4659 97.7672 50.386 97.3472C51.3061 96.9272 53.4939 96.0872 53.636 94.8986C53.778 93.71 53.2819 93.7772 52.8579 93.8486C52.4339 93.92 50.668 94.0586 49.82 94.0586C48.972 94.0586 48.054 93.4979 48.054 93.4979C48.054 93.4979 47.9819 91.7486 47.63 91.4672C47.2781 91.1858 46.216 91.5386 46.216 91.5386L45.8619 89.8586L42.824 90.5579Z" fill="white" stroke="#263238" stroke-linecap="round" stroke-linejoin="round"/>
<path d="M44.6387 92.156C44.3504 92.114 43.4939 92.1791 43.2247 92.1119C43.0784 92.198 42.2771 92.702 42.47 93.1472C42.682 93.6386 43.3901 93.7079 43.3901 93.7079C43.3901 93.7079 44.096 97.9772 44.6621 98.1872C45.2281 98.3972 49.466 97.7672 50.3861 97.3472C51.3061 96.9272 53.494 96.0872 53.636 94.8986C53.7781 93.71 53.282 93.7772 52.858 93.8486C52.434 93.92 50.668 94.0586 49.82 94.0586C48.972 94.0586 48.0541 93.4979 48.0541 93.4979C48.0541 93.4979 47.982 91.7486 47.6301 91.4672C47.2781 91.1858 46.216 91.5386 46.216 91.5386L46.498 92.3072C46.498 92.3072 45.1348 92.2232 44.6387 92.156Z" fill="#263238" stroke="#263238" stroke-linecap="round" stroke-linejoin="round"/>
<path d="M53.4876 93.9264C53.2502 94.3065 52.61 94.926 51.3676 95.6064C49.9557 96.3771 47.6937 96.2364 46.1397 96.5871C45.4579 96.7394 44.7687 96.8572 44.0748 96.9399C44.2614 97.6035 44.467 98.1264 44.6557 98.1999C45.2196 98.4099 49.4596 97.7799 50.3797 97.3599C51.2998 96.9399 53.4876 96.0999 53.6297 94.9113C53.7018 94.3401 53.636 94.0608 53.4876 93.9264Z" fill="white" stroke="#263238" stroke-linecap="round" stroke-linejoin="round"/>
<path d="M26.57 87.8279L26.0061 89.5079C26.0061 89.5079 24.38 88.8779 24.3101 89.6486L24.238 90.4172C24.238 90.4172 22.26 92.7986 22.048 93.2879C21.836 93.7772 21.836 94.2686 22.4021 94.7579C22.9681 95.2472 23.956 95.5979 24.662 96.2972C25.3679 96.9965 26.57 97.9079 27.418 98.2586C28.266 98.6093 30.81 98.4686 31.234 98.1872C31.658 97.9058 31.446 97.2779 31.164 97.1372C30.8821 96.9965 29.1861 95.6672 28.9741 95.0372C28.7621 94.4072 28.5501 92.5172 28.5501 92.5172C28.5501 92.5172 29.538 91.6772 29.538 91.3286C29.538 90.98 28.902 90.7679 28.902 90.7679L29.6609 89.2979L26.57 87.8279Z" fill="white" stroke="#263238" stroke-linecap="round" stroke-linejoin="round"/>
<path d="M24.3101 89.6487L24.238 90.4173C24.238 90.4173 22.26 92.7987 22.048 93.288C21.836 93.7773 21.836 94.2687 22.4021 94.758C22.9681 95.2473 23.956 95.598 24.662 96.2973C25.3679 96.9966 26.57 97.908 27.418 98.2587C28.266 98.6094 30.81 98.4687 31.234 98.1873C31.658 97.9059 31.446 97.278 31.164 97.1373C30.8821 96.9966 29.1861 95.6673 28.9741 95.0373C28.7621 94.4073 28.5501 92.5173 28.5501 92.5173C28.5501 92.5173 29.538 91.6773 29.538 91.3287C29.538 90.9801 28.902 90.768 28.902 90.768C28.7303 90.8037 27.418 91.6878 26.5339 91.0347C26.2866 90.875 26.1003 90.638 26.0046 90.3614C25.9089 90.0847 25.9095 89.7843 26.0061 89.508C26.0061 89.508 24.38 88.878 24.3101 89.6487Z" fill="#263238" stroke="#263238" stroke-linecap="round" stroke-linejoin="round"/>
<path d="M31.4523 97.5552L31.3379 97.6077C30.6785 97.9101 28.9232 98.0613 28.0073 97.8597C27.0915 97.6581 24.6768 95.6925 24.0663 94.1826C23.6423 93.1179 22.8706 92.7798 22.4508 92.6706C22.2999 92.8652 22.1652 93.0717 22.048 93.288C21.836 93.7773 21.836 94.2687 22.4021 94.758C22.9681 95.2473 23.956 95.598 24.662 96.2973C25.3679 96.9966 26.57 97.908 27.418 98.2587C28.266 98.6094 30.81 98.4687 31.234 98.1873C31.3335 98.1186 31.4083 98.0203 31.4476 97.9066C31.4869 97.793 31.4885 97.6699 31.4523 97.5552Z" fill="white" stroke="#263238" stroke-linecap="round" stroke-linejoin="round"/>
<path d="M31.094 69.1379L31.518 74.1086C31.518 74.1086 29.044 77.0486 28.338 78.7286C27.6321 80.4086 25.9339 86.8472 25.652 87.2672C25.652 87.2672 27.49 88.9472 28.338 89.2286C29.186 89.51 31.518 89.9279 31.518 89.9279C31.518 89.9279 32.79 86.2172 33.85 83.9786C34.91 81.74 36.818 78.7979 37.524 76.9079C38.2299 75.0179 38.372 73.4072 38.514 72.9179C38.6561 72.4286 39.008 70.6772 39.008 70.6772L31.094 69.1379Z" fill="#92E3A9" stroke="#263238" stroke-linecap="round" stroke-linejoin="round"/>
<path d="M26.642 58.3587C26.642 58.3587 27.206 62.1387 27.63 63.888C28.054 65.6373 30.034 69.0687 31.518 70.818C33.002 72.5673 36.606 75.9987 36.606 75.9987C37.567 77.2744 38.1974 78.7641 38.442 80.3373C38.796 82.8573 39.786 90.2787 40.068 90.9087C40.35 91.5387 41.764 91.6773 43.178 91.398C44.5921 91.1187 46.498 91.1187 46.64 90.348C46.782 89.5773 44.802 79.3587 44.662 77.2587C44.5221 75.1587 43.036 71.9373 42.682 70.9587C42.3279 69.9801 41.198 67.7373 41.198 67.7373C41.198 67.7373 42.046 63.1887 42.542 62.208C43.0381 61.2273 43.53 58.9887 43.53 58.0773C43.53 57.1659 39.856 58.428 35.262 57.6573C30.6679 56.8866 27.49 56.8173 26.994 56.8173C26.4979 56.8173 26.642 58.3587 26.642 58.3587Z" fill="#92E3A9" stroke="#263238" stroke-linecap="round" stroke-linejoin="round"/>
<path d="M32.9299 62.5587C32.9299 62.5587 36.818 62.628 37.8059 64.098" stroke="#263238" stroke-linecap="round" stroke-linejoin="round"/>
<path d="M36.252 62.2079C36.252 62.2079 37.878 62.7686 38.2299 63.6086" stroke="#263238" stroke-linecap="round" stroke-linejoin="round"/>
<path d="M41.198 67.7373L38.866 64.728" stroke="#263238" stroke-linecap="round" stroke-linejoin="round"/>
<path d="M43.142 91.4336C43.0664 91.4348 42.9928 91.4092 42.9345 91.3615C42.8763 91.3137 42.8371 91.247 42.824 91.1732C42.8049 91.0619 40.9478 79.9466 40.6679 77.9432C40.4559 76.3556 39.8348 74.7197 38.8002 72.9494C38.0942 71.7419 33.1207 65.5721 32.4084 64.6922C32.0302 64.6653 31.6573 64.5883 31.2996 64.4633C31.2411 64.4355 31.1899 64.3946 31.1498 64.344C31.1097 64.2934 31.082 64.2344 31.0686 64.1715C31.0092 63.8943 31.2191 63.6255 31.4714 63.3168C31.1222 63.3393 30.7717 63.3074 30.4326 63.2222C30.3303 63.2031 30.2359 63.1551 30.1606 63.0839C30.0854 63.0127 30.0326 62.9214 30.0086 62.8211C29.9407 62.4683 30.2926 62.1911 30.6658 61.895C30.792 61.8009 30.911 61.6977 31.0219 61.5863C31.0389 61.3658 30.7166 60.5363 30.3181 59.7761C30.279 59.7021 30.2712 59.6157 30.2965 59.5359C30.3217 59.4562 30.3779 59.3896 30.4527 59.3509C30.5275 59.3122 30.6147 59.3045 30.6952 59.3295C30.7757 59.3545 30.8429 59.4102 30.882 59.4843C31.5477 60.7443 31.7809 61.5612 31.5795 61.893C31.436 62.0848 31.2612 62.2516 31.0622 62.3865C30.971 62.46 30.8502 62.5629 30.7463 62.649C31.0084 62.6908 31.2744 62.7028 31.5392 62.6846C31.8932 62.6846 32.1498 62.6678 32.2876 62.8799C32.3242 62.9386 32.3445 63.0059 32.3463 63.0749C32.3482 63.1439 32.3316 63.2121 32.2982 63.2727C32.2127 63.4176 32.1133 63.554 32.0014 63.68C31.942 63.7535 31.8487 63.8648 31.7894 63.9572C32.0607 64.0146 32.3354 64.0546 32.6119 64.077C32.6553 64.0801 32.6974 64.0922 32.7358 64.1124C32.7741 64.1327 32.8078 64.1607 32.8345 64.1945C33.0677 64.4822 38.5818 71.2967 39.362 72.6323C40.4411 74.4782 41.0771 76.1855 41.3103 77.8571C41.588 79.8605 43.4451 90.9674 43.4642 91.0871C43.4712 91.128 43.47 91.1697 43.4607 91.2101C43.4513 91.2505 43.4341 91.2886 43.4099 91.3223C43.3856 91.3561 43.3549 91.3848 43.3195 91.4067C43.2841 91.4287 43.2447 91.4436 43.2034 91.4505L43.142 91.4336Z" fill="#263238"/>
<path d="M33.2141 34.7672C33.2141 34.7672 28.196 37.7072 27.348 39.5972C26.5 41.4872 26.712 48.7679 26.2181 50.0279C25.7241 51.2879 24.9461 58.6379 25.7199 59.5493C26.4937 60.4607 29.8178 61.8593 35.6839 61.6493C41.5499 61.4393 43.5978 60.5993 44.1639 59.69C44.7299 58.7807 45.5101 54.2972 44.52 51.4286C43.53 48.56 42.4 45.7586 42.258 44.9879C42.1159 44.2172 41.128 41.8379 40.562 40.2986C39.9959 38.7593 39.008 37.8479 38.796 37.4279C38.584 37.0079 35.05 33.9986 33.2141 34.7672Z" fill="#263238" stroke="#263238" stroke-linecap="round" stroke-linejoin="round"/>
<path d="M44.9928 52.863C45.0195 53.1353 45.0195 53.4096 44.9928 53.682" stroke="white" stroke-linecap="round" stroke-linejoin="round"/>
<path d="M42.0544 44.4966C42.0544 44.4966 43.2438 46.3866 43.3264 46.9305C43.4091 47.4744 43.5639 48.2661 43.5639 48.2661C44.1435 49.4692 44.5851 50.7329 44.8804 52.0335" stroke="white" stroke-linecap="round" stroke-linejoin="round"/>
<path d="M37.6066 42.1299C38.8002 43.4697 39.3556 44.1018 39.8326 42.6045C40.0976 41.775 40.1421 40.4394 40.1294 39.4104C39.6757 38.7531 39.2539 38.3016 39.1182 38.0328C38.8786 37.5603 34.9015 34.1709 32.8324 35.0382C32.8324 35.0382 32.2239 35.3931 31.3781 35.9454C32.8705 37.3902 36.6547 41.0631 37.6066 42.1299Z" fill="white" stroke="#263238" stroke-linecap="round" stroke-linejoin="round"/>
<path d="M41.4799 26.1572C41.4799 26.1572 42.4953 28.6541 42.4593 29.0699C42.4233 29.4857 41.8996 29.7986 41.8996 30.0422C41.8996 30.2858 42.8112 31.256 42.8451 31.7411C42.8698 31.9233 42.8311 32.1084 42.7356 32.266C42.6401 32.4236 42.4933 32.5443 42.3194 32.6084C42.1397 32.673 41.9507 32.7085 41.7597 32.7134C41.7597 32.7134 41.8636 34.3787 41.8297 34.9688C41.7957 35.5589 41.6897 35.939 41.1937 36.1826C40.9199 36.3239 40.6238 36.4177 40.3181 36.4598C40.3181 36.4598 40.1061 38.1251 39.8623 38.8181C39.6185 39.5111 39.5825 39.9983 38.9507 40.5191C38.3189 41.0399 38.1451 40.9391 36.6759 39.6518C35.2068 38.3645 33.8033 36.3548 33.4175 35.9747L32.8599 35.4182C32.8599 35.4182 32.4041 35.4182 32.2239 34.4816C32.172 34.2063 32.1762 33.9234 32.2362 33.6497C32.2963 33.3759 32.4111 33.1169 32.5737 32.8877C32.5737 32.8877 31.6621 31.5332 31.5922 30.4244C31.5222 29.3156 32.9596 27.3017 34.3249 26.3294C35.6901 25.3571 37.5473 25.3235 39.0525 25.4894C39.8944 25.5718 40.7156 25.7978 41.4799 26.1572Z" fill="white" stroke="#263238" stroke-linecap="round" stroke-linejoin="round"/>
<path d="M41.764 32.7135C41.764 32.7135 40.3988 32.5749 39.697 32.9571C38.9953 33.3393 38.6816 34.3095 39.1013 34.4481C39.5211 34.5867 41.728 34.0281 42.2538 34.1709C42.7795 34.3137 42.4255 33.0957 41.764 32.7135Z" fill="#C7C7C7" stroke="#8A8A8A" stroke-linecap="round" stroke-linejoin="round"/>
<path d="M41.2001 28.8621C41.2001 28.8621 40.7761 28.272 40.1401 28.5513C39.5041 28.8306 39.5443 29.1813 39.5443 29.1813" stroke="#263238" stroke-width="2" stroke-linecap="round" stroke-linejoin="round"/>
<path d="M38.8171 29.6601C38.8171 29.6601 38.7133 31.0839 39.097 31.2225C39.4807 31.3611 40.7781 31.3947 41.164 31.1532C41.5498 30.9117 41.5498 29.6601 41.3399 29.5215C41.1301 29.3829 39.097 29.4879 39.097 29.4879C39.097 29.4879 38.8171 29.3829 38.8171 29.6601Z" stroke="#263238" stroke-linecap="round" stroke-linejoin="round"/>
<path d="M38.7832 30.1116L35.351 30.8046" stroke="#263238" stroke-linecap="round" stroke-linejoin="round"/>
<path d="M41.5837 29.973L41.8996 29.973" stroke="#263238" stroke-linecap="round" stroke-linejoin="round"/>
<path d="M42.4254 29.4521L43.4748 29.4521C43.5378 29.6058 43.5618 29.7723 43.5448 29.9372C43.5448 30.3194 43.6508 30.8738 43.4748 30.9872C43.2989 31.1006 42.5993 31.0565 42.5993 31.0565" stroke="#263238" stroke-linecap="round" stroke-linejoin="round"/>
<path d="M40.704 30.1808C40.488 30.1852 40.2737 30.2209 40.068 30.2868" stroke="#263238" stroke-linecap="round" stroke-linejoin="round"/>
<path d="M40.7443 30.3887C40.4918 30.5297 40.2207 30.635 39.9387 30.7016" stroke="#263238" stroke-linecap="round" stroke-linejoin="round"/>
<path d="M41.2594 23.9019C41.2763 23.7292 41.2472 23.5552 41.175 23.3971C41.1028 23.2391 40.9902 23.1025 40.8482 23.001L40.8482 22.9821C40.8493 22.7988 40.7926 22.6197 40.686 22.4698C40.5794 22.32 40.4282 22.2069 40.2535 22.1463C40.0789 22.0857 39.8895 22.0806 39.7118 22.1318C39.5341 22.183 39.377 22.2879 39.2624 22.4319C39.2101 22.2583 39.1068 22.1041 38.9657 21.9889C38.8246 21.8737 38.652 21.8028 38.47 21.7852C38.288 21.7677 38.1048 21.8042 37.9439 21.8902C37.7829 21.9762 37.6515 22.1077 37.5664 22.2681C37.4376 22.1676 37.285 22.1015 37.123 22.0762C36.9611 22.0508 36.7953 22.0671 36.6415 22.1233C36.4878 22.1796 36.3511 22.274 36.2447 22.3975C36.1383 22.521 36.0656 22.6695 36.0336 22.8288C35.9174 22.6412 35.743 22.4959 35.5366 22.4145C35.3301 22.3331 35.1027 22.3201 34.8881 22.3772C34.6735 22.4344 34.4833 22.5587 34.3459 22.7316C34.2085 22.9046 34.1313 23.1169 34.1256 23.337C34.0033 23.184 33.841 23.0671 33.6563 22.9992C33.4716 22.9313 33.2717 22.9148 33.0782 22.9516C32.8847 22.9884 32.7051 23.0771 32.559 23.208C32.4129 23.3389 32.3058 23.507 32.2494 23.694C32.1521 23.6714 32.0526 23.6594 31.9526 23.6583C31.6085 23.6583 31.2785 23.7937 31.0352 24.0347C30.7919 24.2757 30.6552 24.6026 30.6552 24.9435C30.6531 24.9812 30.6531 25.0191 30.6552 25.0569C30.4401 25.0725 30.2335 25.1463 30.0579 25.2703C29.8822 25.3942 29.7443 25.5635 29.659 25.7597C29.5737 25.9559 29.5445 26.1715 29.5743 26.383C29.6042 26.5946 29.6921 26.794 29.8284 26.9595C29.5584 27.0662 29.326 27.2491 29.1601 27.4856C28.9942 27.722 28.902 28.0015 28.895 28.2893C28.888 28.5772 28.9665 28.8607 29.1207 29.1048C29.275 29.3489 29.4982 29.5427 29.7627 29.6622C29.6981 29.8172 29.6663 29.9836 29.6694 30.1513C29.6724 30.3189 29.7102 30.4842 29.7804 30.6368C29.8505 30.7893 29.9516 30.926 30.0773 31.0383C30.203 31.1507 30.3506 31.2362 30.511 31.2897C30.3929 31.5105 30.3466 31.7621 30.3787 32.01C30.4108 32.2579 30.5196 32.4899 30.6901 32.674C30.8607 32.8582 31.0847 32.9855 31.3312 33.0384C31.5778 33.0913 31.8349 33.0673 32.0671 32.9697C32.1676 33.0786 32.2958 33.1588 32.4382 33.202C32.5806 33.2451 32.7322 33.2497 32.877 33.2152C33.0218 33.1807 33.1546 33.1083 33.2616 33.0057C33.3686 32.903 33.4459 32.7738 33.4854 32.6316C33.647 32.521 33.76 32.3535 33.8013 32.1633C33.8712 31.8147 33.8712 31.1133 34.2253 30.9831C34.5793 30.8529 35.2132 31.1238 35.2132 31.1238C35.2132 31.1238 36.6972 30.5505 36.6209 30.057C36.5758 29.7739 36.4917 29.4983 36.3707 29.238C36.3707 29.238 37.4477 28.818 37.613 28.1712C37.7784 27.5244 37.117 26.5311 37.117 26.5311C37.117 26.5311 38.5246 25.9578 39.2688 25.9578C40.0129 25.9578 40.8418 25.9578 41.0898 26.0397C41.3379 26.1216 41.7534 26.2035 42.0014 25.4643C42.2495 24.7251 41.2594 23.9019 41.2594 23.9019Z" fill="#C7C7C7" stroke="#8A8A8A" stroke-linecap="round" stroke-linejoin="round"/>
<path d="M35.7962 31.6929C35.7962 31.6929 34.8867 29.8029 33.8882 30.2229C32.8897 30.6429 32.8112 31.6929 33.3094 32.8479C33.8076 34.0029 35.6308 33.4233 35.6308 33.4233" fill="white"/>
<path d="M35.7962 31.6929C35.7962 31.6929 34.8867 29.8029 33.8882 30.2229C32.8897 30.6429 32.8112 31.6929 33.3094 32.8479C33.8076 34.0029 35.6308 33.4233 35.6308 33.4233" stroke="#263238" stroke-linecap="round" stroke-linejoin="round"/>
<path d="M38.4885 57.1701C38.4885 57.1701 40.2693 56.8341 40.8629 56.4981C41.4565 56.1621 42.3915 56.4141 42.6459 56.6661C42.8219 56.8855 42.9386 57.1456 42.9851 57.4221C43.192 57.5134 43.3626 57.6701 43.47 57.8677C43.5774 58.0653 43.6156 58.2926 43.5787 58.5141C43.4939 59.3541 42.8155 59.3541 42.8155 59.3541C42.8155 59.3541 42.9851 60.1941 41.2891 60.6141C39.5931 61.0341 37.384 59.3541 37.2144 59.1021C37.0448 58.8501 38.4885 57.1701 38.4885 57.1701Z" fill="white" stroke="#263238" stroke-linecap="round" stroke-linejoin="round"/>
<path d="M30.087 38.0055C30.087 38.0055 27.543 39.0975 26.695 40.1916C25.847 41.2857 19.911 49.8516 19.6524 50.9499C19.3937 52.0482 20.246 52.2939 20.7548 52.968C21.2636 53.6421 30.6827 59.0202 32.2028 59.4402C33.7228 59.8602 34.238 60.5322 35.0881 59.6922C35.9382 58.8522 37.4625 57.1722 36.8689 55.656C36.2753 54.1398 34.238 53.472 32.8812 52.632C31.5244 51.792 29.4023 50.3619 29.4023 50.3619C29.4023 50.3619 33.7292 46.1619 34.4076 44.9019C34.6932 44.3935 34.8639 43.8298 34.9078 43.2496C34.9517 42.6694 34.8679 42.0868 34.662 41.5419" fill="#263238"/>
<path d="M30.087 38.0055C30.087 38.0055 27.543 39.0975 26.695 40.1916C25.847 41.2857 19.911 49.8516 19.6524 50.9499C19.3937 52.0482 20.246 52.2939 20.7548 52.968C21.2636 53.6421 30.6827 59.0202 32.2028 59.4402C33.7228 59.8602 34.238 60.5322 35.0881 59.6922C35.9382 58.8522 37.4625 57.1722 36.8689 55.656C36.2753 54.1398 34.238 53.472 32.8812 52.632C31.5244 51.792 29.4023 50.3619 29.4023 50.3619C29.4023 50.3619 33.7292 46.1619 34.4076 44.9019C34.6932 44.3935 34.8639 43.8298 34.9078 43.2496C34.9517 42.6694 34.8679 42.0868 34.662 41.5419" stroke="#263238" stroke-linecap="round" stroke-linejoin="round"/>
<path d="M34.6259 44.3558C34.526 44.6437 34.393 44.9192 34.2294 45.1769C33.7185 45.935 29.8071 50.2232 29.8071 50.2232C29.8071 50.2232 37.0363 54.4358 37.1211 54.7739C37.177 55.0505 37.2054 55.3319 37.2059 55.6139" stroke="white" stroke-linecap="round" stroke-linejoin="round"/>
<path d="M34.9948 42.9866C34.9948 42.9866 34.9566 43.1966 34.8782 43.5158" stroke="white" stroke-linecap="round" stroke-linejoin="round"/>
<path d="M25.6965 50.4333C26.4788 50.1939 27.4646 49.9881 28.3041 50.1141" stroke="white" stroke-linecap="round" stroke-linejoin="round"/>
<path d="M24.3164 50.9499C24.3164 50.9499 24.4966 50.8638 24.7913 50.7399" stroke="white" stroke-linecap="round" stroke-linejoin="round"/>
<path d="M26.4385 49.6058C26.4385 49.6058 28.4758 49.2677 29.1542 49.9418" stroke="white" stroke-linecap="round" stroke-linejoin="round"/>
<path d="M36.8753 55.6559L38.9296 56.6744C38.9704 56.6946 39.0066 56.7229 39.0358 56.7577C39.065 56.7924 39.0866 56.8328 39.0991 56.8763C39.1117 56.9198 39.115 56.9653 39.1088 57.0101C39.1026 57.0549 39.087 57.0979 39.0631 57.1364L37.6279 59.4464C37.5848 59.5149 37.5175 59.5651 37.4391 59.5872C37.3608 59.6093 37.277 59.6018 37.2039 59.5661L35.4358 58.6904L36.8753 55.6559Z" fill="white" stroke="#263238" stroke-linecap="round" stroke-linejoin="round"/>
</svg>
