<svg id="Capa_1" data-name="Capa 1" xmlns="http://www.w3.org/2000/svg" viewBox="0 0 100 100"><defs><style>.cls-1{fill:none;stroke:#74B79D;stroke-linecap:round;stroke-miterlimit:10;stroke-width:7.17px;}.cls-2{fill:#74B79D;}</style></defs><title>logo a</title><path class="cls-1" d="M23.78,51.56S20.56,35.44,36,34.8,49.64,51.56,49.64,51.56"/><path class="cls-1" d="M50.5,51.56S47.27,35.44,62.74,34.8,76.35,51.56,76.35,51.56"/><path class="cls-1" d="M23.5,63s-4.74,27.4,26.72,28.11S76.42,63,76.42,63"/><path class="cls-2" d="M54.16,18.35c.86-3,2.39-5.66,4.87-7.15a13.32,13.32,0,0,1,3.84-1.41,33.24,33.24,0,0,1,8.38-.86c-.62-.28-1.3.27-1.69.82-2.65,3.72-1.47,9.44-4.65,12.71-2.68,2.75-6.93,2.37-9.68,4.7a2.49,2.49,0,0,0-.94,2.36,4.7,4.7,0,0,1-.95-2.91A24.41,24.41,0,0,1,54.16,18.35Z"/></svg>