<svg width="25" height="26" viewBox="0 0 25 26" fill="none" xmlns="http://www.w3.org/2000/svg">
<g clip-path="url(#clip0_96_26)" filter="url(#filter0_d_96_26)">
<path d="M15.5114 1.07251C15.2092 1.43774 14.6249 2.27778 14.6249 3.26392C14.6249 4.59204 15.1329 5.10005 15.953 5.92017C16.7731 6.74028 17.2811 7.24829 18.6092 7.24829C19.5954 7.24829 20.4354 6.66392 20.8007 6.36177C20.9335 6.2522 20.9999 6.0895 20.9999 5.92017C20.9999 5.75083 20.9335 5.58814 20.8007 5.48189C20.4221 5.17974 19.529 4.59204 18.3436 4.59204C17.2811 4.59204 17.0155 4.85767 17.0155 4.85767C17.0155 4.85767 17.2811 4.59204 17.2811 3.52954C17.2811 2.34419 16.6934 1.45103 16.3913 1.07251C16.285 0.939697 16.1223 0.873291 15.953 0.873291C15.7837 0.873291 15.621 0.939697 15.5114 1.07251ZM12.1214 5.38892C10.7932 5.38892 9.56139 5.98989 8.74459 6.98931L10.7534 8.9981C10.9592 9.20396 10.9592 9.54263 10.7534 9.74849C10.5475 9.95435 10.2089 9.95435 10.003 9.74849L8.16686 7.91235V7.91567L4.07291 16.7411C3.93346 17.0432 3.99655 17.4018 4.23229 17.6409C4.46803 17.8799 4.82663 17.9397 5.13209 17.8002L9.60456 15.7284L7.87467 13.9985C7.66881 13.7926 7.66881 13.454 7.87467 13.2481C8.08053 13.0422 8.4192 13.0422 8.62506 13.2481L10.6305 15.2502L13.9575 13.7096C15.4981 12.9958 16.4876 11.4518 16.4876 9.75181C16.4842 7.34126 14.5319 5.38892 12.1214 5.38892Z" fill="#044028"/>
</g>
<defs>
<filter id="filter0_d_96_26" x="0" y="0.873291" width="25" height="25" filterUnits="userSpaceOnUse" color-interpolation-filters="sRGB">
<feFlood flood-opacity="0" result="BackgroundImageFix"/>
<feColorMatrix in="SourceAlpha" type="matrix" values="0 0 0 0 0 0 0 0 0 0 0 0 0 0 0 0 0 0 127 0" result="hardAlpha"/>
<feOffset dy="4"/>
<feGaussianBlur stdDeviation="2"/>
<feComposite in2="hardAlpha" operator="out"/>
<feColorMatrix type="matrix" values="0 0 0 0 0 0 0 0 0 0 0 0 0 0 0 0 0 0 0.25 0"/>
<feBlend mode="normal" in2="BackgroundImageFix" result="effect1_dropShadow_96_26"/>
<feBlend mode="normal" in="SourceGraphic" in2="effect1_dropShadow_96_26" result="shape"/>
</filter>
<clipPath id="clip0_96_26">
<rect width="17" height="17" fill="white" transform="translate(4 0.873291)"/>
</clipPath>
</defs>
</svg>
