<svg width="17" height="18" viewBox="0 0 17 18" fill="none" xmlns="http://www.w3.org/2000/svg">
<g clip-path="url(#clip0_96_35)">
<path d="M11.3334 6.18579C10.811 6.18579 10.3889 5.71099 10.3889 5.12329C10.3889 4.5356 10.811 4.06079 11.3334 4.06079H16.0556C16.578 4.06079 17 4.5356 17 5.12329V10.4358C17 11.0235 16.578 11.4983 16.0556 11.4983C15.5332 11.4983 15.1111 11.0235 15.1111 10.4358V7.68989L10.1115 13.3112C9.74255 13.7262 9.14342 13.7262 8.7745 13.3112L5.66668 9.81489L1.61147 14.3737C1.24255 14.7887 0.643419 14.7887 0.274495 14.3737C-0.0944282 13.9586 -0.0944282 13.2846 0.274495 12.8696L4.99672 7.55708C5.36564 7.14204 5.96477 7.14204 6.3337 7.55708L9.44446 11.0567L13.7741 6.18579H11.3334Z" fill="#044028"/>
</g>
<defs>
<clipPath id="clip0_96_35">
<rect width="17" height="17" fill="white" transform="translate(0 0.873291)"/>
</clipPath>
</defs>
</svg>
