<svg width="79" height="51" viewBox="0 0 79 51" fill="none" xmlns="http://www.w3.org/2000/svg">
<path d="M42.6465 38.2153C42.6465 38.2153 33.7127 40.7522 32.4455 40.9727C31.1783 41.1932 30.6815 40.8612 29.4118 41.358C28.1446 41.8547 25.6076 42.4047 25.6076 42.4047C25.6076 42.4047 19.7633 43.4514 16.7296 43.3424C13.6959 43.2334 12.5934 42.8457 12.5934 42.8457L11.6 42.5694C11.6 42.5694 11.1032 43.5629 11.0474 44.3891C10.9917 45.2153 11.3237 49.3515 11.3237 49.3515C11.3237 49.3515 12.6467 48.9663 15.9008 49.6277C19.155 50.2892 24.1174 51.1712 27.8126 50.5655C31.5078 49.9598 31.784 49.463 33.107 49.2983C34.4299 49.1335 38.9513 50.4565 40.0006 50.4007C41.0473 50.345 65.8085 50.4007 65.8085 50.4007C65.8085 50.4007 68.3454 49.354 70.4971 47.7548C72.6489 46.1556 76.5088 45.1089 77.7202 42.2399C78.9342 39.3735 75.9005 36.3398 74.3013 36.1193C72.7021 35.8988 64.7618 38.7653 64.4298 38.821C64.0978 38.8768 63.0967 37.9466 63.0967 37.9466L42.6465 38.2153Z" fill="#263238" stroke="#263238" stroke-linecap="round" stroke-linejoin="round"/>
<path d="M47.875 40.1642L49.3956 41.918" stroke="#949494" stroke-linecap="round" stroke-linejoin="round"/>
<path d="M46.6483 40.1642C46.6483 40.1642 49.3956 42.7366 49.9811 43.9633" stroke="#949494" stroke-linecap="round" stroke-linejoin="round"/>
<path d="M59.3356 40.2225C59.3356 40.2225 57.4652 41.6849 56.6466 42.9698" stroke="#949494" stroke-linecap="round" stroke-linejoin="round"/>
<path d="M57.6401 40.4557C57.6401 40.4557 56.1778 42.3844 55.7114 43.4362" stroke="#949494" stroke-linecap="round" stroke-linejoin="round"/>
<path d="M40.9484 16.2216C40.9484 16.2216 38.6421 17.9805 36.944 19.3161C35.246 20.6518 33.4237 22.1065 31.4824 22.9581C29.541 23.8071 23.8969 23.8679 19.8925 25.3861C15.8881 26.9042 11.093 27.814 11.093 27.814L11.5796 31.3951C11.5796 31.3951 28.0837 30.6069 31.4824 29.7579C34.881 28.9089 34.9418 28.3006 36.5791 29.0914C38.2163 29.8821 43.498 37.3434 43.498 37.3434L42.0407 37.6475L42.1624 38.5574C42.1624 38.5574 45.0744 39.9539 49.7479 39.6497C54.4213 39.3456 57.9391 39.1048 58.9706 39.044C60.0021 38.9832 63.0966 37.9517 63.0966 37.9517C63.0966 37.9517 62.4301 34.3097 60.9728 28.5465C59.5155 22.7807 59.5763 19.3237 59.5763 19.3237L67.5851 22.4791C67.5851 22.4791 67.8284 25.452 67.2809 29.6996C66.736 33.9473 66.1278 35.7062 66.1278 35.7062L70.2538 37.0418C70.2538 37.0418 72.4385 26.4835 73.1658 23.4498C73.8932 20.4161 72.6792 19.0196 71.8302 18.2922C70.9812 17.5649 60.6053 11.2542 58.1165 10.5243C55.6277 9.79689 52.4724 9.73606 51.0784 10.1593C49.682 10.5851 46.1642 11.979 46.1642 11.979L40.9459 16.2267L40.9484 16.2216Z" fill="#E3CF78" stroke="#263238" stroke-linecap="round" stroke-linejoin="round"/>
<path d="M46.0653 38.1241C46.7623 38.2812 47.6518 38.3953 48.7645 38.3953C52.305 38.3953 52.8195 38.2027 52.8195 38.2027" stroke="#263238" stroke-linecap="round" stroke-linejoin="round"/>
<path d="M43.939 37.237C43.939 37.237 44.2786 37.5437 45.0921 37.8402" stroke="#263238" stroke-linecap="round" stroke-linejoin="round"/>
<path d="M55.4756 38.4561C55.876 38.3445 56.2587 38.2178 56.6161 38.0734" stroke="#263238" stroke-linecap="round" stroke-linejoin="round"/>
<path d="M46.5773 39.1683C46.5773 39.1683 50.8224 39.4242 54.3757 38.7146" stroke="#263238" stroke-linecap="round" stroke-linejoin="round"/>
<path d="M34.4375 27.7532C33.5707 26.9422 32.0425 25.6116 30.8158 25.0819" stroke="#263238" stroke-linecap="round" stroke-linejoin="round"/>
<path d="M35.1218 28.4198C35.1218 28.4198 35.0154 28.3108 34.8329 28.1334" stroke="#263238" stroke-linecap="round" stroke-linejoin="round"/>
<path d="M33.302 25.1428C33.302 25.1428 35.0001 26.3568 35.4258 26.9017" stroke="#263238" stroke-linecap="round" stroke-linejoin="round"/>
<path d="M58.8489 19.0755C58.8489 19.0755 57.1508 18.7713 56.3601 17.4965" stroke="#263238" stroke-linecap="round" stroke-linejoin="round"/>
<path d="M45.4596 22.512C47.5277 23.1558 49.6743 23.7133 51.1417 23.8096" stroke="#263238" stroke-linecap="round" stroke-linejoin="round"/>
<path d="M39.1895 20.2895C39.1895 20.2895 41.625 21.2652 44.4509 22.1903" stroke="#263238" stroke-linecap="round" stroke-linejoin="round"/>
<path d="M51.0734 28.5339C51.7019 28.8 52.2797 29.0103 52.7816 29.1472" stroke="#263238" stroke-linecap="round" stroke-linejoin="round"/>
<path d="M39.7952 22.17C39.7952 22.17 45.784 26.0958 50.1634 28.1309" stroke="#263238" stroke-linecap="round" stroke-linejoin="round"/>
<path d="M39.524 24.6511C39.9828 24.9831 40.33 25.2289 40.401 25.2644" stroke="#263238" stroke-linecap="round" stroke-linejoin="round"/>
<path d="M36.6399 22.5349C36.6399 22.5349 37.7424 23.3535 38.7561 24.0936" stroke="#263238" stroke-linecap="round" stroke-linejoin="round"/>
<path d="M49.7224 15.5399C49.6895 15.7908 49.6388 16.0417 49.5653 16.2825" stroke="#263238" stroke-linecap="round" stroke-linejoin="round"/>
<path d="M49.3829 12.339C49.3829 12.339 49.7758 13.5175 49.7682 14.8405" stroke="#263238" stroke-linecap="round" stroke-linejoin="round"/>
<path d="M33.9132 4.87286C33.9132 4.87286 34.0577 7.81785 34.1565 8.46159C34.2553 9.1028 33.4595 11.3635 34.9016 13.6141C35.7177 14.8914 35.5428 16.8252 36.4831 17.071C37.4208 17.3168 39.7905 16.3309 39.7905 16.3309C39.7905 16.3309 40.4824 17.6159 40.8271 18.4548C41.1718 19.2937 43.1967 21.4682 45.3713 20.0844C47.5433 18.7006 48.334 14.2578 48.0882 13.3682C47.8423 12.4786 47.3963 11.9363 47.1504 11.7386C46.9046 11.5409 46.3115 10.9478 46.162 10.5525C46.015 10.1571 45.8173 9.21938 45.9162 8.38049C46.015 7.5416 46.3597 4.23166 45.6196 3.04809C44.8796 1.86199 43.397 0.876099 40.6319 0.876099C37.8669 0.876099 35.4972 1.91267 35.4972 1.91267C35.4972 1.91267 36.0396 0.974944 35.596 1.17263C35.1525 1.37031 34.7572 1.91267 34.7572 1.91267C34.7572 1.91267 34.6583 0.528884 34.1641 1.31962C33.6699 2.11036 33.7206 3.04809 33.7206 3.04809C33.7206 3.04809 33.3759 2.65272 33.3252 3.24578C33.2771 3.83883 33.9183 4.8754 33.9183 4.8754L33.9132 4.87286Z" fill="white" stroke="#263238" stroke-linecap="round" stroke-linejoin="round"/>
<path d="M45.9134 8.37769C46.0122 7.5388 46.3569 4.22885 45.6168 3.04528C44.8768 1.85918 43.3942 0.873291 40.6291 0.873291C37.8641 0.873291 35.4944 1.90986 35.4944 1.90986C35.4944 1.90986 36.0368 0.972136 35.5932 1.16982C35.1497 1.3675 34.7544 1.90986 34.7544 1.90986C34.7544 1.90986 34.6555 0.526077 34.1613 1.31681C33.6671 2.10755 33.7178 3.04528 33.7178 3.04528C33.7178 3.04528 33.3731 2.64992 33.3224 3.24297C33.2743 3.83602 33.9155 4.87259 33.9155 4.87259C33.9155 4.87259 34.6074 5.26796 35.0027 5.11843C35.3981 4.97144 36.0165 4.57353 36.3865 4.47723C37.6993 4.13508 39.9904 4.0337 39.4988 4.72306C39.0071 5.41242 38.2138 5.75964 38.8069 6.155C39.3999 6.55037 41.1765 6.89505 41.2754 7.43995C41.3742 7.98232 41.3235 9.06958 41.8684 8.77306C42.4108 8.47653 42.6592 7.48811 43.4981 7.73648C44.337 7.98232 45.0289 9.06958 44.7323 9.90847C44.4358 10.7474 44.8312 10.945 45.5712 10.352C45.7258 10.2278 45.8652 10.0732 45.9945 9.9034C45.9108 9.45988 45.8576 8.89978 45.9184 8.37769L45.9134 8.37769Z" fill="#263238" stroke="#263238" stroke-linecap="round" stroke-linejoin="round"/>
<path d="M42.5096 8.57791C42.5096 8.57791 43.3942 7.29297 44.0354 7.29297C44.6766 7.29297 45.4673 8.13186 44.7273 9.91101C43.9872 11.6876 42.9988 11.8853 42.753 10.7017" fill="white"/>
<path d="M42.5096 8.57791C42.5096 8.57791 43.3942 7.29297 44.0354 7.29297C44.6766 7.29297 45.4673 8.13186 44.7273 9.91101C43.9872 11.6876 42.9988 11.8853 42.753 10.7017" stroke="#263238" stroke-linecap="round" stroke-linejoin="round"/>
<path d="M35.0863 8.26624L35.4132 9.08738C35.4132 9.08738 35.0863 11.7105 35.3043 12.149C35.5222 12.5874 36.944 12.3137 36.944 12.3137" stroke="#263238" stroke-linecap="round" stroke-linejoin="round"/>
<path d="M35.7985 13.6239C35.7985 13.6239 37.4382 14.1713 38.86 12.5316" stroke="#263238" stroke-linecap="round" stroke-linejoin="round"/>
<path d="M36.5082 7.61232C36.5082 7.61232 38.0947 6.95591 38.9691 7.50334" stroke="#263238" stroke-width="2" stroke-linecap="round" stroke-linejoin="round"/>
<path d="M34.9241 7.88349L34.3767 7.6123" stroke="#263238" stroke-width="2" stroke-linecap="round" stroke-linejoin="round"/>
<path d="M38.0389 8.89467C38.0389 9.18106 37.8919 9.41423 37.7119 9.41423C37.532 9.41423 37.385 9.18106 37.385 8.89467C37.385 8.60828 37.532 8.37512 37.7119 8.37512C37.8919 8.37512 38.0389 8.60828 38.0389 8.89467Z" fill="#263238"/>
<path d="M35.1827 9.08225C35.1827 9.3509 35.0509 9.56886 34.8887 9.56886C34.7265 9.56886 34.5947 9.3509 34.5947 9.08225C34.5947 8.8136 34.7265 8.59564 34.8887 8.59564C35.0509 8.59564 35.1827 8.8136 35.1827 9.08225Z" fill="#263238"/>
<path d="M39.7903 16.3282C39.7903 16.3282 41.8735 15.8847 42.2208 15.4792C42.568 15.0737 42.3956 16.0013 42.1625 17.3927C41.9293 18.7841 41.4655 19.1921 41.4655 19.1921C41.4655 19.1921 41.06 18.8449 40.7102 17.973C40.363 17.1037 39.7877 16.3282 39.7877 16.3282L39.7903 16.3282Z" fill="#263238" stroke="#263238" stroke-linecap="round" stroke-linejoin="round"/>
<path d="M2.43044 32.447C2.43044 32.447 0.955417 34.7051 1.00104 37.4246C1.04666 40.144 2.38229 47.6534 2.98295 49.1741C3.58107 50.6947 4.68861 52.076 6.34611 51.2016C8.00362 50.3272 9.20239 50.2335 10.0311 50.1879C10.8599 50.1422 11.9193 49.9572 12.0131 48.1147C12.1043 46.2722 11.5518 44.3815 11.5518 44.3815C11.5518 44.3815 12.4262 42.6759 12.1981 41.8471C11.9674 41.0184 9.66366 40.5115 9.24801 40.0046C8.83237 39.4977 7.72737 35.9039 7.35988 34.9358C6.99239 33.9676 6.94423 33.1845 7.03801 32.447C7.12924 31.7095 7.63613 29.9126 6.06986 30.2344C4.50359 30.5563 3.62669 31.5244 2.43044 32.447Z" fill="#C2E3C1" stroke="#263238" stroke-linecap="round" stroke-linejoin="round"/>
<path d="M8.1886 39.7816C8.1886 39.7816 8.6448 39.5788 8.99961 39.5788" stroke="#263238" stroke-width="2" stroke-linecap="round" stroke-linejoin="round"/>
<path d="M7.78308 38.717C7.78308 38.717 8.23928 38.4129 8.49272 38.4129" stroke="#263238" stroke-width="2" stroke-linecap="round" stroke-linejoin="round"/>
<path d="M7.6311 37.4499L8.03661 37.2978" stroke="#263238" stroke-width="2" stroke-linecap="round" stroke-linejoin="round"/>
<path d="M7.45112 46.0392C6.52859 43.6898 5.4692 39.1735 5.4692 35.4403C5.4692 31.7071 6.14082 30.9594 6.48297 30.2017C6.36385 30.1941 6.22953 30.2017 6.06986 30.2321C4.50359 30.5539 3.62669 31.5221 2.43045 32.4446C2.43045 32.4446 0.955417 34.7028 1.00104 37.4222C1.04666 40.1416 2.38229 47.6511 2.98295 49.1717C3.58107 50.6924 4.68861 52.0736 6.34611 51.1993C6.99999 50.8546 7.5829 50.6315 8.09739 50.4846C8.13034 49.4784 8.07965 47.6409 7.45112 46.0392Z" fill="white" stroke="#263238" stroke-linecap="round" stroke-linejoin="round"/>
<path d="M5.83923 46.8221C5.05609 44.3789 4.64045 40.7851 4.50359 36.7301C4.39461 33.5646 5.49455 31.1569 5.98369 30.2546C4.47318 30.5942 3.60641 31.5421 2.43044 32.4444C2.43044 32.4444 0.955417 34.7025 1.00104 37.422C1.04666 40.1414 2.38229 47.6508 2.98295 49.1715C3.58107 50.6921 4.6886 52.0734 6.34611 51.199C6.35371 51.1939 6.36132 51.1914 6.36892 51.1863C6.4703 50.3804 6.43988 48.6975 5.83923 46.8196L5.83923 46.8221Z" fill="white" stroke="#263238" stroke-linecap="round" stroke-linejoin="round"/>
<path d="M66.1303 35.7012C66.1303 35.7012 62.5365 35.8127 62.2983 35.9724C62.0601 36.1321 59.181 37.5716 58.7805 37.8124C58.3801 38.0532 57.6603 39.1708 57.8605 39.4116C58.0608 39.6524 58.4992 39.5713 58.7805 39.4927C59.0593 39.4116 59.7791 39.2925 59.7791 39.2925C59.7791 39.2925 59.219 39.7715 59.4597 39.812C59.7005 39.8526 60.7802 39.5333 61.059 39.3711C61.3377 39.2114 64.1383 38.5322 64.4576 38.5322C64.7769 38.5322 67.0174 38.8515 68.3758 38.3725C69.7343 37.8935 70.2589 37.0369 70.2589 37.0369L66.1329 35.7012L66.1303 35.7012Z" fill="white" stroke="#263238" stroke-linecap="round" stroke-linejoin="round"/>
<path d="M59.7791 39.2899C59.7791 39.2899 62.9825 37.6882 63.236 37.5842C63.492 37.4829 64.1534 37.2776 64.1534 37.2776" stroke="#263238" stroke-linecap="round" stroke-linejoin="round"/>
<path d="M57.8605 39.4116C57.8605 39.4116 60.2276 38.0455 60.4836 37.9442C60.7396 37.8428 63.0332 36.72 63.0332 36.72" stroke="#263238" stroke-linecap="round" stroke-linejoin="round"/>
<path d="M58.238 38.4332C58.238 38.4332 59.4926 37.6932 59.6624 37.6171C59.8322 37.5411 62.3235 36.3448 62.3235 36.3448" stroke="#263238" stroke-linecap="round" stroke-linejoin="round"/>
<path d="M51.5042 45.1674C51.5042 45.1674 49.6642 44.0877 48.4249 43.8089C47.1856 43.5301 45.8652 44.2093 44.9477 44.2093C44.0302 44.2093 41.7898 43.2488 40.0715 43.2108C38.3532 43.1702 36.3535 45.251 36.5943 46.8096C36.835 48.3683 37.4737 49.5671 39.2732 50.0486C41.0726 50.5276 48.5871 50.4085 48.5871 50.4085L52.0263 50.2083C52.0263 50.2083 51.6664 48.049 51.6664 47.1695C51.6664 46.2901 51.5068 45.1699 51.5068 45.1699L51.5042 45.1674Z" fill="#C2E3C1" stroke="#263238" stroke-linecap="round" stroke-linejoin="round"/>
<path d="M45.7232 46.0618C45.7232 46.0618 44.7601 47.0756 45.267 48.8978" stroke="#263238" stroke-width="2" stroke-linecap="round" stroke-linejoin="round"/>
<path d="M46.8891 46.2139C46.8891 46.2139 45.926 47.2277 46.4329 49.0499" stroke="#263238" stroke-width="2" stroke-linecap="round" stroke-linejoin="round"/>
<path d="M48.0523 46.366C48.0523 46.366 47.0892 47.3797 47.5961 49.202" stroke="#263238" stroke-width="2" stroke-linecap="round" stroke-linejoin="round"/>
<path d="M49.2182 46.518C49.2182 46.518 48.2551 47.5318 48.762 49.354" stroke="#263238" stroke-width="2" stroke-linecap="round" stroke-linejoin="round"/>
<path d="M39.2709 50.0459C39.2988 50.0535 39.3317 50.0611 39.3621 50.0662C38.8933 49.7874 38.3002 49.3642 38.0721 48.8852C37.6717 48.0463 37.5526 47.7649 37.7933 47.2859C38.0341 46.8069 38.2343 46.5256 38.2343 45.8058C38.2343 45.0861 38.2749 44.5665 38.2749 44.5665C38.2749 44.5665 39.2734 43.568 40.0337 43.5274C40.6319 43.497 42.814 43.862 44.1268 44.0748C43.0269 43.8113 41.3973 43.2385 40.0743 43.2055C38.356 43.165 36.3563 45.2457 36.5971 46.8044C36.8379 48.3631 37.4765 49.5618 39.276 50.0434L39.2709 50.0459Z" fill="white" stroke="#263238" stroke-linecap="round" stroke-linejoin="round"/>
<path d="M72.7325 37.2523C72.7325 37.2523 67.2962 38.7704 64.298 40.1719C61.2998 41.5709 56.0611 44.6502 56.0611 44.6502L51.5043 45.1698C51.5043 45.1698 51.5043 48.647 51.5448 49.088C51.5854 49.529 52.0238 50.2082 52.0238 50.2082C52.0238 50.2082 60.0985 49.4884 63.5377 48.9283C66.9769 48.3682 73.7336 45.7299 75.3708 44.6502" fill="#263238"/>
<path d="M72.7325 37.2523C72.7325 37.2523 67.2962 38.7704 64.298 40.1719C61.2998 41.5709 56.0611 44.6502 56.0611 44.6502L51.5043 45.1698C51.5043 45.1698 51.5043 48.647 51.5448 49.088C51.5854 49.529 52.0238 50.2082 52.0238 50.2082C52.0238 50.2082 60.0985 49.4884 63.5377 48.9283C66.9769 48.3682 73.7336 45.7299 75.3708 44.6502" stroke="#263238" stroke-linecap="round" stroke-linejoin="round"/>
<path d="M52.2595 45.3776C52.2595 45.3776 56.0307 44.9239 61.571 41.652C64.4602 39.9463 66.4345 39.4825 67.9298 39.1074" stroke="#949494" stroke-linecap="round" stroke-linejoin="round"/>
<path d="M48.425 43.8087C47.1856 43.53 45.8652 44.2092 44.9478 44.2092C45.7866 44.3283 47.1856 44.3689 48.1056 44.0901C48.3185 44.0242 48.5466 43.9633 48.7722 43.9051C48.6531 43.8696 48.5365 43.8366 48.4275 43.8113L48.425 43.8087Z" stroke="#263238" stroke-linecap="round" stroke-linejoin="round"/>
<path d="M11.8305 28.392C11.8305 28.392 11.3236 27.8395 10.5405 27.7001C9.75736 27.5607 6.90108 26.8713 6.34858 27.0082C5.79608 27.1476 3.58354 29.312 3.26167 29.8645C2.9398 30.417 2.20228 32.9058 2.29352 33.2276C2.38476 33.5495 2.15413 33.6889 3.03104 33.1364C3.90541 32.5839 4.32105 31.8464 5.01295 31.1545C5.70484 30.4626 6.07233 30.2319 6.07233 30.2319C6.07233 30.2319 7.08609 30.0013 7.27111 30.0013C7.45612 30.0013 8.24179 29.6237 7.82614 30.5918C7.4105 31.56 6.30296 32.812 6.53359 33.4126C6.76423 34.0108 6.80984 33.6889 7.50174 33.1364C8.19363 32.5839 8.79175 32.3076 8.79175 32.3076C8.79175 32.3076 10.0362 31.9858 10.358 31.8007C10.6799 31.6157 11.7874 31.892 12.0637 30.2345C12.3399 28.5744 11.833 28.392 11.833 28.392L11.8305 28.392Z" fill="white" stroke="#263238" stroke-linecap="round" stroke-linejoin="round"/>
<path d="M3.02851 33.1388C3.02851 33.1388 2.8435 32.6294 3.27182 31.9882C3.70013 31.3444 5.46662 29.2029 5.73527 28.99C6.00391 28.7745 6.48545 28.5616 6.48545 28.5616" stroke="#263238" stroke-linecap="round" stroke-linejoin="round"/>
<path d="M2.29102 33.23C2.29102 33.23 2.84098 31.5573 3.2693 30.8071C3.69761 30.0569 4.76967 28.9874 4.82289 28.772C4.87612 28.5566 5.51986 28.1282 5.51986 28.1282" stroke="#263238" stroke-linecap="round" stroke-linejoin="round"/>
</svg>
