<svg id="Capa_1" enable-background="new 0 0 512 512" height="512" viewBox="0 0 512 512" width="512" xmlns="http://www.w3.org/2000/svg"><g><path d="m224.278 17.29 4.249 12.488c3.585 10.537 5.414 21.591 5.414 32.722v52.262c0 17.348-5.544 34.242-15.822 48.218l-82.548 112.238c-19.068 25.926-29.352 57.267-29.352 89.45 0 16.516 3.614 32.735 10.48 47.558 4.761 10.279 20.177 6.874 20.177-4.455v-24.795c0-34.945 12.122-68.808 34.299-95.814l83.234-101.358c.824-1.004 2.36-1.004 3.185 0l83.234 101.358c22.177 27.006 34.299 60.869 34.299 95.814v24.795c0 11.329 15.415 14.734 20.177 4.455 6.866-14.823 10.48-31.042 10.48-47.558 0-32.183-10.284-63.524-29.352-89.45l-82.548-112.238c-10.278-13.975-15.822-30.869-15.822-48.217v-52.263c0-11.13 1.829-22.185 5.414-32.722l4.249-12.488c.682-2.005-.808-4.086-2.926-4.086h-57.595c-2.118 0-3.608 2.081-2.926 4.086z" fill="#f25555"/><path d="m509.311 451.524c-2.194 3.894-5.635 7.077-9.921 8.921l-42.866 18.481c-32.08 13.835-68.641 12.692-99.793-3.111-15.988-8.118-29.69-19.645-40.29-33.543-10.611-13.897-18.121-30.164-21.716-47.718v-.01c-3.513-17.091-5.779-34.387-6.81-51.746l45.6 25.886c11.363 9.9 24.312 17.585 38.199 22.788 13.887 5.202 28.69 7.932 43.762 7.932 30.318 0 60.1 17.493 82.867 37.509z" fill="#f25555"/><path d="m506.682 428.575v12.754l-8.338-4.415c-3.806-3.346-8.982-1.411-13.126-4.246-20.644-14.124-45.166-21.784-70.416-21.784-15.071 0-29.875-2.73-43.762-7.932s-26.836-12.888-38.199-22.788l-44.926-37.365c-1.319-21.86-.659-43.824 1.978-65.633l1.929-15.998 7.177-6.341-5.193-10.112 4.234-35.119 6.389-7.902-4.526-7.55 13.407-111.218c1.082-8.953 6.884-16.294 14.732-19.666 0 0 6.549.318 9.983.318 19.398 0 34.263 9.713 48.139 23.27 19.543 19.089 30.919 40.137 42.467 64.428 11.548 24.292 18.481 48.27 20.943 75.477.684 7.782 3.459 17.473 8.592 25.981 29.896 54.084 48.516 114.041 48.516 175.841z" fill="#ff7e7b"/><path d="m512 428.52v12.754c0 3.667-.958 7.18-2.689 10.25l-12.156-9.581c-3.801-3.348-7.798-6.439-11.94-9.272v-4.152c0-61.8-15.69-122.581-45.585-176.665-4.163-7.189-7.61-15.562-8.592-25.981-2.462-27.207-9.735-53.528-21.283-77.82s-27.351-46.554-46.894-65.643c-9.725-9.509-21.788-16.081-34.82-19.151 2.988-1.288 6.263-1.999 9.704-1.999 19.398 0 38.024 7.592 51.9 21.15 19.542 19.089 35.345 41.351 46.894 65.643 11.548 24.292 18.821 50.613 21.283 77.82.684 7.782 3.459 17.473 8.592 25.981 29.896 54.085 45.586 114.866 45.586 176.666z" fill="#ff6464"/><g fill="#ff6464"><path d="m376.284 292.98c-6.985 3.966-14.793 6.305-22.777 6.871 8.581 11.466 19.357 21.232 31.678 28.608l8.88 5.316c3.657 2.194 4.852 6.943 2.658 10.6-1.453 2.421-4.007 3.76-6.634 3.76-1.36 0-2.72-.35-3.966-1.102l-8.88-5.316c-18.172-10.889-33.419-26.311-44.081-44.617-8.478-14.556-21.005-26.043-36.231-33.234-.113-.051-.227-.103-.34-.165l-4.77-2.534 1.988-16.452 9.89 5.264c16.277 7.716 29.937 19.604 39.816 34.552h6.274c6.603 0 13.125-1.731 18.852-4.986 8.066-4.584 17.225-7.005 26.496-7.005h1.72c4.265 0 7.726 3.461 7.726 7.726s-3.461 7.726-7.726 7.726h-1.72c-6.604.002-13.114 1.722-18.853 4.988z"/><path d="m309.611 209.597h-11.569l1.865-15.453h9.704c5.007 0 9.993.505 14.886 1.453l.144-.134c10.734-9.478 23.869-15.679 38.014-17.935 4.203-.67 8.169 2.194 8.839 6.418.68 4.213-2.194 8.169-6.408 8.839-8.087 1.288-15.751 4.213-22.592 8.55 5.439 2.472 10.621 5.553 15.391 9.21 3.379 2.596 4.018 7.448 1.422 10.837-1.525 1.978-3.812 3.018-6.13 3.018-1.648 0-3.307-.515-4.708-1.597-11.084-8.508-24.888-13.206-38.858-13.206z"/></g><path d="m2.689 451.524c2.194 3.894 5.635 7.077 9.921 8.921l42.866 18.481c32.08 13.835 68.641 12.692 99.793-3.111 15.988-8.118 29.69-19.645 40.29-33.543 10.611-13.897 18.121-30.164 21.716-47.718v-.01c3.513-17.091 5.779-34.387 6.81-51.746l-50.742 27.51c-11.363 9.9-24.312 17.585-38.199 22.788-13.887 5.202-28.69 7.932-43.762 7.932-30.318 0-55.446 13.929-78.213 33.945z" fill="#f25555"/><path d="m0 428.52v12.754c0 3.667.958 7.18 2.689 10.25l12.156-9.581c22.767-20.016 52.034-31.06 82.352-31.06 15.071 0 29.875-2.73 43.762-7.932s26.836-12.888 38.199-22.788l44.926-37.365c1.319-21.86-3.117-41.924-5.754-63.733l-22.494-192.17c-1.494-12.362-9.845-22.688-22.3-22.688-5.336 0-9.417-.776-15.031-1.257-13.536 2.939-26.091 9.632-36.151 19.46-19.542 19.089-35.345 41.351-46.894 65.643-11.548 24.292-18.821 50.613-21.283 77.82-.684 7.782-3.459 17.473-8.592 25.981-29.895 54.085-45.585 114.866-45.585 176.666z" fill="#ff7e7b"/><path d="m224.086 342.799-23.57 19.604c.659-24.199-.773-65.736-3.132-85.237l-23.416-194.24c-1.113-9.23-7.242-16.751-15.463-19.975 5.141-1.113 10.415-1.689 15.751-1.689 12.455 0 22.942 9.302 24.436 21.665l13.408 111.217-2.059 7.599 3.922 7.854 4.234 35.119-4.237 10.112 6.22 6.341 1.929 15.998c2.636 21.808 3.296 43.772 1.977 65.632z" fill="#ff6464"/><g fill="#ff6464"><path d="m168.485 284.532h-6.274c-6.603 0-13.125-1.731-18.852-4.986-8.066-4.584-17.225-7.005-26.496-7.005h-1.72c-4.265 0-7.726 3.461-7.726 7.726s3.461 7.726 7.726 7.726h1.72c6.603 0 13.114 1.72 18.852 4.986 6.985 3.966 14.793 6.305 22.777 6.871-8.581 11.466-19.357 21.232-31.678 28.608l-8.88 5.316c-3.657 2.194-4.852 6.943-2.658 10.6 1.453 2.421 4.007 3.76 6.634 3.76 1.36 0 2.72-.35 3.966-1.102l8.88-5.316c18.172-10.889 33.419-26.311 44.081-44.617 7.141-12.261 17.163-22.331 29.242-29.503-1.382-4.957-3.355-9.781-5.208-14.826-13.89 7.669-25.626 18.509-34.386 31.762z"/><path d="m187.503 195.597-.144-.134c-10.734-9.478-23.869-15.679-38.014-17.935-4.203-.67-8.169 2.194-8.839 6.418-.68 4.213 2.194 8.169 6.408 8.839 8.087 1.288 15.751 4.213 22.592 8.55-5.439 2.472-10.621 5.553-15.391 9.21-3.379 2.596-4.018 7.448-1.422 10.837 1.525 1.978 3.812 3.018 6.13 3.018 1.648 0 3.307-.515 4.708-1.597 10.462-8.031 23.347-12.662 36.506-13.158-.545-5.138-1.635-10.061-2.421-15.332-3.399.216-6.779.638-10.113 1.284z"/></g><g fill="#f25555"><path d="m202.391 209.597c-4.368 0-8.726.464-12.991 1.35l-1.854-15.36c4.883-.937 9.848-1.442 14.845-1.442h9.704l1.865 15.453h-11.569z"/><path d="m220.182 261.168c-7.299 3.757-15.915 8.073-23.025 14.155l-2.132-17.74c4.193-2.854 8.633-5.398 13.279-7.603l9.89-5.264z"/></g><g><path d="m158.99 401.786c0 10.797 1.76 21.182 5.015 30.883 16.639 33.98 48.645 60.933 91.426 60.933 53.577 0 92.567-38.239 92.567-91.816 0-42.78-27.082-72.099-61.113-91.997-9.701-3.255-20.088-5.013-30.885-5.013-53.577 0-97.01 43.433-97.01 97.01z" fill="#8db9ff"/><path d="m353.012 401.784c0 53.58-43.432 97.012-97.012 97.012-42.783 0-79.097-27.691-91.995-66.127 9.704 3.266 20.099 5.027 30.895 5.027 53.579 0 97.012-43.432 97.012-97.012 0-10.796-1.762-21.191-5.027-30.895 38.436 12.898 66.127 49.212 66.127 91.995z" fill="#70abf2"/><path d="m205.841 384.047h30.36c1.138 0 2.06-.922 2.06-2.06v-30.36c0-1.138.922-2.06 2.06-2.06h31.358c1.138 0 2.06.922 2.06 2.06v30.36c0 1.138.922 2.06 2.06 2.06h5.903l22.664 1.545c1.138 0 2.06.922 2.06 2.06l.654 28.384c0 1.138-.922 2.06-2.06 2.06l-30.751-.102c-1.138 0-2.06.922-2.06 2.06l1.03 29.124c0 1.138-.922 2.06-2.06 2.06l-29.06 1.254c-1.138 0-2.06-.922-2.06-2.06l-1.798-22.945v-5.901c0-1.138-.922-2.06-2.06-2.06h-30.36c-1.138 0-2.06-.922-2.06-2.06v-31.358c-.001-1.139.922-2.061 2.06-2.061z" fill="#f5f8f9"/><path d="m308.22 386.105v31.359c0 1.143-.927 2.06-2.06 2.06h-30.36c-1.133 0-2.06.927-2.06 2.06v30.359c0 1.143-.927 2.06-2.06 2.06h-31.359c-1.133 0-2.06-.917-2.06-2.06v-24.456c18.76-9.385 34.058-24.683 43.443-43.443h24.456c1.132 0 2.06.928 2.06 2.061z" fill="#e8edf2"/></g></g></svg>