<svg id="Capa_1" enable-background="new 0 0 512 512" height="512" viewBox="0 0 512 512" width="512" xmlns="http://www.w3.org/2000/svg"><g><path d="m490.949 271.293c0-23.712-12.611-46.049-30.505-58.9 3.392-7.194 5.296-15.227 5.296-23.708 0-23.431-9.292-40.406-29.787-48.62-.969-.389-1.516-1.421-1.239-2.428 1.09-3.973 2.612-9.261 2.182-13.671-1.55-15.897-13.118-27.277-28.942-29.446-4.041-.554-9.594-2.096-9.594-2.096.003-.227-4.441-1.835-4.441-1.835l2.416-13.798c-5.499-19.766-21.624-35.105-41.836-39.466l-11.023 2.531-5.007-3.623c-6.481-20.986-26.027-36.233-49.139-36.233-10.92 0-21.037 3.413-29.361 9.22-1.308.913-2.575 6.919-3.791 7.946-2.268 1.917-5.611 1.917-7.88 0-1.214-1.026-2.476-7.034-3.782-7.946-8.325-5.809-18.447-9.22-29.369-9.22-23.112 0-42.661 15.248-49.142 36.232l-5.368 3.379-10.658-2.288c-20.215 4.36-36.336 19.7-41.836 39.466l1.954 14.234s-3.982 1.172-3.98 1.399c-3.713-.743-7.636-.904-11.677-.35-15.824 2.169-28.26 15.132-29.811 31.028-.43 4.41-.019 8.664 1.071 12.637.276 1.007-.27 2.039-1.239 2.428-20.496 8.214-34.973 28.26-34.973 51.691 0 2.799.207 5.549.607 8.236 5.756 3.826 7.283 8.335 4.689 15.472-17.895 12.851-29.562 33.825-29.562 57.538 0 25.458 13.442 47.769 33.608 60.247.584 5.68-.434 10.334-6.736 13.994-1.693 5.322-2.607 10.991-2.607 16.874 0 21.893 12.638 40.832 31.017 49.924 0 0 8.288-3.412 16.355 5.128 3.447 15.589 17.34 27.253 33.965 27.253 3.774 0 7.404-.609 10.807-1.72-.066 1.203 2.427 1.648 2.427 2.868 0 36.209 28.365 58.029 64.574 58.029 26.409 0 47.625-15.308 58.008-37.809 2.204-4.777 8.997-4.777 11.201 0 10.384 22.501 33.518 35.482 59.927 35.482 36.209 0 65.179-18.728 65.179-54.937 0-1.22-.039-2.43-.105-3.633 3.403 1.111 7.033 1.72 10.807 1.72 16.625 0 30.519-11.664 33.965-27.253 26.809-4.008 47.372-27.127 47.372-55.053 0-11.42-13.433-18.099-19.332-26.934 20.169-12.475 35.295-38.531 35.295-63.989z" fill="#ffdcd0"/><g fill="#ffc7b6"><path d="m462.348 335.139c5.893 8.839 12.64 15.659 12.64 27.083 0 27.918-20.562 51.045-47.368 55.053-3.451 15.587-17.348 27.248-33.965 27.248-3.781 0-7.407-.608-10.807-1.72.062 1.205.103 2.411.103 3.637 0 36.211-29.36 65.561-65.561 65.561-24.735 0-46.262-13.695-57.426-33.911-.758-1.373-1.468-7.644-2.128-9.074-2.205-4.78-8.993-4.78-11.198 0-.649 1.406-1.346 7.654-2.09 9.004-11.153 20.254-32.701 33.98-57.454 33.98-32.372 0-59.269-23.456-64.608-54.302l1.937-11.154s-2.859-2.537-2.787-3.742c22.159 7.932 45.956 15.082 70.485 15.082 126.486 0 229.03-113.845 229.03-254.29 0-39.034-8.633-78.119-22.788-111.167 3.709-.752 7.634-.907 11.672-.35 15.824 2.163 28.258 15.123 29.813 31.019.433 4.42.021 8.664-1.071 12.64-.278 1.01.268 2.04 1.236 2.431 20.501 8.211 34.975 28.258 34.975 51.694 0 8.478-1.906 16.514-5.295 23.704 17.894 12.846 29.556 33.821 29.556 57.536 0 25.457-16.74 51.562-36.901 64.038z"/><path d="m315.792 248.964c-3.715-2.101-8.429-.793-10.529 2.922-3.587 6.341-9.428 10.906-16.448 12.854-7.021 1.946-14.379 1.045-20.72-2.542-3.191-1.805-5.917-4.165-8.127-7.021v-245.957c-1.308.907-2.575 1.875-3.791 2.905-2.266 1.916-5.615 1.916-7.881 0-1.216-1.03-2.472-1.999-3.781-2.905v245.945c-2.211 2.86-4.94 5.225-8.135 7.033-6.341 3.586-13.699 4.489-20.72 2.542-7.02-1.948-12.861-6.513-16.448-12.854-2.101-3.714-6.814-5.021-10.529-2.922-3.714 2.101-5.022 6.815-2.922 10.529 5.619 9.934 14.77 17.085 25.768 20.136 3.796 1.053 7.654 1.574 11.488 1.574 7.276 0 14.465-1.876 20.969-5.556.18-.102.35-.216.528-.32v185.688h15.453v-185.682c.175.102.342.215.519.315 6.506 3.68 13.694 5.556 20.97 5.556 3.834 0 7.693-.521 11.488-1.574 10.997-3.051 20.148-10.202 25.767-20.136 2.103-3.715.796-8.429-2.919-10.53z"/><g><path d="m30.097 198.094c.814 5.46 2.421 10.652 4.687 15.473 7.685-5.522 16.895-9.467 26.177-11.095 3.276 9.55 10.652 17.596 20.841 21.325.876.319 1.772.474 2.658.474 3.142 0 6.109-1.947 7.252-5.079 1.463-4.007-.597-8.447-4.605-9.91-9.91-3.626-15.02-14.639-11.404-24.549.989-2.699 2.524-5.079 4.553-7.077 3.049-2.988 3.091-7.881.103-10.92-2.988-3.049-7.881-3.091-10.93-.103-3.678 3.616-6.449 7.922-8.231 12.795-.927 2.524-1.525 5.089-1.844 7.644-10.374 1.668-20.357 5.438-29.257 11.022z"/><path d="m106.103 91.748c0 .227.01.443.01.68 7.057 2.575 12.785 7.953 15.71 15.041 1.236 2.977 4.11 4.78 7.149 4.78.979 0 1.978-.185 2.936-.587 3.946-1.617 5.831-6.14 4.203-10.086-5.038-12.228-15.36-21.314-27.969-24.786-1.328 4.759-2.039 9.776-2.039 14.958z"/><path d="m152.07 99.392c.185.01.361.021.536.021 4.028 0 7.428-3.121 7.706-7.201.721-10.528 9.869-18.502 20.398-17.791 2.874.206 5.584 1.01 8.066 2.4 3.719 2.091 8.427.773 10.518-2.946s.773-8.427-2.946-10.518c-4.502-2.534-9.406-3.997-14.587-4.347-4.832-.33-9.581.35-14.021 1.937-3.204-7.067-4.007-15.144-2.153-22.726l.422-1.988c-1.401-.103-2.812-.165-4.234-.165-4.049 0-7.994.433-11.796 1.257-1.999 10.848-.319 22.211 4.677 32.039-5.748 5.872-9.2 13.506-9.766 21.799-.289 4.252 2.925 7.94 7.18 8.229z"/><g><path d="m75.989 280.596c.575-4.228 4.467-7.187 8.697-6.615 23.988 3.269 46.163-13.6 49.426-37.591.889-6.535.332-13.007-1.654-19.233-1.297-4.065.947-8.412 5.012-9.709 4.066-1.298 8.412.948 9.709 5.012 2.69 8.432 3.446 17.184 2.245 26.013-1.214 8.923-4.373 17.108-8.975 24.207l3.113 2.178c11.093 7.763 18.694 19.345 21.402 32.613.853 4.181-1.844 8.262-6.025 9.116-.522.106-1.041.157-1.553.157-3.595 0-6.815-2.523-7.562-6.183-1.913-9.375-7.284-17.558-15.121-23.043l-4.328-3.028c-10.654 9.612-24.7 15.35-39.73 15.349-2.653 0-5.341-.179-8.041-.546-4.229-.575-7.19-4.469-6.615-8.697z"/><path d="m203.514 186.312c2.837 6.797 4.094 13.949 3.737 21.257-.202 4.134-3.617 7.35-7.711 7.35-.127 0-.255-.003-.383-.009-4.262-.208-7.548-3.832-7.341-8.094.244-4.995-.618-9.892-2.563-14.552-3.458-8.286-9.935-14.73-18.239-18.144s-17.44-3.39-25.726.067c-3.938 1.644-8.462-.216-10.106-4.155-1.643-3.938.217-8.463 4.155-10.106 12.095-5.047 25.432-5.081 37.553-.098.905.372 1.79.777 2.665 1.198l1.929-2.289c6.845-8.125 8.556-19.264 4.464-29.069-1.643-3.938.217-8.463 4.155-10.106 3.938-1.642 8.463.218 10.106 4.155 6.329 15.171 3.683 32.404-6.908 44.976l-1 1.187c4.764 4.59 8.589 10.143 11.213 16.432z"/></g><path d="m82.561 393.354c-4.265 4.914-6.614 11.208-6.614 17.719 0 1.844.546 4.409.917 6.202-5.79-.865-11.291-2.627-16.359-5.13-.01-.361-.01-.711-.01-1.071 0-10.23 3.688-20.13 10.394-27.846 2.792-3.224 7.675-3.575 10.899-.773 3.225 2.792 3.565 7.675.773 10.899z"/><path d="m148.555 440.856c-5.285 7.819-13.114 13.732-22.046 16.648-.953.026-1.868-4.341-1.868-4.341s-3.119-2.88-3.119-6.723c0-1.226.041-2.431.113-3.637 5.676-1.854 10.745-5.615 14.114-10.601 2.39-3.534 7.191-4.461 10.724-2.071 3.534 2.391 4.461 7.191 2.082 10.725z"/><path d="m70.889 348.922c-.484 3.915-3.812 6.779-7.654 6.779-.319 0-.639-.01-.958-.052-10.745-1.339-20.882-4.78-30.174-10.302 1.586-5.007 3.873-9.715 6.727-14 7.757 4.801 16.297 7.85 25.342 8.963 4.235.525 7.243 4.378 6.717 8.612z"/><path d="m213.624 334.361c-3.871-1.792-8.465-.106-10.258 3.766-5.184 11.197-14.418 19.705-26.001 23.957-11.584 4.253-24.129 3.738-35.326-1.446-6.296-2.915-11.717-7.075-16.111-12.365-2.726-3.282-7.597-3.732-10.88-1.006-3.282 2.726-3.733 7.598-1.006 10.88 5.873 7.07 13.109 12.626 21.506 16.514 8.246 3.818 17.041 5.737 25.865 5.737.222 0 .444-.012.666-.015l.178 4.255c.86 20.538 12.981 38.662 31.635 47.298 1.051.486 2.154.717 3.241.717 2.917 0 5.71-1.661 7.017-4.482 1.793-3.872.107-8.465-3.766-10.258-13.378-6.194-22.071-19.192-22.688-33.921l-.24-5.737c1.758-.476 3.504-1.031 5.234-1.666 15.458-5.675 27.781-17.029 34.699-31.971 1.793-3.872.107-8.464-3.765-10.257z"/></g><g><path d="m474.38 198.094c-.814 5.46-2.421 10.652-4.687 15.473-7.685-5.522-16.895-9.467-26.177-11.095-3.276 9.55-10.652 17.596-20.841 21.325-.876.319-1.772.474-2.658.474-3.142 0-6.109-1.947-7.252-5.079-1.463-4.007.597-8.447 4.605-9.91 9.91-3.626 15.02-14.639 11.404-24.549-.989-2.699-2.524-5.079-4.553-7.077-3.049-2.988-3.091-7.881-.103-10.92 2.988-3.049 7.881-3.091 10.93-.103 3.678 3.616 6.449 7.922 8.231 12.795.927 2.524 1.525 5.089 1.844 7.644 10.374 1.668 20.357 5.438 29.257 11.022z"/><path d="m398.374 91.748c0 .227-.01.443-.01.68-7.057 2.575-12.785 7.953-15.71 15.041-1.236 2.977-4.11 4.78-7.149 4.78-.979 0-1.978-.185-2.936-.587-3.946-1.617-5.831-6.14-4.203-10.086 5.038-12.228 15.36-21.314 27.969-24.786 1.328 4.759 2.039 9.776 2.039 14.958z"/><path d="m352.407 99.392c-.185.01-.361.021-.536.021-4.028 0-7.428-3.121-7.706-7.201-.721-10.528-9.869-18.502-20.398-17.791-2.874.206-5.584 1.01-8.066 2.4-3.719 2.091-8.427.773-10.518-2.946s-.773-8.427 2.946-10.518c4.502-2.534 9.406-3.997 14.587-4.347 4.832-.33 9.581.35 14.021 1.937 3.204-7.067 4.007-15.144 2.153-22.726l-.422-1.988c1.401-.103 2.812-.165 4.234-.165 4.049 0 7.994.433 11.796 1.257 1.999 10.848.319 22.211-4.677 32.039 5.748 5.872 9.199 13.506 9.766 21.799.289 4.252-2.925 7.94-7.18 8.229z"/><g><path d="m428.489 280.596c-.575-4.228-4.467-7.187-8.697-6.615-23.988 3.269-46.163-13.6-49.426-37.591-.889-6.535-.332-13.007 1.654-19.233 1.297-4.065-.947-8.412-5.012-9.709-4.066-1.298-8.412.948-9.709 5.012-2.69 8.432-3.446 17.184-2.245 26.013 1.214 8.923 4.373 17.108 8.975 24.207l-3.113 2.178c-11.093 7.763-18.694 19.345-21.402 32.613-.853 4.181 1.844 8.262 6.025 9.116.522.106 1.041.157 1.553.157 3.595 0 6.815-2.523 7.562-6.183 1.913-9.375 7.284-17.558 15.121-23.043l4.328-3.028c10.654 9.612 24.7 15.35 39.73 15.349 2.653 0 5.341-.179 8.041-.546 4.228-.575 7.189-4.469 6.615-8.697z"/><path d="m300.963 186.312c-2.837 6.797-4.094 13.949-3.737 21.257.202 4.134 3.617 7.35 7.711 7.35.127 0 .255-.003.383-.009 4.262-.208 7.548-3.832 7.341-8.094-.244-4.995.618-9.892 2.563-14.552 3.458-8.286 9.935-14.73 18.239-18.144s17.44-3.39 25.726.067c3.938 1.644 8.462-.216 10.106-4.155 1.643-3.938-.217-8.463-4.155-10.106-12.095-5.047-25.432-5.081-37.553-.098-.905.372-1.79.777-2.665 1.198l-1.929-2.289c-6.845-8.125-8.556-19.264-4.464-29.069 1.643-3.938-.217-8.463-4.155-10.106-3.938-1.642-8.463.218-10.106 4.155-6.329 15.171-3.683 32.404 6.908 44.976l1 1.187c-4.764 4.59-8.589 10.143-11.213 16.432z"/><path d="m389.429 347.267c-3.281-2.726-8.152-2.277-10.88 1.006-4.395 5.29-9.815 9.45-16.112 12.365-11.197 5.185-23.742 5.698-35.325 1.446-11.583-4.251-20.817-12.76-26.001-23.957-1.792-3.872-6.384-5.558-10.258-3.766-3.872 1.793-5.558 6.385-3.766 10.258 6.918 14.943 19.241 26.297 34.699 31.971 6.928 2.543 14.111 3.808 21.278 3.808 8.823 0 17.619-1.92 25.865-5.737 8.396-3.887 15.632-9.443 21.506-16.514 2.727-3.282 2.276-8.153-1.006-10.88z"/></g></g></g><g><g><path d="m421.872 289.295c-2.699.361-5.388.546-8.035.546-2.05 0-4.09-.103-6.099-.319 1.617-4.986 3.101-10.055 4.43-15.185 2.503.113 5.058-.01 7.623-.361 4.234-.567 8.118 2.39 8.695 6.624.577 4.224-2.38 8.119-6.614 8.695z" fill="#ffb5a5"/></g></g><g><g><path d="m141.045 449.272c-4.246 2.972-11.115 9.075-18.564 8.427-.628-3.657-.958-7.417-.958-11.26 0-1.226.041-2.431.113-3.637 6.336 2.267 12.816 4.472 19.409 6.47z" fill="#ffb5a5"/></g><g><path d="m474.38 198.094-.01.031c-.804 5.45-2.411 10.631-4.677 15.442-7.685-5.522-16.895-9.467-26.177-11.095-3.276 9.55-10.652 17.596-20.841 21.325-.752.278-1.514.422-2.277.453.412-5.563.649-11.177.721-16.833 7.386-4.729 10.776-14.113 7.654-22.685-.989-2.699-2.524-5.079-4.553-7.077-3.049-2.988-3.091-7.881-.103-10.92 2.988-3.049 7.881-3.091 10.93-.103 3.678 3.616 6.449 7.922 8.231 12.795.927 2.524 1.525 5.089 1.844 7.644 10.375 1.669 20.358 5.439 29.258 11.023z" fill="#ffb5a5"/></g><path d="m259.969 446.532v31.554c-.021-.031-.031-.062-.051-.082-.742-1.339-1.432-2.72-2.081-4.121-2.205-4.78-8.993-4.78-11.198 0-.649 1.391-1.339 2.761-2.071 4.1-.021.021-.031.052-.051.082v-26.867c5.222-1.359 10.373-2.915 15.452-4.666z" fill="#ffb5a5"/></g><g><path d="m312.755 414.247c0 10.797 1.76 21.183 5.015 30.883 16.639 33.98 48.645 60.934 91.426 60.934 53.577 0 92.567-38.239 92.567-91.816 0-42.78-27.082-72.099-61.113-91.997-9.701-3.255-20.088-5.013-30.885-5.013-53.577-.002-97.01 43.431-97.01 97.009z" fill="#8db9ff"/><path d="m506.777 414.245c0 53.58-43.432 97.012-97.012 97.012-42.783 0-79.097-27.691-91.995-66.127 9.704 3.266 20.099 5.027 30.895 5.027 53.58 0 97.012-43.432 97.012-97.012 0-10.796-1.762-21.191-5.027-30.895 38.436 12.897 66.127 49.211 66.127 91.995z" fill="#70abf2"/><path d="m359.605 396.507h30.36c1.138 0 2.06-.922 2.06-2.06v-30.36c0-1.138.922-2.06 2.06-2.06h31.358c1.138 0 2.06.922 2.06 2.06v30.36c0 1.138.922 2.06 2.06 2.06h5.903l22.664 1.545c1.138 0 2.06.922 2.06 2.06l.654 28.384c0 1.138-.922 2.06-2.06 2.06l-30.751-.102c-1.138 0-2.06.922-2.06 2.06l1.03 29.124c0 1.138-.922 2.06-2.06 2.06l-29.06 1.254c-1.138 0-2.06-.922-2.06-2.06l-1.798-22.945v-5.901c0-1.138-.922-2.06-2.06-2.06h-30.36c-1.138 0-2.06-.922-2.06-2.06v-31.358c0-1.138.922-2.061 2.06-2.061z" fill="#f5f8f9"/><path d="m461.985 398.565v31.359c0 1.143-.927 2.06-2.06 2.06h-30.359c-1.133 0-2.06.927-2.06 2.06v30.359c0 1.143-.927 2.06-2.06 2.06h-31.359c-1.133 0-2.06-.917-2.06-2.06v-24.456c18.76-9.385 34.058-24.683 43.443-43.443h24.456c1.132.001 2.059.928 2.059 2.061z" fill="#e8edf2"/></g></g></svg>