<svg id="Capa_1" enable-background="new 0 0 512 512" height="512" viewBox="0 0 512 512" width="512" xmlns="http://www.w3.org/2000/svg"><g><path d="m182.592 188.378c1.787.001 3.583-.616 5.042-1.875l35.844-30.91c14.62-12.607 23.005-30.909 23.005-50.214 0-36.562-29.745-66.307-66.306-66.307h-13.391c-4.267 0-7.726 3.459-7.726 7.726s3.459 7.726 7.726 7.726h13.391c28.041 0 50.854 22.813 50.854 50.853 0 14.806-6.431 28.843-17.643 38.512l-35.844 30.91c-3.231 2.787-3.592 7.665-.805 10.897 1.526 1.773 3.684 2.682 5.853 2.682z" fill="#d5dee2"/><g><path d="m176.878 449.055h25.538c24.298 0 44.066-19.768 44.066-44.065s-19.768-44.065-44.066-44.065h-8.188c-4.267 0-7.726 3.459-7.726 7.726s3.459 7.726 7.726 7.726h8.188c15.777 0 28.613 12.835 28.613 28.613 0 15.777-12.836 28.613-28.613 28.613h-25.538c-4.267 0-7.726 3.459-7.726 7.726 0 4.266 3.459 7.726 7.726 7.726z" fill="#d5dee2"/></g><path d="m141.473 299.635h43.221v141.693h-43.221z" fill="#685e68" transform="matrix(-1 0 0 -1 326.167 740.964)"/><path d="m105.894 96.785h72.426l30.263-65.264c3.459-7.579-2.601-16.056-10.892-15.235l-3.801-2.355-17.243 1.711c-16.559 1.639-33.218-1.915-47.666-10.17l-5.46-3.12c-10.327-5.9-23.42-.171-26.094 11.418-5.064 21.949-7.621 44.401-7.621 66.927 0 8.885 7.203 16.088 16.088 16.088z" fill="#7a6d79"/><path d="m130.119 311.023 32.134 2.498h18.406l18.679-2.474c6.885 0 12.837-4.806 14.287-11.536l8.144-42.273c7.016-32.556-3.547-66.826-23.192-93.719l-15.398-21.078c-9.561-13.088-7.855-27.636-5.236-43.631l.375-3.201c-22.621-7.584-47.161-7.169-69.513 1.176v69.107l5.727 4.084.97 126.433c.002 8.071 6.545 14.614 14.617 14.614z" fill="#918291"/><path d="m213.062 28.353-31.235 68.435-10.087 4.348-12.659-10.004c.68-2.112 1.494-4.193 2.421-6.233l32.389-70.969 8.272-.814c8.293-.823 14.35 7.655 10.899 15.237z" fill="#685e68"/><path d="m227.928 256.774-9.735 45.214c-1.453 6.727-7.407 11.538-14.289 11.538h-25.755c6.882 0 12.836-4.811 14.289-11.538l9.735-45.214c7.016-32.554-.206-66.56-19.852-93.447l-15.391-21.077c-.402-.546-.793-1.102-1.174-1.659-8.787-12.918-11.487-28.814-8.221-43.803.422-1.906.938-3.791 1.545-5.656 6.5.876 12.949 2.369 19.244 4.481l3.503 1.174c-2.617 15.988 1.288 32.368 10.858 45.462l15.391 21.077c19.646 26.888 26.867 60.894 19.852 93.448z" fill="#7a6d79"/><path d="m144.507 389.88h37.153c11.131 0 20.155-9.023 20.155-20.155v-.079c0-11.131-9.023-20.155-20.155-20.155h-37.153c-11.131 0-20.155 9.023-20.155 20.155v.079c0 11.131 9.024 20.155 20.155 20.155z" fill="#918291"/><path d="m0 480.848c0 2.864.845 5.79 2.668 8.406 9.931 14.247 26.218 22.746 43.587 22.746h55.516c3.843 0 7.654-.402 11.384-1.195l5.839-11.755c0-22.901-10.187-43.825-36.436-48.943l-71.082 16.308c-7.087 1.627-11.476 7.881-11.476 14.433z" fill="#7a6d79"/><path d="m82.559 450.107c19.1 12.63 30.596 34.006 30.596 56.907v3.791c.659-.134 1.319-.288 1.968-.453 4.347-1.092 8.561-2.709 12.548-4.842 5.12-2.74 10.765-4.11 16.4-4.11 5.326 0 10.652 1.216 15.545 3.667 3.946 1.975 8.068 3.539 12.3 4.678 5.546 1.492 11.637-.03 17.416-.03h4.852c12.496 0 19.248-7.09 19.248-19.585l-.194-51.387c0-8.839-5.332-13.38-13.48-13.38-1.834 0-3.719.33-5.573 1.051-3.537 1.373-9.493.072-9.493.072-6.565 1.586-13.268 2.39-19.975 2.39-11.445 0-22.891-2.308-33.605-6.913-9.725-4.172-21.026-1.762-28.186 6.026z" fill="#918291"/><path d="m216.451 437.477v51.9c0 12.496-10.127 22.623-22.623 22.623h-4.852c-5.779 0-11.517-.762-17.06-2.256 7.561-3.657 12.774-11.404 12.774-20.367v-62.892c3.647-.876 7.263-1.998 10.796-3.369 1.854-.721 3.74-1.051 5.573-1.051 8.15.001 15.392 6.573 15.392 15.412z" fill="#7a6d79"/><path d="m108.808 165.892v133.016c0 8.066 6.542 14.618 14.618 14.618h38.828v-133.016c0-8.077-6.542-14.618-14.618-14.618z" fill="#7a6d79"/><g><path d="m329.408 188.378c-1.787.001-3.582-.616-5.042-1.875l-35.844-30.91c-14.62-12.607-23.005-30.909-23.005-50.214 0-36.562 29.745-66.307 66.306-66.307h13.391c4.267 0 7.726 3.459 7.726 7.726s-3.459 7.726-7.726 7.726h-13.391c-28.041 0-50.854 22.813-50.854 50.853 0 14.806 6.431 28.843 17.643 38.512l35.844 30.91c3.231 2.787 3.592 7.665.805 10.897-1.526 1.773-3.684 2.682-5.853 2.682z" fill="#d5dee2"/><path d="m335.122 449.055h-25.538c-24.298 0-44.066-19.768-44.066-44.065s19.768-44.065 44.066-44.065h8.188c4.267 0 7.726 3.459 7.726 7.726s-3.459 7.726-7.726 7.726h-8.188c-15.777 0-28.613 12.835-28.613 28.613 0 15.777 12.836 28.613 28.613 28.613h25.538c4.267 0 7.726 3.459 7.726 7.726 0 4.266-3.459 7.726-7.726 7.726z" fill="#d5dee2"/><path d="m327.306 299.635h43.221v141.693h-43.221z" fill="#685e68"/><path d="m398.331 96.785h-68.16l-31.23-68.435c-3.459-7.579 2.601-16.056 10.892-15.235l25.52 2.527c12.375 1.225 24.805-.452 36.327-4.822 0 0 8.814.504 12.465-1.582l5.46-3.12c10.327-5.9 21.178.046 23.852 11.635 5.064 21.949 3.2 40.419 3.2 62.944-.001 8.885-9.441 16.088-18.326 16.088z" fill="#7a6d79"/><path d="m422.189 80.696c0 4.44-1.803 8.468-4.708 11.383-2.915 2.905-6.933 4.708-11.373 4.708h-41.949c4.44 0 9.333-3.224 12.249-6.129 2.905-2.915 3.832-5.522 3.832-9.962 0-11.26-.639-22.509-1.906-33.677-1.277-11.177-3.183-22.272-5.707-33.254-.237-1.03-.556-2.009-.948-2.946 3.894-1.473 7.685-3.255 11.342-5.347l5.46-3.121c10.322-5.903 23.416-.175 26.095 11.414 2.524 10.982 4.43 22.077 5.707 33.254 1.267 11.168 1.906 22.417 1.906 33.677z" fill="#685e68"/><path d="m380.34 306.943-30.594 6.579h-41.647c-6.885 0-12.837-4.806-14.287-11.536l-9.743-45.209c-7.016-32.556.207-66.559 19.852-93.452l15.398-21.078c9.561-13.088 13.47-29.466 10.851-45.461l3.509-1.176c22.621-7.584 42.299-7.169 64.651 1.176l-3.375 195.543c0 8.071-6.543 14.614-14.615 14.614z" fill="#918291"/><path d="m403.192 165.892v-69.104c-8.674-3.235-17.688-5.285-26.785-6.129v87.365h23.602z" fill="#7a6d79"/><path d="m367.493 389.88h-37.153c-11.131 0-20.155-9.023-20.155-20.155v-.079c0-11.131 9.023-20.155 20.155-20.155h37.153c11.131 0 20.155 9.023 20.155 20.155v.079c0 11.131-9.024 20.155-20.155 20.155z" fill="#918291"/><path d="m507.602 481.597c0 2.864-.31 4.849-2.133 7.466-9.931 14.247-23.926 20.846-41.295 20.846l-41.798 2.091h-12.148c-3.843 0-7.654-.402-11.384-1.195l-5.75-10.204c0-22.901 5.75-45.085 36.346-50.494l36.427 8.355 30.258 8.703c7.089 1.627 11.477 7.88 11.477 14.432z" fill="#7a6d79"/><path d="m512 480.848c0 2.864-.845 5.79-2.668 8.406-9.931 14.247-26.218 22.746-43.587 22.746h-49.397c21.49 0 41.65-10.518 53.94-28.155 2.266-3.235 3.307-6.861 3.307-10.405 0-5.862-2.833-11.528-7.726-14.979l34.655 7.953c7.087 1.628 11.476 7.882 11.476 14.434z" fill="#685e68"/><path d="m429.441 450.107c-19.1 12.63-30.596 34.006-30.596 56.907v3.791c-.659-.134-1.319-.288-1.968-.453-4.347-1.092-8.561-2.709-12.548-4.842-5.12-2.74-10.765-4.11-16.4-4.11-5.326 0-10.652 1.216-15.545 3.667-9.117 4.564-19.172 6.933-29.36 6.933h-4.852c-12.496 0-22.623-10.127-22.623-22.623v-51.9c0-8.839 7.242-15.411 15.391-15.411 1.834 0 3.719.33 5.573 1.051 9.9 3.843 20.336 5.759 30.772 5.759 11.445 0 22.891-2.308 33.604-6.913 9.725-4.172 21.026-1.762 28.186 6.026z" fill="#918291"/><path d="m395.713 165.892 1.396 130.226c0 8.066-6.542 14.618-14.618 14.618l-15.865 2.791h-16.879v-133.017c0-8.077 6.542-14.618 14.618-14.618z" fill="#7a6d79"/><path d="m403.192 165.892v133.016c0 8.066-6.542 14.618-14.618 14.618h-26.785c8.077 0 14.618-6.552 14.618-14.618v-133.016z" fill="#685e68"/></g></g></svg>