<svg id="Capa_1" enable-background="new 0 0 512 512" height="512" viewBox="0 0 512 512" width="512" xmlns="http://www.w3.org/2000/svg"><g><path d="m504.114 187.006c-1.086-59.523-32.052-101.466-77.893-136.616-21.63-10.959-46.103-17.017-71.908-16.711-85.184 1.008-153.927 70.375-153.927 155.798 0 86.051 71.366 150.821 157.417 150.821 5.472 0 10.876-.292 16.202-.844.929-.096 1.84.236 2.503.893 11.707 11.608 17.701 19.626 34.228 19.626h16.986c7.179 0 11.016-8.454 6.291-13.858-5.496-6.285-5.516-11.525-6.108-19.803-.085-1.194.505-2.328 1.539-2.93 47.165-27.441 75.741-77.632 74.67-136.376z" fill="#ffde80"/><path d="m432.896 327.172c.587 8.272 3.853 16.164 9.354 22.448 4.718 5.409.886 13.856-6.295 13.856h-16.988c-16.524 0-32.358-6.531-44.072-18.142-.659-.659-1.566-.989-2.503-.896-5.326.556-10.724.845-16.195.845-54.765 0-102.937-28.258-130.721-70.99 26.363 22.788 60.719 36.572 98.29 36.572 83.054 0 150.387-67.333 150.387-150.387 0-43.464-18.44-82.632-47.935-110.086 49.892 25.281 84.671 76.656 85.753 136.181 1.071 58.741-30.38 110.22-77.542 137.664-1.028.607-1.626 1.741-1.533 2.935z" fill="#ffce61"/><path d="m157.692 148.528c-85.334-1.01-156.109 67.563-157.665 152.889-.797 43.706 16.409 83.394 44.695 112.151 9.429 9.586 24.6 16.743 36.234 23.644 1.715 1.017 2.76 2.91 2.55 4.893-.826 7.801-2.072 12.184-7.279 18.139-4.725 5.404-.888 13.858 6.291 13.858h16.986c16.254 0 24.448-8.819 36.095-20.07 1.075-1.039 2.567-1.512 4.055-1.367 5.013.489 10.093.747 15.234.747 86.051 0 150.267-63.917 150.267-149.968 0-53.249-25.888-91.421-61.003-127.478-24.626-16.981-54.377-27.058-86.46-27.438z" fill="#f5f8f9"/><path d="m311.622 304.323c0 86.052-69.764 155.816-155.816 155.816-5.141 0-10.219-.258-15.226-.752-1.494-.144-2.987.33-4.059 1.37-11.652 11.25-27.228 17.575-43.484 17.575h-16.988c-4.997 0-8.376-4.1-8.376-8.406 0-1.885.649-3.812 2.081-5.46 5.213-5.955 8.417-13.351 9.241-21.15.206-1.978-.834-3.873-2.545-4.893-11.621-6.892-22.273-15.257-31.689-24.828 21.912 11.456 46.832 17.936 73.267 17.936 87.442 0 158.33-70.887 158.33-158.33 0-37.417-12.98-71.804-34.686-98.909 42.156 27.877 69.95 75.709 69.95 130.031z" fill="#e8edf2"/><g><path d="m45.298 304.305c0 12.299 2.005 24.13 5.713 35.181 18.955 38.709 55.415 69.413 104.149 69.413 61.033 0 105.449-43.561 105.449-104.594 0-48.734-30.851-82.132-69.617-104.8-11.051-3.708-22.883-5.711-35.183-5.711-61.034.001-110.511 49.478-110.511 110.511z" fill="#8db9ff"/><path d="m266.32 304.303c0 61.036-49.477 110.512-110.512 110.512-48.737 0-90.105-31.545-104.797-75.33 11.055 3.72 22.896 5.727 35.195 5.727 61.036 0 110.512-49.476 110.512-110.512 0-12.299-2.007-24.14-5.727-35.195 43.785 14.693 75.329 56.061 75.329 104.798z" fill="#70abf2"/><path d="m98.668 284.097h34.585c1.296 0 2.347-1.051 2.347-2.347v-34.585c0-1.296 1.051-2.347 2.347-2.347h35.722c1.296 0 2.347 1.051 2.347 2.347v34.585c0 1.296 1.051 2.347 2.347 2.347h6.725l25.817 1.759c1.296 0 2.347 1.051 2.347 2.347l.746 32.334c0 1.296-1.051 2.347-2.347 2.347l-35.03-.117c-1.296 0-2.347 1.051-2.347 2.347l1.174 33.177c0 1.296-1.051 2.347-2.347 2.347l-33.104 1.428c-1.296 0-2.347-1.051-2.347-2.347l-2.049-26.138v-6.722c0-1.296-1.051-2.347-2.347-2.347h-34.586c-1.296 0-2.347-1.051-2.347-2.347v-35.722c0-1.295 1.051-2.346 2.347-2.346z" fill="#f5f8f9"/><path d="m215.295 286.441v35.723c0 1.302-1.056 2.347-2.347 2.347h-34.584c-1.291 0-2.347 1.056-2.347 2.347v34.584c0 1.303-1.056 2.347-2.347 2.347h-35.723c-1.291 0-2.347-1.044-2.347-2.347v-27.86c21.37-10.691 38.797-28.118 49.488-49.488h27.86c1.291 0 2.347 1.057 2.347 2.347z" fill="#e8edf2"/></g><g><g><path d="m355.457 240.663c-8.213-.387-14.531-7.462-14.531-15.684v-44.037c0-8.392 6.721-15.436 15.113-15.39 7.633.042 14.744-2.992 20.004-8.534 5.221-5.499 7.879-12.713 7.485-20.313-.739-14.229-12.492-25.6-26.759-25.888-13.9-.287-25.766 9.835-27.678 23.528-.17 1.214-.259 2.456-.265 3.696-.042 8.3-6.749 15.291-15.048 15.409-8.535.121-15.492-6.761-15.492-15.268 0-2.695.188-5.406.559-8.059 4.047-29.002 29.187-50.419 58.539-49.839 30.198.608 55.079 24.697 56.642 54.838.833 16.047-4.791 31.291-15.835 42.924-6.625 6.977-14.883 12.144-23.894 15.12-1.688.558-2.832 2.127-2.832 3.905v28.338c0 8.68-7.239 15.667-16.008 15.254z" fill="#ffbf61"/></g></g><circle cx="356.195" cy="284.619" fill="#ffbf61" r="15.27"/></g></svg>