<svg id="Capa_1" enable-background="new 0 0 512 512" height="512" viewBox="0 0 512 512" width="512" xmlns="http://www.w3.org/2000/svg"><g><path d="m296.68 400.961c-58.899-1.782-116.212-19.925-165.476-52.488-29.735-19.654-62.524-43.995-72.44-78.231-3.769-13.013-5.242-31.046-5.104-44.593l.341-33.543 2.017-34.313c-6.799-14.099-17.416-41.723-17.416-41.723-2.083-44.103 22.033-86.46 64.484-106.538l1.06-.502c30.424-14.39 66.217-11.427 93.861 7.77 34.356 23.858 48.116 68.005 33.398 107.158l-2.556 6.799c-2.805 7.461-3.191 15.615-1.105 23.308l1.94 6.508c8.276-3.221 17.725-2.25 25.2 2.731l-.001.002c16.59-10.488 34.901-19.861 54.729-22.747 24.913-3.626 50.33.925 72.437 12.97l.441.24c5.862 3.194 13.047-.837 13.376-7.505.597-12.08 9.353-22.197 21.223-24.519 13.486-2.639 26.73 5.547 30.401 18.789 9.434 33.169-11.075 67.419-44.768 74.764 0 0-3.138.654-7.286 1.514l-13.057-.302s-6.958 4.448-6.958 4.448c8.595 7.511 15.987 16.275 21.942 25.977 0 0 7.774 27.215 7.898 27.556z" fill="#e59683"/><g fill="#d8816c"><path d="m408.848 270.661-111.269 129.214-.896 1.082c-6.954-.216-13.897-.649-20.799-1.319 1.885-22.571 11.857-44.154 28.021-60.183l91.14-90.368c.752-.742 1.525-1.463 2.318-2.153 3.709 6.037 6.861 12.434 9.385 19.13.133.341 1.977 4.257 2.1 4.597z"/><path d="m235.346 393.076c-7.912-1.813-15.752-3.925-23.498-6.346-28.402-8.839-55.558-21.685-80.643-38.261-14.866-9.828-33.146-16.358-46.302-29.184-13.155-12.815-26.247-28.653-31.212-45.764-3.606-12.445-9.928-127.245-11.762-134.498-1.926-7.603-3.018-15.298-3.327-22.952 11.487 1.545 22.077 6.768 30.411 15.092 10.086 10.096 15.618 23.467 15.618 37.684v56.811c0 5.533 3.902 10.293 9.328 11.378 8.397 1.68 16.901 5.864 23 12.062l91.13 90.357c14.586 14.464 24.135 33.46 27.257 53.621z"/></g><g><path d="m395.436 216.812-20.017 4.141c-3.039-2.648-6.263-5.172-9.581-7.458l-27.753-19.1c-3.513-2.421-4.399-7.232-1.978-10.745 2.421-3.523 7.232-4.409 10.745-1.988l27.743 19.1c2.967 2.05 14.33 10.837 20.841 16.05z" fill="#d8816c"/></g><path d="m271.301 168.466-5.948-6.349c-12.826-13.689-34.095-14.93-48.424-2.82-9.787 8.271-14.31 21.214-11.8 33.8l.284 1.403c-21.638-5.937-44.315-7.622-66.729-4.824l-24.66 3.079c-4.233.529-7.237 4.39-6.709 8.624.528 4.235 4.396 7.23 8.625 6.71l24.659-3.079c27.874-3.481 56.207.626 81.944 11.874l7.115 3.11c1.008.441 2.057.649 3.091.649 2.978 0 5.815-1.731 7.083-4.634 1.709-3.91-.075-8.465-3.985-10.174l-7.115-3.11c-2.123-.928-4.268-1.797-6.422-2.636l-2.029-10.034c-1.406-7.051 1.132-14.314 6.623-18.955 8.041-6.794 19.976-6.101 27.173 1.582l5.949 6.349c17.471 18.648 22.737 46.071 13.418 69.865-8.643 22.065-26.567 38.776-49.177 45.847-4.072 1.274-6.341 5.608-5.067 9.681 1.034 3.305 4.083 5.422 7.372 5.422.764 0 1.541-.114 2.309-.354 27.104-8.477 48.592-28.51 58.952-54.96 11.48-29.311 4.991-63.093-16.532-86.066z" fill="#d8816c"/><g><g><path d="m119.897 157.794c-1.117 0-2.251-.243-3.325-.757-15.423-7.367-23.668-24.179-20.051-40.883l.371-1.71c1.682-7.77 6.742-14.236 13.883-17.738 7.139-3.502 15.351-3.545 22.526-.117 3.85 1.839 5.481 6.452 3.642 10.302-1.839 3.851-6.455 5.481-10.302 3.642-2.886-1.379-6.19-1.362-9.062.047-2.872 1.408-4.908 4.01-5.586 7.137l-.371 1.709c-2.093 9.667 2.681 19.401 11.61 23.666 3.851 1.839 5.481 6.452 3.642 10.302-1.326 2.778-4.093 4.399-6.977 4.4z" fill="#d8816c"/></g><g><path d="m194.946 147.79c-1.277 0-2.571-.317-3.765-.984-3.11-1.739-6.635-2.658-10.196-2.658h-5.748c-4.268 0-7.726-3.459-7.726-7.726s3.459-7.726 7.726-7.726h5.748c6.196 0 12.33 1.599 17.739 4.624 3.724 2.083 5.054 6.791 2.972 10.515-1.415 2.529-4.043 3.955-6.75 3.955z" fill="#d8816c"/></g></g><g><g><path d="m492.438 148.995v151.777c0 7.984-2.74 15.731-7.757 21.943l-86.494 107.17c-11.178 13.846-15.957 31.781-13.166 49.356l4.644 29.184c.299 1.877-1.152 3.576-3.052 3.576h-86.345c-1.707 0-3.091-1.384-3.091-3.091v-101.401c0-19.79 7.912-38.755 21.964-52.694l91.14-90.367c4.43-4.399 10.209-6.593 15.999-6.593 5.769 0 11.538 2.184 15.968 6.552 4.481 4.43 6.748 10.292 6.758 16.164l5.704-12.479-5.704-25.597v-73.648c0-8.736 3.544-16.648 9.261-22.376 5.732-5.722 13.651-9.267 22.395-9.261 6.503.004 11.776 5.282 11.776 11.785z" fill="#ffdcd0"/></g><path d="m458.947 310.6-24.271 26.414-32.409 35.258c-4.04 4.396-10.879 4.685-15.276.646-4.399-4.041-4.689-10.882-.647-15.28l56.677-61.676c1.277-1.391 2.349-2.905 3.214-4.502 1.854-3.379 2.771-7.129 2.771-10.868 0-.01 0-.01 0-.021v-38.075c3.008 1.793 5.841 3.966 8.437 6.521 17.08 16.852 17.739 43.905 1.504 61.583z" fill="#ffc7b6"/></g><g><g><path d="m19.562 148.995v151.777c0 7.984 2.74 15.731 7.757 21.943l86.494 107.17c11.178 13.846 15.957 31.781 13.166 49.356l-4.644 29.184c-.299 1.877 1.152 3.576 3.052 3.576h86.345c1.707 0 3.091-1.384 3.091-3.091v-101.401c0-19.79-7.912-38.755-21.964-52.694l-91.14-90.367c-4.43-4.399-10.209-6.593-15.999-6.593-5.769 0-11.538 2.184-15.968 6.552-4.481 4.43-6.748 10.292-6.758 16.164l-5.704-12.479 5.704-25.597v-73.648c0-8.736-3.544-16.648-9.261-22.376-5.732-5.722-13.651-9.267-22.395-9.261-6.503.004-11.776 5.282-11.776 11.785z" fill="#ffdcd0"/></g><path d="m53.053 310.6 24.271 26.414 32.409 35.258c4.04 4.396 10.879 4.685 15.276.646 4.399-4.041 4.689-10.882.647-15.28l-56.676-61.677c-1.277-1.391-2.349-2.905-3.214-4.502-1.854-3.379-2.771-7.129-2.771-10.868 0-.01 0-.01 0-.021v-38.075c-3.008 1.793-5.841 3.966-8.437 6.521-17.081 16.853-17.74 43.906-1.505 61.584z" fill="#ffc7b6"/></g><g><path d="m158.99 373.517c0 10.797 1.76 21.183 5.015 30.883 16.639 33.98 48.645 60.934 91.426 60.934 53.577 0 92.567-38.239 92.567-91.816 0-42.78-27.082-72.099-61.113-91.997-9.701-3.255-20.088-5.013-30.885-5.013-53.577-.001-97.01 43.432-97.01 97.009z" fill="#8db9ff"/><path d="m353.012 373.515c0 53.58-43.432 97.012-97.012 97.012-42.783 0-79.097-27.691-91.995-66.127 9.704 3.266 20.099 5.027 30.895 5.027 53.58 0 97.012-43.432 97.012-97.012 0-10.796-1.762-21.191-5.027-30.895 38.436 12.897 66.127 49.211 66.127 91.995z" fill="#70abf2"/><path d="m205.84 355.777h30.36c1.138 0 2.06-.922 2.06-2.06v-30.36c0-1.138.922-2.06 2.06-2.06h31.358c1.138 0 2.06.922 2.06 2.06v30.36c0 1.138.922 2.06 2.06 2.06h5.903l22.664 1.545c1.138 0 2.06.922 2.06 2.06l.654 28.384c0 1.138-.922 2.06-2.06 2.06l-30.751-.102c-1.138 0-2.06.922-2.06 2.06l1.03 29.124c0 1.138-.922 2.06-2.06 2.06l-29.06 1.254c-1.138 0-2.06-.922-2.06-2.06l-1.798-22.945v-5.901c0-1.138-.922-2.06-2.06-2.06h-30.36c-1.138 0-2.06-.922-2.06-2.06v-31.358c0-1.138.922-2.061 2.06-2.061z" fill="#f5f8f9"/><path d="m308.22 357.835v31.359c0 1.143-.927 2.06-2.06 2.06h-30.36c-1.133 0-2.06.927-2.06 2.06v30.359c0 1.143-.927 2.06-2.06 2.06h-31.359c-1.133 0-2.06-.917-2.06-2.06v-24.457c18.76-9.385 34.058-24.683 43.443-43.443h24.456c1.133.002 2.06.929 2.06 2.062z" fill="#e8edf2"/></g></g></svg>