<svg id="Capa_1" enable-background="new 0 0 512 512" height="512" viewBox="0 0 512 512" width="512" xmlns="http://www.w3.org/2000/svg"><g><g><path d="m212.198 23.808c-7.156.337-12.662 6.501-12.662 13.665l2.401 23.806-2.401 10.731v180.928c0 8.84-3.197 17.381-9.001 24.049l-27.517 31.613c-.821.943-2.287.943-3.108 0l-27.517-31.612c-5.804-6.668-9.001-15.209-9.001-24.049v-180.928l-3.918-14.512 3.918-20.025c0-7.164-5.506-13.329-12.662-13.665-7.64-.359-13.947 5.729-13.947 13.289l6.257 15.92-6.257 11.802v188.907c0 14.753 5.335 29.009 15.022 40.137l35.849 41.183c.326.375.506.856.506 1.353v159.482c0 7.164 5.505 13.328 12.661 13.665 7.64.36 8.797-5.728 8.797-13.289v-159.859c0-.497.18-.978.506-1.353l35.269-43.932c9.686-11.128 15.022-25.383 15.022-40.136l-1.22-213.88c0-7.561.643-13.649-6.997-13.29z" fill="#f5f8f9"/><path d="m226.142 37.098v216.626c0 14.752-5.336 29.01-15.02 40.136l-35.85 41.187c-.319.371-.505.855-.505 1.35v159.863c0 7.026-5.45 12.785-12.362 13.258v-179.108c0-1.336.484-2.628 1.362-3.635l34.993-40.127c9.684-11.126 15.02-25.384 15.02-40.136v-166.716c0-5.602-5.186-9.705-10.662-8.523-1.192.257-2.387.503-3.585.738v-34.542c0-7.16 5.512-13.32 12.661-13.66 6.68-.457 14.279 5.468 13.948 13.289z" fill="#e8edf2"/><path d="m123.392 37.469v34.542c-9.004-1.772-17.884-4.172-26.61-7.191v-27.722c0-7.562 6.305-13.65 13.949-13.289 7.16.34 12.661 6.5 12.661 13.66z" fill="#e8edf2"/><path d="m225.012 38.543c-10.377 4.226-29.354 11.102-29.354 11.102-33.415 6.639-68.328 3.458-100.301-9.562-14.841-6.031-21-20.96-14.783-30.399 6.22-9.506 19.431-11.946 30.257-7.614 31.477 12.818 66.677 13.197 98.375 1.138.966-.368 2.145 1.016 3.105.625 10.826-4.331 22.479-1.944 28.7 7.563-1.342 1.711 0 0 0 0 6.218 9.438-1.158 21.116-15.999 27.147z" fill="#e59683"/><path d="m244.757 17.947c0 8.365-6.222 17.678-17.183 22.139-10.384 4.224-21.067 7.417-31.915 9.56 8.19-5.511 13.547-14.608 13.547-24.91v-21.531c.968-.361 1.937-.742 2.895-1.133 10.817-4.337 24.034-1.896 30.256 7.613 1.627 2.462 2.4 5.305 2.4 8.262z" fill="#d8816c"/><path d="m175.526 391.653-13.122.825h-16.529c-2.939 0-5.322-2.383-5.322-5.322v-17.128c0-2.939 2.383-5.322 5.322-5.322h16.529l13.644.827c2.939 0 5.322 2.383 5.322 5.322l-.522 15.476c0 2.939-2.382 5.322-5.322 5.322z" fill="#918291"/><path d="m180.218 491.627h-39.665v-29.847c0-2.939 2.383-5.322 5.322-5.322h16.529l12.492 1.924c2.939 0 5.322 2.383 5.322 5.322z" fill="#918291"/><path d="m188.484 509.562-26.079 2.438h-28.819c-3.788 0-6.859-3.071-6.859-6.859v-14.053c0-3.788 3.071-6.859 6.859-6.859h28.819l26.152 1.968c3.788 0 6.859 3.071 6.859 6.859l-.072 9.646c-.001 3.789-3.072 6.86-6.86 6.86z" fill="#7a6d79"/><path d="m229.338 176.406-15.558 1.479h-121.572c-2.939 0-5.322-2.383-5.322-5.322v-17.128c0-2.939 2.383-5.322 5.322-5.322h121.572l15.79 1.628c2.939 0 5.322 2.383 5.322 5.322l-.232 14.021c0 2.94-2.383 5.322-5.322 5.322z" fill="#e8edf2"/><path d="m182.37 461.779v29.844h-19.965v-35.17h14.649c2.936 0 5.316 2.39 5.316 5.326z" fill="#7a6d79"/><path d="m236.042 155.435v17.132c0 2.936-2.38 5.316-5.326 5.316h-16.936v-27.763h16.936c2.946-.001 5.326 2.379 5.326 5.315z" fill="#d5dee2"/><path d="m182.37 370.031v17.122c0 2.946-2.38 5.326-5.316 5.326h-14.649v-27.774h14.649c2.936 0 5.316 2.38 5.316 5.326z" fill="#7a6d79"/><path d="m196.205 491.087v14.052c0 3.791-3.07 6.861-6.861 6.861h-26.939v-27.774h26.939c3.791 0 6.861 3.07 6.861 6.861z" fill="#685e68"/><path d="m126.461 256.845h-34.048c-3.052 0-5.527-2.474-5.527-5.527v-16.718c0-3.052 2.474-5.527 5.527-5.527h34.049c3.052 0 5.527 2.474 5.527 5.527v16.718c-.001 3.053-2.476 5.527-5.528 5.527z" fill="#e8edf2"/><path d="m196.467 256.845h16.437l15.066-2.571c3.052 0 5.527-2.474 5.527-5.527l-.436-12.798c0-3.052-2.474-5.527-5.527-5.527l-13.754-1.349h-17.313c-3.052 0-5.527 2.474-5.527 5.527v16.718c0 3.053 2.475 5.527 5.527 5.527z" fill="#e8edf2"/><path d="m236.042 234.604v16.709c0 3.06-2.472 5.532-5.522 5.532h-17.616c.577-3.389.876-6.851.876-10.333v-17.441h16.74c3.049.001 5.522 2.473 5.522 5.533z" fill="#d5dee2"/></g><g><path d="m401.271 23.808c-7.156.337-12.662 6.501-12.662 13.665l2.401 23.806-2.401 10.731v180.928c0 8.84-3.197 17.381-9.001 24.049l-27.517 31.613c-.821.943-2.287.943-3.108 0l-27.517-31.612c-5.804-6.668-9.001-15.209-9.001-24.049v-180.928l-3.918-14.512 3.918-20.025c0-7.164-5.506-13.329-12.662-13.665-7.64-.359-13.947 5.729-13.947 13.289l6.257 15.92-6.257 11.802v188.907c0 14.753 5.335 29.009 15.022 40.137l35.849 41.183c.326.375.506.856.506 1.353v159.482c0 7.164 5.505 13.328 12.661 13.665 7.64.36 8.797-5.728 8.797-13.289v-159.859c0-.497.18-.978.506-1.353l35.269-43.932c9.686-11.128 15.022-25.383 15.022-40.136l-1.22-213.88c-.001-7.561.643-13.649-6.997-13.29z" fill="#f5f8f9"/><path d="m415.214 37.098v216.626c0 14.752-5.336 29.01-15.02 40.136l-35.85 41.187c-.319.371-.505.855-.505 1.35v159.863c0 7.026-5.45 12.785-12.362 13.258v-179.108c0-1.336.484-2.628 1.362-3.635l34.993-40.127c9.684-11.126 15.02-25.384 15.02-40.136v-166.716c0-5.602-5.186-9.705-10.662-8.523-1.192.257-2.387.503-3.585.738v-34.542c0-7.16 5.512-13.32 12.661-13.66 6.68-.457 14.28 5.468 13.948 13.289z" fill="#e8edf2"/><path d="m312.464 37.469v34.542c-9.004-1.772-17.884-4.172-26.61-7.191v-27.722c0-7.562 6.305-13.65 13.949-13.289 7.16.34 12.661 6.5 12.661 13.66z" fill="#e8edf2"/><path d="m414.085 38.543c-10.377 4.226-29.354 11.102-29.354 11.102-33.415 6.639-68.328 3.458-100.301-9.562-14.841-6.031-21-20.96-14.783-30.399 6.22-9.506 19.431-11.946 30.257-7.614 31.477 12.818 66.677 13.197 98.375 1.138.966-.368 2.145 1.016 3.105.625 10.826-4.331 22.479-1.944 28.699 7.563-1.342 1.711 0 0 0 0 6.218 9.438-1.157 21.116-15.998 27.147z" fill="#e59683"/><path d="m433.83 17.947c0 8.365-6.222 17.678-17.183 22.139-10.384 4.224-21.067 7.417-31.915 9.56 8.19-5.511 13.547-14.608 13.547-24.91v-21.531c.968-.361 1.937-.742 2.895-1.133 10.817-4.337 24.034-1.896 30.256 7.613 1.627 2.462 2.4 5.305 2.4 8.262z" fill="#d8816c"/><path d="m364.599 391.653-13.122.825h-16.529c-2.939 0-5.322-2.383-5.322-5.322v-17.128c0-2.939 2.383-5.322 5.322-5.322h16.529l13.644.827c2.939 0 5.322 2.383 5.322 5.322l-.522 15.476c0 2.939-2.383 5.322-5.322 5.322z" fill="#918291"/><path d="m369.29 491.627h-39.665v-29.847c0-2.939 2.383-5.322 5.322-5.322h16.529l12.492 1.924c2.939 0 5.322 2.383 5.322 5.322z" fill="#918291"/><path d="m377.557 509.562-26.08 2.438h-28.819c-3.788 0-6.859-3.071-6.859-6.859v-14.053c0-3.788 3.071-6.859 6.859-6.859h28.819l26.152 1.968c3.788 0 6.859 3.071 6.859 6.859l-.072 9.646c0 3.789-3.071 6.86-6.859 6.86z" fill="#7a6d79"/><path d="m418.41 176.406-15.558 1.479h-121.572c-2.939 0-5.322-2.383-5.322-5.322v-17.128c0-2.939 2.383-5.322 5.322-5.322h121.572l15.79 1.628c2.939 0 5.322 2.383 5.322 5.322l-.232 14.021c0 2.94-2.382 5.322-5.322 5.322z" fill="#e8edf2"/><path d="m371.442 461.779v29.844h-19.965v-35.17h14.649c2.936 0 5.316 2.39 5.316 5.326z" fill="#7a6d79"/><path d="m425.114 155.435v17.132c0 2.936-2.38 5.316-5.326 5.316h-16.936v-27.763h16.936c2.946-.001 5.326 2.379 5.326 5.315z" fill="#d5dee2"/><path d="m371.442 370.031v17.122c0 2.946-2.38 5.326-5.316 5.326h-14.649v-27.774h14.649c2.936 0 5.316 2.38 5.316 5.326z" fill="#7a6d79"/><path d="m385.277 491.087v14.052c0 3.791-3.07 6.861-6.861 6.861h-26.939v-27.774h26.939c3.791 0 6.861 3.07 6.861 6.861z" fill="#685e68"/><path d="m315.534 256.845h-34.049c-3.052 0-5.527-2.474-5.527-5.527v-16.718c0-3.052 2.474-5.527 5.527-5.527h34.049c3.052 0 5.527 2.474 5.527 5.527v16.718c-.001 3.053-2.475 5.527-5.527 5.527z" fill="#e8edf2"/><path d="m385.539 256.845h16.437l15.066-2.571c3.052 0 5.527-2.474 5.527-5.527l-.436-12.798c0-3.052-2.474-5.527-5.527-5.527l-13.754-1.349h-17.313c-3.052 0-5.527 2.474-5.527 5.527v16.718c.001 3.053 2.475 5.527 5.527 5.527z" fill="#e8edf2"/><path d="m425.114 234.604v16.709c0 3.06-2.472 5.532-5.522 5.532h-17.616c.577-3.389.876-6.851.876-10.333v-17.441h16.74c3.05.001 5.522 2.473 5.522 5.533z" fill="#d5dee2"/></g></g></svg>