<svg id="Capa_1" enable-background="new 0 0 512 512" height="512" viewBox="0 0 512 512" width="512" xmlns="http://www.w3.org/2000/svg"><g><path d="m444.351 306.063v-9.671c0-12.53-10.158-22.688-22.688-22.688h-277.851l-15.27 11.799 4.973 20.56 122.485 17.347z" fill="#70abf2"/><g><path d="m416.432 196.852c0-4.268-3.459-7.726-7.726-7.726s-7.726 3.459-7.726 7.726v41.623h15.453v-41.623z" fill="#685e68"/><path d="m400.979 238.475v74.475c0 4.268 3.459 7.726 7.726 7.726s7.726-3.459 7.726-7.726v-74.475z" fill="#7a6d79"/></g><g><path d="m341.253 318.174c-4.268 0-7.726-3.805-7.726-8.5v-68.75c0-4.695 3.459-8.5 7.726-8.5 4.268 0 7.726 3.805 7.726 8.5v68.75c0 4.695-3.459 8.5-7.726 8.5z" fill="#7a6d79"/></g><g><path d="m273.801 318.174c-4.268 0-7.726-3.805-7.726-8.5v-68.75c0-4.695 3.459-8.5 7.726-8.5s7.726 3.805 7.726 8.5v68.75c0 4.695-3.459 8.5-7.726 8.5z" fill="#7a6d79"/></g><path d="m172.885 188.867v14.072c0 2.06-1.679 3.74-3.74 3.74h-49.923c-2.06 0-3.729-1.679-3.729-3.74v-14.072c0-3.781.608-7.52 1.803-11.095 1.885-5.645 2.431-11.693 1.659-17.575l6.48-5.151c19.141 0 19.141 10.302 38.271 10.302l5.718 5.151c.319 2.472.876 4.904 1.659 7.273 1.194 3.585 1.802 7.314 1.802 11.095z" fill="#ff7e7b"/><path d="m172.885 127.757v14.083c0 3.781-.608 7.51-1.803 11.095-1.885 5.645-2.431 11.682-1.659 17.565h-5.718c-19.13 0-19.13-10.302-38.271-10.302h-6.48c-.309-2.462-.865-4.893-1.659-7.263-1.195-3.585-1.803-7.314-1.803-11.095v-14.083c0-2.06 1.669-3.729 3.729-3.729h49.923c2.062-.001 3.741 1.668 3.741 3.729z" fill="#f5f8f9"/><path d="m57.616 368.204v48.247c0 4.268 3.459 7.726 7.726 7.726 4.268 0 7.726-3.459 7.726-7.726v-48.247z" fill="#7a6d79"/><path d="m73.068 63.928c0-4.268-3.459-7.726-7.726-7.726-4.268 0-7.726 3.459-7.726 7.726v198.533l15.453 14.858v-213.391z" fill="#918291"/><path d="m57.616 262.461v105.743h15.452v-90.884z" fill="#d5dee2"/><g><path d="m166.323 84.53c0 9.282-5.831 17.214-14.021 20.336v15.628c0 4.275-3.462 7.726-7.726 7.726-4.265 0-7.726-3.451-7.726-7.726v-15.628c-5.79-2.205-10.405-6.82-12.61-12.609h-80.303c-4.265 0-7.726-3.451-7.726-7.726 0-4.265 3.461-7.726 7.726-7.726h86.607c4.275 0 7.726 3.461 7.726 7.726 0 3.482 2.833 6.305 6.305 6.305s6.294-2.823 6.294-6.305c0-4.265 3.462-7.726 7.726-7.726 4.277-.001 7.728 3.46 7.728 7.725z" fill="#7a6d79"/></g><path d="m133.514 306.063-60.446-28.743-28.553-47.27 16.074-3.624c13.646-3.077 27.945.432 38.617 9.476l44.606 37.803z" fill="#8db9ff"/><path d="m450.476 363.968c-4.268 0-7.726 3.459-7.726 7.726v44.757c0 4.268 3.459 7.726 7.726 7.726s7.726-3.459 7.726-7.726v-44.757c0-4.267-3.459-7.726-7.726-7.726z" fill="#7a6d79"/><circle cx="65.342" cy="432.395" fill="#918291" r="23.403"/><circle cx="450.476" cy="432.395" fill="#918291" r="23.403"/><g><path d="m493.49 335.239h-18.614l-111.308 14.738-235.975-11.811c-3.821 0-7.519-1.364-10.425-3.846l-111.542-95.267c-6.74-5.758-7.537-15.889-1.781-22.63 5.758-6.739 15.89-7.535 22.63-1.781l106.171 90.681c.56.478 1.271.741 2.007.741h309.696l48.699 4.742c9.038 0 13.411 2.537 13.236 11.834-.13 6.985-5.807 12.599-12.794 12.599z" fill="#e8edf2"/></g><path d="m450.476 379.522-23.403 3.004h-366.012c-11.82 0-21.401-9.582-21.401-21.401v-17.61c0-2.955 2.395-5.35 5.35-5.35h153.609l8.168-2.684 7.285 2.684h229.122l28.385 3.085.298 16.871c0 11.819-9.581 21.401-21.401 21.401z" fill="#ffde80"/><path d="m512 322.111c0 8.87-7.191 16.05-16.05 16.05h-12.063l-7.726-4.667-7.726 4.667-13.143 7.549-12.096-7.549v-32.1h52.756c8.857-.001 16.048 7.19 16.048 16.05z" fill="#d5dee2"/><path d="m490.075 206.695h-162.739c-5.91 0-10.701-4.791-10.701-10.701v-105.828c0-5.91 4.791-10.701 10.701-10.701h162.739c5.91 0 10.701 4.791 10.701 10.701v105.828c-.001 5.91-4.792 10.701-10.701 10.701z" fill="#8db9ff"/><path d="m500.771 90.165v105.831c0 5.913-4.79 10.704-10.693 10.704h-19.079c1.319-2.266 2.071-4.914 2.071-7.726v-111.786c0-2.812-.752-5.45-2.071-7.726h19.079c5.903 0 10.693 4.79 10.693 10.703z" fill="#70abf2"/><g><path d="m490.074 214.421h-162.738c-10.16 0-18.427-8.267-18.427-18.427v-105.827c0-10.161 8.267-18.428 18.427-18.428h162.738c10.161 0 18.428 8.267 18.428 18.428v105.828c0 10.159-8.267 18.426-18.428 18.426zm-162.738-127.229c-1.64 0-2.974 1.335-2.974 2.975v105.828c0 1.64 1.334 2.974 2.974 2.974h162.738c1.641 0 2.975-1.334 2.975-2.974v-105.828c0-1.64-1.334-2.975-2.975-2.975z" fill="#918291"/></g><g><path d="m508.497 90.165v105.831c0 10.158-8.262 18.43-18.42 18.43h-32.461c8.54 0 15.453-6.923 15.453-15.453h17.008c1.638 0 2.967-1.339 2.967-2.977v-105.831c0-1.638-1.329-2.977-2.967-2.977h-17.008c0-8.53-6.912-15.453-15.453-15.453h32.461c10.158 0 18.42 8.273 18.42 18.43z" fill="#7a6d79"/></g><g><path d="m382.35 171.608c-.245 0-.491-.011-.738-.035-2.977-.285-5.522-2.263-6.534-5.076l-8.708-24.212-3.577 4.869c-1.456 1.981-3.768 3.151-6.226 3.151h-12.212c-4.268 0-7.726-3.459-7.726-7.726 0-4.268 3.459-7.726 7.726-7.726h8.302l9.85-13.405c1.69-2.3 4.506-3.487 7.337-3.07 2.825.41 5.193 2.345 6.16 5.031l8.071 22.444 4.289-7.219c1.392-2.343 3.917-3.78 6.643-3.78h43.026c4.268 0 7.726 3.459 7.726 7.726 0 4.268-3.459 7.726-7.726 7.726h-38.63l-10.41 17.524c-1.403 2.356-3.937 3.778-6.643 3.778z" fill="#e8edf2"/></g><g><path d="m483.886 260.238v77.923h-7.726l-3.708 1.732-4.018-1.732v-77.923c0-7.541-6.14-13.671-13.681-13.671h-227c-7.541 0-13.681 6.13-13.681 13.671v77.923h-15.453v-77.923c0-16.061 13.073-29.123 29.134-29.123h227c16.06 0 29.133 13.062 29.133 29.123z" fill="#918291"/></g><path d="m448.712 121.381-4.29 4.29c-.805.805-2.109.805-2.914 0l-4.29-4.29c-5.595-5.595-14.666-5.595-20.261 0-5.595 5.595-5.595 14.666 0 20.261l24.551 24.551c.805.805 2.109.805 2.914 0l24.551-24.551c5.595-5.595 5.595-14.666 0-20.261-5.596-5.594-14.667-5.594-20.261 0z" fill="#f5f8f9"/><path d="m476.16 338.161v22.963c0 11.816-9.581 21.407-21.407 21.407h-32.966c11.826 0 21.407-9.591 21.407-21.407v-22.963z" fill="#ffce61"/></g></svg>