<svg id="Capa_1" enable-background="new 0 0 512.854 512.854" height="512" viewBox="0 0 512.854 512.854" width="512" xmlns="http://www.w3.org/2000/svg"><g><g><path d="m105.415 45.427c0-20.711 16.791-37.5 37.503-37.5h227.018c20.712 0 37.503 16.789 37.503 37.5v422c0 20.711-16.791 37.5-37.503 37.5h-227.018c-20.712 0-37.503-16.789-37.503-37.5z" fill="#f5f8f9"/><path d="m407.437 45.427v422c0 20.71-16.79 37.5-37.5 37.5h-32c20.71 0 37.5-16.79 37.5-37.5v-422c0-20.71-16.79-37.5-37.5-37.5h32c20.71 0 37.5 16.79 37.5 37.5z" fill="#e8edf2"/><g><path d="m369.936 512.427h-227.018c-24.815 0-45.003-20.187-45.003-45v-422c0-24.813 20.188-45 45.003-45h227.018c24.814 0 45.003 20.187 45.003 45v422c-.001 24.813-20.189 45-45.003 45zm-227.018-497c-16.544 0-30.003 13.458-30.003 30v422c0 16.542 13.459 30 30.003 30h227.018c16.544 0 30.003-13.458 30.003-30v-422c0-16.542-13.459-30-30.003-30h-227.018z" fill="#918291"/></g><g><g><path d="m268.678 45.427h-50.004c-4.142 0-7.5-3.357-7.5-7.5s3.358-7.5 7.5-7.5h50.004c4.143 0 7.5 3.357 7.5 7.5s-3.358 7.5-7.5 7.5z" fill="#d5dee2"/></g><circle cx="294.177" cy="37.927" fill="#d5dee2" r="7.5"/></g></g><g fill="#ffde80"><path d="m505.354 219.117h-41.049c-4.143 0-7.5 3.357-7.5 7.5s3.357 7.5 7.5 7.5h41.049c4.143 0 7.5-3.357 7.5-7.5s-3.358-7.5-7.5-7.5z"/><path d="m464.305 206.784c1.919 0 3.839-.732 5.304-2.196l21.387-21.387c2.929-2.93 2.929-7.678 0-10.607-2.93-2.928-7.678-2.928-10.607 0l-21.387 21.387c-2.929 2.93-2.929 7.678 0 10.607 1.464 1.464 3.384 2.196 5.303 2.196z"/><path d="m469.608 248.647c-2.93-2.929-7.679-2.93-10.606-.001-2.93 2.929-2.93 7.678-.001 10.606l21.387 21.388c1.465 1.465 3.384 2.197 5.304 2.197 1.919 0 3.839-.732 5.303-2.196 2.93-2.929 2.93-7.678.001-10.606z"/><path d="m56.049 226.617c0-4.143-3.358-7.5-7.5-7.5h-41.049c-4.142 0-7.5 3.357-7.5 7.5s3.358 7.5 7.5 7.5h41.049c4.142 0 7.5-3.357 7.5-7.5z"/><path d="m43.246 204.588c1.464 1.464 3.384 2.196 5.303 2.196s3.839-.732 5.303-2.197c2.929-2.929 2.929-7.678 0-10.606l-21.388-21.387c-2.929-2.928-7.678-2.929-10.606.001-2.929 2.929-2.929 7.678 0 10.606z"/><path d="m43.246 248.646-21.388 21.388c-2.929 2.93-2.929 7.678 0 10.607 1.464 1.464 3.384 2.196 5.303 2.196s3.839-.732 5.303-2.196l21.388-21.388c2.929-2.93 2.929-7.678 0-10.607-2.928-2.927-7.677-2.927-10.606 0z"/></g><g><path d="m152.981 229.592c0 15.78 2.572 30.96 7.33 45.137 24.319 49.665 71.098 89.058 133.624 89.058 78.306 0 135.292-55.889 135.292-134.195 0-62.526-39.582-105.377-89.32-134.459-14.178-4.758-29.359-7.327-45.14-7.327-78.306 0-141.786 63.48-141.786 141.786z" fill="#ff7e7b"/><path d="m436.556 229.589c0 78.31-63.479 141.789-141.789 141.789-62.531 0-115.606-40.472-134.456-96.649 14.183 4.773 29.376 7.348 45.155 7.348 78.31 0 141.789-63.479 141.789-141.789 0-15.779-2.575-30.972-7.348-45.155 56.177 18.85 96.649 71.925 96.649 134.456z" fill="#ff6464"/><path d="m221.456 203.665h44.373c1.663 0 3.011-1.348 3.011-3.011v-44.373c0-1.663 1.348-3.011 3.011-3.011h45.832c1.663 0 3.011 1.348 3.011 3.011v44.373c0 1.663 1.348 3.011 3.011 3.011h8.628l33.124 2.257c1.663 0 3.011 1.348 3.011 3.011l.957 41.486c0 1.663-1.348 3.011-3.011 3.011l-44.944-.15c-1.663 0-3.011 1.348-3.011 3.011l1.506 42.566c0 1.663-1.348 3.011-3.011 3.011l-42.473 1.833c-1.663 0-3.011-1.348-3.011-3.011l-2.629-33.535v-8.625c0-1.663-1.348-3.011-3.011-3.011h-44.373c-1.663 0-3.011-1.348-3.011-3.011v-45.832c-.001-1.663 1.347-3.011 3.01-3.011z" fill="#f5f8f9"/><path d="m371.09 206.673v45.833c0 1.671-1.355 3.011-3.011 3.011h-44.372c-1.656 0-3.011 1.355-3.011 3.011v44.372c0 1.671-1.355 3.011-3.011 3.011h-45.833c-1.656 0-3.011-1.34-3.011-3.011v-35.745c27.418-13.717 49.778-36.076 63.494-63.494h35.745c1.655 0 3.01 1.355 3.01 3.012z" fill="#e8edf2"/></g><path d="m166.869 429.385-14.669-11.495-58.456-58.456c-30.991-30.991-30.991-81.237 0-112.228l13.163-13.163 52.171 52.171-23.993 24c-6.893 6.893-3.838 21.501 1.061 29.453.828 1.345 1.826 2.616 2.991 3.781l41.777 41.777c8.059 8.059 21.124 8.059 29.183 0l21.531-21.531 56.226 56.226-13.502 6.641c-30.992 30.991-76.492 33.815-107.483 2.824z" fill="#8db9ff"/><path d="m139.137 314.267c-8.06 8.06-8.06 21.12 0 29.18l-18.66-18.66c-8.06-8.05-8.06-21.12 0-29.18l14.4-14.4 16.369 3.425 2.691 14.845z" fill="#70abf2"/><path d="m281.117 426.657-3.96 3.96c-30.99 30.99-81.24 30.99-112.23 0l-18.66-18.66c31 31 81.24 31 112.23 0l3.57-3.57 15.861 6.316z" fill="#70abf2"/><path d="m150.059 294.044-15.179-12.841-34.761-34.761c-5.666-5.666-5.666-14.852 0-20.517l10.258-10.258c5.666-5.666 14.852-5.666 20.517 0l34.761 34.761 13.52 15.178c5.666 5.666 5.666 14.852 0 20.517l-8.6 7.921c-5.664 5.666-14.85 5.666-20.516 0z" fill="#e8edf2"/><path d="m278.681 419.785-16.616-11.397-34.76-34.76c-5.666-5.666-5.666-14.852 0-20.517l10.258-10.258c5.666-5.666 14.852-5.666 20.517 0l34.765 34.765 12.376 15.177c5.666 5.666 5.666 14.852 0 20.517l-6.024 6.473c-5.665 5.666-14.851 5.666-20.516 0z" fill="#e8edf2"/><g fill="#d5dee2"><path d="m181.507 286.797-10.26 10.26c-4.69 4.69-11.79 5.49-17.31 2.42-1.15-.64-2.23-1.45-3.2-2.42l-15.86-15.85 30.78-30.78 15.85 15.85c5.67 5.67 5.67 14.85 0 20.52z"/><path d="m308.697 413.987-10.26 10.25c-4.7 4.7-11.8 5.5-17.32 2.42-1.15-.64-2.23-1.45-3.2-2.42l-15.85-15.85 7.13-7.13 23.65-23.64 15.85 15.85c5.66 5.66 5.66 14.85 0 20.52z"/></g></g></svg>