<svg id="Capa_1" enable-background="new 0 0 512 512" height="512" viewBox="0 0 512 512" width="512" xmlns="http://www.w3.org/2000/svg"><g><path d="m507.879 173.781c0 16.04-3.41 31.791-9.91 46.245l.031 116.029c.144 3.523.217 7.046.217 10.58 0 17.183-1.731 34.346-5.182 51.2-3.472 16.998-2.524 34.604 2.761 51.128l4.121 12.908c4.628 14.473 8.899 26.662 9.477 41.835.111 2.921-2.234 5.35-5.157 5.35l-16.961 2.944h-55.476c-2.845 0-5.151-2.306-5.151-5.151v-41.269c0-26.125-2.38-49.232-8.447-74.709l-1.695-41.479-10.626-5.137c-1.195 7.592-2.658 15.154-4.378 22.664l-7.654 33.378c-.041.154-.072.309-.113.474-4.935 21.737-5.347 44.267-1.452 66.22l6.902 38.959c.559 3.155-1.868 6.049-5.072 6.049h-276.227c-3.204 0-5.631-2.894-5.072-6.049l6.902-38.959c3.894-21.953 3.482-44.483-1.452-66.22-.041-.165-.072-.319-.113-.474l-7.654-33.378c-1.731-7.541-3.194-15.133-4.389-22.757l-11.745 5.084-.566 41.624c-6.068 25.476-8.448 48.583-8.448 74.709v41.269c0 2.845-2.306 5.151-5.151 5.151h-74.924c-2.923 0-5.268-2.429-5.157-5.35.578-15.173 3.217-30.306 7.845-44.778l4.121-12.908c3.204-10.013 4.811-20.418 4.811-30.844 0-6.789-.68-13.588-2.05-20.284-4.162-20.315-5.82-41.063-4.965-61.78v-96.559l5.948-5.02-5.948-14.532-.01.01c-6.47-14.443-9.87-30.164-9.87-46.173v-29.195c0-28.567 19.45-53.466 47.162-60.389l111.074-27.722c18.347-4.296 32.039-19.635 34.223-38.354l1.589-13.569c.303-2.595 2.502-4.552 5.115-4.552h113.673c2.613 0 4.812 1.957 5.116 4.552l1.589 13.569c2.184 18.718 15.875 34.058 34.223 38.354l101.897 25.432 8.646 3.518c27.712 6.923 43.572 30.595 43.572 59.161z" fill="#ffdcd0"/><path d="m512 173.781c0 16.04-3.41 31.791-9.91 46.245l-6.174 11.126 6.179 8.344.026 96.559c.144 3.523.217 7.046.217 10.58 0 17.183-1.731 34.346-5.182 51.2-3.472 16.998-2.524 34.604 2.761 51.128l4.121 12.908c4.626 14.474 7.263 29.607 7.85 44.782.103 2.915-2.236 5.347-5.161 5.347h-19.45c-.103-16.957-2.792-33.955-7.963-50.129l-4.121-12.908c-5.285-16.524-6.233-34.13-2.761-51.128 3.451-16.854 5.182-34.017 5.182-51.2 0-3.534-.072-7.057-.217-10.58l-.03-113.091c-.001-1.938.421-3.846 1.169-5.634 5.739-13.707 8.74-28.501 8.74-43.549v-37.437c0-23.169-12.795-43.937-32.42-54.641l9.982 2.493c27.712 6.924 47.162 31.823 47.162 60.39z" fill="#ffc7b6"/><path d="m106.109 344.163-11.631 43.752c-.237.989-.464 1.968-.68 2.957l-4.389-19.12c-5.975-26.084-9.014-52.859-9.024-79.602v-73.174c0-5.974 4.843-10.817 10.817-10.817 5.974 0 10.817 4.843 10.817 10.817v73.163c.01 17.41 1.37 34.81 4.09 52.024z" fill="#ffc7b6"/><g><g><path d="m149.072 291.643c-2.558 0-5.061-1.27-6.532-3.59-2.285-3.604-1.216-8.378 2.388-10.662 19.801-12.554 31.622-34.046 31.622-57.491v-64.283c0-4.267 3.459-7.726 7.726-7.726s7.726 3.459 7.726 7.726v64.283c0 28.767-14.505 55.137-38.801 70.541-1.281.814-2.713 1.202-4.129 1.202z" fill="#ffc7b6"/></g><g><path d="m361.897 291.643c-1.415 0-2.847-.388-4.13-1.202-24.296-15.403-38.8-41.774-38.8-70.541v-64.283c0-4.267 3.459-7.726 7.726-7.726s7.726 3.459 7.726 7.726v64.283c0 23.445 11.821 44.937 31.621 57.491 3.605 2.285 4.673 7.059 2.388 10.662-1.469 2.32-3.972 3.59-6.531 3.59z" fill="#ffc7b6"/></g></g><path d="m420.798 208.158c5.974 0 10.817 4.843 10.817 10.817v73.163c-.01 26.754-3.049 53.528-9.024 79.612l-4.389 19.12c-.216-.989-.443-1.968-.68-2.957l-11.651-43.659c2.73-17.245 4.1-34.676 4.11-52.117v-73.163c0-5.973 4.843-10.816 10.817-10.816z" fill="#ffc7b6"/><g><path d="m502.1 239.496c-3.843 3.029-8.999 6.24-13.172 8.754-2.174 1.319-4.739 1.432-6.912.536-1.494-.608-2.802-1.679-3.698-3.163-2.194-3.647-1.02-8.396 2.637-10.601 6.552-3.956 15.592-9.712 21.135-14.997z" fill="#ffb5a5"/></g><g><path d="m9.898 239.496c3.843 3.029 7.871 5.8 12.043 8.314 2.174 1.319 4.739 1.432 6.912.536 1.494-.608 2.802-1.679 3.698-3.163 2.194-3.647 1.02-8.396-2.637-10.601-6.552-3.956-14.464-9.272-20.006-14.556z" fill="#ffc7b6"/></g><g><g><g><path d="m211.752 472.813c-1.922 0-3.846-.712-5.344-2.147l-27.519-26.36c-3.081-2.952-3.187-7.843-.235-10.925 2.951-3.081 7.843-3.187 10.924-.234l27.519 26.36c3.081 2.952 3.187 7.843.235 10.925-1.517 1.583-3.547 2.381-5.58 2.381z" fill="#f5f8f9"/></g><g><path d="m209.716 378.049c-1.922 0-3.846-.712-5.344-2.147l-27.519-26.361c-3.081-2.952-3.187-7.843-.235-10.925 2.952-3.081 7.842-3.187 10.924-.234l27.519 26.361c3.081 2.952 3.187 7.843.235 10.925-1.517 1.583-3.548 2.381-5.58 2.381z" fill="#f5f8f9"/></g><g><path d="m143.479 173.018c-1.922 0-3.846-.712-5.344-2.147l-27.519-26.36c-3.081-2.952-3.187-7.843-.235-10.925 2.951-3.081 7.843-3.187 10.924-.234l27.519 26.36c3.081 2.952 3.187 7.843.235 10.925-1.516 1.583-3.547 2.381-5.58 2.381z" fill="#f5f8f9"/></g><g><path d="m300.249 472.813c-2.033 0-4.063-.798-5.581-2.381-2.952-3.081-2.847-7.973.234-10.925l27.518-26.36c3.083-2.953 7.974-2.846 10.925.234 2.952 3.081 2.847 7.973-.234 10.925l-27.518 26.36c-1.498 1.435-3.423 2.147-5.344 2.147z" fill="#f5f8f9"/></g><g><path d="m302.284 378.049c-2.033 0-4.063-.798-5.58-2.381-2.952-3.081-2.847-7.973.234-10.925l27.519-26.361c3.083-2.953 7.974-2.845 10.925.234 2.952 3.081 2.847 7.973-.234 10.925l-27.519 26.361c-1.499 1.435-3.424 2.147-5.345 2.147z" fill="#f5f8f9"/></g><g><path d="m368.521 173.018c-2.033 0-4.063-.798-5.58-2.381-2.952-3.081-2.847-7.973.234-10.925l35.323-33.837c3.082-2.952 7.975-2.846 10.925.234 2.952 3.081 2.847 7.973-.234 10.925l-35.323 33.837c-1.499 1.435-3.423 2.147-5.345 2.147z" fill="#f5f8f9"/></g><g><path d="m256 297.59c-4.267 0-7.726-3.459-7.726-7.726v-37.998c0-4.268 3.459-7.726 7.726-7.726 4.268 0 7.726 3.459 7.726 7.726v37.998c0 4.267-3.458 7.726-7.726 7.726z" fill="#f5f8f9"/></g><g><path d="m256 155.708c-4.267 0-7.726-3.459-7.726-7.726v-37.999c0-4.268 3.459-7.726 7.726-7.726 4.268 0 7.726 3.459 7.726 7.726v37.999c0 4.267-3.458 7.726-7.726 7.726z" fill="#f5f8f9"/></g></g><g><g><path d="m244.234 303.283c-2.626 0-5.186-1.339-6.634-3.755-2.194-3.66-1.006-8.405 2.654-10.6 9.713-5.824 21.78-5.822 31.493 0 3.66 2.194 4.848 6.94 2.654 10.6-2.195 3.66-6.941 4.845-10.6 2.654-4.812-2.885-10.79-2.885-15.602 0-1.244.746-2.613 1.101-3.965 1.101z" fill="#ffc7b6"/></g><g><path d="m207.239 484.718c-.568 0-1.145-.063-1.723-.195-4.161-.948-6.765-5.089-5.817-9.249 2.515-11.041 10.862-19.755 21.785-22.74 4.115-1.124 8.365 1.299 9.49 5.415s-1.299 8.365-5.415 9.49c-5.411 1.48-9.547 5.797-10.793 11.268-.817 3.582-4.001 6.011-7.527 6.011z" fill="#ffc7b6"/></g><g><path d="m205.203 389.954c-.568 0-1.145-.063-1.723-.195-4.161-.948-6.765-5.089-5.817-9.249 2.515-11.04 10.862-19.755 21.785-22.74 4.118-1.123 8.365 1.299 9.49 5.415s-1.299 8.365-5.415 9.49c-5.412 1.48-9.547 5.797-10.794 11.268-.816 3.581-4.001 6.011-7.526 6.011z" fill="#ffc7b6"/></g><g><path d="m138.966 184.924c-.568 0-1.145-.063-1.723-.195-4.161-.948-6.765-5.089-5.817-9.249 2.515-11.04 10.862-19.754 21.784-22.741 4.118-1.122 8.365 1.299 9.491 5.414 1.126 4.116-1.298 8.365-5.414 9.491-5.412 1.48-9.548 5.798-10.794 11.269-.816 3.581-4.001 6.011-7.527 6.011z" fill="#ffc7b6"/></g><g><path d="m304.762 484.718c-3.526 0-6.71-2.429-7.526-6.012-1.246-5.471-5.382-9.788-10.794-11.268-4.117-1.125-6.541-5.374-5.415-9.49 1.125-4.118 5.376-6.537 9.49-5.415 10.923 2.986 19.271 11.699 21.786 22.74.948 4.16-1.656 8.302-5.817 9.249-.579.133-1.156.196-1.724.196z" fill="#ffc7b6"/></g><g><path d="m306.797 389.954c-3.526 0-6.71-2.43-7.526-6.013-1.245-5.47-5.381-9.787-10.793-11.267-4.117-1.125-6.541-5.374-5.415-9.49 1.125-4.118 5.375-6.539 9.49-5.415 10.924 2.986 19.271 11.7 21.785 22.741.948 4.16-1.657 8.302-5.818 9.248-.578.132-1.155.196-1.723.196z" fill="#ffc7b6"/></g><g><path d="m373.033 184.924c-3.526 0-6.71-2.43-7.526-6.013-1.245-5.47-5.382-9.788-10.794-11.268-4.116-1.126-6.54-5.375-5.414-9.491 1.126-4.117 5.378-6.538 9.491-5.414 10.923 2.988 19.27 11.702 21.784 22.742.948 4.16-1.657 8.302-5.818 9.248-.578.132-1.154.196-1.723.196z" fill="#ffc7b6"/></g><g><path d="m244.234 161.401c-2.626 0-5.186-1.339-6.634-3.755-2.194-3.66-1.006-8.405 2.654-10.6 9.713-5.825 21.78-5.823 31.493 0 3.66 2.194 4.848 6.94 2.654 10.6-2.195 3.66-6.941 4.845-10.6 2.654-4.812-2.885-10.79-2.885-15.602 0-1.244.746-2.613 1.101-3.965 1.101z" fill="#ffc7b6"/></g></g></g><g fill="#ff7e7b"><circle cx="256" cy="236.535" r="16.483"/><circle cx="172.768" cy="427.742" r="16.483"/><circle cx="170.732" cy="332.978" r="16.483"/><circle cx="104.496" cy="127.947" r="16.483"/><circle cx="339.232" cy="427.742" r="16.483"/><circle cx="341.268" cy="332.978" r="16.483"/><circle cx="407.504" cy="127.947" r="16.483"/><circle cx="256" cy="94.653" r="16.483"/></g></g></svg>