<svg id="Capa_1" enable-background="new 0 0 512 512" height="512" viewBox="0 0 512 512" width="512" xmlns="http://www.w3.org/2000/svg"><g><path d="m321.374 403.251 70.198-117.518-9.69-133.092c-7.733-9.673-16.387-22.392-25.254-31.647-2.025-1.651-4.082-3.264-6.181-4.825-.735-.547-1.024-1.507-.704-2.365l8.57-22.982c.386-1.036 1.511-1.549 2.571-1.237 6.631 1.952 13.989-.866 17.479-7.228 3.98-7.254 1.113-16.39-6.053-20.527-5.919-3.417-14.532-8.39-20.451-11.807-7.165-4.137-16.51-2.052-20.803 5.022-3.764 6.203-2.526 13.985 2.48 18.751.8.762.918 1.993.215 2.845l-15.594 18.884c-.584.707-1.561.937-2.402.572-13.565-5.877-28.024-10.075-43.118-12.34-.881-.132-1.578-.809-1.726-1.687l-8.326-49.495c-.211-1.257.757-2.402 2.032-2.402h2.947c8.124 0 15.115-6.244 15.496-14.359.408-8.662-6.496-15.814-15.07-15.814h-42.406c-8.124 0-15.114 6.243-15.497 14.358-.409 8.664 6.496 15.817 15.07 15.817h3.373c1.274 0 2.243 1.145 2.032 2.402l-8.326 49.495c-.148.878-.845 1.555-1.726 1.687-15.094 2.264-29.553 6.463-43.118 12.34-.841.364-1.819.135-2.402-.572l-15.594-18.884c-.704-.852-.586-2.083.215-2.845 5.006-4.767 6.245-12.548 2.48-18.751-4.292-7.073-13.638-9.158-20.803-5.021-5.919 3.417-14.532 8.39-20.451 11.807-7.166 4.137-10.032 13.273-6.053 20.527 3.49 6.361 10.848 9.179 17.479 7.227 1.06-.312 2.185.201 2.571 1.237l8.57 22.982c.32.858.031 1.819-.704 2.365-12.043 8.96-22.894 19.43-32.259 31.144-.555.694-1.488.958-2.321.647l-47.03-17.538c-1.194-.445-1.702-1.857-1.064-2.961l1.687-2.921c4.166-7.216 1.694-16.444-5.522-20.61v-.001c-7.216-4.166-16.444-1.694-20.61 5.523l-21.417 37.095c-1.899 3.289-2.419 6.997-1.739 10.452.812 4.125 3.334 7.891 7.261 10.158 3.495 2.018 7.462 2.479 11.097 1.597 3.87-.938 7.365-3.398 9.513-7.12l1.687-2.921c.637-1.104 2.114-1.37 3.096-.558l38.679 31.94c.686.567.925 1.507.6 2.335-5.39 13.743-9.086 28.336-10.827 43.525-.104.911-.792 1.645-1.696 1.797l-24.157 4.064c-1.058.178-2.11-.469-2.355-1.513-1.567-6.66-7.545-11.619-14.683-11.619-8.333 0-15.088 6.755-15.088 15.088v24.457c0 8.333 6.755 15.088 15.088 15.088 7.139 0 13.116-4.959 14.683-11.619.246-1.044 1.293-1.692 2.35-1.514 5.311.893 19.502 3.281 24.174 4.067.9.151 1.579.881 1.683 1.787 1.74 15.192 5.436 29.787 10.828 43.533.325.829.086 1.768-.6 2.335l-38.679 31.94c-.983.811-2.459.545-3.096-.559l-1.687-2.921c-4.166-7.216-13.394-9.689-20.61-5.522-7.216 4.166-9.689 13.393-5.522 20.61l21.204 36.726c4.062 7.036 12.964 9.968 20.183 6.241 7.707-3.979 10.45-13.534 6.163-20.96l-1.687-2.921c-.637-1.104-.13-2.515 1.064-2.961l47.03-17.538c.833-.311 1.766-.047 2.321.647 9.365 11.714 20.217 22.184 32.259 31.144.416.31.689.752.79 1.233.077.369 4.184 15.006 4.184 15.006z" fill="#86e8d0"/><g fill="#5de1c4"><path d="m474.625 373.008-17.06 29.535c-4.286 7.428-13.928 9.828-21.232 5.151-6.83-4.389-8.746-13.567-4.687-20.604l2.699-4.667-50.716-18.904c-9.89 12.589-21.49 23.776-34.429 33.223l9.828 26.352c7.067-3.132 15.515-.412 19.337 6.552 3.977 7.253 1.102 16.39-6.057 20.521l-20.439 11.806c-7.17 4.131-16.514 2.05-20.81-5.017-4.121-6.789-2.246-15.473 3.997-20.016l-17.884-21.665c-13.969 6.212-28.917 10.621-44.535 12.97-.876.124-1.576.804-1.731 1.679l-8.324 49.5c-.206 1.257.762 2.4 2.029 2.4h3.379c8.571 0 15.473 7.149 15.072 15.813-.381 8.118-7.376 14.361-15.494 14.361h-42.413c-8.571 0-15.473-7.149-15.072-15.813.381-8.118 7.376-14.361 15.494-14.361h2.957c1.267 0 2.236-1.143 2.029-2.4l-8.324-49.5c-.154-.876-.855-1.556-1.731-1.679-15.092-2.266-29.556-6.47-43.113-12.342-.845-.371-1.823-.134-2.411.567l-15.584 18.885c-.711.855-.587 2.091.206 2.843 5.007 4.77 6.253 12.558 2.483 18.76-4.296 7.067-13.64 9.158-20.799 5.017-5.924-3.42-14.536-8.386-20.449-11.806-7.17-4.141-10.034-13.269-6.057-20.531 3.492-6.356 10.848-9.179 17.482-7.222 1.061.309 2.184-.206 2.565-1.236l8.571-22.983c.134-.371.165-.762.093-1.133 7.438.824 14.989 1.247 22.643 1.247 112.691 0 204.048-91.357 204.048-204.048 0-25.827-4.801-50.53-13.557-73.267 9.591 7.819 18.337 16.648 26.074 26.321.556.69 1.494.958 2.328.649l47.028-17.544c1.195-.443 1.7-1.854 1.061-2.957l-1.679-2.926c-1.37-2.38-2.029-4.966-2.029-7.531 0-5.213 2.709-10.281 7.551-13.073 7.211-4.173 16.442-1.7 20.604 5.522l21.417 37.087c4.286 7.428 1.545 16.988-6.16 20.964-7.222 3.729-16.122.793-20.181-6.243l-1.473-2.555c-.639-1.102-2.112-1.37-3.101-.556l-38.673 31.946c-.69.567-.927 1.504-.608 2.328 5.398 13.742 9.086 28.34 10.827 43.525.113.917.793 1.648 1.7 1.803l24.158 4.059c1.061.175 2.112-.464 2.359-1.514.783-3.327 2.668-6.233 5.254-8.303 2.575-2.081 5.851-3.317 9.426-3.317 8.334 0 15.092 6.758 15.092 15.092v24.457c0 4.172-1.69 7.943-4.42 10.673s-6.5 4.42-10.673 4.42c-7.139 0-13.114-4.966-14.68-11.62-.247-1.051-1.298-1.689-2.359-1.514l-24.158 4.059c-.907.154-1.586.886-1.7 1.803-1.793 15.7-5.687 30.761-11.373 44.906l41.712 34.439 2.905-5.027c4.162-7.211 13.392 1.751 20.604 5.924 7.22 4.157 5.325 9.493 1.163 16.715z"/><g><circle cx="378.257" cy="236.861" r="7.726"/><circle cx="347.349" cy="240.982" r="7.726"/><circle cx="260.805" cy="205.953" r="7.726"/><circle cx="250.502" cy="142.075" r="7.726"/><circle cx="271.108" cy="113.227" r="7.726"/><circle cx="229.896" cy="113.227" r="7.726"/><circle cx="116.565" cy="222.437" r="7.726"/><circle cx="107.293" cy="261.588" r="7.726"/><circle cx="221.654" cy="303.83" r="7.726"/><circle cx="190.746" cy="365.647" r="7.726"/><circle cx="208.26" cy="395.525" r="7.726"/><circle cx="275.229" cy="311.042" r="7.726"/><circle cx="137.171" cy="247.164" r="7.726"/></g><g><ellipse cx="185.776" cy="185.429" rx="51.036" ry="40.285" transform="matrix(.806 -.592 .592 .806 -73.742 146.094)"/><ellipse cx="342.939" cy="323.648" rx="40.285" ry="51.036"/><ellipse cx="154.741" cy="309.677" rx="29.402" ry="37.249" transform="matrix(.844 -.537 .537 .844 -142.002 131.384)"/><ellipse cx="257.777" cy="256" rx="27.158" ry="21.437" transform="matrix(.89 -.455 .455 .89 -88.295 145.46)"/><ellipse cx="323.208" cy="179.366" rx="29.243" ry="37.048" transform="matrix(.672 -.741 .741 .672 -26.759 298.356)"/><ellipse cx="246.574" cy="362.697" rx="21.437" ry="27.158" transform="matrix(.5 -.866 .866 .5 -190.818 394.888)"/></g></g><g fill="#0ed2b3"><path d="m215.297 392.345c.443.968.69 2.05.69 3.183 0 4.265-3.461 7.726-7.726 7.726s-7.726-3.461-7.726-7.726c0-.031 0-.072.01-.103 4.986-.855 9.9-1.875 14.752-3.08z"/><path d="m383.227 323.652c0 28.186-18.038 51.035-40.29 51.035-16.813 0-31.214-13.042-37.241-31.565 20.439-19.172 36.922-42.495 48.099-68.641 16.977 6.006 29.432 25.755 29.432 49.171z"/><path d="m272.4 368.496c-.165 2.73-.917 5.367-2.308 7.778-5.069 8.777-17.029 11.672-28.505 7.623 10.756-4.275 21.047-9.436 30.813-15.401z"/></g><g><path d="m305.744 414.942c0 10.802 1.761 21.193 5.017 30.898 16.648 33.997 48.669 60.963 91.471 60.963 53.603 0 92.612-38.258 92.612-91.861 0-42.801-27.095-72.134-61.143-92.042-9.705-3.257-20.098-5.015-30.9-5.015-53.603 0-97.057 43.454-97.057 97.057z" fill="#ff7e7b"/><path d="m499.861 414.94c0 53.606-43.454 97.06-97.06 97.06-42.804 0-79.136-27.705-92.04-66.16 9.709 3.267 20.109 5.03 30.91 5.03 53.606 0 97.06-43.454 97.06-97.06 0-10.802-1.762-21.201-5.03-30.91 38.455 12.904 66.16 49.236 66.16 92.04z" fill="#ff6464"/><path d="m352.617 397.194h30.375c1.138 0 2.061-.923 2.061-2.061v-30.375c0-1.138.923-2.061 2.061-2.061h31.373c1.138 0 2.061.923 2.061 2.061v30.375c0 1.138.923 2.061 2.061 2.061h5.906l22.675 1.545c1.138 0 2.061.923 2.061 2.061l.655 28.398c0 1.138-.923 2.061-2.061 2.061l-30.766-.103c-1.138 0-2.061.923-2.061 2.061l1.031 29.138c0 1.138-.923 2.061-2.061 2.061l-29.074 1.254c-1.138 0-2.061-.923-2.061-2.061l-1.799-22.956v-5.904c0-1.138-.923-2.061-2.061-2.061h-30.375c-1.138 0-2.061-.923-2.061-2.061v-31.373c-.001-1.137.922-2.06 2.06-2.06z" fill="#f5f8f9"/><path d="m455.047 399.253v31.374c0 1.144-.928 2.061-2.061 2.061h-30.374c-1.134 0-2.061.928-2.061 2.061v30.374c0 1.144-.928 2.061-2.061 2.061h-31.374c-1.134 0-2.061-.917-2.061-2.061v-24.468c18.769-9.39 34.074-24.695 43.464-43.464h24.468c1.132.001 2.06.929 2.06 2.062z" fill="#e8edf2"/></g></g></svg>