<svg id="Capa_1" enable-background="new 0 0 512 512" height="512" viewBox="0 0 512 512" width="512" xmlns="http://www.w3.org/2000/svg"><g><g><path d="m137.628 423.851c-20.323 0-36.797-16.475-36.797-36.798 0-2.567.265-5.072.765-7.491-3.301-7.586-6.985-9.428-13.62-8.788-10.627-9.497-17.318-23.304-17.318-38.679 0-15.41 6.721-29.244 17.39-38.743 8.794 1.058 9.763-2.432 13.549-8.725-.5-2.419-.765-4.924-.765-7.491 0-20.323 16.475-36.798 36.797-36.798h98.064v183.513z" fill="#918291"/><g><path d="m88.05 293.354c1.741 5.862 4.698 11.342 8.654 16.03 1.535 1.813 3.719 2.74 5.913 2.74 1.762 0 3.534-.598 4.976-1.823 3.266-2.761 3.667-7.634.917-10.889-3.121-3.698-5.944-10.086-6.913-14.783-4.976 2.204-9.54 5.161-13.547 8.725z" fill="#7a6d79"/></g><g><path d="m87.977 370.772c4.028 3.595 8.612 6.583 13.619 8.787.742-3.616 2.493-8.2 4.533-11.291 2.349-3.564 1.37-8.355-2.194-10.704s-8.355-1.37-10.704 2.194c-2.266 3.443-4.028 7.131-5.254 11.014z" fill="#7a6d79"/></g></g><path d="m371.281 423.851c20.323 0 36.797-16.475 36.797-36.798 0-2.567-.265-5.072-.765-7.491 18.218-8.051 30.939-26.269 30.939-47.467 0-21.199-12.72-39.417-30.939-47.468.5-2.419.765-4.924.765-7.491 0-20.323-16.475-36.798-36.797-36.798h-94.973v183.513z" fill="#918291"/><path d="m410.404 379.56c.504 2.419.762 4.92.762 7.482.004 20.246-17.207 36.805-37.452 36.805h-11.749c11.332-6.274 18.997-18.347 18.997-32.214 0-.151-.001-.301-.003-.452-.053-4.293 2.157-8.239 5.796-10.518 14.639-9.173 24.381-25.437 24.381-43.99 0-18.551-9.741-34.815-24.378-43.981-3.64-2.279-5.852-6.225-5.799-10.52.002-.153.003-.306.003-.46 0-20.315-16.473-36.798-36.798-36.798l-.598-4.574h30.148c20.246 0 37.456 16.559 37.452 36.805 0 2.563-.258 5.064-.762 7.482 3.175 5.115 6.011 9.442 13.55 8.722 10.669 9.499 17.386 23.337 17.386 38.749 0 15.37-6.688 29.179-17.315 38.675-8.992-1.003-10.083 3.142-13.621 8.787z" fill="#7a6d79"/><path d="m423.95 293.354c-1.741 5.862-4.698 11.342-8.654 16.03-1.535 1.813-3.719 2.74-5.913 2.74-1.762 0-3.534-.598-4.976-1.823-3.266-2.761-3.667-7.634-.917-10.889 3.121-3.698 5.944-10.086 6.913-14.783 4.976 2.204 9.54 5.161 13.547 8.725z" fill="#685e68"/><path d="m424.023 370.772c-4.028 3.595-8.612 6.583-13.619 8.787-.742-3.616-2.493-8.2-4.533-11.291-2.349-3.564-1.37-8.355 2.194-10.704s8.355-1.37 10.704 2.194c2.266 3.443 4.028 7.131 5.254 11.014z" fill="#685e68"/><path d="m331.306 410.29-75.306 29.247-62.202-32.409 7.984-1.926c8.932-2.328 15.175-10.395 15.175-19.635v-16.627l5.057-14.609-5.057-39.269h78.088l-4.783 40.045 4.783 13.833v16.627c0 9.241 6.243 17.307 15.175 19.635z" fill="#ffdcd0"/><path d="m442.216 494.384v10.405c0 3.983-3.229 7.211-7.211 7.211h-57.546c-5.839-22.843-1.07-46.455 11.323-64.493l19.85-14.511c20.428 13.093 33.584 35.953 33.584 61.388z" fill="#ff7e7b"/><path d="m134.542 512h-57.546c-3.983 0-7.211-3.229-7.211-7.211v-10.405c0-25.435 13.155-48.295 33.584-61.388l21.59 12.475c12.393 18.038 20.942 43.686 9.583 66.529z" fill="#ff7e7b"/><path d="m408.632 432.995-12.156 17.709c-12.393 18.038-19.017 39.415-19.017 61.296h-113.702l-7.726-5.446-7.726 5.446h-113.763c0-21.881-6.624-43.257-19.017-61.296l-12.156-17.709c7.438-4.77 15.834-8.241 24.92-10.075l65.509-15.793 62.202 32.41 75.306-29.247 52.405 12.63c9.087 1.834 17.483 5.306 24.921 10.075z" fill="#e8edf2"/><path d="m263.757 481.249v30.751h-15.453v-30.751c0-4.265 3.451-7.726 7.726-7.726 4.266 0 7.727 3.461 7.727 7.726z" fill="#d5dee2"/><path d="m380.637 218.028h-261.924v-96.458c0-70.158 69.605-119.066 135.611-95.286 1.083.39 2.269.39 3.353 0 66.005-23.78 122.96 25.128 122.96 95.286z" fill="#918291"/><path d="m393.292 121.572v96.456h-26.702v-74.06c0-34.089-14.958-64.932-38.9-85.999-1.051-.927-2.143-18.399-3.255-32.389 39.075 13.309 68.857 50.107 68.857 95.992z" fill="#7a6d79"/><path d="m353.466 256.576h-194.932c-30.47 0-55.171-24.701-55.171-55.171 0-12.122 9.827-21.948 21.948-21.948h261.377c12.122 0 21.948 9.827 21.948 21.948.001 30.471-24.7 55.171-55.17 55.171z" fill="#ffc7b6"/><path d="m295.044 315.06v53.878c-12.105 5.635-25.394 8.602-39.044 8.602s-26.939-2.967-39.044-8.602v-53.878z" fill="#ffc7b6"/><path d="m256 355.912c17.448 0 34.896-6.395 48.553-19.186l37.285-34.92c6.381-5.976 11.714-12.979 15.779-20.718 5.892-11.218 8.97-23.698 8.97-36.369v-65.261c0-10.584-6.427-20.108-16.242-24.068-22.607-9.122-41.207-26.028-52.439-47.664l-21.08-40.606-20.606-20.606-20.606 20.606-21.489 40.926c-11.257 21.439-29.764 38.182-52.219 47.242l-.251.101c-9.815 3.96-16.242 13.484-16.242 24.068v65.261c0 12.671 3.078 25.152 8.97 36.369 4.065 7.739 9.398 14.743 15.779 20.718l37.285 34.92c13.657 12.791 31.105 19.187 48.553 19.187z" fill="#ffdcd0"/><g><g><g><path d="m256 258.817c-5.526 0-11.051-1.284-16.088-3.85-3.802-1.938-5.313-6.591-3.376-10.392 1.938-3.803 6.591-5.314 10.392-3.376 5.68 2.895 12.464 2.895 18.144 0 3.801-1.938 8.454-.426 10.392 3.376 1.937 3.802.426 8.455-3.376 10.392-5.037 2.566-10.562 3.85-16.088 3.85z" fill="#ffc7b6"/></g><g><path d="m228.886 174.315c-1.259.001-2.534-.308-3.715-.957-8.38-4.608-18.386-4.608-26.767 0-3.74 2.056-8.437.69-10.493-3.048-2.056-3.739-.691-8.438 3.048-10.493 13.042-7.169 28.614-7.169 41.656 0 3.739 2.055 5.104 6.754 3.048 10.493-1.405 2.558-4.05 4.005-6.777 4.005z" fill="#ffc7b6"/></g><g><path d="m317.311 174.315c-1.259.001-2.534-.308-3.715-.957-8.38-4.608-18.386-4.608-26.767 0-3.74 2.056-8.437.69-10.493-3.048-2.056-3.739-.691-8.438 3.048-10.493 13.042-7.169 28.614-7.169 41.656 0 3.739 2.055 5.104 6.754 3.048 10.493-1.406 2.558-4.05 4.005-6.777 4.005z" fill="#ffc7b6"/></g></g><g><g><path d="m256 303.706c-9.082 0-18.165-2.11-26.445-6.328-3.802-1.938-5.314-6.59-3.377-10.391 1.937-3.804 6.589-5.314 10.392-3.377 12.166 6.199 26.693 6.199 38.859 0 3.8-1.938 8.455-.426 10.392 3.377 1.937 3.802.426 8.454-3.377 10.391-8.279 4.219-17.362 6.328-26.444 6.328z" fill="#ffc7b6"/></g></g><g><g><path d="m300.229 219.017c-4.267 0-7.726-3.459-7.726-7.726v-17.884c0-4.268 3.459-7.726 7.726-7.726s7.726 3.459 7.726 7.726v17.884c.001 4.267-3.459 7.726-7.726 7.726z" fill="#ffc7b6"/></g><g><path d="m211.771 219.017c-4.267 0-7.726-3.459-7.726-7.726v-17.884c0-4.268 3.459-7.726 7.726-7.726s7.726 3.459 7.726 7.726v17.884c0 4.267-3.459 7.726-7.726 7.726z" fill="#ffc7b6"/></g></g></g><path d="m290.261 456.038-29.489 31.077c-2.581 2.72-6.914 2.723-9.499.006l-30.546-32.106 35.273-15.483z" fill="#d5dee2"/><path d="m256 439.532-23.6 20.93c-9.779 8.673-24.873 7.182-32.767-3.237l-33.408-44.096c-2.798-3.693-.689-9.037 3.877-9.824l21.261-3.664c1.531-.264 3.105.058 4.409.903z" fill="#f5f8f9"/><path d="m256 439.532 60.227-38.989c1.304-.844 2.878-1.166 4.409-.903l21.261 3.664c4.566.787 6.675 6.131 3.877 9.824l-33.408 44.096c-7.893 10.419-22.987 11.91-32.767 3.237z" fill="#f5f8f9"/><g><path d="m361.048 108.295c-1.229 0-2.476-.295-3.636-.914l-9.524-5.133c-3.763-2.011-5.754-6.956-3.743-10.719 2.011-3.764 3.543-7.009 7.307-4.996l13.244 7.221c3.763 2.011 5.183 6.693 3.172 10.456-1.391 2.602-4.061 4.085-6.82 4.085z" fill="#e8edf2"/></g><g><path d="m151.392 108.295c1.229 0 2.476-.295 3.636-.914l9.466-5.133c3.763-2.011 5.812-6.956 3.801-10.719-2.011-3.764-3.543-7.009-7.307-4.996l-13.244 7.221c-3.763 2.011-5.183 6.693-3.172 10.456 1.391 2.602 4.061 4.085 6.82 4.085z" fill="#e8edf2"/></g><path d="m347.888 102.247c-57.001-31.78-126.393-31.78-183.394 0l-21.958-69.507c-1.205-3.814.696-7.918 4.385-9.465l5.72-2.399c66.267-27.788 140.91-27.838 207.214-.138l5.649 2.36c3.694 1.543 5.601 5.651 4.395 9.469z" fill="#f5f8f9"/><path d="m271.064 31.724h-7.118v-7.119c0-4.268-3.459-7.726-7.726-7.726s-7.726 3.459-7.726 7.726v7.119h-7.119c-4.267 0-7.726 3.459-7.726 7.726s3.459 7.726 7.726 7.726h7.119v7.118c0 4.268 3.459 7.726 7.726 7.726s7.726-3.459 7.726-7.726v-7.118h7.118c4.267 0 7.726-3.459 7.726-7.726s-3.459-7.726-7.726-7.726z" fill="#ff7e7b"/></g></svg>