<svg id="Capa_1" enable-background="new 0 0 512 512" height="512" viewBox="0 0 512 512" width="512" xmlns="http://www.w3.org/2000/svg"><g><path d="m188.664 118.161 4.387 191.719-23.03 110.204-31.987 12.439-32.995-12.439 36.028-276.206c1.928-14.716 14.462-25.717 29.299-25.717z" fill="#70abf2"/><path d="m341.979 420.084-83.022 12.439-88.936-12.439 18.643-301.923h134.662l25.812 167.075z" fill="#619be0"/><path d="m400.799 420.084-20.918 6.995-37.902-6.995-18.653-301.923 17.393 1.545c14.837 0 25.198 13.271 27.127 27.986z" fill="#70abf2"/><path d="m406.961 420.084-13.039 5.848-9.288-5.848-36.028-276.206c-1.746-13.356-12.26-23.931-25.28-25.717h18.308c14.837 0 27.371 11.001 29.299 25.717z" fill="#619be0"/><g><g><path d="m256 91.778c-4.204 0-7.611-3.408-7.611-7.611v-76.556c0-4.203 3.407-7.611 7.611-7.611s7.612 3.408 7.612 7.611v76.556c0 4.204-3.408 7.611-7.612 7.611z" fill="#ffde80"/></g><g><path d="m132.601 112.15c-1.948 0-3.896-.743-5.382-2.229l-18.106-18.107c-2.973-2.973-2.973-7.792 0-10.764 2.973-2.973 7.792-2.973 10.764 0l18.106 18.107c2.973 2.973 2.973 7.792 0 10.764-1.486 1.486-3.435 2.229-5.382 2.229z" fill="#ffde80"/></g><g><path d="m379.399 112.15c-1.948 0-3.896-.743-5.382-2.229-2.973-2.972-2.973-7.792 0-10.764l18.107-18.107c2.972-2.972 7.792-2.972 10.764 0 2.973 2.972 2.973 7.792 0 10.764l-18.107 18.107c-1.486 1.486-3.434 2.229-5.382 2.229z" fill="#ffde80"/></g><g><path d="m210.828 66.985c-3.361 0-6.436-2.243-7.347-5.644l-6.627-24.734c-1.088-4.06 1.322-8.234 5.383-9.322 4.059-1.084 8.234 1.322 9.322 5.383l6.627 24.734c1.088 4.06-1.322 8.234-5.383 9.322-.66.176-1.323.261-1.975.261z" fill="#ffde80"/></g><g><path d="m301.172 66.985c-.653 0-1.315-.085-1.975-.261-4.06-1.088-6.47-5.262-5.383-9.322l6.627-24.734c1.088-4.061 5.268-6.468 9.322-5.383 4.06 1.088 6.47 5.262 5.383 9.322l-6.627 24.734c-.911 3.401-3.987 5.644-7.347 5.644z" fill="#ffde80"/></g><g><path d="m177.811 100.111c-2.63 0-5.189-1.365-6.599-3.807l-29.885-51.762c-2.102-3.641-.855-8.296 2.786-10.397 3.64-2.102 8.295-.855 10.397 2.786l29.885 51.762c2.102 3.641.855 8.296-2.786 10.397-1.198.692-2.506 1.021-3.798 1.021z" fill="#ffde80"/></g><g><path d="m334.189 100.111c-1.291 0-2.6-.329-3.799-1.021-3.641-2.102-4.888-6.757-2.786-10.397l29.885-51.762c2.102-3.641 6.757-4.889 10.397-2.786 3.641 2.102 4.888 6.757 2.786 10.397l-29.885 51.762c-1.409 2.442-3.968 3.807-6.598 3.807z" fill="#ffde80"/></g><g><path d="m113.019 142.92c-1.291 0-2.6-.329-3.799-1.021l-51.762-29.885c-3.641-2.102-4.888-6.757-2.786-10.397s6.756-4.889 10.397-2.786l51.762 29.885c3.641 2.102 4.888 6.757 2.786 10.397-1.409 2.441-3.968 3.807-6.598 3.807z" fill="#ffde80"/></g><g><path d="m398.981 142.92c-2.63 0-5.189-1.365-6.599-3.807-2.102-3.641-.855-8.296 2.786-10.397l51.762-29.885c3.641-2.103 8.295-.855 10.397 2.786s.855 8.296-2.786 10.397l-51.762 29.885c-1.198.692-2.506 1.021-3.798 1.021z" fill="#ffde80"/></g></g><path d="m286.425 188.889c-9.556-3.207-19.789-4.939-30.426-4.939-52.781 0-95.568 42.787-95.568 95.568 0 10.636 1.734 20.868 4.94 30.424 12.706 37.865 48.48 65.144 90.628 65.144 52.783 0 95.57-42.787 95.57-95.57 0-42.147-27.28-77.921-65.144-90.627z" fill="#8db9ff"/><path d="m305.413 262.04-29.908.003c-1.121 0-2.03-.909-2.03-2.03v-29.909c0-1.121-.909-2.03-2.03-2.03h-30.892c-1.121 0-2.03.909-2.03 2.03v29.909c0 1.121-.909 2.03-2.03 2.03h-29.909c-1.121 0-2.03.909-2.03 2.03v30.892c0 1.121.909 2.03 2.03 2.03h29.909c1.121 0 2.03.909 2.03 2.03v29.907c0 1.126.913 2.03 2.03 2.03h30.893c1.116 0 2.03-.903 2.03-2.03v-29.908c0-1.116.913-2.03 2.03-2.03h29.908c1.116 0 2.03-.903 2.03-2.03v-30.894c-.001-1.116-.915-2.03-2.031-2.03z" fill="#e8edf2"/><path d="m427.353 457.295h-26.968l-146.124 5.984-173.091-5.984 8.066-29.761c1.191-4.395 5.179-7.446 9.732-7.446h287.312l24.272 2.601c4.553 0 8.541 3.051 9.732 7.446z" fill="#8db9ff"/><path d="m430.831 457.299-14.462 5.98-15.984-5.98-8.068-29.766c-1.187-4.394-4.555-7.449-7.683-7.449h28.396c4.557 0 8.545 3.055 9.733 7.449z" fill="#70abf2"/><path d="m439.715 510.233-39.33 1.767h-331.697c-5.253 0-9.512-4.259-9.512-9.512v-35.681c0-5.253 4.259-9.512 9.512-9.512h331.697l39.481 2.354c5.253 0 9.512 4.259 9.512 9.512l-.151 31.56c-.001 5.254-4.259 9.512-9.512 9.512z" fill="#e8edf2"/><path d="m452.823 466.808v35.683c0 5.247-4.262 9.509-9.509 9.509h-42.929v-54.701h42.929c5.247 0 9.509 4.252 9.509 9.509z" fill="#d5dee2"/></g></svg>