<svg id="Capa_1" enable-background="new 0 0 512 512" height="512" viewBox="0 0 512 512" width="512" xmlns="http://www.w3.org/2000/svg"><g><path d="m202.487 64.894v-1.807c0-15.298-4.997-30.177-14.23-42.373-1.5-1.982-1.55-4.705-.123-6.74 7.175-10.237 19.546-15.504 31.899-13.583l.057.009c1.562.243 2.955 1.122 3.846 2.427 12.57 18.402 19.294 40.168 19.294 62.453v6.792z" fill="#f25555"/><path d="m295.769 174.008c0 12.222-1.301 24.01-3.71 35.099 0 0-4.225 3.091-4.481 4.159-11.124 46.423-38.148 78.858-74.368 78.858-45.596 0-82.559-52.882-82.559-118.115s36.963-118.117 82.559-118.117 82.559 52.882 82.559 118.116z" fill="#ff7e7b"/><path d="m292.059 209.106c-10.446 48.089-41.795 83.012-78.85 83.012-45.596 0-82.559-52.879-82.559-118.11 0-7.376.474-14.587 1.38-21.593.927-.031 1.865-.041 2.802-.041 20.593 0 40.486 6.109 57.525 17.657l38.292 25.961c9.848 6.676 21.335 10.209 33.234 10.209 9.571 0 19.007.989 28.176 2.905z" fill="#ff6464"/><path d="m282.975 202.449 41.417-41.417c1.22-1.22 2.974-1.744 4.664-1.393 9.461 1.967 16.853 9.359 18.82 18.82.351 1.69-.172 3.443-1.393 4.664l-41.417 41.417z" fill="#ff7e7b"/><path d="m301.026 212.331h58.573c1.726 0 3.336.869 4.282 2.313 5.299 8.081 5.299 18.535 0 26.616-.946 1.443-2.556 2.313-4.282 2.313h-58.573z" fill="#ff7e7b"/><path d="m335.572 230.907c0 31.425-22.357 56.899-53.781 56.899s-56.899-25.475-56.899-56.899 25.475-56.899 56.899-56.899c30.477 0 55.36 23.962 56.832 54.074 0 0-3.051 1.878-3.051 2.825z" fill="#ff6464"/><g fill="#f25555"><path d="m338.695 230.905c0 31.431-25.476 56.897-56.907 56.897-31.421 0-56.897-25.466-56.897-56.897 0-11.981 3.709-23.107 10.034-32.276 8.829 4.965 18.739 7.572 28.958 7.572 26.898 0 52.766 7.84 74.74 21.881.052.938.072 1.875.072 2.823z"/><path d="m43.756 203.374 6.837 6.837c6.007 6.007 12.997 10.944 20.667 14.597 7.67 3.653 14.659 8.59 20.667 14.597l7.47 7.47-31.327 31.325-49.57-49.57c-1.556-1.556-2.082-3.865-1.354-5.942 3.392-9.671 10.997-17.276 20.668-20.668 2.076-.728 4.386-.202 5.942 1.354z"/><path d="m14.453 272.678h9.668c8.495 0 16.928-1.452 24.935-4.292 8.007-2.84 16.44-4.292 24.935-4.292h10.564v44.301h-70.102c-2.2 0-4.205-1.261-5.159-3.244-4.44-9.237-4.44-19.992 0-29.229.954-1.983 2.959-3.244 5.159-3.244z"/></g><path d="m139.934 500.617c1.659-.901 2.692-2.638 2.692-4.526l1.127-416.398c0-4.265-1.735-9.053-5.999-9.053-5.197-1.874-9.98-4.767-15.396-5.387-10.818-1.238-21.853.024-32.228 3.787-4.385 1.59-6.896 6.211-5.981 10.785l2.053 10.265c1.579 7.896 2.916 15.835 4.015 23.804.241 1.749-1.702 2.963-3.177 1.992l-21.738-14.306c-1.624-1.068-3.677-1.229-5.46-.454-9.876 4.292-16.277 14.02-16.313 24.787-.006 1.944.953 3.766 2.577 4.835l24.026 15.811c7.016 4.617 12.713 10.753 16.779 17.814 4.564 7.923 10.336 13.385 10.337 22.809l1.745 212.144c0 16.175-3.101 35.099-7.739 47.349-1.036 9.147-2.368 18.262-3.991 27.331l-4.53 25.311c-.405 2.264.739 4.522 2.805 5.533l1.909.935c10.968 5.371 23.124 7.245 34.908 5.667.002.002 10.963-7.24 17.579-10.835z" fill="#8db9ff"/><path d="m138.335 68.991c-5.202-1.875-10.57-3.121-15.978-3.729v73.815c0 7.835-5.363 14.577-12.948 16.54-7.857 2.033-15.402 4.985-22.497 8.757 4.574 7.922 7.074 17.01 7.074 26.436v207.479c0 16.174-.907 32.327-2.73 48.388 7.095 6.909 14.646 13.323 22.598 19.206 5.337 3.949 8.503 10.177 8.503 16.816v28.755c7.263-.968 14.392-3.255 21.005-6.851 1.659-.896 2.689-2.637 2.689-4.522v-14.392-408.971c0-4.265-3.4-6.407-7.716-7.727z" fill="#70abf2"/><path d="m314.285 126.293c-12.399 0-24.364 4.561-33.617 12.813-16.94 15.109-28.507 35.316-32.958 57.574l-1.374 6.873-6.169 8.161 1.183 16.774-81.663-38.871 17.36-13.68 3.652-12.733 10.579-13.299c29.82-37.486 75.107-59.328 123.007-59.328 2.64 0 5.047 1.513 6.19 3.893 4.243 8.827 4.243 19.104 0 27.931-1.144 2.379-3.55 3.892-6.19 3.892z" fill="#8db9ff"/><path d="m246.34 203.554-4.986 24.93-81.662-38.869 21.005-26.414c4.007 1.999 7.901 4.286 11.662 6.83l38.292 25.961c4.882 3.307 10.156 5.841 15.689 7.562z" fill="#70abf2"/><path d="m218.509 213.9-35.793-24.265-4.701 1.136c-4.109-2.786-10.753-9.974-10.753-9.974-10.177-4.454-21.211-6.789-32.425-6.789-33.728 0-63.914 20.933-75.736 52.521-18.333 48.983-15.56 103.371 7.66 150.235 26.176 52.831 74.395 91.366 131.697 105.249l65.928 15.973 54.8 4.893c3.492.846 6.296 2.618 9.89 2.618 18.631 0 33.929-4.903 40.736-22.246l8.492-21.638c22.402-57.08 14.546-119.667-15.778-172.962-13.273-23.329-32.966-36.893-54.715-52.279-4.207-1.701-8.52-3.16-12.919-4.367-5.86 3.755-9.545 2.592-15.26-3.112-5.178-.701-10.436-1.06-15.747-1.06-16.177-.001-31.984-4.854-45.376-13.933z" fill="#ff7e7b"/><path d="m378.306 461.614-8.489 21.634c-3.4 8.674-9.292 15.865-16.648 20.882-7.366 5.017-16.215 7.871-25.528 7.871-3.595 0-7.17-.433-10.662-1.277l-55.908-13.547c1.154.082 2.318.124 3.482.124 10.755 0 20.954-3.286 29.453-9.086s15.298-14.093 19.223-24.106l9.807-24.972c25.858-65.89 20.542-139.94-14.464-201.452-.247-.443-.505-.876-.762-1.308 5.182 2.091 10.199 4.543 15.01 7.345 17.606 10.24 32.533 25.054 42.958 43.37 30.329 53.29 34.924 117.439 12.528 174.522z" fill="#ff6464"/><g fill="#ff6464"><path d="m175.473 243.947c12.094 19.779 14.711 43.69 7.191 65.612-1.102 3.214-4.1 5.223-7.304 5.223-.834 0-1.679-.134-2.514-.422-4.038-1.38-6.181-5.779-4.801-9.807 5.501-16.019 4.213-33.357-3.41-48.305-3.338 5.563-7.098 10.889-11.291 15.916-17.503 21.026-27.135 47.667-27.135 75.028v1.051c0 4.265-3.461 7.726-7.726 7.726-4.275 0-7.726-3.461-7.726-7.726v-1.051c0-30.967 10.91-61.121 30.72-84.918 8.334-10.003 14.783-21.356 19.151-33.45-17.709 11.497-38.673 17.781-59.833 17.781-4.265 0-7.726-3.461-7.726-7.726s3.461-7.726 7.726-7.726c20.449 0 40.682-6.809 56.969-19.172l8.54-6.49c.639-4.78.958-9.622.958-14.484v-10.209c4.502 1.968 8.839 4.358 12.949 7.139l2.503 1.7v1.37c0 16.844-3.379 33.429-9.787 48.789z"/><path d="m352.788 411.125c-1.525 1.679-3.616 2.534-5.728 2.534-1.844 0-3.709-.659-5.182-1.999l-9.55-8.653c-14.732-13.372-24.333-31.585-27.011-51.303-.876-6.459-2.668-12.754-5.305-18.718l-6.645-14.979c-1.071 7.283-2.72 14.495-4.904 21.521-.072.299-.165.597-.268.886-2.133 6.717-4.749 13.269-7.86 19.584-8.478 17.245-12.96 36.52-12.96 55.743v21.428c0 4.265-3.462 7.726-7.726 7.726-4.265 0-7.726-3.461-7.726-7.726v-21.429c0-21.572 5.027-43.206 14.546-62.563.464-.938.907-1.875 1.339-2.823-20.305 7.458-35.407 24.333-40.527 45.431-.855 3.534-4.018 5.903-7.5 5.903-.608 0-1.226-.072-1.834-.216-4.141-1.01-6.696-5.182-5.687-9.333 6.49-26.733 25.909-48.006 51.942-56.907l10.487-3.585c3.121-11.126 4.749-22.674 4.749-34.212v-68.569c5.244.701 10.405 1.762 15.453 3.142v51.303l19.244 43.412c3.235 7.294 5.419 14.999 6.49 22.901 2.194 16.112 10.034 31.008 22.087 41.928l9.539 8.654c3.164 2.873 3.401 7.756.537 10.919z"/></g><g><path d="m312.013 414.942c0 10.797 1.76 21.183 5.015 30.883 16.639 33.98 48.645 60.934 91.426 60.934 53.577 0 92.567-38.239 92.567-91.816 0-42.78-27.082-72.099-61.113-91.997-9.701-3.255-20.088-5.013-30.885-5.013-53.577-.001-97.01 43.432-97.01 97.009z" fill="#8db9ff"/><path d="m506.035 414.94c0 53.58-43.432 97.012-97.012 97.012-42.783 0-79.097-27.691-91.995-66.127 9.704 3.266 20.099 5.027 30.895 5.027 53.58 0 97.012-43.432 97.012-97.012 0-10.796-1.762-21.191-5.027-30.895 38.436 12.898 66.127 49.212 66.127 91.995z" fill="#70abf2"/><path d="m358.864 397.203h30.36c1.138 0 2.06-.922 2.06-2.06v-30.36c0-1.138.922-2.06 2.06-2.06h31.358c1.138 0 2.06.922 2.06 2.06v30.36c0 1.138.922 2.06 2.06 2.06h5.903l22.664 1.545c1.138 0 2.06.922 2.06 2.06l.654 28.384c0 1.138-.922 2.06-2.06 2.06l-30.751-.102c-1.138 0-2.06.922-2.06 2.06l1.03 29.124c0 1.138-.922 2.06-2.06 2.06l-29.06 1.254c-1.138 0-2.06-.922-2.06-2.06l-1.798-22.945v-5.901c0-1.138-.922-2.06-2.06-2.06h-30.36c-1.138 0-2.06-.922-2.06-2.06v-31.358c-.001-1.139.922-2.061 2.06-2.061z" fill="#f5f8f9"/><path d="m461.243 399.261v31.359c0 1.143-.927 2.06-2.06 2.06h-30.359c-1.133 0-2.06.927-2.06 2.06v30.36c0 1.143-.927 2.06-2.06 2.06h-31.359c-1.133 0-2.06-.917-2.06-2.06v-24.457c18.76-9.385 34.058-24.683 43.443-43.443h24.456c1.132.001 2.059.928 2.059 2.061z" fill="#e8edf2"/></g></g></svg>